<svg width="272" height="60" viewBox="0 0 272 60" fill="none" xmlns="http://www.w3.org/2000/svg">
<path d="M50.8429 15.0972C50.8429 15.0972 50.8173 15.0065 50.8044 14.9676C50.8044 14.9676 50.8044 14.9676 50.8044 14.9547C50.8044 14.9547 50.8044 14.9417 50.8044 14.9288C50.7916 14.9029 50.766 14.8899 50.7531 14.864C50.7275 14.8251 50.7019 14.7863 50.6634 14.7604C50.6377 14.7345 50.6121 14.7215 50.5864 14.7086C50.5864 14.7086 50.5864 14.6956 50.5608 14.6826L25.7869 0.0971503C25.5689 -0.0323834 25.3125 -0.0323834 25.0945 0.0971503L0.333385 14.6826C0.333385 14.6826 0.320562 14.6956 0.307739 14.7086C0.282093 14.7215 0.256448 14.7474 0.230802 14.7604C0.192333 14.7863 0.166687 14.8251 0.141041 14.864C0.128218 14.8899 0.102572 14.9029 0.0897494 14.9288C0.0897494 14.9288 0.0897494 14.9288 0.0897494 14.9417V14.9547C0.0641036 14.9935 0.0641036 15.0324 0.0512806 15.0842C0.0512806 15.136 0.0256348 15.1749 0.0256348 15.2137C0.0256348 15.2267 0.0256348 15.2396 0.0256348 15.2526V44.7085C0.0256348 44.7085 0.0384577 44.7604 0.0384577 44.7863C0.0384577 44.8381 0.0384577 44.8769 0.0641036 44.9288C0.0641036 44.9547 0.0897494 44.9935 0.102572 45.0194C0.102572 45.0453 0.128218 45.0583 0.128218 45.0712C0.141041 45.0972 0.166687 45.1231 0.192333 45.149C0.217979 45.1878 0.256448 45.2137 0.294916 45.2396C0.320562 45.2526 0.333385 45.2785 0.359031 45.2915L25.1201 59.8769C25.1201 59.8769 25.1458 59.8769 25.1586 59.8769C25.2483 59.9288 25.3509 59.9676 25.4663 59.9676C25.5817 59.9676 25.6843 59.9288 25.7741 59.8769C25.7741 59.8769 25.7997 59.8769 25.8125 59.8769L50.5736 45.2915C50.5736 45.2915 50.6121 45.2526 50.6377 45.2396C50.6762 45.2137 50.7147 45.1878 50.7403 45.149C50.766 45.1231 50.7788 45.0972 50.8044 45.0712C50.8044 45.0583 50.8301 45.0324 50.8301 45.0194C50.8429 44.9935 50.8557 44.9676 50.8685 44.9288C50.8814 44.8769 50.8942 44.8381 50.8942 44.7863C50.8942 44.7604 50.907 44.7345 50.907 44.7085V15.2785C50.907 15.2785 50.907 15.2526 50.907 15.2396C50.907 15.1878 50.8942 15.149 50.8814 15.1101L50.8429 15.0972ZM1.35922 16.4832L24.7482 30.3951V58.1153L1.35922 44.3329V16.4832ZM49.5093 44.3329L26.1203 58.1153V30.3951L49.5093 16.4832V44.3329ZM25.4407 1.49611L48.8553 15.2785L25.4407 29.2034L2.02601 15.2785L25.4407 1.49611Z" fill="white"/>
<path d="M33.9551 44.7473L39.6998 41.3924C42.5208 39.7473 44.0211 37.8173 44.0083 36.0168C44.0083 34.7862 43.303 34.3199 42.1105 34.5789C43.0465 33.5556 43.521 32.4805 43.521 31.5219C43.521 29.9546 42.2002 29.5919 39.392 31.237L33.9423 34.4235L33.9679 44.7473H33.9551ZM40.5332 37.6489C40.5332 38.18 40.1614 38.6852 39.392 39.1256L37.3147 40.3302V38.7111L39.3792 37.5064C40.1357 37.066 40.5204 37.1178 40.5204 37.6489H40.5332ZM38.9304 33.9442C39.6998 33.4909 40.0588 33.5556 40.0588 34.0608C40.0588 34.566 39.7126 35.0323 38.9432 35.4857L37.3403 36.4183V34.8898L38.9432 33.9572L38.9304 33.9442Z" fill="white"/>
<path d="M15.8235 39.7862C15.4901 39.9546 15.1182 40.0193 14.6951 39.9805C14.2719 39.9416 13.8744 39.8121 13.5025 39.5919C12.887 39.2292 12.387 38.6981 11.9894 38.0116C11.5919 37.325 11.3868 36.6256 11.3868 35.939C11.3868 35.2525 11.5791 34.7991 11.9766 34.5919C12.3741 34.3846 12.8742 34.4624 13.4897 34.825C13.8872 35.0582 14.2976 35.4339 14.7207 35.939C15.1439 36.4442 15.5029 37.0012 15.8107 37.5971L17.7598 36.4054C17.234 35.5245 16.5801 34.6696 15.785 33.8535C15.0028 33.0375 14.2078 32.4028 13.4384 31.9364C11.8356 30.9779 10.5148 30.6929 9.46332 31.0556C8.42467 31.4183 7.89893 32.3769 7.89893 33.9054C7.89893 35.4468 8.41184 37.0401 9.43768 38.6592C10.4635 40.2784 11.7586 41.5478 13.323 42.4805C14.1052 42.9468 14.9002 43.2318 15.7081 43.3354C16.5159 43.439 17.1955 43.3354 17.7726 43.0504L15.8107 39.7732L15.8235 39.7862Z" fill="white"/>
<path d="M19.4524 17.1178L21.7862 18.6074L24.9278 16.7292L27.6078 18.4261L30.3519 16.781L27.6719 15.0841L30.8135 13.2188L28.4669 11.7292L25.3381 13.6074L22.6581 11.9105L19.914 13.5427L22.594 15.2396L19.4524 17.1178Z" fill="white"/>
<path d="M87.9397 36.6515C86.7728 37.1955 85.6572 37.4675 84.5801 37.4675C82.5412 37.4675 80.8486 36.7421 79.4766 35.2784C78.1045 33.8147 77.4249 32.0012 77.4249 29.825C77.4249 27.6489 78.1045 25.9131 79.4766 24.4624C80.8486 23.0116 82.5541 22.2862 84.5801 22.2862C85.7341 22.2862 86.8882 22.5841 88.0551 23.1929C89.222 23.8017 90.2094 24.6178 91.0428 25.6541L94.8256 21.1333C93.5305 19.7991 91.9533 18.737 90.1068 17.9468C88.2603 17.1567 86.3753 16.7551 84.4647 16.7551C80.5409 16.7551 77.2838 18.0116 74.6551 20.5245C72.0393 23.0375 70.7313 26.1592 70.7313 29.8898C70.7313 33.6204 72.0136 36.8717 74.591 39.4235C77.1556 41.9753 80.387 43.2447 84.2467 43.2447C86.1317 43.2447 88.0295 42.8173 89.9272 41.9494C91.825 41.0815 93.4664 39.9287 94.8641 38.5038L91.0428 34.4235C90.1324 35.3691 89.1066 36.1074 87.9397 36.6515Z" fill="white"/>
<path d="M119.164 26.0297C119.164 23.1411 118.227 20.9002 116.368 19.3328C114.509 17.7655 111.88 16.9753 108.469 16.9753H96.9799V42.9468H103.52V35.6411H108.662L112.483 42.9468H119.907L114.509 34.3717C117.612 32.8173 119.176 30.0323 119.176 26.0297H119.164ZM111.778 29.3717C110.995 30.0841 109.893 30.4468 108.469 30.4468H103.507V22.1696H108.469C109.893 22.1696 110.995 22.5194 111.778 23.2059C112.56 23.8924 112.957 24.9157 112.957 26.2499C112.957 27.5841 112.56 28.6463 111.778 29.3717Z" fill="white"/>
<path d="M133.115 16.9883L122.023 42.9598H128.742L130.614 38.18H141.847L143.681 42.9598H150.657L139.821 16.9883H133.102H133.115ZM132.525 33.1541L136.269 23.5427L139.937 33.1541H132.512H132.525Z" fill="white"/>
<path d="M152.785 42.9468H159.325V33.3872H170.853V28.1929H159.325V22.1826H171.84V16.9883H152.785V42.9468Z" fill="white"/>
<path d="M173.956 22.2862H181.637V42.9468H188.176V22.2862H195.921V16.9494H173.956V22.2862Z" fill="white"/>
<path d="M215.284 29.1903C216.656 28.7888 217.733 28.0893 218.516 27.053C219.298 26.0297 219.695 24.838 219.695 23.4779C219.695 21.496 218.849 19.9287 217.143 18.7499C215.438 17.5712 213.143 16.9883 210.258 16.9883H198.101V42.9598H210.694C213.733 42.9598 216.13 42.3121 217.913 41.0168C219.682 39.7214 220.58 37.9727 220.58 35.7706C220.58 34.0867 220.106 32.6489 219.144 31.4701C218.195 30.2784 216.9 29.5271 215.284 29.2033V29.1903ZM204.603 22.0271H209.886C210.835 22.0271 211.604 22.2603 212.168 22.7266C212.732 23.1929 213.014 23.8406 213.014 24.6567C213.014 25.4727 212.732 26.1592 212.168 26.6385C211.604 27.1178 210.847 27.3639 209.886 27.3639H204.603V22.0271ZM212.771 37.0919C212.078 37.61 211.117 37.8691 209.886 37.8691H204.603V32.1178H209.886C211.104 32.1178 212.066 32.3769 212.771 32.882C213.463 33.3872 213.822 34.0738 213.822 34.9416C213.822 35.8613 213.476 36.5738 212.771 37.0919Z" fill="white"/>
<path d="M245.469 20.5245C242.828 18.0116 239.507 16.7551 235.519 16.7551C231.531 16.7551 228.248 17.9986 225.607 20.4986C222.965 22.9986 221.644 26.1333 221.644 29.9157C221.644 33.6981 222.965 36.8976 225.607 39.4364C228.248 41.9753 231.556 43.2447 235.519 43.2447C239.481 43.2447 242.802 41.9753 245.456 39.4235C248.111 36.8717 249.444 33.7111 249.444 29.9287C249.444 26.1463 248.124 23.0375 245.482 20.5245H245.469ZM240.635 35.4727C239.25 36.9753 237.57 37.7136 235.583 37.7136C233.595 37.7136 231.89 36.9624 230.454 35.4727C229.017 33.9831 228.299 32.1437 228.299 29.9675C228.299 27.7914 229.005 25.9649 230.428 24.5012C231.851 23.0245 233.557 22.2991 235.57 22.2991C237.583 22.2991 239.237 23.0375 240.622 24.5012C242.007 25.9779 242.7 27.7914 242.7 29.9675C242.7 32.1437 242.007 33.9831 240.622 35.4727H240.635Z" fill="white"/>
<path d="M262.78 29.3717L271.269 16.9883H263.588L258.638 24.553L253.676 16.9883H246.072L254.663 29.6696L245.482 42.9468H253.086L258.638 34.6826L264.178 42.9468H272L262.78 29.3717Z" fill="white"/>
</svg>
