<svg width="68" height="80" viewBox="0 0 68 80" fill="none" xmlns="http://www.w3.org/2000/svg">
<path d="M67.6318 20.1295C67.6318 20.1295 67.5977 20.0086 67.5806 19.9568C67.5806 19.9568 67.5806 19.9568 67.5806 19.9396C67.5806 19.9396 67.5806 19.9223 67.5806 19.905C67.5635 19.8705 67.5294 19.8532 67.5124 19.8187C67.4782 19.7668 67.4441 19.715 67.3929 19.6805C67.3588 19.6459 67.3246 19.6287 67.2905 19.6114C67.2905 19.6114 67.2905 19.5941 67.2564 19.5769L34.2852 0.129534C33.9951 -0.0431779 33.6538 -0.0431779 33.3637 0.129534L0.409579 19.5769C0.409579 19.5769 0.392514 19.5941 0.375448 19.6114C0.341316 19.6287 0.307185 19.6632 0.273053 19.6805C0.221856 19.715 0.187724 19.7668 0.153592 19.8187C0.136526 19.8532 0.102395 19.8705 0.0853291 19.905C0.0853291 19.905 0.0853291 19.905 0.0853291 19.9223V19.9396C0.0511974 19.9914 0.0511974 20.0432 0.0341316 20.1123C0.0341316 20.1813 0 20.2332 0 20.285C0 20.3022 0 20.3195 0 20.3368V59.6114C0 59.6114 0.0170658 59.6805 0.0170658 59.715C0.0170658 59.7841 0.0170658 59.8359 0.0511974 59.905C0.0511974 59.9396 0.0853291 59.9914 0.102395 60.0259C0.102395 60.0605 0.136526 60.0777 0.136526 60.095C0.153592 60.1295 0.187724 60.1641 0.221856 60.1986C0.255987 60.2504 0.307185 60.285 0.358382 60.3195C0.392514 60.3368 0.409579 60.3713 0.443711 60.3886L33.3978 79.8359C33.3978 79.8359 33.4319 79.8359 33.449 79.8359C33.5685 79.905 33.705 79.9568 33.8586 79.9568C34.0122 79.9568 34.1487 79.905 34.2681 79.8359C34.2681 79.8359 34.3023 79.8359 34.3193 79.8359L67.2734 60.3886C67.2734 60.3886 67.3246 60.3368 67.3588 60.3195C67.41 60.285 67.4612 60.2504 67.4953 60.1986C67.5294 60.1641 67.5465 60.1295 67.5806 60.095C67.5806 60.0777 67.6147 60.0432 67.6147 60.0259C67.6318 59.9914 67.6489 59.9568 67.6659 59.905C67.683 59.8359 67.7001 59.7841 67.7001 59.715C67.7001 59.6805 67.7171 59.6459 67.7171 59.6114V20.3713C67.7171 20.3713 67.7171 20.3368 67.7171 20.3195C67.7171 20.2504 67.7001 20.1986 67.683 20.1468L67.6318 20.1295ZM1.77484 21.9775L32.9029 40.5268V77.4871L1.77484 59.1105V21.9775ZM65.857 59.1105L34.7289 77.4871V40.5268L65.857 21.9775V59.1105ZM33.8244 1.99482L64.9866 20.3713L33.8244 38.9378L2.66227 20.3713L33.8244 1.99482Z" fill="white"/>
<path d="M45.1562 59.6631L52.8017 55.1899C56.5562 52.9964 58.5529 50.423 58.5358 48.0223C58.5358 46.3816 57.5972 45.7598 56.0101 46.1052C57.2559 44.7408 57.8873 43.3073 57.8873 42.0292C57.8873 39.9394 56.1295 39.4558 52.3921 41.6493L45.1392 45.898L45.1733 59.6631H45.1562ZM53.911 50.1985C53.911 50.9066 53.4161 51.5802 52.3921 52.1674L49.6275 53.7736V51.6147L52.3751 50.0085C53.3819 49.4213 53.8939 49.4904 53.8939 50.1985H53.911ZM51.7778 45.259C52.8017 44.6545 53.2796 44.7408 53.2796 45.4144C53.2796 46.088 52.8188 46.7097 51.7948 47.3142L49.6616 48.5577V46.5197L51.7948 45.2762L51.7778 45.259Z" fill="white"/>
<path d="M21.0252 53.0483C20.5815 53.2728 20.0866 53.3591 19.5234 53.3073C18.9602 53.2555 18.4312 53.0828 17.9363 52.7892C17.1171 52.3056 16.4516 51.5975 15.9225 50.6821C15.3935 49.7667 15.1204 48.8341 15.1204 47.9187C15.1204 47.0034 15.3764 46.3989 15.9054 46.1225C16.4345 45.8462 17.1001 45.9498 17.9192 46.4334C18.4483 46.7443 18.9944 47.2451 19.5575 47.9187C20.1207 48.5923 20.5985 49.335 21.0081 50.1294L23.6021 48.5405C22.9024 47.366 22.0321 46.2261 20.974 45.1381C19.933 44.05 18.8749 43.2037 17.8509 42.5819C15.7177 41.3039 13.9599 40.9239 12.5605 41.4075C11.1782 41.8911 10.4785 43.1692 10.4785 45.2072C10.4785 47.2624 11.1611 49.3868 12.5264 51.5457C13.8917 53.7046 15.6153 55.3971 17.6974 56.6407C18.7384 57.2624 19.7964 57.6424 20.8716 57.7806C21.9467 57.9187 22.8512 57.7806 23.6192 57.4006L21.0081 53.031L21.0252 53.0483Z" fill="white"/>
<path d="M25.8545 22.8237L28.9605 24.8099L33.1416 22.3056L36.7083 24.5681L40.3604 22.3747L36.7937 20.1121L40.9748 17.6251L37.8518 15.6389L33.6877 18.1432L30.1209 15.8807L26.4689 18.0569L30.0356 20.3194L25.8545 22.8237Z" fill="white"/>
</svg>
