<svg width="14" height="20" viewBox="0 0 14 20" fill="none" xmlns="http://www.w3.org/2000/svg">
<path d="M0.0170662 19.4462L7.66255 14.973C11.417 12.7796 13.4137 10.2062 13.3967 7.80548C13.3967 6.16472 12.458 5.54296 10.8709 5.88838C12.1167 4.52396 12.7482 3.09045 12.7482 1.81239C12.7482 -0.277423 10.9904 -0.761014 7.25297 1.43242L0 5.68113L0.0341324 19.4462H0.0170662ZM8.77183 9.98164C8.77183 10.6898 8.27692 11.3633 7.25297 11.9506L4.48831 13.5568V11.3979L7.2359 9.79166C8.24279 9.20444 8.75476 9.27353 8.75476 9.98164H8.77183ZM6.6386 5.0421C7.66255 4.4376 8.14039 4.52396 8.14039 5.19754C8.14039 5.87111 7.67962 6.49287 6.65567 7.09736L4.52244 8.34089V6.30289L6.65567 5.05936L6.6386 5.0421Z" fill="white"/>
</svg>
