<svg width="68" height="80" viewBox="0 0 68 80" fill="none" xmlns="http://www.w3.org/2000/svg">
<path d="M67.6318 20.121C67.6318 20.121 67.5977 20.0001 67.5806 19.9483C67.5806 19.9483 67.5806 19.9483 67.5806 19.931C67.5806 19.931 67.5806 19.9137 67.5806 19.8965C67.5635 19.8619 67.5294 19.8447 67.5124 19.8101C67.4782 19.7583 67.4441 19.7065 67.3929 19.6719C67.3587 19.6374 67.3246 19.6201 67.2905 19.6029C67.2905 19.6029 67.2905 19.5856 67.2564 19.5683L34.2852 0.120989C33.9951 -0.0517228 33.6538 -0.0517228 33.3637 0.120989L0.409579 19.5683C0.409579 19.5683 0.392514 19.5856 0.375448 19.6029C0.341316 19.6201 0.307185 19.6547 0.273053 19.6719C0.221856 19.7065 0.187724 19.7583 0.153592 19.8101C0.136526 19.8447 0.102395 19.8619 0.0853291 19.8965C0.0853291 19.8965 0.0853291 19.8965 0.0853291 19.9137V19.931C0.0511974 19.9828 0.0511974 20.0346 0.0341316 20.1037C0.0341316 20.1728 0 20.2246 0 20.2764C0 20.2937 0 20.311 0 20.3282V59.6029C0 59.6029 0.0170658 59.6719 0.0170658 59.7065C0.0170658 59.7756 0.0170658 59.8274 0.0511974 59.8965C0.0511974 59.931 0.0853291 59.9828 0.102395 60.0174C0.102395 60.0519 0.136526 60.0692 0.136526 60.0865C0.153592 60.121 0.187724 60.1555 0.221856 60.1901C0.255987 60.2419 0.307185 60.2764 0.358382 60.311C0.392514 60.3282 0.409579 60.3628 0.443711 60.3801L33.3978 79.8274C33.3978 79.8274 33.4319 79.8274 33.449 79.8274C33.5685 79.8965 33.705 79.9483 33.8586 79.9483C34.0122 79.9483 34.1487 79.8965 34.2682 79.8274C34.2682 79.8274 34.3023 79.8274 34.3193 79.8274L67.2734 60.3801C67.2734 60.3801 67.3246 60.3282 67.3588 60.311C67.41 60.2764 67.4612 60.2419 67.4953 60.1901C67.5294 60.1555 67.5465 60.121 67.5806 60.0865C67.5806 60.0692 67.6147 60.0346 67.6147 60.0174C67.6318 59.9828 67.6489 59.9483 67.6659 59.8965C67.683 59.8274 67.7001 59.7756 67.7001 59.7065C67.7001 59.6719 67.7171 59.6374 67.7171 59.6029V20.3628C67.7171 20.3628 67.7171 20.3282 67.7171 20.311C67.7171 20.2419 67.7001 20.1901 67.683 20.1383L67.6318 20.121ZM1.77484 21.969L32.9029 40.5182V77.4785L1.77484 59.102V21.969ZM65.857 59.102L34.7289 77.4785V40.5182L65.857 21.969V59.102ZM33.8244 1.98627L64.9866 20.3628L33.8244 38.9293L2.66227 20.3628L33.8244 1.98627Z" fill="white"/>
</svg>
