<svg width="14" height="17" viewBox="0 0 14 17" fill="none" xmlns="http://www.w3.org/2000/svg">
<path d="M10.5467 11.8431C10.103 12.0676 9.60805 12.154 9.04488 12.1022C8.48171 12.0504 7.95267 11.8777 7.45776 11.5841C6.6386 11.1005 5.97303 10.3923 5.44399 9.47697C4.91495 8.5616 4.6419 7.62896 4.6419 6.71358C4.6419 5.79821 4.89789 5.19372 5.42693 4.91739C5.95597 4.64105 6.62154 4.74467 7.44069 5.22826C7.96973 5.53914 8.51584 6.04001 9.07901 6.71358C9.64218 7.38716 10.12 8.12982 10.5296 8.92429L13.1236 7.33535C12.4239 6.16091 11.5536 5.02101 10.4955 3.93293C9.45446 2.84484 8.39638 1.99856 7.37243 1.3768C5.2392 0.0987303 3.48143 -0.281236 2.08203 0.202357C0.699699 0.685949 0 1.96402 0 4.00201C0 6.05728 0.682633 8.18163 2.0479 10.3405C3.41316 12.4994 5.13681 14.192 7.21884 15.4355C8.25985 16.0573 9.31793 16.4372 10.3931 16.5754C11.4682 16.7136 12.3727 16.5754 13.1407 16.1954L10.5296 11.8258L10.5467 11.8431Z" fill="white"/>
</svg>
