<svg overflow="visible" style="display: block;" viewBox="0 0 38 20" fill="none" xmlns="http://www.w3.org/2000/svg">
<path id="Vector" d="M34.2607 6.54413L33.9573 5.43286H32.311C32.3166 5.41883 32.325 5.4048 32.3306 5.39077C32.7492 4.45629 32.7773 3.41518 32.4093 2.46106C31.8446 0.987793 30.4062 0 28.8273 0C28.3581 0 27.8974 0.0841869 27.4563 0.252561C26.4983 0.617371 25.7426 1.33296 25.324 2.27024C25.0234 2.94374 24.925 3.67055 25.029 4.38052C24.8773 4.31318 24.7199 4.25144 24.5626 4.19812C23.8631 3.95959 23.0989 3.83612 22.2926 3.83612C21.3178 3.83612 20.3766 4.01291 19.4945 4.36369C18.8511 4.61905 18.233 4.96703 17.6543 5.4048L17.8285 3.83892H10.3555L10.2599 4.66676C9.68121 4.45629 9.06595 4.34966 8.4254 4.34966H1.58731L0 18.2826H6.06269L6.36611 15.6195H7.48425C8.21189 15.6195 8.92267 15.4848 9.59973 15.2182C9.88629 15.1059 10.1644 14.9712 10.4397 14.8113L10.0436 18.2938H16.1906L16.3929 16.5091C16.9435 17.0366 17.5616 17.4519 18.2387 17.7494C19.0674 18.1114 19.9917 18.2938 20.9862 18.2938C21.3964 18.2938 21.8038 18.2601 22.2027 18.1956L21.2869 20H27.7625L28.7964 17.7803H31.2434L31.7744 20H38L34.2607 6.54413Z" fill="var(--fill-0, #231F20)"/>
</svg>
