<svg overflow="visible" style="display: block;" viewBox="0 0 40.4656 45.0103" fill="none" xmlns="http://www.w3.org/2000/svg">
<g id="Group">
<path id="Vector" d="M5.21311 44.5198C2.61639 44.5198 0.491803 42.4007 0.491803 39.8108V5.19953C0.491803 2.60958 2.61639 0.490522 5.21311 0.490522C6.01967 0.490522 6.8459 0.706352 7.57377 1.11839L37.6328 18.424C39.1082 19.2677 39.9934 20.7981 39.9934 22.5052C39.9934 24.2122 39.1082 25.723 37.6328 26.5863L7.57377 43.8919C6.8459 44.304 6.03934 44.5198 5.21311 44.5198Z" fill="var(--fill-0, #FC5693)"/>
<path id="Vector_2" d="M5.21311 0.981044C5.92131 0.981044 6.62951 1.15763 7.31803 1.55005L37.377 18.8557C40.1902 20.4842 40.1902 24.5261 37.377 26.1546L7.31803 43.4603C6.62951 43.8527 5.92131 44.0293 5.21311 44.0293C3.00984 44.0293 0.983607 42.2634 0.983607 39.8108V5.19953C0.983607 2.74692 3.00984 0.981044 5.21311 0.981044ZM5.21311 0C2.34098 0 0 2.33489 0 5.19953V39.8108C0 42.6754 2.34098 45.0103 5.21311 45.0103C6.11803 45.0103 7.00328 44.7749 7.80984 44.304L37.8689 26.9983C39.5016 26.0565 40.4656 24.3691 40.4656 22.5052C40.4656 20.6412 39.5016 18.9538 37.8689 18.012L7.80984 0.706352C7.00328 0.255072 6.11803 0 5.21311 0Z" fill="var(--fill-0, #FC5693)"/>
</g>
</svg>
