<svg overflow="visible" style="display: block;" viewBox="0 0 120 118" fill="none" xmlns="http://www.w3.org/2000/svg">
<g id="Group">
<path id="Vector" d="M69.8361 117.509C69.718 117.509 69.6 117.47 69.5213 117.392C69.4033 117.294 69.3443 117.156 69.3443 117.019V111.054C69.3443 110.819 69.5213 110.623 69.7377 110.564C94.5836 105.933 112.623 84.2325 112.623 59C112.623 33.7675 94.5836 12.0668 69.7377 7.43632C69.5016 7.39707 69.3443 7.18124 69.3443 6.94579V0.981044C69.3443 0.843698 69.4033 0.706352 69.5213 0.608247C69.6 0.529764 69.718 0.490522 69.8361 0.490522C69.8557 0.490522 69.8951 0.490522 69.9148 0.490522C98.6557 5.29764 119.508 29.9022 119.508 59C119.508 88.0978 98.6557 112.683 69.9148 117.509C69.8951 117.509 69.8557 117.509 69.8361 117.509ZM50.0852 117.509C21.3443 112.683 0.491803 88.0782 0.491803 59C0.491803 29.9218 21.3443 5.31726 50.0852 0.490522C50.1049 0.490522 50.1443 0.490522 50.1639 0.490522C50.282 0.490522 50.4 0.529764 50.4787 0.608247C50.5967 0.706352 50.6557 0.843698 50.6557 0.981044V6.94579C50.6557 7.18124 50.4787 7.37745 50.2623 7.43632C25.4164 12.0668 7.37705 33.7479 7.37705 59C7.37705 84.2521 25.4164 105.933 50.2623 110.564C50.4984 110.603 50.6557 110.819 50.6557 111.054V117.019C50.6557 117.156 50.5967 117.294 50.4787 117.392C50.4 117.47 50.282 117.509 50.1639 117.509C50.1443 117.509 50.1049 117.509 50.0852 117.509Z" fill="var(--fill-0, #E8E8E8)"/>
<path id="Vector_2" d="M69.8361 0.981044C97.7115 5.65082 119.016 29.8826 119.016 59C119.016 88.1174 97.7115 112.349 69.8361 117.019V111.054C94.4459 106.463 113.115 84.8603 113.115 59C113.115 33.1397 94.4459 11.5371 69.8361 6.94579V0.981044ZM50.1639 0.981044V6.94579C25.5541 11.5371 6.88525 33.1397 6.88525 59C6.88525 84.8603 25.5541 106.463 50.1639 111.054V117.019C22.2885 112.349 0.983607 88.1174 0.983607 59C0.983607 29.8826 22.2885 5.65082 50.1639 0.981044ZM69.8361 0C69.6 0 69.3836 0.0784835 69.2066 0.235451C68.9902 0.431659 68.8525 0.686731 68.8525 0.981044V6.94579C68.8525 7.41669 69.1869 7.82873 69.659 7.90722C94.2689 12.4985 112.131 33.9834 112.131 59C112.131 84.0166 94.2689 105.501 69.659 110.093C69.1869 110.171 68.8525 110.583 68.8525 111.054V117.019C68.8525 117.313 68.9705 117.588 69.2066 117.765C69.3836 117.922 69.6197 118 69.8361 118C69.8951 118 69.9541 118 69.9934 118C98.9705 113.154 120 88.3332 120 59.0196C120 29.706 98.9705 4.86598 69.9934 0C69.9344 0 69.8754 0 69.8361 0ZM50.1639 0C50.1639 0 50.0459 0 50.0066 0C21.0295 4.86598 0 29.6668 0 59C0 88.3332 21.0295 113.134 50.0066 117.98C50.0656 117.98 50.1246 117.98 50.1639 117.98C50.4 117.98 50.6164 117.902 50.7934 117.745C51.0098 117.568 51.1475 117.294 51.1475 116.999V111.035C51.1475 110.564 50.8131 110.152 50.341 110.073C25.7311 105.482 7.86885 83.997 7.86885 58.9804C7.86885 33.9638 25.7311 12.4985 50.341 7.90722C50.8131 7.82873 51.1475 7.41669 51.1475 6.94579V0.981044C51.1475 0.686731 51.0295 0.412039 50.7934 0.235451C50.6164 0.0784835 50.3803 0 50.1639 0Z" fill="var(--fill-0, #FC5693)"/>
</g>
</svg>
