<?xml version="1.0" encoding="UTF-8"?>
<svg id="Layer_2" data-name="Layer 2" xmlns="http://www.w3.org/2000/svg" viewBox="0 0 8 8">
  <defs>
    <style>
      .cls-1 {
        fill: #fff;
      }
    </style>
  </defs>
  <g id="Layer_1-2" data-name="Layer 1">
    <path class="cls-1" d="M.59,4.65c-.17,0-.31-.05-.42-.15-.11-.1-.16-.26-.16-.48s.05-.39.16-.49c.11-.1.25-.15.42-.15s.33.05.43.15c.11.1.16.26.16.49s-.05.38-.16.48c-.11.1-.25.15-.43.15ZM.66,7.84l-.5-.5,3.32-3.35L.15.65.65.14l3.34,3.34L7.35.15l.5.5-3.34,3.34,3.32,3.36-.5.5-3.33-3.35L.66,7.84ZM3.95,1.29c-.2,0-.35-.06-.44-.17-.09-.12-.14-.27-.14-.48s.05-.35.14-.46c.09-.12.24-.17.44-.17s.35.06.45.17c.1.12.15.27.15.46s-.05.36-.15.48c-.1.12-.25.17-.45.17ZM3.95,8c-.2,0-.35-.06-.44-.17-.09-.12-.14-.27-.14-.48s.05-.35.14-.46c.09-.12.24-.17.44-.17s.35.06.45.17c.1.12.15.27.15.46s-.05.36-.15.48c-.1.12-.25.17-.45.17ZM7.4,4.65c-.17,0-.31-.05-.42-.15s-.16-.26-.16-.48.05-.39.16-.49c.11-.1.25-.15.42-.15s.33.05.43.15c.11.1.16.26.16.49s-.05.38-.16.48c-.11.1-.25.15-.43.15Z"/>
  </g>
</svg>