<?xml version="1.0" encoding="UTF-8"?>
<svg id="Layer_2" data-name="Layer 2" xmlns="http://www.w3.org/2000/svg" xmlns:xlink="http://www.w3.org/1999/xlink" viewBox="0 0 475.8 589.22">
  <defs>
    <clipPath id="clippath">
      <path d="M468.8,27v543.22c0,6.6-5.4,12-12,12H41c-6.6,0-12-5.4-12-12V101.43c-13.3-9.43-22-24.93-22-42.43C7,30.33,30.32,7,59,7c10.16,0,19.64,2.94,27.66,8h370.14c5.57,0,10.28,3.84,11.62,9,.25.96.38,1.97.38,3Z" fill="none"/>
    </clipPath>
  </defs>
  <g id="Layer_1-2" data-name="Layer 1">
    <g>
      <path d="M41,589.22c-10.48,0-19-8.52-19-19V104.91C8.19,93.74,0,76.73,0,59,0,26.47,26.47,0,59,0c10.41,0,20.63,2.76,29.61,8h368.19c8.65,0,16.22,5.86,18.4,14.24.4,1.54.6,3.14.6,4.76v543.22c0,10.48-8.52,19-19,19H41Z" fill="#1d1d1d"/>
      <path d="M41,585.22c-8.27,0-15-6.73-15-15V102.95c-13.8-10.39-22-26.7-22-43.95C4,28.67,28.67,4,59,4c10.07,0,19.91,2.76,28.51,8h369.29c6.83,0,12.8,4.62,14.52,11.25.32,1.21.48,2.48.48,3.75v543.22c0,8.27-6.73,15-15,15H41Z" fill="#767676"/>
      <path d="M468.8,27v543.22c0,6.6-5.4,12-12,12H41c-6.6,0-12-5.4-12-12V101.43c-13.3-9.43-22-24.93-22-42.43C7,30.33,30.32,7,59,7c10.16,0,19.64,2.94,27.66,8h370.14c5.57,0,10.28,3.84,11.62,9,.25.96.38,1.97.38,3Z" fill="#e8e8e8"/>
      <path d="M470.43,24H83.98c-7.32-5.24-15.93-8-24.98-8-23.71,0-43,19.29-43,43s19.29,43,43,43c9.05,0,17.66-2.76,24.98-8h386.83V27c0-1.03-.13-2.04-.38-3Z" fill="#767676"/>
      <g>
        <g>
          <circle cx="59" cy="59" r="40" fill="#1d1d1d"/>
          <g>
            <polygon points="414.69 27 394.73 91 377.5 91 397.46 27 414.69 27" fill="#1d1d1d"/>
            <polygon points="436.34 27 416.38 91 399.15 91 419.11 27 436.34 27" fill="#1d1d1d"/>
            <polygon points="392.93 27 372.97 91 68.06 91 68.06 27 392.93 27" fill="#1d1d1d"/>
          </g>
        </g>
        <path d="M64,29.43v3.04c12.51,2.34,22,13.35,22,26.53s-9.49,24.19-22,26.53v3.04c14.17-2.38,25-14.73,25-29.57s-10.83-27.19-25-29.57ZM29,59c0,14.84,10.83,27.19,25,29.57v-3.04c-12.51-2.34-22-13.35-22-26.53s9.49-24.19,22-26.53v-3.04c-14.17,2.38-25,14.73-25,29.57Z" fill="#e8e8e8"/>
        <polygon points="75.9 51.13 57.18 72.19 42.09 59.63 47.23 53.46 56.33 61.06 69.89 45.8 75.9 51.13" fill="#fc5693"/>
        <text/>
        <g>
          <path d="M117.46,75.86c0,1.3-.13,2.41-.41,3.34-.27.93-.64,1.69-1.1,2.29-.46.59-1,1.03-1.61,1.31-.61.28-1.25.41-1.93.41s-1.33-.14-1.94-.41c-.61-.28-1.15-.71-1.61-1.31-.46-.59-.83-1.36-1.09-2.29-.26-.93-.4-2.04-.4-3.34s.13-2.41.4-3.33c.26-.92.63-1.68,1.09-2.28.46-.59,1-1.03,1.61-1.31.61-.28,1.26-.42,1.94-.42s1.31.14,1.93.42c.61.28,1.15.72,1.61,1.31.46.59.83,1.35,1.1,2.28.27.92.41,2.03.41,3.33ZM109.18,75.86c0,1.09.08,2.01.24,2.76s.39,1.35.68,1.81c.29.46.63.79,1.03.99.4.2.83.31,1.3.31s.88-.1,1.28-.3.74-.53,1.03-.99c.29-.46.51-1.07.67-1.82s.24-1.68.24-2.78-.08-2.01-.24-2.75-.39-1.34-.67-1.8c-.29-.46-.63-.79-1.03-.99-.4-.2-.82-.31-1.28-.31s-.9.1-1.3.31c-.4.2-.74.53-1.03.99-.29.46-.51,1.06-.68,1.81-.16.75-.24,1.67-.24,2.76ZM121.64,83.2h-1.8v-14.87h1.8v14.87Z" fill="#e8e8e8"/>
          <path d="M127.61,77.14v-1.3c-.58-.02-1.1-.09-1.58-.19-.48-.1-.89-.25-1.23-.45-.34-.2-.61-.45-.8-.76-.19-.31-.29-.67-.29-1.11,0-.48.12-.88.35-1.21.23-.33.56-.59.98-.78.42-.19.92-.33,1.49-.41.58-.08,1.21-.13,1.89-.13s1.32.04,1.9.13c.58.08,1.09.22,1.51.41.43.19.76.45.99.78.23.33.35.73.35,1.21,0,.43-.09.8-.27,1.1-.18.3-.44.55-.77.75-.34.2-.74.35-1.2.45-.46.1-.97.17-1.52.21v1.3h4.81v1.48h-11.05v-1.48h4.45ZM123.26,68.55h4.27v-1.08h1.8v1.08h4.28v1.48h-10.35v-1.48ZM125.81,79.69v2.39h11.57v1.48h-13.37v-3.87h1.8ZM128.42,72.28c-.9,0-1.61.07-2.13.22-.52.14-.78.43-.78.85s.26.68.78.83c.52.14,1.23.22,2.13.22s1.62-.07,2.15-.22c.53-.14.8-.42.8-.83,0-.2-.07-.38-.22-.51-.14-.14-.35-.25-.61-.32s-.58-.14-.94-.17c-.36-.04-.76-.05-1.19-.05ZM137.21,73.99v6.34h-1.8v-11.99h1.8v4.18h2.11v1.48h-2.11Z" fill="#e8e8e8"/>
          <path d="M143.96,74.74h14.49v1.48h-14.49v-1.48ZM144.84,68.5h12.73v1.48h-2.5v2.11h2.5v1.48h-12.73v-1.48h2.48v-2.11h-2.48v-1.48ZM155.76,79.71v-.92h-10.93v-1.48h12.73v3.87h-10.93v.9h11.11v1.48h-12.91v-3.85h10.93ZM149.12,72.08h4.14v-2.11h-4.14v2.11Z" fill="#e8e8e8"/>
          <path d="M160.3,70.17v-1.48h7.18v7.96h-5.38v4.9h5.56v1.48h-7.36v-7.85h5.38v-5h-5.38ZM169.89,83.2v-7.27l-1.8.61v-1.4l1.8-.61v-6.19h1.8v14.87h-1.8ZM175.35,83.2h-1.8v-14.87h1.8v14.87Z" fill="#e8e8e8"/>
          <path d="M186.85,75.86c0,1.3-.13,2.41-.41,3.34-.27.93-.64,1.69-1.1,2.29-.46.59-1,1.03-1.61,1.31-.61.28-1.25.41-1.93.41s-1.33-.14-1.94-.41c-.61-.28-1.15-.71-1.61-1.31-.46-.59-.83-1.36-1.09-2.29-.26-.93-.4-2.04-.4-3.34s.13-2.41.4-3.33c.26-.92.63-1.68,1.09-2.28.46-.59,1-1.03,1.61-1.31.61-.28,1.26-.42,1.94-.42s1.31.14,1.93.42c.61.28,1.15.72,1.61,1.31.46.59.83,1.35,1.1,2.28.27.92.41,2.03.41,3.33ZM178.57,75.86c0,1.09.08,2.01.24,2.76s.39,1.35.68,1.81c.29.46.63.79,1.03.99.4.2.83.31,1.3.31s.88-.1,1.28-.3.74-.53,1.03-.99c.29-.46.51-1.07.67-1.82s.24-1.68.24-2.78-.08-2.01-.24-2.75-.39-1.34-.67-1.8c-.29-.46-.63-.79-1.03-.99-.4-.2-.82-.31-1.28-.31s-.9.1-1.3.31c-.4.2-.74.53-1.03.99-.29.46-.51,1.06-.68,1.81-.16.75-.24,1.67-.24,2.76ZM191.02,83.2h-1.8v-14.87h1.8v14.87Z" fill="#e8e8e8"/>
          <path d="M196.39,69.2h4.32v13.99h-1.8v-12.51h-2.52v-1.48Z" fill="#e8e8e8"/>
          <path d="M208.45,74.98c0,.5-.02.98-.07,1.42-.05.44-.13.87-.23,1.28l5.04,3.8-.92,1.37-4.75-3.56c-.42.78-1,1.47-1.73,2.08-.73.61-1.67,1.14-2.83,1.61l-.83-1.44c.83-.36,1.53-.73,2.1-1.11s1.04-.82,1.39-1.31c.36-.5.62-1.08.77-1.75s.23-1.47.23-2.4v-6.48h1.82v6.5ZM216.49,83.2h-1.8v-14.87h1.8v14.87Z" fill="#e8e8e8"/>
          <path d="M225.53,77.17v-7.18h-6.82v-1.48h8.62v8.66h-1.8ZM221.26,78.61v3.47h10.8v1.48h-12.6v-4.95h1.8ZM231.88,73.09v5.81h-1.8v-10.57h1.8v3.28h2.11v1.48h-2.11Z" fill="#e8e8e8"/>
          <path d="M248.57,68.52v1.48h-7.72v3.91h7.9v1.48h-9.7v-6.86h9.52ZM250.42,79.33v-1.28h-10.62v-1.48h12.42v4.23h-10.62v1.28h10.8v1.48h-12.6v-4.23h10.62ZM252.22,72.55v3.04h-1.8v-7.25h1.8v2.74h2.11v1.48h-2.11Z" fill="#e8e8e8"/>
          <path d="M261.01,70.95c0,.56-.08,1.11-.25,1.64l4.54,2.84-.95,1.24-4.27-2.72c-.46.64-1.06,1.17-1.8,1.6-.74.43-1.6.79-2.56,1.06l-.79-1.31c.61-.16,1.18-.35,1.69-.59.52-.24.97-.54,1.35-.89s.68-.77.9-1.23c.22-.47.32-1.02.32-1.66v-2.63h1.82v2.65ZM262.77,83.92c-1.04,0-1.99-.07-2.83-.2-.85-.13-1.56-.33-2.15-.59-.59-.26-1.04-.6-1.36-1-.32-.4-.48-.87-.48-1.41s.16-1.01.48-1.41c.32-.4.77-.73,1.36-.99.59-.26,1.3-.45,2.15-.58.85-.13,1.79-.2,2.83-.2s1.99.07,2.83.2c.85.13,1.56.33,2.15.58.59.26,1.04.59,1.36.99.32.4.48.87.48,1.41s-.16,1.01-.48,1.41c-.32.4-.77.73-1.36,1-.59.26-1.3.46-2.15.59-.85.13-1.79.2-2.83.2ZM262.77,82.45c.77,0,1.46-.04,2.08-.11.62-.07,1.15-.18,1.58-.32.44-.14.77-.32,1.01-.54.23-.22.35-.47.35-.76s-.12-.54-.35-.75c-.23-.21-.57-.39-1.01-.53-.44-.14-.97-.25-1.58-.32-.62-.07-1.31-.11-2.08-.11s-1.46.04-2.08.11c-.62.07-1.15.18-1.58.32-.44.14-.77.32-1.01.53-.23.21-.35.46-.35.75s.12.54.35.76c.23.22.57.4,1.01.54.44.14.97.25,1.58.32.62.07,1.31.11,2.08.11ZM269.23,68.34v8.93h-1.8v-4.7l-3.73.86v-1.48l3.73-.85v-2.77h1.8Z" fill="#e8e8e8"/>
          <path d="M280.99,74.98c0,.5-.02.98-.07,1.42-.05.44-.13.87-.23,1.28l5.04,3.8-.92,1.37-4.75-3.56c-.42.78-1,1.47-1.73,2.08-.73.61-1.67,1.14-2.83,1.61l-.83-1.44c.83-.36,1.53-.73,2.1-1.11s1.04-.82,1.39-1.31c.36-.5.62-1.08.77-1.75s.23-1.47.23-2.4v-6.48h1.82v6.5ZM289.03,83.2h-1.8v-14.87h1.8v14.87Z" fill="#e8e8e8"/>
          <path d="M294.88,81.73h6.34v-3.15h-5.45v-9.88h1.8v3.58h9.13v-3.58h1.8v9.88h-5.47v3.15h6.35v1.48h-14.49v-1.48ZM306.69,73.75h-9.13v3.35h9.13v-3.35Z" fill="#e8e8e8"/>
          <path d="M316.72,70.95c0,.56-.08,1.11-.25,1.64l4.54,2.84-.95,1.24-4.27-2.72c-.46.64-1.06,1.17-1.8,1.6-.74.43-1.6.79-2.56,1.06l-.79-1.31c.61-.16,1.18-.35,1.69-.59.52-.24.97-.54,1.35-.89s.68-.77.9-1.23c.22-.47.32-1.02.32-1.66v-2.63h1.82v2.65ZM318.21,83.92c-1.01,0-1.91-.07-2.72-.2-.8-.13-1.49-.33-2.06-.59-.57-.26-1.01-.6-1.31-1-.31-.4-.46-.87-.46-1.41s.15-1.01.46-1.41c.31-.4.74-.73,1.31-.99.57-.26,1.26-.45,2.06-.58.8-.13,1.71-.2,2.72-.2s1.91.07,2.72.2c.8.13,1.49.33,2.06.58.57.26,1.01.59,1.31.99.31.4.46.87.46,1.41s-.15,1.01-.46,1.41c-.31.4-.74.73-1.31,1-.57.26-1.26.46-2.06.59-.8.13-1.71.2-2.72.2ZM318.21,82.45c.72,0,1.37-.04,1.95-.11.58-.07,1.08-.18,1.49-.32.41-.14.73-.32.96-.54.23-.22.34-.47.34-.76s-.11-.54-.34-.75c-.23-.21-.55-.39-.96-.53s-.91-.25-1.49-.32c-.58-.07-1.23-.11-1.95-.11s-1.37.04-1.96.11c-.59.07-1.09.18-1.5.32s-.73.32-.95.53c-.22.21-.33.46-.33.75s.11.54.33.76c.22.22.54.4.95.54.41.14.92.25,1.5.32.59.07,1.24.11,1.96.11ZM324.4,72.91v4.18h-1.8v-8.75h1.8v3.1h2.11v1.48h-2.11Z" fill="#e8e8e8"/>
          <path d="M331.33,68.7h10.17v1.48h-4.27v4.81c0,.5-.02.98-.07,1.42-.05.44-.13.87-.23,1.28l5.04,3.8-.92,1.37-4.75-3.56c-.42.78-1,1.47-1.73,2.08-.73.61-1.67,1.14-2.83,1.61l-.83-1.44c.83-.36,1.53-.73,2.1-1.11s1.04-.82,1.39-1.31c.36-.5.62-1.08.77-1.75s.23-1.47.23-2.4v-4.79h-4.09v-1.48ZM345.28,83.2h-1.8v-14.87h1.8v14.87Z" fill="#e8e8e8"/>
          <path d="M347.26,74.56h14.49v1.48h-14.49v-1.48ZM349.94,78.92h9.13v-1.82h1.8v6.46h-12.73v-6.46h1.8v1.82ZM358.89,73.63v-3.64h-10.57v-1.48h12.37v5.11h-1.8ZM359.07,82.09v-1.69h-9.13v1.69h9.13Z" fill="#e8e8e8"/>
        </g>
        <g>
          <path d="M114.86,47.27h6.56v-5.95c0-.52-.09-.87-.27-1.05-.18-.18-.53-.27-1.05-.27h-3.94c-.52,0-.87.09-1.05.27-.18.18-.27.53-.27,1.05v2.69h-7.11v-3.54c0-.68.04-1.26.12-1.75.08-.49.24-.89.49-1.21.25-.29.62-.51,1.12-.65.5-.14,1.16-.2,1.97-.2h13.46c.82,0,1.47.07,1.96.2.49.14.86.35,1.1.65.25.32.41.72.48,1.21.07.49.1,1.07.1,1.75v5.75c0,1.31-.42,2.18-1.26,2.58.41.23.75.53,1.04.92.28.39.42.9.42,1.53v6.7c0,.68-.03,1.26-.1,1.75-.07.49-.23.89-.48,1.21-.27.29-.65.51-1.14.65-.49.14-1.14.2-1.96.2h-14.01c-.82,0-1.47-.07-1.96-.2-.49-.14-.86-.35-1.11-.65-.27-.32-.44-.72-.51-1.21s-.1-1.07-.1-1.75v-3.54h7.11v2.69c0,.52.09.87.27,1.05.18.18.53.27,1.05.27h4.49c.52,0,.87-.09,1.05-.27.18-.18.27-.53.27-1.05v-6.49h-6.77v-3.33Z" fill="#fc5693"/>
          <path d="M150.83,45.09c0,.73-.04,1.35-.12,1.87-.08.52-.25.94-.53,1.26-.27.32-.67.55-1.21.7-.53.15-1.24.22-2.12.22h-10.85c-.88,0-1.59-.07-2.12-.22-.53-.15-.93-.38-1.21-.7-.27-.32-.45-.74-.53-1.26-.08-.52-.12-1.14-.12-1.87v-5.54c0-.73.04-1.34.12-1.85.08-.51.26-.93.53-1.26.27-.33.67-.57,1.21-.71.53-.15,1.24-.22,2.12-.22h10.85c.88,0,1.59.07,2.12.22.53.15.94.39,1.21.71.27.33.45.75.53,1.26.08.51.12,1.13.12,1.85v5.54ZM162.26,62.87h-26.49l-3.74-3.42v-4.47h22.78v-1.12h-22.78v-3.33h29.89v7.79h-22.78v1.22h23.12v3.33ZM138.8,44.96c0,.32.05.54.15.66.1.12.31.19.63.19h3.71c.32,0,.53-.06.63-.19.1-.12.15-.35.15-.66v-5.27c0-.32-.05-.54-.15-.66-.1-.12-.31-.19-.63-.19h-3.71c-.32,0-.53.06-.63.19-.1.12-.15.35-.15.66v5.27ZM154.81,35.16h7.11v13.97h-7.11v-13.97Z" fill="#fc5693"/>
          <path d="M165.96,38.9h5.95v-4.42h7.11v4.42h5.88v3.33h-5.88v15.27l2.24,2.04h3.6v3.33h-7.45l-1.97-2.21-1.94,2.21h-7.48v-3.33h3.64l2.24-2.04v-15.27h-5.95v-3.33ZM187.11,35.16h7.11v10.95h3.13v3.33h-3.13v13.43h-7.11v-27.71Z" fill="#fc5693"/>
        </g>
      </g>
      <g clip-path="url(#clippath)">
        <g>
          <path d="M476.49,76.37c1.44-.57,2.93-.01,3.49,1.1.64,1.29.3,3.04-1.01,3.71s-3.03.3-3.71-1.01c-.64-1.25-.37-3.16,1.24-3.79Z" fill="#767676"/>
          <path d="M469.5,48.4c1.44-.59,2.93,0,3.5,1.11.67,1.3.3,3.04-1.02,3.73-1.3.68-3.03.3-3.73-1.02-.66-1.26-.37-3.16,1.25-3.82Z" fill="#767676"/>
          <path d="M476.49,48.41c1.44-.57,2.93-.01,3.49,1.1.65,1.29.31,3.04-1.02,3.72s-3.03.3-3.71-1.02c-.64-1.25-.37-3.16,1.24-3.8Z" fill="#767676"/>
          <path d="M455.53,55.4c1.44-.57,2.93-.01,3.49,1.1.65,1.29.31,3.04-1.02,3.72s-3.03.3-3.71-1.02c-.64-1.25-.37-3.16,1.24-3.8Z" fill="#767676"/>
          <path d="M462.51,55.35c1.46-.61,2.95.01,3.54,1.13.7,1.32.3,3.06-1.04,3.77s-3.05.3-3.77-1.04-.37-3.18,1.27-3.86Z" fill="#767676"/>
          <path d="M469.49,55.33c1.46-.63,2.95.02,3.56,1.14.73,1.34.3,3.06-1.05,3.8s-3.05.3-3.8-1.05-.37-3.18,1.29-3.89Z" fill="#767676"/>
          <path d="M476.48,55.35c1.46-.61,2.95.01,3.54,1.13.7,1.32.3,3.06-1.04,3.77s-3.05.3-3.77-1.04c-.69-1.27-.37-3.18,1.27-3.86Z" fill="#767676"/>
          <path d="M455.53,62.37c1.44-.59,2.93,0,3.5,1.11.67,1.3.3,3.04-1.02,3.73s-3.03.3-3.73-1.02c-.66-1.26-.37-3.16,1.25-3.82Z" fill="#767676"/>
          <path d="M462.51,62.32c1.46-.63,2.95.02,3.56,1.14.73,1.34.3,3.06-1.05,3.8s-3.05.3-3.8-1.05c-.71-1.28-.37-3.18,1.29-3.89Z" fill="#767676"/>
          <path d="M469.25,62.41c1.65-.91,3.24-.06,3.83,1.03.74,1.38.29,3.12-1.06,3.86-1.19.65-2.68.39-3.56-.64-.92-1.09-1.02-3.24.8-4.24Z" fill="#767676"/>
          <path d="M476.26,62.46c1.62-.89,3.19-.06,3.77,1.01.72,1.35.29,3.07-1.05,3.79-1.17.63-2.64.39-3.5-.63s-1-3.19.78-4.16Z" fill="#767676"/>
          <path d="M462.51,48.41c1.44-.57,2.93-.01,3.49,1.1.65,1.29.31,3.04-1.02,3.72s-3.03.3-3.71-1.02c-.64-1.25-.37-3.16,1.24-3.8Z" fill="#767676"/>
          <path d="M455.53,69.37c1.44-.57,2.93-.01,3.49,1.1.65,1.29.31,3.04-1.02,3.72s-3.03.3-3.71-1.02c-.64-1.25-.37-3.16,1.24-3.8Z" fill="#767676"/>
          <path d="M462.51,69.33c1.46-.61,2.95.01,3.54,1.13.7,1.32.3,3.06-1.04,3.77s-3.05.3-3.77-1.04-.37-3.18,1.27-3.86Z" fill="#767676"/>
          <path d="M469.27,69.44c1.62-.89,3.19-.06,3.77,1.01.72,1.35.29,3.07-1.05,3.79-1.17.63-2.64.39-3.5-.63s-1-3.19.78-4.16Z" fill="#767676"/>
          <path d="M476.49,69.33c1.45-.61,2.94.01,3.53,1.13.69,1.32.3,3.05-1.03,3.76s-3.04.3-3.76-1.04-.37-3.17,1.27-3.85Z" fill="#767676"/>
          <path d="M462.52,76.37c1.44-.57,2.93-.01,3.49,1.1.64,1.29.3,3.04-1.01,3.71s-3.03.3-3.71-1.01c-.64-1.25-.37-3.16,1.24-3.79Z" fill="#767676"/>
          <path d="M469.5,76.35c1.44-.58,2.93,0,3.5,1.11.66,1.3.3,3.04-1.02,3.72-1.29.67-3.03.3-3.72-1.02-.66-1.25-.37-3.16,1.25-3.81Z" fill="#767676"/>
          <path d="M477.14,35.13c1.4-.29,2.55.65,2.89,1.75.41,1.33-.37,2.72-1.7,3.13s-2.72-.38-3.13-1.7.34-2.85,1.94-3.18Z" fill="#767676"/>
          <path d="M470.15,35.12c1.4-.29,2.56.65,2.9,1.75.41,1.33-.38,2.73-1.71,3.14s-2.72-.38-3.14-1.71.34-2.85,1.95-3.19Z" fill="#767676"/>
          <path d="M463.17,35.13c1.4-.29,2.55.65,2.89,1.75.41,1.33-.37,2.72-1.7,3.13s-2.72-.38-3.13-1.7.34-2.85,1.94-3.18Z" fill="#767676"/>
          <path d="M455.96,35.23c1.57-.5,2.77.61,3.08,1.66.4,1.32-.38,2.69-1.69,3.1-1.14.36-2.33-.19-2.91-1.24-.63-1.13-.29-2.94,1.51-3.51Z" fill="#767676"/>
          <path d="M449.89,42.11c1.4-.29,2.55.65,2.89,1.75.41,1.33-.37,2.72-1.7,3.13s-2.72-.38-3.13-1.7.34-2.85,1.94-3.18Z" fill="#767676"/>
          <path d="M456.17,42.08c1.42-.29,2.59.66,2.93,1.77.41,1.34-.38,2.76-1.72,3.18s-2.75-.38-3.17-1.73c-.41-1.29.34-2.88,1.97-3.22Z" fill="#767676"/>
          <path d="M463.15,42.05c1.44-.3,2.62.67,2.97,1.79.42,1.36-.38,2.8-1.74,3.22s-2.79-.38-3.22-1.74.34-2.92,1.99-3.27Z" fill="#767676"/>
          <path d="M470.13,42.04c1.45-.3,2.63.66,2.98,1.79.42,1.37-.37,2.81-1.74,3.23s-2.8-.37-3.23-1.74c-.41-1.32.33-2.93,1.99-3.28Z" fill="#767676"/>
          <path d="M477.13,42.05c1.43-.3,2.61.67,2.96,1.78.42,1.36-.38,2.79-1.73,3.21s-2.78-.38-3.21-1.74.34-2.91,1.98-3.26Z" fill="#767676"/>
          <path d="M442.69,48.5c1.57-.5,2.77.61,3.08,1.66.4,1.32-.38,2.69-1.69,3.1-1.14.36-2.33-.19-2.91-1.24-.63-1.13-.29-2.94,1.51-3.51Z" fill="#767676"/>
          <path d="M449.89,48.37c1.42-.29,2.59.66,2.93,1.77.41,1.34-.38,2.76-1.72,3.18s-2.75-.38-3.17-1.73c-.41-1.29.34-2.88,1.97-3.22Z" fill="#767676"/>
          <path d="M456.16,48.32c1.45-.3,2.64.66,2.99,1.79.42,1.37-.38,2.82-1.74,3.24s-2.81-.38-3.24-1.75.34-2.94,2-3.29Z" fill="#767676"/>
          <path d="M442.91,55.39c1.4-.29,2.55.65,2.89,1.75.41,1.33-.37,2.72-1.7,3.13s-2.72-.38-3.13-1.7.34-2.85,1.94-3.18Z" fill="#767676"/>
          <path d="M449.88,55.32c1.44-.3,2.62.67,2.97,1.79.42,1.36-.38,2.8-1.74,3.22s-2.79-.38-3.22-1.74.34-2.92,1.99-3.27Z" fill="#767676"/>
          <path d="M442.91,62.36c1.4-.29,2.56.65,2.9,1.75.41,1.33-.38,2.73-1.71,3.14s-2.72-.38-3.14-1.71.34-2.85,1.95-3.19Z" fill="#767676"/>
          <path d="M449.87,62.3c1.45-.3,2.63.66,2.98,1.79.42,1.37-.37,2.81-1.74,3.23s-2.8-.37-3.23-1.74.33-2.93,1.99-3.28Z" fill="#767676"/>
          <path d="M442.91,69.36c1.4-.29,2.55.65,2.89,1.75.41,1.33-.37,2.72-1.7,3.13s-2.72-.38-3.13-1.7.34-2.85,1.94-3.18Z" fill="#767676"/>
          <path d="M449.88,69.3c1.43-.3,2.61.67,2.96,1.78.42,1.36-.38,2.79-1.73,3.21s-2.78-.38-3.21-1.74.34-2.91,1.98-3.26Z" fill="#767676"/>
          <path d="M442.69,76.45c1.57-.5,2.77.61,3.08,1.66.4,1.32-.38,2.69-1.69,3.1-1.14.36-2.33-.19-2.91-1.24-.63-1.13-.29-2.94,1.51-3.51Z" fill="#767676"/>
          <path d="M449.89,76.31c1.42-.29,2.59.66,2.93,1.77.41,1.34-.38,2.76-1.72,3.18s-2.75-.38-3.17-1.73.34-2.88,1.97-3.22Z" fill="#767676"/>
          <path d="M456.16,76.28c1.45-.3,2.63.66,2.98,1.79.42,1.37-.37,2.81-1.74,3.23s-2.8-.37-3.23-1.74.33-2.93,1.99-3.28Z" fill="#767676"/>
          <path d="M476.92,90.41c1.57-.5,2.77.62,3.09,1.66.4,1.32-.38,2.7-1.7,3.11-1.14.36-2.33-.2-2.92-1.25-.63-1.13-.29-2.95,1.52-3.53Z" fill="#767676"/>
          <path d="M470.16,90.33c1.39-.29,2.54.65,2.88,1.75.41,1.32-.38,2.71-1.7,3.12s-2.7-.38-3.12-1.7.35-2.83,1.94-3.16Z" fill="#767676"/>
          <path d="M462.95,90.41c1.57-.5,2.77.62,3.09,1.66.4,1.32-.38,2.7-1.7,3.11-1.14.36-2.33-.2-2.92-1.25-.63-1.13-.29-2.95,1.52-3.53Z" fill="#767676"/>
          <path d="M449.68,83.42c1.57-.5,2.77.62,3.09,1.66.4,1.32-.38,2.7-1.7,3.11-1.14.36-2.33-.2-2.92-1.25-.63-1.13-.29-2.95,1.52-3.53Z" fill="#767676"/>
          <path d="M456.17,83.31c1.42-.29,2.58.65,2.92,1.76.41,1.34-.37,2.75-1.71,3.17s-2.75-.38-3.17-1.72.34-2.88,1.96-3.21Z" fill="#767676"/>
          <path d="M463.15,83.29c1.43-.3,2.61.66,2.95,1.77.41,1.36-.37,2.78-1.73,3.2s-2.77-.37-3.2-1.73c-.41-1.3.34-2.91,1.97-3.24Z" fill="#767676"/>
          <path d="M470.14,83.28c1.43-.3,2.61.67,2.96,1.78.42,1.36-.38,2.79-1.73,3.21s-2.78-.38-3.21-1.74c-.41-1.31.34-2.91,1.98-3.26Z" fill="#767676"/>
          <path d="M477.13,83.29c1.43-.3,2.61.66,2.95,1.77.41,1.36-.37,2.78-1.73,3.2s-2.77-.37-3.2-1.73.34-2.91,1.97-3.24Z" fill="#767676"/>
          <path d="M435,35.83c1.2-.95,2.6-.42,3.17.32.75.97.61,2.47-.35,3.21-.82.64-2,.63-2.85,0-.89-.66-1.35-2.44.04-3.54Z" fill="#767676"/>
          <path d="M414.15,84.2c1.09-.85,2.41-.38,2.91.29.65.87.54,2.29-.33,2.95-.73.55-1.85.54-2.61,0-.81-.58-1.21-2.27.03-3.24Z" fill="#767676"/>
          <path d="M428.03,84.06c1.18-.93,2.59-.42,3.14.31.72.96.59,2.46-.35,3.19-.81.63-2,.62-2.83,0s-1.31-2.44.04-3.5Z" fill="#767676"/>
          <path d="M434.98,84.01c1.23-.98,2.63-.42,3.22.34.78,1,.62,2.49-.36,3.27-.85.66-2.02.66-2.89,0s-1.39-2.47.04-3.6Z" fill="#767676"/>
          <path d="M441.91,83.95c1.27-1,2.76-.43,3.34.34.79,1.04.63,2.62-.37,3.4-.87.68-2.12.66-3.01,0-.93-.7-1.41-2.59.04-3.74Z" fill="#767676"/>
          <path d="M434.94,76.97c1.26-.99,2.73-.43,3.32.34.78,1.02.63,2.6-.37,3.37-.87.67-2.11.66-2.99,0s-1.4-2.57.04-3.71Z" fill="#767676"/>
          <path d="M428.02,77.06c1.2-.95,2.6-.42,3.17.32.75.97.61,2.47-.35,3.21-.82.64-2,.63-2.85,0-.89-.66-1.35-2.44.04-3.54Z" fill="#767676"/>
          <path d="M421.06,77.11c1.15-.9,2.57-.41,3.1.3.69.93.57,2.45-.34,3.15-.79.6-1.99.59-2.79,0s-1.27-2.42.03-3.45Z" fill="#767676"/>
          <path d="M414.14,77.19c1.1-.86,2.43-.38,2.94.29.67.89.55,2.3-.34,2.98-.75.57-1.86.56-2.63,0-.82-.6-1.24-2.28.03-3.27Z" fill="#767676"/>
          <path d="M421.12,91.15c1.12-.87,2.44-.37,2.96.3.71.92.56,2.3-.35,3-.77.6-1.85.59-2.64,0-.84-.62-1.29-2.28.02-3.3Z" fill="#767676"/>
          <path d="M476.22,105c1.2-.95,2.61-.41,3.18.32.75.99.59,2.48-.35,3.23-.83.66-2.02.65-2.86,0s-1.34-2.46.04-3.56Z" fill="#767676"/>
          <path d="M428.04,91.08c1.15-.9,2.57-.41,3.1.3.69.93.57,2.45-.34,3.15-.79.6-1.99.59-2.79,0s-1.27-2.42.03-3.45Z" fill="#767676"/>
          <path d="M435,91.04c1.19-.94,2.6-.42,3.16.32.74.97.6,2.47-.35,3.21-.82.63-2.01.62-2.85,0-.88-.65-1.33-2.45.04-3.53Z" fill="#767676"/>
          <path d="M441.97,90.99c1.24-.98,2.63-.42,3.22.34.79,1.01.63,2.49-.37,3.27-.85.67-2.02.66-2.89,0-.92-.7-1.4-2.47.04-3.61Z" fill="#767676"/>
          <path d="M434.93,69.97c1.27-1,2.76-.43,3.34.34.79,1.04.63,2.62-.37,3.4-.87.68-2.12.66-3.01,0-.93-.7-1.41-2.59.04-3.74Z" fill="#767676"/>
          <path d="M428.01,70.06c1.21-.96,2.62-.41,3.19.33.76.99.6,2.48-.36,3.24-.83.66-2.02.65-2.87,0-.89-.68-1.36-2.46.04-3.57Z" fill="#767676"/>
          <path d="M421.05,70.1c1.18-.93,2.58-.41,3.12.31.72.95.59,2.45-.35,3.17-.8.62-1.98.6-2.81,0-.87-.64-1.31-2.42.03-3.48Z" fill="#767676"/>
          <path d="M414.13,70.19c1.12-.87,2.45-.38,2.98.3.71.91.56,2.31-.35,3.01-.77.59-1.86.58-2.66,0-.84-.62-1.29-2.29.02-3.31Z" fill="#767676"/>
          <path d="M448.9,90.93c1.27-1,2.76-.43,3.34.34.79,1.04.63,2.62-.37,3.4-.87.68-2.12.66-3.01,0-.93-.7-1.41-2.59.04-3.74Z" fill="#767676"/>
          <path d="M455.17,90.9c1.3-1.02,2.79-.43,3.39.35.81,1.06.64,2.65-.38,3.45-.89.7-2.15.68-3.06,0-.96-.72-1.45-2.62.04-3.8Z" fill="#767676"/>
          <path d="M435.12,112.16c1.08-.84,2.41-.39,2.9.28.63.86.54,2.28-.33,2.93-.72.54-1.85.53-2.59,0-.8-.57-1.2-2.26.02-3.21Z" fill="#767676"/>
          <path d="M442.08,112.11c1.12-.87,2.44-.37,2.96.3.71.92.56,2.3-.35,3-.77.6-1.85.59-2.64,0-.84-.62-1.29-2.28.02-3.3Z" fill="#767676"/>
          <path d="M449.02,112.08c1.12-.87,2.55-.41,3.05.28.66.9.55,2.43-.33,3.1-.77.59-1.97.57-2.75,0s-1.23-2.4.03-3.38Z" fill="#767676"/>
          <path d="M434.92,62.98c1.28-1.01,2.76-.43,3.36.34.79,1.04.63,2.63-.38,3.41-.88.68-2.13.67-3.02,0-.94-.7-1.42-2.6.04-3.75Z" fill="#767676"/>
          <path d="M428.01,63.06c1.21-.96,2.62-.41,3.19.33.76,1,.6,2.49-.36,3.25-.84.67-2.02.65-2.88,0s-1.36-2.47.04-3.58Z" fill="#767676"/>
          <path d="M421.05,63.11c1.18-.93,2.58-.41,3.12.31.72.95.59,2.45-.35,3.17-.8.62-1.98.6-2.81,0-.87-.64-1.31-2.42.03-3.48Z" fill="#767676"/>
          <path d="M455.3,112.06c1.14-.89,2.55-.41,3.08.3.68.92.57,2.43-.34,3.12-.78.59-1.97.58-2.77,0-.84-.61-1.26-2.41.03-3.42Z" fill="#767676"/>
          <path d="M441.97,35.79c1.24-.99,2.64-.42,3.23.34.79,1.02.62,2.49-.37,3.28-.86.68-2.02.67-2.9,0s-1.41-2.47.04-3.62Z" fill="#767676"/>
          <path d="M414.13,63.2c1.12-.87,2.45-.38,2.98.3.71.91.56,2.31-.35,3.01-.77.59-1.86.58-2.66,0-.84-.62-1.29-2.29.02-3.31Z" fill="#767676"/>
          <path d="M462.28,112.04c1.15-.9,2.57-.41,3.1.3.69.93.57,2.45-.34,3.15-.79.6-1.99.59-2.79,0s-1.27-2.42.03-3.45Z" fill="#767676"/>
          <path d="M469.26,112.04c1.15-.9,2.57-.41,3.1.3.69.93.57,2.45-.34,3.15-.79.6-1.99.59-2.79,0s-1.27-2.42.03-3.45Z" fill="#767676"/>
          <path d="M476.25,112.04c1.15-.9,2.57-.41,3.1.3.69.93.57,2.45-.34,3.15-.79.6-1.99.59-2.79,0s-1.27-2.42.03-3.45Z" fill="#767676"/>
          <path d="M449.09,8.05c1.09-.85,2.41-.38,2.91.29.65.87.54,2.29-.33,2.95-.73.55-1.85.54-2.61,0-.81-.58-1.21-2.27.03-3.24Z" fill="#767676"/>
          <path d="M455.36,8.03c1.1-.86,2.43-.38,2.94.29.67.89.55,2.3-.34,2.98-.75.57-1.86.56-2.63,0-.82-.6-1.24-2.28.03-3.27Z" fill="#767676"/>
          <path d="M462.34,8.01c1.12-.87,2.45-.38,2.98.3.71.91.56,2.31-.35,3.01-.77.59-1.86.58-2.66,0-.84-.62-1.29-2.29.02-3.31Z" fill="#767676"/>
          <path d="M469.32,8.01c1.12-.87,2.45-.38,2.98.3.71.91.56,2.31-.35,3.01-.77.59-1.86.58-2.66,0-.84-.62-1.29-2.29.02-3.31Z" fill="#767676"/>
          <path d="M476.31,8.01c1.12-.87,2.45-.38,2.98.3.71.91.56,2.31-.35,3.01-.77.59-1.86.58-2.66,0-.84-.62-1.29-2.29.02-3.31Z" fill="#767676"/>
          <path d="M469.23,105c1.2-.95,2.61-.41,3.18.32.75.99.59,2.48-.35,3.23-.83.66-2.02.65-2.86,0s-1.34-2.46.04-3.56Z" fill="#767676"/>
          <path d="M434.93,56c1.27-1,2.76-.43,3.34.34.79,1.04.63,2.62-.37,3.4-.87.68-2.12.66-3.01,0-.93-.7-1.41-2.59.04-3.74Z" fill="#767676"/>
          <path d="M428.01,56.08c1.21-.96,2.62-.41,3.19.33.76.99.6,2.48-.36,3.24-.83.66-2.02.65-2.87,0-.89-.68-1.36-2.46.04-3.57Z" fill="#767676"/>
          <path d="M421.05,56.13c1.18-.93,2.58-.41,3.12.31.72.95.59,2.45-.35,3.17-.8.62-1.98.6-2.81,0-.87-.64-1.31-2.42.03-3.48Z" fill="#767676"/>
          <path d="M414.13,56.21c1.12-.87,2.45-.38,2.98.3.71.91.56,2.31-.35,3.01-.77.59-1.86.58-2.66,0-.84-.62-1.29-2.29.02-3.31Z" fill="#767676"/>
          <path d="M421.15,98.19c1.08-.84,2.41-.39,2.9.28.63.86.54,2.28-.33,2.93-.72.54-1.85.53-2.59,0-.8-.57-1.2-2.26.02-3.21Z" fill="#767676"/>
          <path d="M449.09,118.45c1.08-.84,2.41-.39,2.9.28.63.86.54,2.28-.33,2.93-.72.54-1.85.53-2.59,0-.8-.57-1.2-2.26.02-3.21Z" fill="#767676"/>
          <path d="M455.37,118.42c1.1-.86,2.42-.39,2.93.29.66.88.55,2.29-.33,2.96-.74.56-1.86.55-2.62,0-.81-.59-1.23-2.27.03-3.26Z" fill="#767676"/>
          <path d="M435.11,15.03c1.09-.85,2.41-.38,2.91.29.65.87.54,2.29-.33,2.95-.73.55-1.85.54-2.61,0-.81-.58-1.21-2.27.03-3.24Z" fill="#767676"/>
          <path d="M442.07,14.99c1.12-.87,2.45-.38,2.98.3.71.91.56,2.31-.35,3.01-.77.59-1.86.58-2.66,0-.84-.62-1.29-2.29.02-3.31Z" fill="#767676"/>
          <path d="M449.01,14.94c1.14-.89,2.55-.41,3.08.3.68.92.57,2.43-.34,3.12-.78.59-1.97.58-2.77,0-.84-.61-1.26-2.41.03-3.42Z" fill="#767676"/>
          <path d="M455.29,14.93c1.15-.9,2.57-.41,3.1.3.69.93.57,2.45-.34,3.15-.79.6-1.99.59-2.79,0s-1.27-2.42.03-3.45Z" fill="#767676"/>
          <path d="M462.27,14.91c1.18-.93,2.58-.41,3.12.31.72.95.59,2.45-.35,3.17-.8.62-1.98.6-2.81,0-.87-.64-1.31-2.42.03-3.48Z" fill="#767676"/>
          <path d="M421.07,84.13c1.13-.88,2.56-.41,3.06.29.66.91.54,2.44-.34,3.11-.78.6-1.97.58-2.76,0s-1.23-2.41.03-3.39Z" fill="#767676"/>
          <path d="M476.24,14.91c1.18-.93,2.58-.41,3.12.31.72.95.59,2.45-.35,3.17-.8.62-1.98.6-2.81,0-.87-.64-1.31-2.42.03-3.48Z" fill="#767676"/>
          <path d="M462.34,118.4c1.12-.87,2.44-.37,2.96.3.71.92.56,2.3-.35,3-.77.6-1.85.59-2.64,0-.84-.62-1.29-2.28.02-3.3Z" fill="#767676"/>
          <path d="M469.33,118.4c1.12-.87,2.44-.37,2.96.3.71.92.56,2.3-.35,3-.77.6-1.85.59-2.64,0-.84-.62-1.29-2.28.02-3.3Z" fill="#767676"/>
          <path d="M428.06,98.11c1.12-.87,2.53-.41,3.05.28.65.89.56,2.42-.33,3.09-.75.56-1.97.55-2.74,0-.82-.58-1.22-2.4.03-3.37Z" fill="#767676"/>
          <path d="M435.02,98.05c1.17-.92,2.58-.41,3.12.31.71.94.58,2.45-.35,3.16-.8.62-1.99.6-2.81,0s-1.3-2.42.03-3.47Z" fill="#767676"/>
          <path d="M434.94,49.03c1.26-.99,2.73-.43,3.32.34.78,1.02.63,2.6-.37,3.37-.87.67-2.11.66-2.99,0s-1.4-2.57.04-3.71Z" fill="#767676"/>
          <path d="M428.01,49.1c1.2-.95,2.61-.41,3.18.32.75.99.59,2.48-.35,3.23-.83.66-2.02.65-2.86,0s-1.34-2.46.04-3.56Z" fill="#767676"/>
          <path d="M421.06,49.16c1.15-.9,2.57-.41,3.1.3.69.93.57,2.45-.34,3.15-.79.6-1.99.59-2.79,0s-1.27-2.42.03-3.45Z" fill="#767676"/>
          <path d="M414.14,49.25c1.1-.86,2.43-.38,2.94.29.67.89.55,2.3-.34,2.98-.75.57-1.86.56-2.63,0-.82-.6-1.24-2.28.03-3.27Z" fill="#767676"/>
          <path d="M441.99,98.02c1.19-.94,2.6-.42,3.16.32.74.97.6,2.47-.35,3.21-.82.63-2.01.62-2.85,0-.88-.65-1.33-2.45.04-3.53Z" fill="#767676"/>
          <path d="M448.97,98c1.21-.96,2.62-.41,3.19.33.76,1,.6,2.49-.36,3.25-.84.67-2.02.65-2.88,0s-1.36-2.47.04-3.58Z" fill="#767676"/>
          <path d="M476.32,118.4c1.12-.87,2.44-.37,2.96.3.71.92.56,2.3-.35,3-.77.6-1.85.59-2.64,0-.84-.62-1.29-2.28.02-3.3Z" fill="#767676"/>
          <path d="M428.12,22.01c1.1-.86,2.42-.39,2.93.29.66.88.55,2.29-.33,2.96-.74.56-1.86.55-2.62,0-.81-.59-1.23-2.27.03-3.26Z" fill="#767676"/>
          <path d="M435.05,21.95c1.12-.87,2.55-.41,3.05.28.66.9.55,2.43-.33,3.1-.77.59-1.97.57-2.75,0s-1.23-2.4.03-3.38Z" fill="#767676"/>
          <path d="M442.01,21.9c1.17-.92,2.58-.41,3.12.31.71.94.58,2.45-.35,3.16-.8.62-1.99.6-2.81,0s-1.3-2.42.03-3.47Z" fill="#767676"/>
          <path d="M448.98,21.88c1.19-.93,2.6-.42,3.15.32.73.96.59,2.47-.35,3.2-.81.63-2,.62-2.84,0s-1.32-2.44.04-3.51Z" fill="#767676"/>
          <path d="M455.26,21.86c1.2-.95,2.61-.41,3.18.32.75.99.59,2.48-.35,3.23-.83.66-2.02.65-2.86,0s-1.34-2.46.04-3.56Z" fill="#767676"/>
          <path d="M462.24,21.85c1.21-.96,2.62-.41,3.19.33.76.99.6,2.48-.36,3.24-.83.66-2.02.65-2.87,0-.89-.68-1.36-2.46.04-3.57Z" fill="#767676"/>
          <path d="M469.23,21.84c1.21-.96,2.62-.41,3.19.33.76,1,.6,2.49-.36,3.25-.84.67-2.02.65-2.88,0s-1.36-2.47.04-3.58Z" fill="#767676"/>
          <path d="M476.22,21.85c1.21-.96,2.62-.41,3.19.33.76.99.6,2.48-.36,3.24-.83.66-2.02.65-2.87,0-.89-.68-1.36-2.46.04-3.57Z" fill="#767676"/>
          <path d="M455.24,97.97c1.24-.99,2.64-.42,3.23.34.79,1.02.62,2.49-.37,3.28-.86.68-2.02.67-2.9,0s-1.41-2.47.04-3.62Z" fill="#767676"/>
          <path d="M462.18,97.92c1.26-1,2.74-.43,3.33.34.78,1.03.63,2.61-.37,3.39-.87.67-2.12.66-3,0-.93-.69-1.41-2.58.04-3.72Z" fill="#767676"/>
          <path d="M469.17,97.92c1.26-1,2.74-.43,3.33.34.78,1.03.63,2.61-.37,3.39-.87.67-2.12.66-3,0-.93-.69-1.41-2.58.04-3.72Z" fill="#767676"/>
          <path d="M441.9,42.71c1.28-1.01,2.78-.43,3.37.34.79,1.04.63,2.64-.38,3.43-.88.69-2.14.67-3.04,0-.94-.7-1.42-2.61.04-3.77Z" fill="#767676"/>
          <path d="M434.98,42.78c1.24-.98,2.63-.42,3.22.34.79,1.01.63,2.49-.37,3.27-.85.67-2.02.66-2.89,0-.92-.7-1.4-2.47.04-3.61Z" fill="#767676"/>
          <path d="M428.02,42.84c1.19-.93,2.6-.42,3.15.32.73.96.59,2.47-.35,3.2-.81.63-2,.62-2.84,0s-1.32-2.44.04-3.51Z" fill="#767676"/>
          <path d="M421.14,29.01c1.09-.85,2.41-.38,2.91.29.65.87.54,2.29-.33,2.95-.73.55-1.85.54-2.61,0-.81-.58-1.21-2.27.03-3.24Z" fill="#767676"/>
          <path d="M428.06,28.94c1.12-.87,2.55-.41,3.05.28.66.9.55,2.43-.33,3.1-.77.59-1.97.57-2.75,0s-1.23-2.4.03-3.38Z" fill="#767676"/>
          <path d="M435.02,28.88c1.18-.93,2.58-.41,3.12.31.72.95.59,2.45-.35,3.17-.8.62-1.98.6-2.81,0-.87-.64-1.31-2.42.03-3.48Z" fill="#767676"/>
          <path d="M441.99,28.85c1.2-.95,2.6-.42,3.17.32.75.97.61,2.47-.35,3.21-.82.64-2,.63-2.85,0-.89-.66-1.35-2.44.04-3.54Z" fill="#767676"/>
          <path d="M448.95,28.81c1.24-.98,2.63-.42,3.22.34.79,1.01.63,2.49-.37,3.27-.85.67-2.02.66-2.89,0-.92-.7-1.4-2.47.04-3.61Z" fill="#767676"/>
          <path d="M455.2,28.76c1.26-.99,2.73-.43,3.32.34.78,1.02.63,2.6-.37,3.37-.87.67-2.11.66-2.99,0s-1.4-2.57.04-3.71Z" fill="#767676"/>
          <path d="M462.17,28.75c1.27-1,2.76-.43,3.34.34.79,1.04.63,2.62-.37,3.4-.87.68-2.12.66-3.01,0-.93-.7-1.41-2.59.04-3.74Z" fill="#767676"/>
          <path d="M469.16,28.74c1.28-1.01,2.76-.43,3.36.34.79,1.04.63,2.63-.38,3.41-.88.68-2.13.67-3.02,0-.94-.7-1.42-2.6.04-3.75Z" fill="#767676"/>
          <path d="M476.15,28.75c1.27-1,2.76-.43,3.34.34.79,1.04.63,2.62-.37,3.4-.87.68-2.12.66-3.01,0-.93-.7-1.41-2.59.04-3.74Z" fill="#767676"/>
          <path d="M421.07,42.89c1.14-.89,2.55-.41,3.08.3.68.92.57,2.43-.34,3.12-.78.59-1.97.58-2.77,0-.84-.61-1.26-2.41.03-3.42Z" fill="#767676"/>
          <path d="M414.15,42.98c1.09-.85,2.41-.38,2.91.29.65.87.54,2.29-.33,2.95-.73.55-1.85.54-2.61,0-.81-.58-1.21-2.27.03-3.24Z" fill="#767676"/>
          <path d="M476.16,97.93c1.26-.99,2.73-.43,3.32.34.78,1.02.63,2.6-.37,3.37-.87.67-2.11.66-2.99,0s-1.4-2.57.04-3.71Z" fill="#767676"/>
          <path d="M428.13,105.16c1.09-.85,2.41-.38,2.91.29.65.87.54,2.29-.33,2.95-.73.55-1.85.54-2.61,0-.81-.58-1.21-2.27.03-3.24Z" fill="#767676"/>
          <path d="M435.05,105.1c1.12-.87,2.53-.41,3.05.28.65.89.56,2.42-.33,3.09-.75.56-1.97.55-2.74,0-.82-.58-1.22-2.4.03-3.37Z" fill="#767676"/>
          <path d="M442.02,105.06c1.15-.9,2.57-.41,3.1.3.69.93.57,2.45-.34,3.15-.79.6-1.99.59-2.79,0s-1.27-2.42.03-3.45Z" fill="#767676"/>
          <path d="M448.99,105.03c1.18-.93,2.58-.41,3.13.31.72.95.59,2.45-.35,3.18-.81.63-1.99.61-2.82,0s-1.31-2.43.03-3.49Z" fill="#767676"/>
          <path d="M455.26,105.01c1.19-.94,2.6-.42,3.16.32.74.97.6,2.47-.35,3.21-.82.63-2.01.62-2.85,0-.88-.65-1.33-2.45.04-3.53Z" fill="#767676"/>
          <path d="M462.25,105c1.2-.95,2.61-.41,3.18.32.75.99.59,2.48-.35,3.23-.83.66-2.02.65-2.86,0s-1.34-2.46.04-3.56Z" fill="#767676"/>
          <path d="M448.89,35.72c1.28-1.01,2.78-.43,3.37.34.79,1.04.63,2.64-.38,3.43-.88.69-2.14.67-3.04,0-.94-.7-1.42-2.61.04-3.77Z" fill="#767676"/>
          <path d="M421.11,35.95c1.12-.87,2.45-.38,2.98.3.71.91.56,2.31-.35,3.01-.77.59-1.86.58-2.66,0-.84-.62-1.29-2.29.02-3.31Z" fill="#767676"/>
          <path d="M428.04,35.87c1.17-.92,2.58-.41,3.12.31.71.94.58,2.45-.35,3.16-.8.62-1.99.6-2.81,0s-1.3-2.42.03-3.47Z" fill="#767676"/>
          <path d="M469.26,14.91c1.18-.93,2.58-.41,3.12.31.72.95.59,2.45-.35,3.17-.8.62-1.98.6-2.81,0-.87-.64-1.31-2.42.03-3.48Z" fill="#767676"/>
          <path d="M400.99,63.04c1.03-.29,1.89.36,2.2,1.1.4.95-.08,2.03-1.03,2.44s-2.02-.08-2.44-1.03.04-2.15,1.27-2.5Z" fill="#767676"/>
          <path d="M407.97,35.77c1.04-.3,1.91.37,2.22,1.1.41.96-.07,2.05-1.03,2.46s-2.04-.08-2.46-1.03.03-2.17,1.27-2.53Z" fill="#767676"/>
          <path d="M400.8,35.94c1.16-.5,2.07.28,2.35.97.38.93-.07,1.97-1.01,2.37-.77.33-1.6.06-2.12-.6-.58-.73-.61-2.13.78-2.74Z" fill="#767676"/>
          <path d="M414.95,97.93c1.05-.31,1.93.37,2.25,1.11.42.97-.08,2.07-1.04,2.49s-2.06-.08-2.49-1.04.03-2.19,1.28-2.56Z" fill="#767676"/>
          <path d="M407.76,98.09c1.19-.52,2.12.28,2.4.98.38.95-.07,2.02-1.02,2.42-.78.33-1.64.07-2.17-.6-.59-.74-.63-2.19.79-2.8Z" fill="#767676"/>
          <path d="M407.78,105.11c1.16-.5,2.07.27,2.35.97.37.92-.07,1.97-1,2.36-.77.32-1.6.06-2.12-.59-.58-.73-.61-2.13.78-2.73Z" fill="#767676"/>
          <path d="M414.97,104.96c1.03-.29,1.89.36,2.2,1.1.4.95-.08,2.03-1.03,2.44s-2.02-.08-2.44-1.03.04-2.15,1.27-2.5Z" fill="#767676"/>
          <path d="M421.93,104.9c1.05-.31,1.94.38,2.27,1.12.43.98-.08,2.09-1.05,2.52s-2.08-.08-2.52-1.05c-.42-.93.03-2.21,1.3-2.59Z" fill="#767676"/>
          <path d="M414.93,35.7c1.07-.32,1.98.39,2.31,1.13.44,1-.08,2.12-1.06,2.56s-2.11-.08-2.56-1.06.02-2.25,1.31-2.64Z" fill="#767676"/>
          <path d="M414.77,112.09c1.16-.5,2.07.28,2.35.97.38.93-.07,1.97-1.01,2.37-.77.33-1.6.06-2.12-.6-.58-.73-.61-2.13.78-2.74Z" fill="#767676"/>
          <path d="M421.95,111.93c1.03-.3,1.9.37,2.21,1.1.41.96-.08,2.04-1.03,2.45s-2.03-.08-2.45-1.03.03-2.16,1.27-2.52Z" fill="#767676"/>
          <path d="M414.94,90.91c1.06-.32,1.96.39,2.29,1.13.44.99-.08,2.11-1.06,2.55s-2.1-.08-2.55-1.06c-.43-.94.03-2.23,1.31-2.62Z" fill="#767676"/>
          <path d="M407.97,90.97c1.03-.3,1.9.37,2.21,1.1.41.96-.08,2.04-1.03,2.45s-2.03-.08-2.45-1.03.03-2.16,1.27-2.52Z" fill="#767676"/>
          <path d="M400.8,91.14c1.16-.5,2.07.27,2.35.97.37.92-.07,1.97-1,2.36-.77.32-1.6.06-2.12-.59-.58-.73-.61-2.13.78-2.73Z" fill="#767676"/>
          <path d="M428.92,111.89c1.05-.31,1.94.38,2.27,1.12.43.98-.08,2.09-1.05,2.52s-2.08-.08-2.52-1.05.03-2.21,1.3-2.59Z" fill="#767676"/>
          <path d="M400.78,42.9c1.19-.51,2.11.28,2.39.98.38.94-.07,2.01-1.02,2.4-.78.32-1.63.07-2.16-.6-.59-.74-.62-2.18.79-2.78Z" fill="#767676"/>
          <path d="M407.96,42.73c1.05-.31,1.93.38,2.26,1.12.43.98-.08,2.08-1.05,2.51s-2.07-.08-2.51-1.05.03-2.2,1.29-2.58Z" fill="#767676"/>
          <path d="M414.95,28.75c1.05-.31,1.93.38,2.26,1.12.43.98-.08,2.08-1.05,2.51s-2.07-.08-2.51-1.05.03-2.2,1.29-2.58Z" fill="#767676"/>
          <path d="M407.76,28.91c1.19-.52,2.12.28,2.41.99.39.96-.07,2.02-1.02,2.43-.79.34-1.65.07-2.18-.6-.6-.75-.63-2.19.79-2.81Z" fill="#767676"/>
          <path d="M407.96,83.96c1.05-.31,1.93.37,2.25,1.11.42.97-.08,2.07-1.04,2.49s-2.06-.08-2.49-1.04.03-2.19,1.28-2.56Z" fill="#767676"/>
          <path d="M400.78,84.12c1.19-.51,2.11.28,2.39.98.38.94-.07,2.01-1.02,2.4-.78.32-1.63.07-2.16-.6-.59-.74-.62-2.18.79-2.78Z" fill="#767676"/>
          <path d="M421.76,118.38c1.16-.5,2.07.28,2.35.97.38.93-.07,1.97-1.01,2.37-.77.33-1.6.06-2.12-.6-.58-.73-.61-2.13.78-2.74Z" fill="#767676"/>
          <path d="M428.94,118.23c1.03-.29,1.89.36,2.2,1.1.4.95-.08,2.03-1.03,2.44s-2.02-.08-2.44-1.03.04-2.15,1.27-2.5Z" fill="#767676"/>
          <path d="M435.91,118.18c1.05-.31,1.93.38,2.26,1.12.43.98-.08,2.08-1.05,2.51s-2.07-.08-2.51-1.05.03-2.2,1.29-2.58Z" fill="#767676"/>
          <path d="M442.89,118.15c1.06-.32,1.96.39,2.29,1.13.44.99-.08,2.11-1.06,2.55s-2.1-.08-2.55-1.06c-.43-.94.03-2.23,1.31-2.62Z" fill="#767676"/>
          <path d="M421.93,21.74c1.06-.32,1.96.38,2.29,1.13.44.99-.08,2.1-1.05,2.54s-2.09-.08-2.54-1.05.02-2.23,1.3-2.61Z" fill="#767676"/>
          <path d="M414.96,21.81c1.03-.3,1.9.37,2.21,1.1.41.96-.08,2.04-1.03,2.45s-2.03-.08-2.45-1.03.03-2.16,1.27-2.52Z" fill="#767676"/>
          <path d="M407.78,21.96c1.16-.5,2.07.28,2.35.97.38.93-.07,1.97-1.01,2.37-.77.33-1.6.06-2.12-.6-.58-.73-.61-2.13.78-2.74Z" fill="#767676"/>
          <path d="M400.77,49.17c1.19-.52,2.12.28,2.41.99.39.96-.07,2.02-1.02,2.43-.79.34-1.65.07-2.18-.6-.6-.75-.63-2.19.79-2.81Z" fill="#767676"/>
          <path d="M407.95,48.99c1.06-.32,1.96.38,2.29,1.13.44.99-.08,2.1-1.05,2.54s-2.09-.08-2.54-1.05.02-2.23,1.3-2.61Z" fill="#767676"/>
          <path d="M407.95,76.94c1.06-.32,1.96.38,2.29,1.13.44.99-.08,2.1-1.05,2.54s-2.09-.08-2.54-1.05.02-2.23,1.3-2.61Z" fill="#767676"/>
          <path d="M400.77,77.12c1.19-.52,2.12.28,2.41.99.39.96-.07,2.02-1.02,2.43-.79.34-1.65.07-2.18-.6-.6-.75-.63-2.19.79-2.81Z" fill="#767676"/>
          <path d="M428.74,125.37c1.16-.5,2.07.27,2.35.97.37.92-.07,1.97-1,2.36-.77.32-1.6.06-2.12-.59-.58-.73-.61-2.13.78-2.73Z" fill="#767676"/>
          <path d="M435.71,125.34c1.19-.52,2.12.28,2.4.98.38.95-.07,2.02-1.02,2.42-.78.33-1.64.07-2.17-.6-.59-.74-.63-2.19.79-2.8Z" fill="#767676"/>
          <path d="M442.91,125.21c1.03-.3,1.9.37,2.21,1.1.41.96-.08,2.04-1.03,2.45s-2.03-.08-2.45-1.03.03-2.16,1.27-2.52Z" fill="#767676"/>
          <path d="M428.91,14.76c1.06-.32,1.96.38,2.29,1.13.44.99-.08,2.1-1.05,2.54s-2.09-.08-2.54-1.05.02-2.23,1.3-2.61Z" fill="#767676"/>
          <path d="M421.94,14.81c1.04-.3,1.91.37,2.22,1.1.41.96-.07,2.05-1.03,2.46s-2.04-.08-2.46-1.03c-.4-.91.03-2.17,1.27-2.53Z" fill="#767676"/>
          <path d="M414.77,14.96c1.15-.51,2.07.29,2.36.98.39.93-.08,1.97-1.01,2.38-.78.34-1.6.06-2.13-.6-.6-.74-.63-2.13.79-2.76Z" fill="#767676"/>
          <path d="M476.93,132.31c1.19-.52,2.12.28,2.41.99.39.96-.07,2.02-1.02,2.43-.79.34-1.65.07-2.18-.6-.6-.75-.63-2.19.79-2.81Z" fill="#767676"/>
          <path d="M400.99,56.05c1.03-.29,1.89.36,2.2,1.1.4.95-.08,2.03-1.03,2.44s-2.02-.08-2.44-1.03.04-2.15,1.27-2.5Z" fill="#767676"/>
          <path d="M407.95,55.97c1.06-.32,1.96.39,2.29,1.13.44.99-.08,2.11-1.06,2.55s-2.1-.08-2.55-1.06.03-2.23,1.31-2.62Z" fill="#767676"/>
          <path d="M469.94,132.31c1.19-.52,2.12.28,2.41.99.39.96-.07,2.02-1.02,2.43-.79.34-1.65.07-2.18-.6-.6-.75-.63-2.19.79-2.81Z" fill="#767676"/>
          <path d="M449.88,125.18c1.05-.31,1.93.37,2.25,1.11.42.97-.08,2.07-1.04,2.49s-2.06-.08-2.49-1.04.03-2.19,1.28-2.56Z" fill="#767676"/>
          <path d="M428.74,1c1.16-.5,2.07.28,2.35.97.38.93-.07,1.97-1.01,2.37-.77.33-1.6.06-2.12-.6-.58-.73-.61-2.13.78-2.74Z" fill="#767676"/>
          <path d="M435.71.96c1.19-.52,2.12.28,2.41.99.39.96-.07,2.02-1.02,2.43-.79.34-1.65.07-2.18-.6-.6-.75-.63-2.19.79-2.81Z" fill="#767676"/>
          <path d="M442.9.84c1.04-.3,1.91.37,2.22,1.1.41.96-.07,2.05-1.03,2.46s-2.04-.08-2.46-1.03.03-2.17,1.27-2.53Z" fill="#767676"/>
          <path d="M449.88.81c1.05-.31,1.93.38,2.26,1.12.43.98-.08,2.08-1.05,2.51s-2.07-.08-2.51-1.05.03-2.2,1.29-2.58Z" fill="#767676"/>
          <path d="M462.95,132.31c1.19-.52,2.12.28,2.41.99.39.96-.07,2.02-1.02,2.43-.79.34-1.65.07-2.18-.6-.6-.75-.63-2.19.79-2.81Z" fill="#767676"/>
          <path d="M455.97,132.32c1.19-.52,2.12.28,2.4.98.38.95-.07,2.02-1.02,2.42-.78.33-1.64.07-2.17-.6-.59-.74-.63-2.19.79-2.8Z" fill="#767676"/>
          <path d="M449.71,132.34c1.15-.51,2.07.29,2.36.98.39.93-.08,1.97-1.01,2.38-.78.34-1.6.06-2.13-.6-.6-.74-.63-2.13.79-2.76Z" fill="#767676"/>
          <path d="M442.72,132.36c1.16-.5,2.07.27,2.35.97.37.92-.07,1.97-1,2.36-.77.32-1.6.06-2.12-.59-.58-.73-.61-2.13.78-2.73Z" fill="#767676"/>
          <path d="M456.16.78c1.06-.32,1.96.38,2.29,1.13.44.99-.08,2.1-1.05,2.54s-2.09-.08-2.54-1.05.02-2.23,1.3-2.61Z" fill="#767676"/>
          <path d="M463.15.78c1.06-.32,1.96.39,2.29,1.13.44.99-.08,2.11-1.06,2.55s-2.1-.08-2.55-1.06.03-2.23,1.31-2.62Z" fill="#767676"/>
          <path d="M407.95,69.95c1.06-.32,1.96.39,2.29,1.13.44.99-.08,2.11-1.06,2.55s-2.1-.08-2.55-1.06.03-2.23,1.31-2.62Z" fill="#767676"/>
          <path d="M400.99,70.02c1.03-.29,1.89.36,2.2,1.1.4.95-.08,2.03-1.03,2.44s-2.02-.08-2.44-1.03.04-2.15,1.27-2.5Z" fill="#767676"/>
          <path d="M470.13.78c1.06-.32,1.96.39,2.29,1.13.44.99-.08,2.11-1.06,2.55s-2.1-.08-2.55-1.06.03-2.23,1.31-2.62Z" fill="#767676"/>
          <path d="M477.12.78c1.06-.32,1.96.39,2.29,1.13.44.99-.08,2.11-1.06,2.55s-2.1-.08-2.55-1.06.03-2.23,1.31-2.62Z" fill="#767676"/>
          <path d="M442.88,7.76c1.07-.32,1.98.39,2.31,1.13.44,1-.08,2.12-1.06,2.56s-2.11-.08-2.56-1.06.02-2.25,1.31-2.64Z" fill="#767676"/>
          <path d="M435.91,7.79c1.05-.31,1.93.38,2.26,1.12.43.98-.08,2.08-1.05,2.51s-2.07-.08-2.51-1.05.03-2.2,1.29-2.58Z" fill="#767676"/>
          <path d="M428.93,7.83c1.03-.3,1.9.37,2.21,1.1.41.96-.08,2.04-1.03,2.45s-2.03-.08-2.45-1.03c-.4-.91.03-2.16,1.27-2.52Z" fill="#767676"/>
          <path d="M421.76,7.98c1.15-.51,2.07.29,2.36.98.39.93-.08,1.97-1.01,2.38-.78.34-1.6.06-2.13-.6-.6-.74-.63-2.13.79-2.76Z" fill="#767676"/>
          <path d="M407.95,62.96c1.06-.32,1.96.39,2.29,1.13.44.99-.08,2.11-1.06,2.55s-2.1-.08-2.55-1.06.03-2.23,1.31-2.62Z" fill="#767676"/>
          <path d="M456.17,125.16c1.05-.31,1.94.38,2.27,1.12.43.98-.08,2.09-1.05,2.52s-2.08-.08-2.52-1.05c-.42-.93.03-2.21,1.3-2.59Z" fill="#767676"/>
          <path d="M463.15,125.15c1.06-.32,1.96.38,2.29,1.13.44.99-.08,2.1-1.05,2.54s-2.09-.08-2.54-1.05.02-2.23,1.3-2.61Z" fill="#767676"/>
          <path d="M470.13,125.15c1.06-.32,1.96.38,2.29,1.13.44.99-.08,2.1-1.05,2.54s-2.09-.08-2.54-1.05.02-2.23,1.3-2.61Z" fill="#767676"/>
          <path d="M477.12,125.15c1.06-.32,1.96.38,2.29,1.13.44.99-.08,2.1-1.05,2.54s-2.09-.08-2.54-1.05.02-2.23,1.3-2.61Z" fill="#767676"/>
          <path d="M386.22,43.74c.56-.93,1.63-.85,2.22-.43.54.39.87,1.38.32,2.22-.29.43-.93.7-1.61.58-.75-.13-1.68-1.1-.92-2.37Z" fill="#767676"/>
          <path d="M393.05,63.92c.68-1.12,1.86-.93,2.44-.51.68.49,1.02,1.55.41,2.45-.35.52-1.04.81-1.78.7-.84-.13-1.93-1.22-1.07-2.63Z" fill="#767676"/>
          <path d="M407.22,1.84c.53-.88,1.57-.82,2.14-.41.51.37.84,1.33.29,2.15-.28.41-.9.67-1.56.55-.72-.13-1.61-1.07-.87-2.29Z" fill="#767676"/>
          <path d="M414.12,1.79c.59-.98,1.69-.88,2.28-.45s.91,1.42.34,2.29c-.3.45-.96.71-1.66.6-.77-.12-1.75-1.12-.96-2.44Z" fill="#767676"/>
          <path d="M421.04,1.74c.63-1.05,1.82-.9,2.4-.49.64.45.95,1.54.38,2.42-.33.51-1.03.77-1.75.66-.83-.13-1.87-1.18-1.03-2.59Z" fill="#767676"/>
          <path d="M407.22,126.2c.53-.88,1.57-.82,2.14-.41.51.37.84,1.33.29,2.15-.28.41-.9.67-1.56.55-.72-.13-1.61-1.07-.87-2.29Z" fill="#767676"/>
          <path d="M414.13,126.17c.58-.96,1.67-.87,2.26-.44.56.4.9,1.41.33,2.27-.3.44-.95.71-1.64.6-.77-.13-1.73-1.12-.95-2.42Z" fill="#767676"/>
          <path d="M421.05,126.14c.64-1.05,1.76-.92,2.36-.48s.96,1.46.36,2.36c-.33.5-.97.76-1.71.65-.81-.12-1.83-1.18-1.01-2.53Z" fill="#767676"/>
          <path d="M393.06,56.94c.67-1.1,1.84-.93,2.43-.51.66.48,1,1.54.4,2.44-.35.52-1.03.8-1.77.68-.84-.13-1.91-1.21-1.06-2.61Z" fill="#767676"/>
          <path d="M386.19,57c.58-.96,1.67-.87,2.26-.44.56.4.9,1.41.33,2.27-.3.44-.95.71-1.64.6-.77-.13-1.73-1.12-.95-2.42Z" fill="#767676"/>
          <path d="M400.24,8.83c.53-.88,1.57-.82,2.14-.41.51.37.84,1.33.29,2.15-.28.41-.9.67-1.56.55-.72-.13-1.61-1.07-.87-2.29Z" fill="#767676"/>
          <path d="M407.14,8.78c.59-.98,1.69-.88,2.28-.45s.91,1.42.34,2.29c-.3.45-.96.71-1.66.6-.77-.12-1.75-1.12-.96-2.44Z" fill="#767676"/>
          <path d="M414.03,8.73c.65-1.08,1.83-.92,2.41-.5.65.47.98,1.54.39,2.43-.34.51-1.03.79-1.76.67-.84-.13-1.89-1.2-1.05-2.6Z" fill="#767676"/>
          <path d="M421.14,133.16c.57-.94,1.65-.85,2.24-.44s.88,1.4.32,2.24c-.29.44-.94.71-1.63.59-.76-.13-1.71-1.11-.93-2.4Z" fill="#767676"/>
          <path d="M428.06,133.13c.61-1.02,1.73-.9,2.33-.47s.95,1.45.35,2.33c-.31.46-.97.75-1.68.63-.79-.13-1.8-1.16-.99-2.49Z" fill="#767676"/>
          <path d="M393.07,49.95c.65-1.08,1.83-.92,2.41-.5.65.47.98,1.54.39,2.43-.34.51-1.03.79-1.76.67-.84-.13-1.89-1.2-1.05-2.6Z" fill="#767676"/>
          <path d="M386.19,70.97c.58-.96,1.67-.87,2.26-.44.56.4.9,1.41.33,2.27-.3.44-.95.71-1.64.6-.77-.13-1.73-1.12-.95-2.42Z" fill="#767676"/>
          <path d="M393.06,70.91c.67-1.1,1.84-.93,2.43-.51.66.48,1,1.54.4,2.44-.35.52-1.03.8-1.77.68-.84-.13-1.91-1.21-1.06-2.61Z" fill="#767676"/>
          <path d="M414.05,119.12c.63-1.05,1.82-.9,2.4-.49.64.45.95,1.54.38,2.42-.33.51-1.03.77-1.75.66-.83-.13-1.87-1.18-1.03-2.59Z" fill="#767676"/>
          <path d="M407.15,119.18c.58-.96,1.67-.87,2.26-.44.56.4.9,1.41.33,2.27-.3.44-.95.71-1.64.6-.77-.13-1.73-1.12-.95-2.42Z" fill="#767676"/>
          <path d="M386.21,50.02c.57-.94,1.65-.85,2.24-.44s.88,1.4.32,2.24c-.29.44-.94.71-1.63.59-.76-.13-1.71-1.11-.93-2.4Z" fill="#767676"/>
          <path d="M434.99,133.09c.65-1.08,1.83-.92,2.41-.5.65.47.98,1.54.39,2.43-.34.51-1.03.79-1.76.67-.84-.13-1.89-1.2-1.05-2.6Z" fill="#767676"/>
          <path d="M400.16,15.78c.58-.96,1.67-.87,2.26-.44.56.4.9,1.41.33,2.27-.3.44-.95.71-1.64.6-.77-.13-1.73-1.12-.95-2.42Z" fill="#767676"/>
          <path d="M407.06,15.72c.63-1.05,1.82-.9,2.4-.49.64.45.95,1.54.38,2.42-.33.51-1.03.77-1.75.66-.83-.13-1.87-1.18-1.03-2.59Z" fill="#767676"/>
          <path d="M428.17,140.17c.54-.9,1.59-.83,2.17-.41.52.37.85,1.35.3,2.17-.28.42-.91.67-1.58.56-.73-.13-1.64-1.08-.89-2.32Z" fill="#767676"/>
          <path d="M435.09,140.14c.58-.96,1.67-.87,2.26-.44.56.4.9,1.41.33,2.27-.3.44-.95.71-1.64.6-.77-.13-1.73-1.12-.95-2.42Z" fill="#767676"/>
          <path d="M442.06,140.13c.6-.99,1.71-.89,2.3-.46s.92,1.44.34,2.31c-.31.46-.97.74-1.67.62-.78-.13-1.77-1.15-.97-2.47Z" fill="#767676"/>
          <path d="M449,140.12c.64-1.05,1.76-.92,2.36-.48s.96,1.46.36,2.36c-.33.5-.97.76-1.71.65-.81-.12-1.83-1.18-1.01-2.53Z" fill="#767676"/>
          <path d="M455.27,140.08c.63-1.05,1.82-.9,2.4-.49.64.45.95,1.54.38,2.42-.33.51-1.03.77-1.75.66-.83-.13-1.87-1.18-1.03-2.59Z" fill="#767676"/>
          <path d="M462.24,140.08c.65-1.08,1.83-.92,2.41-.5.65.47.98,1.54.39,2.43-.34.51-1.03.79-1.76.67-.84-.13-1.89-1.2-1.05-2.6Z" fill="#767676"/>
          <path d="M386.21,77.96c.57-.94,1.65-.85,2.24-.44s.88,1.4.32,2.24c-.29.44-.94.71-1.63.59-.76-.13-1.71-1.11-.93-2.4Z" fill="#767676"/>
          <path d="M393.07,77.9c.65-1.08,1.83-.92,2.41-.5.65.47.98,1.54.39,2.43-.34.51-1.03.79-1.76.67-.84-.13-1.89-1.2-1.05-2.6Z" fill="#767676"/>
          <path d="M469.22,140.08c.67-1.1,1.84-.93,2.43-.51.66.48,1,1.54.4,2.44-.35.52-1.03.8-1.77.68-.84-.13-1.91-1.21-1.06-2.61Z" fill="#767676"/>
          <path d="M393.09,43.66c.63-1.05,1.82-.9,2.4-.49.64.45.95,1.54.38,2.42-.33.51-1.03.77-1.75.66-.83-.13-1.87-1.18-1.03-2.59Z" fill="#767676"/>
          <path d="M386.18,63.98c.59-.98,1.69-.88,2.28-.45s.91,1.42.34,2.29c-.3.45-.96.71-1.66.6-.77-.12-1.75-1.12-.96-2.44Z" fill="#767676"/>
          <path d="M407.08,112.87c.64-1.05,1.76-.92,2.36-.48s.96,1.46.36,2.36c-.33.5-.97.76-1.71.65-.81-.12-1.83-1.18-1.01-2.53Z" fill="#767676"/>
          <path d="M400.19,112.9c.56-.93,1.63-.85,2.22-.43.54.39.87,1.38.32,2.22-.29.43-.93.7-1.61.58-.75-.13-1.68-1.1-.92-2.37Z" fill="#767676"/>
          <path d="M393.22,22.78c.55-.91,1.61-.85,2.2-.42.52.38.87,1.36.31,2.2-.28.42-.92.68-1.6.57-.74-.12-1.66-1.08-.91-2.34Z" fill="#767676"/>
          <path d="M400.1,22.74c.63-1.04,1.76-.91,2.35-.47s.94,1.46.36,2.35c-.33.5-.97.76-1.71.65-.81-.12-1.81-1.18-1-2.52Z" fill="#767676"/>
          <path d="M386.22,84.96c.56-.93,1.63-.85,2.22-.43.54.39.87,1.38.32,2.22-.29.43-.93.7-1.61.58-.75-.13-1.68-1.1-.92-2.37Z" fill="#767676"/>
          <path d="M393.1,84.92c.64-1.05,1.76-.92,2.36-.48s.96,1.46.36,2.36c-.33.5-.97.76-1.71.65-.81-.12-1.83-1.18-1.01-2.53Z" fill="#767676"/>
          <path d="M442.16,147.16c.53-.88,1.57-.82,2.14-.41.51.37.84,1.33.29,2.15-.28.41-.9.67-1.56.55-.72-.13-1.61-1.07-.87-2.29Z" fill="#767676"/>
          <path d="M393.17,29.75c.58-.96,1.67-.87,2.26-.44.56.4.9,1.41.33,2.27-.3.44-.95.71-1.64.6-.77-.13-1.73-1.12-.95-2.42Z" fill="#767676"/>
          <path d="M400.05,29.69c.67-1.1,1.84-.93,2.43-.51.66.48,1,1.54.4,2.44-.35.52-1.03.8-1.77.68-.84-.13-1.91-1.21-1.06-2.61Z" fill="#767676"/>
          <path d="M400.12,105.89c.61-1.02,1.73-.9,2.33-.47s.95,1.45.35,2.33c-.31.46-.97.75-1.68.63-.79-.13-1.8-1.16-.99-2.49Z" fill="#767676"/>
          <path d="M393.24,105.93c.54-.9,1.59-.83,2.17-.41.52.37.85,1.35.3,2.17-.28.42-.91.67-1.58.56-.73-.13-1.64-1.08-.89-2.32Z" fill="#767676"/>
          <path d="M449.11,147.15c.55-.91,1.61-.85,2.2-.42.52.38.87,1.36.31,2.2-.28.42-.92.68-1.6.57-.74-.12-1.66-1.08-.91-2.34Z" fill="#767676"/>
          <path d="M455.39,147.14c.56-.93,1.63-.85,2.22-.43.54.39.87,1.38.32,2.22-.29.43-.93.7-1.61.58-.75-.13-1.68-1.1-.92-2.37Z" fill="#767676"/>
          <path d="M393.13,36.72c.61-1.02,1.73-.9,2.33-.47s.95,1.45.35,2.33c-.31.46-.97.75-1.68.63-.79-.13-1.8-1.16-.99-2.49Z" fill="#767676"/>
          <path d="M386.26,91.97c.53-.88,1.57-.82,2.14-.41.51.37.84,1.33.29,2.15-.28.41-.9.67-1.56.55-.72-.13-1.61-1.07-.87-2.29Z" fill="#767676"/>
          <path d="M393.13,91.91c.61-1.02,1.73-.9,2.33-.47s.95,1.45.35,2.33c-.31.46-.97.75-1.68.63-.79-.13-1.8-1.16-.99-2.49Z" fill="#767676"/>
          <path d="M386.25,36.77c.54-.9,1.59-.83,2.17-.41.52.37.85,1.35.3,2.17-.28.42-.91.67-1.58.56-.73-.13-1.64-1.08-.89-2.32Z" fill="#767676"/>
          <path d="M462.36,147.13c.57-.94,1.65-.85,2.24-.44s.88,1.4.32,2.24c-.29.44-.94.71-1.63.59-.76-.13-1.71-1.11-.93-2.4Z" fill="#767676"/>
          <path d="M469.33,147.13c.58-.96,1.67-.87,2.26-.44.56.4.9,1.41.33,2.27-.3.44-.95.71-1.64.6-.77-.13-1.73-1.12-.95-2.42Z" fill="#767676"/>
          <path d="M400.06,98.86c.65-1.08,1.83-.92,2.41-.5.65.47.98,1.54.39,2.43-.34.51-1.03.79-1.76.67-.84-.13-1.89-1.2-1.05-2.6Z" fill="#767676"/>
          <path d="M393.17,98.92c.58-.96,1.67-.87,2.26-.44.56.4.9,1.41.33,2.27-.3.44-.95.71-1.64.6-.77-.13-1.73-1.12-.95-2.42Z" fill="#767676"/>
          <path d="M373.69,98.72c.71-.2,1.38.01,1.53.36.21.49.14,1.48-.32,1.69-.49.23-1.47.14-1.7-.31-.25-.5-.18-1.55.49-1.74Z" fill="#767676"/>
          <path d="M380.45,98.68c.9-.47,1.55-.03,1.81.35.41.59.24,1.41-.33,1.8-.44.3-1.03.3-1.47,0-.54-.37-.92-1.34,0-2.15Z" fill="#767676"/>
          <path d="M386.72,98.61c.88-.62,1.63-.07,1.91.31.52.72.3,1.55-.3,1.99-.57.41-1.15.37-1.68,0-.58-.41-1.01-1.53.08-2.3Z" fill="#767676"/>
          <path d="M380.48,91.72c.83-.6,1.53-.07,1.8.31.44.64.28,1.4-.33,1.83-.49.35-1.01.33-1.5,0-.56-.37-.99-1.4.03-2.14Z" fill="#767676"/>
          <path d="M373.7,91.68c.69-.25,1.35.03,1.55.39.29.53.19,1.44-.33,1.74s-1.43.19-1.74-.32-.25-1.53.52-1.81Z" fill="#767676"/>
          <path d="M380.5,105.78c.81-.55,1.54-.09,1.75.26.32.56.21,1.43-.33,1.77-.39.25-1.04.22-1.44,0-.51-.28-.87-1.42.02-2.02Z" fill="#767676"/>
          <path d="M386.76,105.68c.83-.61,1.53-.07,1.81.32.46.65.29,1.4-.33,1.85-.5.36-1.01.35-1.51,0-.57-.39-1.01-1.4.03-2.17Z" fill="#767676"/>
          <path d="M380.46,84.69c.85-.63,1.54-.06,1.83.34.51.68.3,1.4-.33,1.88-.53.4-1.02.37-1.54,0-.59-.42-1.05-1.41.04-2.21Z" fill="#767676"/>
          <path d="M373.52,84.82c.81-.55,1.54-.09,1.75.26.32.56.21,1.43-.33,1.77-.39.25-1.04.22-1.44,0-.51-.28-.87-1.42.02-2.02Z" fill="#767676"/>
          <path d="M380.67,112.68c.7-.22,1.38.01,1.55.37.23.5.16,1.48-.32,1.72s-1.47.16-1.72-.31c-.27-.5-.2-1.56.49-1.77Z" fill="#767676"/>
          <path d="M386.74,112.67c.9-.46,1.55-.03,1.8.34.39.57.23,1.42-.33,1.79-.42.28-1.04.28-1.46,0-.53-.35-.89-1.34-.01-2.13Z" fill="#767676"/>
          <path d="M393.7,112.59c.88-.62,1.63-.07,1.91.31.52.72.3,1.55-.3,1.99-.57.41-1.15.37-1.68,0-.58-.41-1.01-1.53.08-2.3Z" fill="#767676"/>
          <path d="M380.43,77.65c.88-.62,1.63-.07,1.91.31.52.72.3,1.55-.3,1.99-.57.41-1.15.37-1.68,0-.58-.41-1.01-1.53.08-2.3Z" fill="#767676"/>
          <path d="M373.51,77.82c.81-.55,1.54-.08,1.75.27.35.57.22,1.42-.33,1.78-.41.27-1.03.24-1.45,0-.52-.3-.89-1.41.03-2.05Z" fill="#767676"/>
          <path d="M366.7,77.78c.72-.19,1.4,0,1.53.35.19.49.13,1.5-.31,1.69-.48.2-1.49.13-1.69-.31-.23-.5-.16-1.56.47-1.73Z" fill="#767676"/>
          <path d="M386.98,118.93c.69-.25,1.35.03,1.55.39.29.53.19,1.44-.33,1.74s-1.43.19-1.74-.32-.25-1.53.52-1.81Z" fill="#767676"/>
          <path d="M393.75,118.97c.83-.6,1.53-.07,1.8.31.44.64.28,1.4-.33,1.83-.49.35-1.01.33-1.5,0-.56-.37-.99-1.4.03-2.14Z" fill="#767676"/>
          <path d="M400.84,118.73c.79-.41,1.45.02,1.77.43.54.7.36,1.53-.27,2.03-.69.55-1.51.38-2.03-.28-.49-.62-.48-1.65.54-2.18Z" fill="#767676"/>
          <path d="M380.59,70.55c.76-.39,1.45,0,1.75.42.5.68.33,1.52-.28,2.01-.67.54-1.5.37-2-.28-.46-.6-.45-1.64.53-2.14Z" fill="#767676"/>
          <path d="M373.47,70.75c.9-.46,1.55-.03,1.8.34.39.57.23,1.42-.33,1.79-.42.28-1.04.28-1.46,0-.53-.35-.89-1.34-.01-2.13Z" fill="#767676"/>
          <path d="M366.7,70.79c.72-.19,1.4,0,1.53.35.19.49.13,1.5-.31,1.69-.48.2-1.49.13-1.69-.31-.23-.5-.16-1.56.47-1.73Z" fill="#767676"/>
          <path d="M386.96,1.62c.72-.19,1.4,0,1.53.35.19.49.13,1.5-.31,1.69-.48.2-1.49.13-1.69-.31-.23-.5-.16-1.56.47-1.73Z" fill="#767676"/>
          <path d="M393.77,1.66c.81-.55,1.54-.08,1.75.27.35.57.22,1.42-.33,1.78-.41.27-1.03.24-1.45,0-.52-.3-.89-1.41.03-2.05Z" fill="#767676"/>
          <path d="M380.59,63.56c.76-.39,1.45,0,1.75.42.5.68.33,1.52-.28,2.01-.67.54-1.5.37-2-.28-.46-.6-.45-1.64.53-2.14Z" fill="#767676"/>
          <path d="M373.47,63.75c.9-.47,1.55-.03,1.81.35.41.59.24,1.41-.33,1.8-.44.3-1.03.3-1.47,0-.54-.37-.92-1.34,0-2.15Z" fill="#767676"/>
          <path d="M400.73,1.56c.84-.62,1.53-.06,1.82.33.49.67.29,1.4-.33,1.86-.52.39-1.01.36-1.53,0-.58-.41-1.03-1.4.04-2.19Z" fill="#767676"/>
          <path d="M386.96,125.98c.72-.19,1.4,0,1.53.35.19.49.13,1.5-.31,1.69-.48.2-1.49.13-1.69-.31-.23-.5-.16-1.56.47-1.73Z" fill="#767676"/>
          <path d="M393.78,126.04c.81-.55,1.54-.09,1.75.26.32.56.21,1.43-.33,1.77-.39.25-1.04.22-1.44,0-.51-.28-.87-1.42.02-2.02Z" fill="#767676"/>
          <path d="M400.73,125.94c.83-.61,1.53-.07,1.81.32.46.65.29,1.4-.33,1.85-.5.36-1.01.35-1.51,0-.57-.39-1.01-1.4.03-2.17Z" fill="#767676"/>
          <path d="M380.59,56.57c.76-.39,1.45,0,1.75.42.5.68.33,1.52-.28,2.01-.67.54-1.5.37-2-.28-.46-.6-.45-1.64.53-2.14Z" fill="#767676"/>
          <path d="M373.47,56.78c.9-.46,1.55-.03,1.8.34.39.57.23,1.42-.33,1.79-.42.28-1.04.28-1.46,0-.53-.35-.89-1.34-.01-2.13Z" fill="#767676"/>
          <path d="M366.7,56.82c.72-.19,1.4,0,1.53.35.19.49.13,1.5-.31,1.69-.48.2-1.49.13-1.69-.31-.23-.5-.16-1.56.47-1.73Z" fill="#767676"/>
          <path d="M386.79,8.69c.81-.54,1.55-.1,1.74.25.3.54.2,1.43-.33,1.76-.37.23-1.06.19-1.42,0-.51-.27-.84-1.43.02-2Z" fill="#767676"/>
          <path d="M393.75,8.58c.83-.6,1.53-.07,1.8.31.44.64.28,1.4-.33,1.83-.49.35-1.01.33-1.5,0-.56-.37-.99-1.4.03-2.14Z" fill="#767676"/>
          <path d="M380.68,15.55c.69-.23,1.36.02,1.54.38.26.51.17,1.46-.32,1.72s-1.45.17-1.73-.32-.22-1.54.51-1.78Z" fill="#767676"/>
          <path d="M393.95,132.96c.71-.2,1.38.01,1.53.36.21.49.14,1.48-.32,1.69-.49.23-1.47.14-1.7-.31-.25-.5-.18-1.55.49-1.74Z" fill="#767676"/>
          <path d="M400.76,133.03c.81-.55,1.54-.09,1.75.26.32.56.21,1.43-.33,1.77-.39.25-1.04.22-1.44,0-.51-.28-.87-1.42.02-2.02Z" fill="#767676"/>
          <path d="M407.72,132.92c.83-.61,1.53-.07,1.81.32.46.65.29,1.4-.33,1.85-.5.36-1.01.35-1.51,0-.57-.39-1.01-1.4.03-2.17Z" fill="#767676"/>
          <path d="M414.82,132.7c.79-.41,1.45.02,1.77.43.54.7.36,1.53-.27,2.03-.69.55-1.51.38-2.03-.28-.49-.62-.48-1.65.54-2.18Z" fill="#767676"/>
          <path d="M380.43,49.71c.88-.62,1.63-.07,1.91.31.52.72.3,1.55-.3,1.99-.57.41-1.15.37-1.68,0-.58-.41-1.01-1.53.08-2.3Z" fill="#767676"/>
          <path d="M373.47,49.79c.9-.46,1.55-.03,1.8.34.39.57.23,1.42-.33,1.79-.42.28-1.04.28-1.46,0-.53-.35-.89-1.34-.01-2.13Z" fill="#767676"/>
          <path d="M366.7,49.83c.72-.19,1.4,0,1.53.35.19.49.13,1.5-.31,1.69-.48.2-1.49.13-1.69-.31-.23-.5-.16-1.56.47-1.73Z" fill="#767676"/>
          <path d="M386.74,15.54c.9-.47,1.55-.03,1.81.35.41.59.24,1.41-.33,1.8-.44.3-1.03.3-1.47,0-.54-.37-.92-1.34,0-2.15Z" fill="#767676"/>
          <path d="M393.86,15.35c.76-.39,1.45,0,1.75.42.5.68.33,1.52-.28,2.01-.67.54-1.5.37-2-.28-.46-.6-.45-1.64.53-2.14Z" fill="#767676"/>
          <path d="M400.94,139.94c.71-.2,1.38.01,1.53.36.21.49.14,1.48-.32,1.69-.49.23-1.47.14-1.7-.31-.25-.5-.18-1.55.49-1.74Z" fill="#767676"/>
          <path d="M407.75,140.02c.81-.55,1.54-.09,1.75.26.32.56.21,1.43-.33,1.77-.39.25-1.04.22-1.44,0-.51-.28-.87-1.42.02-2.02Z" fill="#767676"/>
          <path d="M414.71,139.93c.83-.6,1.53-.07,1.8.31.44.64.28,1.4-.33,1.83-.49.35-1.01.33-1.5,0-.56-.37-.99-1.4.03-2.14Z" fill="#767676"/>
          <path d="M421.65,139.83c.88-.62,1.63-.07,1.91.31.52.72.3,1.55-.3,1.99-.57.41-1.15.37-1.68,0-.58-.41-1.01-1.53.08-2.3Z" fill="#767676"/>
          <path d="M380.5,22.64c.81-.55,1.54-.09,1.75.26.32.56.21,1.43-.33,1.77-.39.25-1.04.22-1.44,0-.51-.28-.87-1.42.02-2.02Z" fill="#767676"/>
          <path d="M386.76,22.52c.84-.62,1.53-.06,1.82.33.49.67.29,1.4-.33,1.86-.52.39-1.01.36-1.53,0-.58-.41-1.03-1.4.04-2.19Z" fill="#767676"/>
          <path d="M380.46,43.46c.85-.63,1.54-.06,1.83.34.51.68.3,1.4-.33,1.88-.53.4-1.02.37-1.54,0-.59-.42-1.05-1.41.04-2.21Z" fill="#767676"/>
          <path d="M373.52,43.6c.81-.55,1.54-.09,1.75.26.32.56.21,1.43-.33,1.77-.39.25-1.04.22-1.44,0-.51-.28-.87-1.42.02-2.02Z" fill="#767676"/>
          <path d="M373.69,29.54c.7-.22,1.38.01,1.55.37.23.5.16,1.48-.32,1.72s-1.47.16-1.72-.31c-.27-.5-.2-1.56.49-1.77Z" fill="#767676"/>
          <path d="M380.45,29.52c.9-.47,1.55-.03,1.81.35.41.59.24,1.41-.33,1.8-.44.3-1.03.3-1.47,0-.54-.37-.92-1.34,0-2.15Z" fill="#767676"/>
          <path d="M407.92,146.94c.72-.19,1.4,0,1.53.35.19.49.13,1.5-.31,1.69-.48.2-1.49.13-1.69-.31-.23-.5-.16-1.56.47-1.73Z" fill="#767676"/>
          <path d="M414.92,146.88c.69-.25,1.35.03,1.55.39.29.53.19,1.44-.33,1.74s-1.43.19-1.74-.32-.25-1.53.52-1.81Z" fill="#767676"/>
          <path d="M421.68,146.91c.9-.46,1.55-.03,1.8.34.39.57.23,1.42-.33,1.79-.42.28-1.04.28-1.46,0-.53-.35-.89-1.34-.01-2.13Z" fill="#767676"/>
          <path d="M428.68,146.9c.83-.61,1.53-.07,1.81.32.46.65.29,1.4-.33,1.85-.5.36-1.01.35-1.51,0-.57-.39-1.01-1.4.03-2.17Z" fill="#767676"/>
          <path d="M435.62,146.82c.88-.62,1.63-.07,1.91.31.52.72.3,1.55-.3,1.99-.57.41-1.15.37-1.68,0-.58-.41-1.01-1.53.08-2.3Z" fill="#767676"/>
          <path d="M386.88,29.32c.76-.39,1.45,0,1.75.42.5.68.33,1.52-.28,2.01-.67.54-1.5.37-2-.28-.46-.6-.45-1.64.53-2.14Z" fill="#767676"/>
          <path d="M380.47,36.51c.83-.61,1.53-.07,1.81.32.46.65.29,1.4-.33,1.85-.5.36-1.01.35-1.51,0-.57-.39-1.01-1.4.03-2.17Z" fill="#767676"/>
          <path d="M373.7,36.49c.69-.25,1.35.03,1.55.39.29.53.19,1.44-.33,1.74s-1.43.19-1.74-.32-.25-1.53.52-1.81Z" fill="#767676"/>
          <path d="M421.9,153.92c.71-.2,1.38.01,1.53.36.21.49.14,1.48-.32,1.69-.49.23-1.47.14-1.7-.31-.25-.5-.18-1.55.49-1.74Z" fill="#767676"/>
          <path d="M428.71,154.01c.81-.54,1.55-.1,1.74.25.3.54.2,1.43-.33,1.76-.37.23-1.06.19-1.42,0-.51-.27-.84-1.43.02-2Z" fill="#767676"/>
          <path d="M435.65,153.9c.9-.46,1.55-.03,1.8.34.39.57.23,1.42-.33,1.79-.42.28-1.04.28-1.46,0-.53-.35-.89-1.34-.01-2.13Z" fill="#767676"/>
          <path d="M442.63,153.86c.91-.48,1.55-.03,1.83.36.43.6.26,1.41-.33,1.82-.46.32-1.03.32-1.49,0-.55-.39-.94-1.34-.01-2.18Z" fill="#767676"/>
          <path d="M449.64,153.88c.83-.61,1.53-.07,1.81.32.46.65.29,1.4-.33,1.85-.5.36-1.01.35-1.51,0-.57-.39-1.01-1.4.03-2.17Z" fill="#767676"/>
          <path d="M455.92,153.85c.85-.63,1.54-.06,1.83.34.51.68.3,1.4-.33,1.88-.53.4-1.02.37-1.54,0-.59-.42-1.05-1.41.04-2.21Z" fill="#767676"/>
          <path d="M462.9,153.85c.85-.63,1.54-.06,1.83.34.51.68.3,1.4-.33,1.88-.53.4-1.02.37-1.54,0-.59-.42-1.05-1.41.04-2.21Z" fill="#767676"/>
          <path d="M469.86,153.81c.88-.62,1.63-.07,1.91.31.52.72.3,1.55-.3,1.99-.57.41-1.15.37-1.68,0-.58-.41-1.01-1.53.08-2.3Z" fill="#767676"/>
          <path d="M435.86,160.92c.72-.19,1.4,0,1.53.35.19.49.13,1.5-.31,1.69-.48.2-1.49.13-1.69-.31-.23-.5-.16-1.56.47-1.73Z" fill="#767676"/>
          <path d="M442.86,160.87c.69-.23,1.36.02,1.54.38.26.51.17,1.46-.32,1.72s-1.45.17-1.73-.32-.22-1.54.51-1.78Z" fill="#767676"/>
          <path d="M449.85,160.85c.69-.25,1.35.03,1.55.39.29.53.19,1.44-.33,1.74s-1.43.19-1.74-.32-.25-1.53.52-1.81Z" fill="#767676"/>
          <path d="M455.96,160.98c.81-.55,1.54-.09,1.75.26.32.56.21,1.43-.33,1.77-.39.25-1.04.22-1.44,0-.51-.28-.87-1.42.02-2.02Z" fill="#767676"/>
          <path d="M462.94,160.96c.81-.55,1.54-.08,1.75.27.35.57.22,1.42-.33,1.78-.41.27-1.03.24-1.45,0-.52-.3-.89-1.41.03-2.05Z" fill="#767676"/>
          <path d="M469.93,160.96c.81-.55,1.54-.08,1.75.27.35.57.22,1.42-.33,1.78-.41.27-1.03.24-1.45,0-.52-.3-.89-1.41.03-2.05Z" fill="#767676"/>
          <path d="M366.7,63.79c.71-.2,1.38.01,1.53.36.21.49.14,1.48-.32,1.69-.49.23-1.47.14-1.7-.31-.25-.5-.18-1.55.49-1.74Z" fill="#767676"/>
        </g>
        <g opacity=".4">
          <g>
            <path d="M23.05,573.22c1.09-.85,2.41-.38,2.91.29.65.87.54,2.29-.33,2.95-.73.55-1.85.54-2.61,0-.81-.58-1.21-2.27.03-3.24Z" fill="#767676"/>
            <path d="M29.32,573.2c1.1-.86,2.43-.38,2.94.29.67.89.55,2.3-.34,2.98-.75.57-1.86.56-2.63,0-.82-.6-1.24-2.28.03-3.27Z" fill="#767676"/>
            <path d="M36.29,573.18c1.12-.87,2.45-.38,2.98.3.71.91.56,2.31-.35,3.01-.77.59-1.86.58-2.66,0-.84-.62-1.29-2.29.02-3.31Z" fill="#767676"/>
            <path d="M43.28,573.18c1.12-.87,2.45-.38,2.98.3.71.91.56,2.31-.35,3.01-.77.59-1.86.58-2.66,0-.84-.62-1.29-2.29.02-3.31Z" fill="#767676"/>
            <path d="M50.27,573.18c1.12-.87,2.45-.38,2.98.3.71.91.56,2.31-.35,3.01-.77.59-1.86.58-2.66,0-.84-.62-1.29-2.29.02-3.31Z" fill="#767676"/>
            <path d="M57.27,573.2c1.1-.86,2.43-.38,2.94.29.67.89.55,2.3-.34,2.98-.75.57-1.86.56-2.63,0-.82-.6-1.24-2.28.03-3.27Z" fill="#767676"/>
            <path d="M64.27,573.22c1.09-.85,2.41-.38,2.91.29.65.87.54,2.29-.33,2.95-.73.55-1.85.54-2.61,0-.81-.58-1.21-2.27.03-3.24Z" fill="#767676"/>
            <path d="M9.07,580.2c1.09-.85,2.41-.38,2.91.29.65.87.54,2.29-.33,2.95-.73.55-1.85.54-2.61,0-.81-.58-1.21-2.27.03-3.24Z" fill="#767676"/>
            <path d="M16.03,580.16c1.12-.87,2.45-.38,2.98.3.71.91.56,2.31-.35,3.01-.77.59-1.86.58-2.66,0-.84-.62-1.29-2.29.02-3.31Z" fill="#767676"/>
            <path d="M22.97,580.11c1.14-.89,2.55-.41,3.08.3.68.92.57,2.43-.34,3.12-.78.59-1.97.58-2.77,0-.84-.61-1.26-2.41.03-3.42Z" fill="#767676"/>
            <path d="M29.25,580.1c1.15-.9,2.57-.41,3.1.3.69.93.57,2.45-.34,3.15-.79.6-1.99.59-2.79,0s-1.27-2.42.03-3.45Z" fill="#767676"/>
            <path d="M36.23,580.08c1.18-.93,2.58-.41,3.12.31.72.95.59,2.45-.35,3.17-.8.62-1.98.6-2.81,0-.87-.64-1.31-2.42.03-3.48Z" fill="#767676"/>
            <path d="M50.2,580.08c1.18-.93,2.58-.41,3.12.31.72.95.59,2.45-.35,3.17-.8.62-1.98.6-2.81,0-.87-.64-1.31-2.42.03-3.48Z" fill="#767676"/>
            <path d="M57.19,580.1c1.15-.9,2.57-.41,3.1.3.69.93.57,2.45-.34,3.15-.79.6-1.99.59-2.79,0s-1.27-2.42.03-3.45Z" fill="#767676"/>
            <path d="M64.2,580.13c1.13-.88,2.56-.41,3.06.29.66.91.54,2.44-.34,3.11-.78.6-1.97.58-2.76,0s-1.23-2.41.03-3.39Z" fill="#767676"/>
            <path d="M71.24,580.17c1.12-.87,2.44-.37,2.96.3.71.92.56,2.3-.35,3-.77.6-1.85.59-2.64,0-.84-.62-1.29-2.28.02-3.3Z" fill="#767676"/>
            <path d="M78.25,580.22c1.08-.84,2.41-.39,2.9.28.63.86.54,2.28-.33,2.93-.72.54-1.85.53-2.59,0-.8-.57-1.2-2.26.02-3.21Z" fill="#767676"/>
            <path d="M2.08,587.18c1.1-.86,2.42-.39,2.93.29.66.88.55,2.29-.33,2.96-.74.56-1.86.55-2.62,0-.81-.59-1.23-2.27.03-3.26Z" fill="#767676"/>
            <path d="M9.01,587.12c1.12-.87,2.55-.41,3.05.28.66.9.55,2.43-.33,3.1-.77.59-1.97.57-2.75,0s-1.23-2.4.03-3.38Z" fill="#767676"/>
            <path d="M15.97,587.07c1.17-.92,2.58-.41,3.12.31.71.94.58,2.45-.35,3.16-.8.62-1.99.6-2.81,0s-1.3-2.42.03-3.47Z" fill="#767676"/>
            <path d="M22.94,587.05c1.19-.93,2.6-.42,3.15.32.73.96.59,2.47-.35,3.2-.81.63-2,.62-2.84,0s-1.32-2.44.04-3.51Z" fill="#767676"/>
            <path d="M29.22,587.03c1.2-.95,2.61-.41,3.18.32.75.99.59,2.48-.35,3.23-.83.66-2.02.65-2.86,0s-1.34-2.46.04-3.56Z" fill="#767676"/>
            <path d="M36.2,587.02c1.21-.96,2.62-.41,3.19.33.76.99.6,2.48-.36,3.24-.83.66-2.02.65-2.87,0-.89-.68-1.36-2.46.04-3.57Z" fill="#767676"/>
            <path d="M43.19,587.01c1.21-.96,2.62-.41,3.19.33.76,1,.6,2.49-.36,3.25-.84.67-2.02.65-2.88,0s-1.36-2.47.04-3.58Z" fill="#767676"/>
            <path d="M50.17,587.02c1.21-.96,2.62-.41,3.19.33.76.99.6,2.48-.36,3.24-.83.66-2.02.65-2.87,0-.89-.68-1.36-2.46.04-3.57Z" fill="#767676"/>
            <path d="M57.17,587.03c1.2-.95,2.6-.42,3.17.32.75.97.61,2.47-.35,3.21-.82.64-2,.63-2.85,0-.89-.66-1.35-2.44.04-3.54Z" fill="#767676"/>
            <path d="M64.17,587.05c1.18-.93,2.59-.42,3.14.31.72.96.59,2.46-.35,3.19-.81.63-2,.62-2.83,0s-1.31-2.44.04-3.5Z" fill="#767676"/>
            <path d="M71.17,587.08c1.15-.9,2.57-.41,3.1.3.69.93.57,2.45-.34,3.15-.79.6-1.99.59-2.79,0s-1.27-2.42.03-3.45Z" fill="#767676"/>
            <path d="M78.18,587.13c1.12-.87,2.53-.41,3.05.28.65.89.56,2.42-.33,3.09-.75.56-1.97.55-2.74,0-.82-.58-1.22-2.4.03-3.37Z" fill="#767676"/>
            <path d="M85.23,587.19c1.09-.85,2.41-.38,2.91.29.65.87.54,2.29-.33,2.95-.73.55-1.85.54-2.61,0-.81-.58-1.21-2.27.03-3.24Z" fill="#767676"/>
            <path d="M43.21,580.08c1.18-.93,2.58-.41,3.12.31.72.95.59,2.45-.35,3.17-.8.62-1.98.6-2.81,0-.87-.64-1.31-2.42.03-3.48Z" fill="#767676"/>
            <path d="M16.67,559.19c1.16-.5,2.07.28,2.35.97.38.93-.07,1.97-1.01,2.37-.77.33-1.6.06-2.12-.6-.58-.73-.61-2.13.78-2.74Z" fill="#767676"/>
            <path d="M23.64,559.17c1.19-.51,2.11.28,2.39.98.38.94-.07,2.01-1.02,2.4-.78.32-1.63.07-2.16-.6-.59-.74-.62-2.18.79-2.78Z" fill="#767676"/>
            <path d="M29.93,559.15c1.19-.52,2.12.28,2.41.99.39.96-.07,2.02-1.02,2.43-.79.34-1.65.07-2.18-.6-.6-.75-.63-2.19.79-2.81Z" fill="#767676"/>
            <path d="M37.13,559.04c1.03-.29,1.89.36,2.2,1.1.4.95-.08,2.03-1.03,2.44s-2.02-.08-2.44-1.03.04-2.15,1.27-2.5Z" fill="#767676"/>
            <path d="M106.1,587.14c1.16-.5,2.07.27,2.35.97.37.92-.07,1.97-1,2.36-.77.32-1.6.06-2.12-.59-.58-.73-.61-2.13.78-2.73Z" fill="#767676"/>
            <path d="M99.31,586.99c1.03-.29,1.89.36,2.2,1.1.4.95-.08,2.03-1.03,2.44s-2.02-.08-2.44-1.03.04-2.15,1.27-2.5Z" fill="#767676"/>
            <path d="M93.01,586.93c1.05-.31,1.94.38,2.27,1.12.43.98-.08,2.09-1.05,2.52s-2.08-.08-2.52-1.05.03-2.21,1.3-2.59Z" fill="#767676"/>
            <path d="M44.12,559.04c1.03-.29,1.89.36,2.2,1.1.4.95-.08,2.03-1.03,2.44s-2.02-.08-2.44-1.03.04-2.15,1.27-2.5Z" fill="#767676"/>
            <path d="M51.1,559.04c1.03-.29,1.89.36,2.2,1.1.4.95-.08,2.03-1.03,2.44s-2.02-.08-2.44-1.03.04-2.15,1.27-2.5Z" fill="#767676"/>
            <path d="M57.87,559.15c1.19-.52,2.12.28,2.41.99.39.96-.07,2.02-1.02,2.43-.79.34-1.65.07-2.18-.6-.6-.75-.63-2.19.79-2.81Z" fill="#767676"/>
            <path d="M64.87,559.17c1.19-.51,2.11.28,2.39.98.38.94-.07,2.01-1.02,2.4-.78.32-1.63.07-2.16-.6-.59-.74-.62-2.18.79-2.78Z" fill="#767676"/>
            <path d="M71.87,559.19c1.16-.5,2.07.27,2.35.97.37.92-.07,1.97-1,2.36-.77.32-1.6.06-2.12-.59-.58-.73-.61-2.13.78-2.73Z" fill="#767676"/>
            <path d="M99.12,580.15c1.16-.5,2.07.28,2.35.97.38.93-.07,1.97-1.01,2.37-.77.33-1.6.06-2.12-.6-.58-.73-.61-2.13.78-2.74Z" fill="#767676"/>
            <path d="M93.02,579.99c1.03-.3,1.9.37,2.21,1.1.41.96-.08,2.04-1.03,2.45s-2.03-.08-2.45-1.03.03-2.16,1.27-2.52Z" fill="#767676"/>
            <path d="M86.02,579.94c1.05-.31,1.94.38,2.27,1.12.43.98-.08,2.09-1.05,2.52s-2.08-.08-2.52-1.05.03-2.21,1.3-2.59Z" fill="#767676"/>
            <path d="M2.87,579.93c1.06-.32,1.96.38,2.29,1.13.44.99-.08,2.1-1.05,2.54s-2.09-.08-2.54-1.05.02-2.23,1.3-2.61Z" fill="#767676"/>
            <path d="M2.7,566.17c1.16-.5,2.07.28,2.35.97.38.93-.07,1.97-1.01,2.37-.77.33-1.6.06-2.12-.6-.58-.73-.61-2.13.78-2.74Z" fill="#767676"/>
            <path d="M9.66,566.13c1.19-.52,2.12.28,2.41.99.39.96-.07,2.02-1.02,2.43-.79.34-1.65.07-2.18-.6-.6-.75-.63-2.19.79-2.81Z" fill="#767676"/>
            <path d="M16.86,566.01c1.04-.3,1.91.37,2.22,1.1.41.96-.07,2.05-1.03,2.46s-2.04-.08-2.46-1.03.03-2.17,1.27-2.53Z" fill="#767676"/>
            <path d="M23.84,565.98c1.05-.31,1.93.38,2.26,1.12.43.98-.08,2.08-1.05,2.51s-2.07-.08-2.51-1.05.03-2.2,1.29-2.58Z" fill="#767676"/>
            <path d="M30.12,565.96c1.06-.32,1.96.38,2.29,1.13.44.99-.08,2.1-1.05,2.54s-2.09-.08-2.54-1.05.02-2.23,1.3-2.61Z" fill="#767676"/>
            <path d="M37.11,565.95c1.06-.32,1.96.39,2.29,1.13.44.99-.08,2.11-1.06,2.55s-2.1-.08-2.55-1.06.03-2.23,1.31-2.62Z" fill="#767676"/>
            <path d="M44.09,565.95c1.06-.32,1.96.39,2.29,1.13.44.99-.08,2.11-1.06,2.55s-2.1-.08-2.55-1.06.03-2.23,1.31-2.62Z" fill="#767676"/>
            <path d="M51.08,565.95c1.06-.32,1.96.39,2.29,1.13.44.99-.08,2.11-1.06,2.55s-2.1-.08-2.55-1.06.03-2.23,1.31-2.62Z" fill="#767676"/>
            <path d="M58.07,565.96c1.06-.32,1.96.38,2.29,1.13.44.99-.08,2.1-1.05,2.54s-2.09-.08-2.54-1.05.02-2.23,1.3-2.61Z" fill="#767676"/>
            <path d="M92.83,573.16c1.16-.5,2.07.28,2.35.97.38.93-.07,1.97-1.01,2.37-.77.33-1.6.06-2.12-.6-.58-.73-.61-2.13.78-2.74Z" fill="#767676"/>
            <path d="M86.04,573.01c1.03-.29,1.89.36,2.2,1.1.4.95-.08,2.03-1.03,2.44s-2.02-.08-2.44-1.03.04-2.15,1.27-2.5Z" fill="#767676"/>
            <path d="M79.04,572.98c1.05-.31,1.93.37,2.25,1.11.42.97-.08,2.07-1.04,2.49s-2.06-.08-2.49-1.04.03-2.19,1.28-2.56Z" fill="#767676"/>
            <path d="M72.04,572.93c1.06-.32,1.96.39,2.29,1.13.44.99-.08,2.11-1.06,2.55s-2.1-.08-2.55-1.06.03-2.23,1.31-2.62Z" fill="#767676"/>
            <path d="M16.84,572.93c1.07-.32,1.98.39,2.31,1.13.44,1-.08,2.12-1.06,2.56s-2.11-.08-2.56-1.06c-.43-.94.02-2.25,1.31-2.64Z" fill="#767676"/>
            <path d="M9.87,572.96c1.05-.31,1.93.38,2.26,1.12.43.98-.08,2.08-1.05,2.51s-2.07-.08-2.51-1.05.03-2.2,1.29-2.58Z" fill="#767676"/>
            <path d="M2.89,573c1.03-.3,1.9.37,2.21,1.1.41.96-.08,2.04-1.03,2.45s-2.03-.08-2.45-1.03.03-2.16,1.27-2.52Z" fill="#767676"/>
            <path d="M65.06,565.99c1.05-.31,1.93.37,2.25,1.11.42.97-.08,2.07-1.04,2.49s-2.06-.08-2.49-1.04.03-2.19,1.28-2.56Z" fill="#767676"/>
            <path d="M72.06,566.02c1.03-.3,1.9.37,2.21,1.1.41.96-.08,2.04-1.03,2.45s-2.03-.08-2.45-1.03.03-2.16,1.27-2.52Z" fill="#767676"/>
            <path d="M78.83,566.14c1.19-.52,2.12.28,2.4.98.38.95-.07,2.02-1.02,2.42-.78.33-1.64.07-2.17-.6-.59-.74-.63-2.19.79-2.8Z" fill="#767676"/>
            <path d="M85.84,566.18c1.16-.5,2.07.27,2.35.97.37.92-.07,1.97-1,2.36-.77.32-1.6.06-2.12-.59-.58-.73-.61-2.13.78-2.73Z" fill="#767676"/>
            <path d="M92.12,566.95c.64-1.05,1.76-.92,2.36-.48s.96,1.46.36,2.36c-.33.5-.97.76-1.71.65-.81-.12-1.83-1.18-1.01-2.53Z" fill="#767676"/>
            <path d="M98.48,566.97c.58-.96,1.67-.87,2.26-.44.56.4.9,1.41.33,2.27-.3.44-.95.71-1.64.6-.77-.13-1.73-1.12-.95-2.42Z" fill="#767676"/>
            <path d="M105.55,567.01c.53-.88,1.57-.82,2.14-.41.51.37.84,1.33.29,2.15-.28.41-.9.67-1.56.55-.72-.13-1.61-1.07-.87-2.29Z" fill="#767676"/>
            <path d="M98.4,573.9c.63-1.05,1.82-.9,2.4-.49.64.45.95,1.54.38,2.42-.33.51-1.03.77-1.75.66-.83-.13-1.87-1.18-1.03-2.59Z" fill="#767676"/>
            <path d="M105.47,573.96c.58-.96,1.67-.87,2.26-.44.56.4.9,1.41.33,2.27-.3.44-.95.71-1.64.6-.77-.13-1.73-1.12-.95-2.42Z" fill="#767676"/>
            <path d="M92.23,560c.56-.93,1.63-.85,2.22-.43.54.39.87,1.38.32,2.22-.29.43-.93.7-1.61.58-.75-.13-1.68-1.1-.92-2.37Z" fill="#767676"/>
            <path d="M85.16,559.97c.61-1.02,1.73-.9,2.33-.47s.95,1.45.35,2.33c-.31.46-.97.75-1.68.63-.79-.13-1.8-1.16-.99-2.49Z" fill="#767676"/>
            <path d="M78.12,559.93c.65-1.08,1.83-.92,2.41-.5.65.47.98,1.54.39,2.43-.34.51-1.03.79-1.76.67-.84-.13-1.89-1.2-1.05-2.6Z" fill="#767676"/>
            <path d="M8.94,559.93c.67-1.1,1.84-.93,2.43-.51.66.48,1,1.54.4,2.44-.35.52-1.03.8-1.77.68-.84-.13-1.91-1.21-1.06-2.61Z" fill="#767676"/>
            <path d="M2.01,559.97c.63-1.04,1.76-.91,2.35-.47s.94,1.46.36,2.35c-.33.5-.97.76-1.71.65-.81-.12-1.81-1.18-1-2.52Z" fill="#767676"/>
            <path d="M105.4,580.92c.64-1.05,1.76-.92,2.36-.48s.96,1.46.36,2.36c-.33.5-.97.76-1.71.65-.81-.12-1.83-1.18-1.01-2.53Z" fill="#767676"/>
            <path d="M112.47,580.95c.57-.94,1.65-.85,2.24-.44s.88,1.4.32,2.24c-.29.44-.94.71-1.63.59-.76-.13-1.71-1.11-.93-2.4Z" fill="#767676"/>
            <path d="M85.27,553.03c.54-.9,1.59-.83,2.17-.41.52.37.85,1.35.3,2.17-.28.42-.91.67-1.58.56-.73-.13-1.64-1.08-.89-2.32Z" fill="#767676"/>
            <path d="M78.22,553c.58-.96,1.67-.87,2.26-.44.56.4.9,1.41.33,2.27-.3.44-.95.71-1.64.6-.77-.13-1.73-1.12-.95-2.42Z" fill="#767676"/>
            <path d="M71.19,552.98c.61-1.02,1.73-.9,2.33-.47s.95,1.45.35,2.33c-.31.46-.97.75-1.68.63-.79-.13-1.8-1.16-.99-2.49Z" fill="#767676"/>
            <path d="M64.18,552.98c.64-1.05,1.76-.92,2.36-.48s.96,1.46.36,2.36c-.33.5-.97.76-1.71.65-.81-.12-1.83-1.18-1.01-2.53Z" fill="#767676"/>
            <path d="M57.16,552.94c.65-1.08,1.83-.92,2.41-.5.65.47.98,1.54.39,2.43-.34.51-1.03.79-1.76.67-.84-.13-1.89-1.2-1.05-2.6Z" fill="#767676"/>
            <path d="M50.16,552.94c.67-1.1,1.84-.93,2.43-.51.66.48,1,1.54.4,2.44-.35.52-1.03.8-1.77.68-.84-.13-1.91-1.21-1.06-2.61Z" fill="#767676"/>
            <path d="M43.16,552.94c.68-1.12,1.86-.93,2.44-.51.68.49,1.02,1.55.41,2.45-.35.52-1.04.81-1.78.7-.84-.13-1.93-1.22-1.07-2.63Z" fill="#767676"/>
            <path d="M36.19,552.94c.67-1.1,1.84-.93,2.43-.51.66.48,1,1.54.4,2.44-.35.52-1.03.8-1.77.68-.84-.13-1.91-1.21-1.06-2.61Z" fill="#767676"/>
            <path d="M29.21,552.94c.65-1.08,1.83-.92,2.41-.5.65.47.98,1.54.39,2.43-.34.51-1.03.79-1.76.67-.84-.13-1.89-1.2-1.05-2.6Z" fill="#767676"/>
            <path d="M112.41,587.92c.61-1.02,1.73-.9,2.33-.47s.95,1.45.35,2.33c-.31.46-.97.75-1.68.63-.79-.13-1.8-1.16-.99-2.49Z" fill="#767676"/>
            <path d="M119.5,587.96c.54-.9,1.59-.83,2.17-.41.52.37.85,1.35.3,2.17-.28.42-.91.67-1.58.56-.73-.13-1.64-1.08-.89-2.32Z" fill="#767676"/>
            <path d="M22.94,552.94c.63-1.05,1.82-.9,2.4-.49.64.45.95,1.54.38,2.42-.33.51-1.03.77-1.75.66-.83-.13-1.87-1.18-1.03-2.59Z" fill="#767676"/>
            <path d="M16,552.98c.61-1.02,1.73-.9,2.33-.47s.95,1.45.35,2.33c-.31.46-.97.75-1.68.63-.79-.13-1.8-1.16-.99-2.49Z" fill="#767676"/>
            <path d="M9.05,553c.58-.96,1.67-.87,2.26-.44.56.4.9,1.41.33,2.27-.3.44-.95.71-1.64.6-.77-.13-1.73-1.12-.95-2.42Z" fill="#767676"/>
            <path d="M2.11,553.02c.55-.91,1.61-.85,2.2-.42.52.38.87,1.36.31,2.2-.28.42-.92.68-1.6.57-.74-.12-1.66-1.08-.91-2.34Z" fill="#767676"/>
            <path d="M71.31,546.05c.53-.88,1.57-.82,2.14-.41.51.37.84,1.33.29,2.15-.28.41-.9.67-1.56.55-.72-.13-1.61-1.07-.87-2.29Z" fill="#767676"/>
            <path d="M64.28,546.03c.56-.93,1.63-.85,2.22-.43.54.39.87,1.38.32,2.22-.29.43-.93.7-1.61.58-.75-.13-1.68-1.1-.92-2.37Z" fill="#767676"/>
            <path d="M57.28,546.02c.57-.94,1.65-.85,2.24-.44s.88,1.4.32,2.24c-.29.44-.94.71-1.63.59-.76-.13-1.71-1.11-.93-2.4Z" fill="#767676"/>
            <path d="M50.27,546.01c.58-.96,1.67-.87,2.26-.44.56.4.9,1.41.33,2.27-.3.44-.95.71-1.64.6-.77-.13-1.73-1.12-.95-2.42Z" fill="#767676"/>
            <path d="M43.27,546c.59-.98,1.69-.88,2.28-.45s.91,1.42.34,2.29c-.3.45-.96.71-1.66.6-.77-.12-1.75-1.12-.96-2.44Z" fill="#767676"/>
            <path d="M36.3,546.01c.58-.96,1.67-.87,2.26-.44.56.4.9,1.41.33,2.27-.3.44-.95.71-1.64.6-.77-.13-1.73-1.12-.95-2.42Z" fill="#767676"/>
            <path d="M29.33,546.02c.57-.94,1.65-.85,2.24-.44s.88,1.4.32,2.24c-.29.44-.94.71-1.63.59-.76-.13-1.71-1.11-.93-2.4Z" fill="#767676"/>
            <path d="M23.06,546.03c.56-.93,1.63-.85,2.22-.43.54.39.87,1.38.32,2.22-.29.43-.93.7-1.61.58-.75-.13-1.68-1.1-.92-2.37Z" fill="#767676"/>
            <path d="M16.1,546.04c.54-.9,1.59-.83,2.17-.41.52.37.85,1.35.3,2.17-.28.42-.91.67-1.58.56-.73-.13-1.64-1.08-.89-2.32Z" fill="#767676"/>
            <path d="M99.27,545.77c.69-.25,1.35.03,1.55.39.29.53.19,1.44-.33,1.74s-1.43.19-1.74-.32-.25-1.53.52-1.81Z" fill="#767676"/>
            <path d="M92.97,539.51c.7-.22,1.38.01,1.55.37.23.5.16,1.48-.32,1.72s-1.47.16-1.72-.31c-.27-.5-.2-1.56.49-1.77Z" fill="#767676"/>
            <path d="M2.63,545.77c.84-.62,1.53-.06,1.82.33.49.67.29,1.4-.33,1.86-.52.39-1.01.36-1.53,0-.58-.41-1.03-1.4.04-2.19Z" fill="#767676"/>
            <path d="M9.74,545.59c.76-.39,1.45,0,1.75.42.5.68.33,1.52-.28,2.01-.67.54-1.5.37-2-.28-.46-.6-.45-1.64.53-2.14Z" fill="#767676"/>
            <path d="M78.77,539.49c.9-.47,1.55-.03,1.81.35.41.59.24,1.41-.33,1.8-.44.3-1.03.3-1.47,0-.54-.37-.92-1.34,0-2.15Z" fill="#767676"/>
            <path d="M71.81,539.51c.83-.6,1.53-.07,1.8.31.44.64.28,1.4-.33,1.83-.49.35-1.01.33-1.5,0-.56-.37-.99-1.4.03-2.14Z" fill="#767676"/>
            <path d="M64.81,539.47c.85-.63,1.54-.06,1.83.34.51.68.3,1.4-.33,1.88-.53.4-1.02.37-1.54,0-.59-.42-1.05-1.41.04-2.21Z" fill="#767676"/>
            <path d="M57.79,539.42c.88-.62,1.63-.07,1.91.31.52.72.3,1.55-.3,1.99-.57.41-1.15.37-1.68,0-.58-.41-1.01-1.53.08-2.3Z" fill="#767676"/>
            <path d="M50.96,539.3c.76-.39,1.45,0,1.75.42.5.68.33,1.52-.28,2.01-.67.54-1.5.37-2-.28-.46-.6-.45-1.64.53-2.14Z" fill="#767676"/>
            <path d="M43.98,539.3c.76-.39,1.45,0,1.75.42.5.68.33,1.52-.28,2.01-.67.54-1.5.37-2-.28-.46-.6-.45-1.64.53-2.14Z" fill="#767676"/>
            <path d="M36.99,539.3c.76-.39,1.45,0,1.75.42.5.68.33,1.52-.28,2.01-.67.54-1.5.37-2-.28-.46-.6-.45-1.64.53-2.14Z" fill="#767676"/>
            <path d="M29.84,539.42c.88-.62,1.63-.07,1.91.31.52.72.3,1.55-.3,1.99-.57.41-1.15.37-1.68,0-.58-.41-1.01-1.53.08-2.3Z" fill="#767676"/>
            <path d="M23.59,539.47c.85-.63,1.54-.06,1.83.34.51.68.3,1.4-.33,1.88-.53.4-1.02.37-1.54,0-.59-.42-1.05-1.41.04-2.21Z" fill="#767676"/>
            <path d="M16.61,539.5c.83-.61,1.53-.07,1.81.32.46.65.29,1.4-.33,1.85-.5.36-1.01.35-1.51,0-.57-.39-1.01-1.4.03-2.17Z" fill="#767676"/>
            <path d="M9.61,539.49c.9-.47,1.55-.03,1.81.35.41.59.24,1.41-.33,1.8-.44.3-1.03.3-1.47,0-.54-.37-.92-1.34,0-2.15Z" fill="#767676"/>
            <path d="M2.67,539.6c.81-.55,1.54-.09,1.75.26.32.56.21,1.43-.33,1.77-.39.25-1.04.22-1.44,0-.51-.28-.87-1.42.02-2.02Z" fill="#767676"/>
            <path d="M78.75,545.71c.88-.62,1.63-.07,1.91.31.52.72.3,1.55-.3,1.99-.57.41-1.15.37-1.68,0-.58-.41-1.01-1.53.08-2.3Z" fill="#767676"/>
            <path d="M85.78,545.78c.83-.61,1.53-.07,1.81.32.46.65.29,1.4-.33,1.85-.5.36-1.01.35-1.51,0-.57-.39-1.01-1.4.03-2.17Z" fill="#767676"/>
            <path d="M92.75,545.8c.9-.46,1.55-.03,1.8.34.39.57.23,1.42-.33,1.79-.42.28-1.04.28-1.46,0-.53-.35-.89-1.34-.01-2.13Z" fill="#767676"/>
            <path d="M106.24,545.83c.72-.19,1.4,0,1.53.35.19.49.13,1.5-.31,1.69-.48.2-1.49.13-1.69-.31-.23-.5-.16-1.56.47-1.73Z" fill="#767676"/>
            <path d="M79,532.54c.71-.2,1.38.01,1.53.36.21.49.14,1.48-.32,1.69-.49.23-1.47.14-1.7-.31-.25-.5-.18-1.55.49-1.74Z" fill="#767676"/>
            <path d="M72.02,532.49c.69-.25,1.35.03,1.55.39.29.53.19,1.44-.33,1.74s-1.43.19-1.74-.32-.25-1.53.52-1.81Z" fill="#767676"/>
            <path d="M64.85,532.62c.81-.55,1.54-.09,1.75.26.32.56.21,1.43-.33,1.77-.39.25-1.04.22-1.44,0-.51-.28-.87-1.42.02-2.02Z" fill="#767676"/>
            <path d="M57.86,532.6c.81-.55,1.54-.08,1.75.27.35.57.22,1.42-.33,1.78-.41.27-1.03.24-1.45,0-.52-.3-.89-1.41.03-2.05Z" fill="#767676"/>
            <path d="M50.83,532.52c.9-.46,1.55-.03,1.8.34.39.57.23,1.42-.33,1.79-.42.28-1.04.28-1.46,0-.53-.35-.89-1.34-.01-2.13Z" fill="#767676"/>
            <path d="M43.84,532.5c.9-.47,1.55-.03,1.81.35.41.59.24,1.41-.33,1.8-.44.3-1.03.3-1.47,0-.54-.37-.92-1.34,0-2.15Z" fill="#767676"/>
            <path d="M36.86,532.52c.9-.46,1.55-.03,1.8.34.39.57.23,1.42-.33,1.79-.42.28-1.04.28-1.46,0-.53-.35-.89-1.34-.01-2.13Z" fill="#767676"/>
            <path d="M29.87,532.52c.9-.46,1.55-.03,1.8.34.39.57.23,1.42-.33,1.79-.42.28-1.04.28-1.46,0-.53-.35-.89-1.34-.01-2.13Z" fill="#767676"/>
            <path d="M23.63,532.62c.81-.55,1.54-.09,1.75.26.32.56.21,1.43-.33,1.77-.39.25-1.04.22-1.44,0-.51-.28-.87-1.42.02-2.02Z" fill="#767676"/>
            <path d="M92.72,552.7c.88-.62,1.63-.07,1.91.31.52.72.3,1.55-.3,1.99-.57.41-1.15.37-1.68,0-.58-.41-1.01-1.53.08-2.3Z" fill="#767676"/>
            <path d="M99.06,552.79c.83-.6,1.53-.07,1.8.31.44.64.28,1.4-.33,1.83-.49.35-1.01.33-1.5,0-.56-.37-.99-1.4.03-2.14Z" fill="#767676"/>
            <path d="M106.07,552.88c.81-.55,1.54-.09,1.75.26.32.56.21,1.43-.33,1.77-.39.25-1.04.22-1.44,0-.51-.28-.87-1.42.02-2.02Z" fill="#767676"/>
            <path d="M113.23,552.81c.71-.2,1.38.01,1.53.36.21.49.14,1.48-.32,1.69-.49.23-1.47.14-1.7-.31-.25-.5-.18-1.55.49-1.74Z" fill="#767676"/>
            <path d="M16.83,532.49c.69-.25,1.35.03,1.55.39.29.53.19,1.44-.33,1.74s-1.43.19-1.74-.32-.25-1.53.52-1.81Z" fill="#767676"/>
            <path d="M9.83,532.53c.7-.22,1.38.01,1.55.37.23.5.16,1.48-.32,1.72s-1.47.16-1.72-.31c-.27-.5-.2-1.56.49-1.77Z" fill="#767676"/>
            <path d="M58.03,525.57c.72-.19,1.4,0,1.53.35.19.49.13,1.5-.31,1.69-.48.2-1.49.13-1.69-.31-.23-.5-.16-1.56.47-1.73Z" fill="#767676"/>
            <path d="M51.04,525.57c.72-.19,1.4,0,1.53.35.19.49.13,1.5-.31,1.69-.48.2-1.49.13-1.69-.31-.23-.5-.16-1.56.47-1.73Z" fill="#767676"/>
            <path d="M44.07,525.56c.71-.2,1.38.01,1.53.36.21.49.14,1.48-.32,1.69-.49.23-1.47.14-1.7-.31-.25-.5-.18-1.55.49-1.74Z" fill="#767676"/>
            <path d="M37.07,525.57c.72-.19,1.4,0,1.53.35.19.49.13,1.5-.31,1.69-.48.2-1.49.13-1.69-.31-.23-.5-.16-1.56.47-1.73Z" fill="#767676"/>
            <path d="M30.08,525.57c.72-.19,1.4,0,1.53.35.19.49.13,1.5-.31,1.69-.48.2-1.49.13-1.69-.31-.23-.5-.16-1.56.47-1.73Z" fill="#767676"/>
            <path d="M99.17,559.54c.79-.41,1.45.02,1.77.43.54.7.36,1.53-.27,2.03-.69.55-1.51.38-2.03-.28-.49-.62-.48-1.65.54-2.18Z" fill="#767676"/>
            <path d="M106.04,559.76c.83-.61,1.53-.07,1.81.32.46.65.29,1.4-.33,1.85-.5.36-1.01.35-1.51,0-.57-.39-1.01-1.4.03-2.17Z" fill="#767676"/>
            <path d="M113.06,559.86c.81-.55,1.54-.09,1.75.26.32.56.21,1.43-.33,1.77-.39.25-1.04.22-1.44,0-.51-.28-.87-1.42.02-2.02Z" fill="#767676"/>
            <path d="M120.22,559.79c.71-.2,1.38.01,1.53.36.21.49.14,1.48-.32,1.69-.49.23-1.47.14-1.7-.31-.25-.5-.18-1.55.49-1.74Z" fill="#767676"/>
            <path d="M85.81,539.6c.81-.55,1.54-.09,1.75.26.32.56.21,1.43-.33,1.77-.39.25-1.04.22-1.44,0-.51-.28-.87-1.42.02-2.02Z" fill="#767676"/>
            <path d="M113.03,566.74c.83-.61,1.53-.07,1.81.32.46.65.29,1.4-.33,1.85-.5.36-1.01.35-1.51,0-.57-.39-1.01-1.4.03-2.17Z" fill="#767676"/>
            <path d="M120.04,566.85c.81-.55,1.54-.09,1.75.26.32.56.21,1.43-.33,1.77-.39.25-1.04.22-1.44,0-.51-.28-.87-1.42.02-2.02Z" fill="#767676"/>
            <path d="M127.2,566.79c.72-.19,1.4,0,1.53.35.19.49.13,1.5-.31,1.69-.48.2-1.49.13-1.69-.31-.23-.5-.16-1.56.47-1.73Z" fill="#767676"/>
            <path d="M113.14,573.51c.79-.41,1.45.02,1.77.43.54.7.36,1.53-.27,2.03-.69.55-1.51.38-2.03-.28-.49-.62-.48-1.65.54-2.18Z" fill="#767676"/>
            <path d="M120.02,573.75c.83-.6,1.53-.07,1.8.31.44.64.28,1.4-.33,1.83-.49.35-1.01.33-1.5,0-.56-.37-.99-1.4.03-2.14Z" fill="#767676"/>
            <path d="M127.22,573.71c.69-.25,1.35.03,1.55.39.29.53.19,1.44-.33,1.74s-1.43.19-1.74-.32-.25-1.53.52-1.81Z" fill="#767676"/>
            <path d="M119.97,580.64c.88-.62,1.63-.07,1.91.31.52.72.3,1.55-.3,1.99-.57.41-1.15.37-1.68,0-.58-.41-1.01-1.53.08-2.3Z" fill="#767676"/>
            <path d="M126.98,580.73c.9-.46,1.55-.03,1.8.34.39.57.23,1.42-.33,1.79-.42.28-1.04.28-1.46,0-.53-.35-.89-1.34-.01-2.13Z" fill="#767676"/>
            <path d="M134.19,580.75c.71-.2,1.38.01,1.53.36.21.49.14,1.48-.32,1.69-.49.23-1.47.14-1.7-.31-.25-.5-.18-1.55.49-1.74Z" fill="#767676"/>
            <path d="M127,587.7c.83-.61,1.53-.07,1.81.32.46.65.29,1.4-.33,1.85-.5.36-1.01.35-1.51,0-.57-.39-1.01-1.4.03-2.17Z" fill="#767676"/>
            <path d="M134.02,587.83c.81-.54,1.55-.1,1.74.25.3.54.2,1.43-.33,1.76-.37.23-1.06.19-1.42,0-.51-.27-.84-1.43.02-2Z" fill="#767676"/>
          </g>
        </g>
      </g>
    </g>
  </g>
</svg>