<svg overflow="visible" style="display: block;" viewBox="0 0 19.5687 20" fill="none" xmlns="http://www.w3.org/2000/svg">
<path id="Vector" d="M11.7436 3.9988H7.831V0H11.7436V3.9988ZM19.5687 0H15.6561V3.9988H19.5687V0ZM3.91257 7.99761H0V11.9964H3.91257V7.99761ZM7.82514 3.9988H3.91257V7.99761H7.82514V3.9988ZM11.7436 7.99761H7.831V11.9964H11.7436V7.99761ZM15.6561 3.9988H11.7436V7.99761H15.6561V3.9988ZM7.82514 12.0024H3.91257V16.0012H7.82514V12.0024ZM11.7436 16.0012H7.831V20H11.7436V16.0012ZM15.6561 12.0024H11.7436V16.0012H15.6561V12.0024ZM19.5687 16.0012H15.6561V20H19.5687V16.0012Z" fill="var(--fill-0, white)"/>
</svg>
