<svg overflow="visible" style="display: block;" viewBox="0 0 19.5687 20" fill="none" xmlns="http://www.w3.org/2000/svg">
<path id="Vector" d="M7.82514 16.0012H11.7377V20H7.82514V16.0012ZM0 20H3.91257V16.0012H0V20ZM15.6561 12.0024H19.5687V8.00359H15.6561V12.0024ZM11.7436 16.0012H15.6561V12.0024H11.7436V16.0012ZM7.82514 12.0024H11.7377V8.00359H7.82514V12.0024ZM3.91257 16.0012H7.82514V12.0024H3.91257V16.0012ZM11.7436 7.99761H15.6561V3.9988H11.7436V7.99761ZM7.82514 3.9988H11.7377V0H7.82514V3.9988ZM3.91257 7.99761H7.82514V3.9988H3.91257V7.99761ZM0 3.9988H3.91257V0H0V3.9988Z" fill="var(--fill-0, white)"/>
</svg>
