<svg overflow="visible" style="display: block;" viewBox="0 0 202.395 27.4991" fill="none" xmlns="http://www.w3.org/2000/svg">
<g id="Group">
<path id="Vector" d="M20.7358 10.4846V16.4164H7.17584V21.5876H21.7407V27.4788H0V9.78335e-05H21.3956V5.93186H7.17584V10.4846H20.7358Z" fill="var(--fill-0, #E8E8E8)"/>
<path id="Vector_2" d="M30.4389 0L37.0971 19.5495L43.7553 0H50.9312L41.6137 27.4787H32.5703L23.2529 0H30.4288H30.4389Z" fill="var(--fill-0, #E8E8E8)"/>
<path id="Vector_3" d="M73.9202 10.4845V16.4163H60.3602V21.5875H74.9251V27.4787H53.1844V0H74.58V5.93176H60.3602V10.4845H73.9202Z" fill="var(--fill-0, #E8E8E8)"/>
<path id="Vector_4" d="M78.1629 0H85.3387L95.661 16.6495V0H102.837V27.4787H95.661L85.3387 10.5149V27.4787H78.1629V0Z" fill="var(--fill-0, #E8E8E8)"/>
<path id="Vector_5" d="M121.33 5.93176V27.4787H114.154V5.93176H105.425V0H130.068V5.93176H121.34H121.33Z" fill="var(--fill-0, #E8E8E8)"/>
<path id="Vector_6" d="M155.981 5.93176V27.4787H148.805V5.93176H140.076V0H164.72V5.93176H155.991H155.981Z" fill="var(--fill-0, #E8E8E8)"/>
<path id="Vector_7" d="M174.473 0V27.4787H167.298V0H174.473Z" fill="var(--fill-0, #E8E8E8)"/>
<path id="Vector_8" d="M178.442 0H193.869C195.067 0 196.184 0.162236 197.229 0.486708C198.274 0.81118 199.178 1.29789 199.939 1.95697C200.7 2.61606 201.299 3.45766 201.736 4.49191C202.172 5.52617 202.395 6.74294 202.395 8.14222C202.395 9.54151 202.223 10.6974 201.878 11.681C201.532 12.6544 201.015 13.4859 200.325 14.1652C199.635 14.8446 198.782 15.4023 197.757 15.8586C196.732 16.3047 195.554 16.6799 194.225 16.9841L185.628 18.8802V27.499H178.452V0.02028L178.442 0ZM195.25 8.3146C195.25 7.6758 195.037 7.11811 194.61 6.64154C194.184 6.17511 193.616 5.93176 192.905 5.93176H185.628V12.5834L192.185 11.3768C193.362 11.174 194.164 10.7887 194.6 10.2412C195.037 9.69361 195.26 9.04466 195.26 8.3146H195.25Z" fill="var(--fill-0, #E8E8E8)"/>
</g>
</svg>
