<svg overflow="visible" style="display: block;" viewBox="0 0 1359.94 864.602" fill="none" xmlns="http://www.w3.org/2000/svg">
<g id="Group" opacity="0.05">
<path id="Vector" d="M179.41 221.393C194.03 296.669 213.77 370.906 238.81 442.916C255.23 490.129 276.07 539.371 314.96 569.891C349.83 597.254 396.67 607.464 435.08 582.199C497.67 541.029 480.17 467.342 483.5 401.606C484.47 382.525 485.64 363.354 487.64 344.362C489.99 322.084 495.3 301.824 511.91 286.809C530.96 269.586 556.08 268.736 579.75 270.335C612.75 272.563 643.16 278.777 674.35 262.822C735.02 231.793 752.99 156.037 758.36 89.8319C759.93 70.4909 761.1 51.0399 760.68 31.619C760.47 21.8486 759.83 12.0981 758.62 2.41763C758.52 1.59843 758.42 0.799216 758.32 0H714.6C717.48 5.59451 720.05 11.3788 722.39 17.1232C731.4 39.2315 736.57 64.5767 737.37 90.2015C739.27 151.032 716.54 213.441 662.09 237.757C603.48 263.931 543.08 240.644 486.89 219.944C466.72 212.512 430.07 204.459 418.82 231.013C415 240.035 416.11 250.494 417.69 260.265C422.68 291.134 431.43 321.195 439.67 351.186C447.88 381.086 460.28 411.486 463.48 442.606C465.68 463.945 462.09 486.473 451.08 504.655C439.13 524.386 419.6 537.823 397.91 540.85C317.79 552.029 279.01 428.19 259.19 365.541C239.18 302.294 226.87 236.598 216.94 170.733C212.31 140.043 208.31 109.672 206.11 78.7727C204.89 61.5696 204.01 44.3265 203.51 27.0834C203.43 24.3261 204.05 11.6885 204.28 0H151.75C156.11 74.397 165.22 148.404 179.39 221.383L179.41 221.393Z" fill="var(--fill-0, #616161)"/>
<path id="Vector_2" d="M323.27 401.966C334.51 432.576 351.61 473.536 385.09 480.729C396.75 483.236 408.53 479.809 417.1 470.848C435.29 451.787 434.73 420.538 429.66 396.471C426.26 380.347 420.64 364.902 414.87 349.637C408.73 333.393 402.54 317.169 396.38 300.935C384.59 269.845 372.29 236.388 378.36 202.182C382.45 179.154 396.44 157.146 417.03 149.623C448.27 138.214 486.07 158.644 512.9 174.699C532.31 186.317 549.92 201.522 571.99 206.747C632.05 220.973 696.95 198.685 704.21 125.867C707.35 94.2775 702.39 59.8913 695.46 36.1346C691.84 23.7167 687.23 11.5587 681.67 0H648.96C652.75 5.04505 656.38 10.23 659.82 15.5348C674.26 37.7929 684.69 67.6936 684.32 95.866C683.99 121.231 674.92 145.198 652.15 160.912C605.2 193.31 547.02 137.695 514.65 104.987C482.27 72.2591 431.75 8.63152 380.95 40.8399C308.64 86.685 344.57 225.379 370.89 289.486C380.83 313.702 422.63 383.993 397.37 409.828C393.12 414.164 386.68 414.553 381.23 413.245C354.66 406.881 346.02 365.631 337.61 342.554C298.35 234.87 282.37 112.819 310.38 0H245.42C253.08 94.7071 264.88 190.323 287.4 282.273C297.27 322.564 309.05 363.174 323.3 401.956L323.27 401.966Z" fill="var(--fill-0, #616161)"/>
<path id="Vector_3" d="M126.35 0.0100434H109.72C107.88 5.37478 106.2 10.8194 104.73 16.314C92.52 61.9393 93.47 110.502 100.37 157.026C107.56 205.508 121.28 252.462 133.65 299.606C139.95 323.603 146.15 347.759 150.56 372.255C154.32 393.144 155.25 418.41 145.9 437.521C141.9 445.703 136.01 452.756 127.66 457.861C120.05 462.506 111.48 464.654 102.86 465.803C59.58 471.558 30.79 477.612 2.46 516.014C1.63 517.143 0.81 518.282 0 519.431V584.747C17.84 563.258 42.41 547.803 67.97 539.711C94 531.469 121.37 529.661 148.36 531.049C163.47 531.828 178.97 536.274 194.11 534.036C214.74 530.989 226.15 516.184 226.41 494.205C226.87 454.574 197.12 398.249 187.4 374.403C176.47 347.599 165.41 320.825 156.83 293.013C147.87 264.001 141.22 234.22 135.7 204.24C130.23 174.529 125.74 144.598 121.39 114.678C117.25 86.2055 113.67 56.5146 119.39 27.9926C121.38 18.0623 124.77 9.79043 126.37 0.0200129L126.35 0.0100434Z" fill="var(--fill-0, #616161)"/>
<path id="Vector_4" d="M893.67 843.263C886.15 823.932 878.02 804.811 868.22 786.698C849.51 752.092 824.17 721.313 789.88 704.469C759.17 689.384 722.75 686.617 692.39 704.319C663.57 721.113 641.13 752.842 608.1 760.664C569.38 769.825 533.07 735.808 497.2 726.008C460.07 715.868 421.51 720.423 383.7 722.601C345.5 724.809 305.24 725.249 270.36 705.838C235.34 686.357 211.23 651.601 183.27 622.809C155.05 593.768 118.86 567.653 78.06 574.407C47.15 579.522 20.48 599.482 0.0200395 623.898V717.217C38.57 671.551 89.91 628.154 150.05 654.668C218.08 684.659 243.11 776.309 327.28 773.741C363.71 772.622 398.69 758.756 435.14 757.817C451.93 757.387 468.39 760.244 483.87 767.387C499.34 774.51 513.38 784.6 528.29 792.912C543.99 801.664 560.96 808.068 578.86 805.32C598.03 802.363 614.99 791.094 630.86 779.785C659.75 759.205 689.06 734.5 723.81 727.087C757.88 719.824 789.88 734.56 813.37 761.124C826.17 775.599 836 792.792 844.31 810.595C851.71 826.439 859.54 843.373 864.47 860.316C864.9 861.785 865.27 863.213 865.58 864.602H902.6C899.64 857.019 896.17 849.707 893.67 843.293V843.263Z" fill="var(--fill-0, #616161)"/>
<path id="Vector_5" d="M486.7 812.293C462.34 802.353 435.68 799.586 409.86 802.223C396.68 803.562 383.72 806.339 370.97 810.155C357.63 814.141 344.48 818.947 330.94 822.134C273.17 835.74 249.98 790.954 218.95 748.526C205.88 730.683 190.32 713.92 170.5 705.178C136.01 689.973 88.88 704.369 56.59 720.164C37 729.744 17.52 745.219 0.0100003 763.311V864.572H37.62C41.19 857.179 43.59 848.947 45.33 841.095C51.7 812.373 58.49 780.954 80.44 760.224C105.48 736.578 144.31 741.153 168.01 765.209C186.64 784.121 196.12 810.975 213.8 831.125C225.1 844.002 237.95 855.291 251.95 864.582H550.54C547.57 860.027 544.34 855.681 540.87 851.555C526.11 833.992 507.21 820.655 486.71 812.303L486.7 812.293Z" fill="var(--fill-0, #616161)"/>
<path id="Vector_6" d="M1359.93 560.28V666.766C1352.98 660.492 1346.98 654.508 1343.38 651.92C1323.19 637.415 1293.58 627.045 1272.46 644.058C1230.32 677.995 1194.01 721.123 1153.64 757.617C1135.97 773.591 1118.3 790.545 1098.12 802.793C1065.22 822.743 1025.47 827.668 988.62 820.605C946.5 812.523 926.6 790.265 898.3 758.156C870.07 726.118 846.96 681.771 809.38 662.021C774.65 643.768 731.38 641.76 696.14 659.543C678.56 668.404 665.24 681.771 652.05 696.786C640.52 709.904 627.37 724.649 609.84 726.987C600.55 728.226 591.06 725.568 583.55 719.524C575.85 713.33 571.11 704.129 564.66 696.637C549.52 679.014 526.16 679.693 505.86 683.51C482.41 687.925 459.42 694.928 435.99 699.584C393.01 708.125 347.49 711.532 306.04 693.819C277.4 681.581 252.91 659.403 236.23 631.491C227.57 617.015 226.8 598.803 242.77 589.911C259.98 580.341 282.98 596.635 296.83 606.575C316.18 620.471 335.33 632.629 357.71 640.512C387.1 650.862 417.24 651.261 447.12 642.989C476.54 634.837 504.01 620.321 531.25 606.155C580.66 580.451 638.95 552.248 694.5 571.669C707.13 576.085 718.41 583.308 729.76 590.581C741.72 598.243 754.41 606.345 768.56 607.774C783.75 609.312 797.59 602.009 811.74 597.364C823.44 593.528 835.73 591.4 847.98 591.42C871.23 591.45 894.79 599.772 909.99 619.552C918.87 631.101 924.49 644.907 930.35 658.384C946.37 695.218 972.67 733.091 1009.67 748.286C1036.42 759.275 1065.62 756.238 1091.71 744.56C1147.74 719.494 1180.82 662.28 1217.71 613.718C1234.28 591.909 1253.14 570.51 1277.18 558.432C1299.94 547.013 1326 545.795 1349.56 555.285C1353.13 556.724 1356.59 558.392 1359.94 560.26L1359.93 560.28Z" fill="var(--fill-0, #616161)"/>
<path id="Vector_7" d="M1359.93 803.782C1354.15 808.367 1346.55 810.455 1337.79 808.777C1325.07 806.339 1314.92 797.838 1301.84 796.539C1294.62 795.82 1287.32 796.409 1280.18 797.648C1265.15 800.245 1250.59 805.3 1235.51 807.618C1228.46 808.697 1212.48 809.346 1216.28 796.169C1218.57 788.267 1233.19 786.019 1239.23 782.692C1244.89 779.575 1250.27 775.829 1255.2 771.503C1266.77 761.343 1273.74 748.526 1281.14 734.809C1300.87 698.245 1339.87 715.418 1359.94 743.301V685.108C1358.68 684.329 1357.37 683.67 1356.02 683.15C1355.79 682.91 1355.51 682.71 1355.15 682.581C1343.51 678.485 1331.43 675.887 1319.22 674.828C1301.02 673.25 1283.6 676.057 1270.64 691.112C1261.99 701.162 1256.81 713.75 1250.51 725.499C1245.49 734.859 1239.31 743.221 1232.19 750.844C1224.98 758.556 1217.1 765.479 1209.18 772.313C1196.92 782.892 1180.63 794.131 1172.36 808.757C1163.94 823.632 1166.31 839.307 1180.93 846.47C1191 851.405 1202.15 852.284 1213.02 850.736C1251.06 845.341 1281.33 815.41 1320.45 832.124C1334.59 838.158 1348.46 841.505 1359.93 838.588V803.782Z" fill="var(--fill-0, #616161)"/>
<path id="Vector_8" d="M808.5 91.1506C807.65 133.03 798.76 175.008 781.67 212.711C766.61 245.949 744.22 277.258 713.41 294.811C696.04 304.711 676.69 309.017 657.11 308.827C646.38 308.717 635.69 307.369 625.16 305.151C603.72 300.625 580.59 289.796 558.61 296.429C535.55 303.392 528.4 327.938 525.57 350.956C520.38 393.164 530.15 436.542 520.86 478.281C516.84 496.333 505.07 512.028 502.61 530.29C499.32 554.686 518.19 567.204 538.72 563.218C548.33 561.349 557.7 557.263 566.82 553.587C592.83 543.077 614.68 527.563 624.95 499.071C628.42 489.46 630.82 479.46 633.71 469.649C636.21 461.148 639.06 452.756 642.42 444.624C656.46 410.597 680.49 381.016 717.35 379.298C763.54 377.15 809.3 392.705 855.57 392.845C896.46 392.975 954.94 389.028 984.63 354.003C1009.85 324.252 1008.09 278.727 1008.58 241.144C1009.17 195.678 1041.18 164.429 1074.2 141.701C1116.88 112.32 1166.35 87.2544 1217.88 86.1855C1265.69 85.1965 1314.84 97.1747 1359.92 117.545V88.1935C1355.65 86.4253 1351.48 84.5571 1347.51 82.9187C1268.53 50.3507 1178.58 42.9879 1099.45 79.0026C1064.56 94.877 1032.61 118.694 1007.74 149.603C993.58 167.196 984.21 187.826 978.62 210.234C973.27 231.683 973.77 255.569 966.47 276.249C953.84 312.054 923.59 336.63 888.64 341.545C845.4 347.619 801.6 336.36 757.98 341.275C721.29 345.421 683.23 357.999 652.3 381.286C637.48 392.445 621.93 408.659 612 425.063C602.03 441.547 601.37 463.725 587.79 477.851C570.1 496.253 570.65 446.602 570.47 440.578C569.58 409.638 559.05 347.679 593.42 332.414C609.67 325.181 628.15 329.437 645 331.195C685.56 335.441 728.71 330.875 762.98 305.121C794 281.814 814.23 245.349 828.69 208.436C853.63 144.778 868.95 66.8045 847.01 0.0100392H797.3C805.38 29.5111 809.11 60.3908 808.48 91.1506H808.5Z" fill="var(--fill-0, #616161)"/>
<path id="Vector_9" d="M893.59 62.7485C893.06 96.4355 891.09 131.581 884.25 164.509C879.9 185.438 872.93 206.058 861.99 224.07C850.19 243.491 829.77 271.514 848.17 294.341C863.54 313.413 891.38 307.838 909.22 296.299C932.17 281.444 938.35 254.7 938.14 227.237C937.78 179.224 938.61 141.621 973.96 107.125C1072.38 11.0792 1241.01 8.44176 1359.93 49.6214V0.0200087H1070.13C1061.94 4.49562 1053.74 8.94126 1045.72 13.8564C1027.46 25.0555 1012 40.7101 995.93 55.086C982.34 67.2541 966.64 86.745 947.71 89.4923C920.71 93.4084 924.04 63.1681 925.49 43.1477C926.61 27.6529 926.84 14.0663 925.62 0.0100392H886.78C891.79 20.3501 893.93 41.4094 893.59 62.7485Z" fill="var(--fill-0, #616161)"/>
<path id="Vector_10" d="M1133.94 149.643C1099.82 162.79 1068.2 185.988 1047.32 218.286C1036.88 234.44 1029.65 252.682 1026.09 271.993C1022.17 293.223 1021.82 314.951 1019.27 336.39C1015.71 366.271 1006.48 392.515 982.46 409.379C948.96 432.906 912.41 431.167 874.29 427.821C818.01 422.885 732.78 404.194 687.78 447.741C675.44 459.679 666.79 476.613 666.26 494.485C663.98 571.23 817.19 542.878 854.23 546.634C882.81 549.531 910.87 558.652 929.02 584.237C957.49 624.388 957.75 677.526 996.37 711.592C1034.55 745.279 1088.77 725.159 1121.88 694.199C1154.77 663.439 1178.29 621.021 1195.75 578.483C1209.42 545.195 1231.12 523.377 1261.07 507.003C1284.34 494.275 1310.07 487.082 1336.08 485.354C1343.63 484.855 1351.73 485.794 1359.94 486.963V468.77C1359.17 468.521 1358.39 468.261 1357.62 468.011C1323.16 456.892 1284.78 457.841 1251.8 473.945C1186.51 505.834 1181.2 577.704 1140.42 632.56C1122.33 656.886 1096.51 675.817 1066.97 677.745C1019.79 680.832 1011.57 641.351 1001.32 601.111C996.4 581.799 990.24 561.21 974.25 549.391C952.88 533.597 923.55 531.848 898.79 527.223C865.23 520.949 831.04 518.641 797.02 520.32C764.58 521.918 734.68 525.205 703.52 512.148C683.38 503.706 681.47 482.867 700.65 470.938C761.38 433.145 835.31 433.285 902.51 444.274C938.65 450.179 974.69 456.632 1010.88 462.097C1037.8 466.163 1078.62 476.623 1093.22 442.896C1105.74 413.974 1091.39 382.525 1079.2 356.8C1072.05 341.715 1064.86 326.22 1062.29 309.337C1060.14 295.221 1061.19 280.725 1064.95 267.018C1072.8 238.316 1091.51 213.451 1114.61 197.237C1140.83 178.855 1172.33 171.082 1203.17 168.695C1234.51 166.277 1266.75 168.295 1297.59 174.749C1319.23 179.274 1340.49 186.587 1359.93 197.706V157.176C1333.54 147.316 1304.28 142.61 1278.74 139.353C1232.44 133.449 1178.35 132.56 1133.94 149.653V149.643Z" fill="var(--fill-0, #616161)"/>
<path id="Vector_11" d="M1147.27 237.547C1117.37 268.467 1121.92 309.427 1127.99 349.447C1131.55 372.844 1134.19 396.651 1130.4 420.238C1127.14 440.458 1119.21 459.759 1105.46 474.225C1099.24 480.768 1091.89 486.253 1083.77 489.71C1049.88 504.136 1010.58 486.253 976.44 481.358C933.32 475.184 889.86 473.506 846.7 467.841C822.83 464.704 797.98 458.55 774.33 466.522C747.69 475.504 775.67 490.439 790.5 495.114C819.62 504.295 851.49 501.029 880.7 504.695C914.16 508.881 948.59 510.899 980.39 523.906C1010.05 536.044 1032.91 568.982 1040.1 601.83C1046.39 630.562 1065.62 649.413 1091.65 627.664C1117.08 606.425 1131.57 565.006 1145.85 534.935C1161.54 501.888 1177.83 468.62 1202.1 441.807C1219.4 422.695 1244.11 414.643 1268.18 411.776C1297.37 408.29 1325.36 416.961 1349.96 434.084C1353.49 436.542 1356.73 439.399 1359.92 442.196V422.356C1343.65 418.01 1331.15 402.565 1316.67 394.483C1282.83 375.602 1249.45 372.185 1212.03 374.792C1162.71 378.229 1159.91 316.28 1189.39 286.009C1210.77 264.051 1243.37 270.724 1266.76 284.551C1275.44 289.676 1283.6 295.73 1291.71 301.844C1313.64 318.378 1335.44 335.111 1357.27 351.815C1358.17 352.504 1359.06 353.164 1359.93 353.813V304.621C1347.94 293.242 1335.77 282.603 1325.19 272.453C1280.72 229.795 1200.04 182.991 1147.27 237.557V237.547Z" fill="var(--fill-0, #616161)"/>
</g>
</svg>
