<svg overflow="visible" style="display: block;" viewBox="0 0 183.08 26.12" fill="none" xmlns="http://www.w3.org/2000/svg">
<g id="Group">
<path id="Vector" d="M13.0728 0H0V13.06H13.0728V0Z" fill="var(--fill-0, #373737)" fill-opacity="0.24"/>
<path id="Vector_2" d="M26.1558 13.06H13.083V26.12H26.1558V13.06Z" fill="var(--fill-0, #373737)" fill-opacity="0.24"/>
<path id="Vector_3" d="M39.2286 0.00011589H26.1558V13.0601H39.2286V0.00011589Z" fill="var(--fill-0, #373737)" fill-opacity="0.24"/>
<path id="Vector_4" d="M52.3116 13.06H39.2387V26.12H52.3116V13.06Z" fill="var(--fill-0, #373737)" fill-opacity="0.24"/>
<path id="Vector_5" d="M65.3844 0.00011589H52.3116V13.0601H65.3844V0.00011589Z" fill="var(--fill-0, #373737)" fill-opacity="0.24"/>
<path id="Vector_6" d="M78.4572 13.06H65.3844V26.12H78.4572V13.06Z" fill="var(--fill-0, #373737)" fill-opacity="0.24"/>
<path id="Vector_7" d="M91.5402 0.00011589H78.4674V13.0601H91.5402V0.00011589Z" fill="var(--fill-0, #373737)" fill-opacity="0.24"/>
<path id="Vector_8" d="M104.613 13.06H91.5402V26.12H104.613V13.06Z" fill="var(--fill-0, #373737)" fill-opacity="0.24"/>
<path id="Vector_9" d="M117.696 0.00011589H104.623V13.0601H117.696V0.00011589Z" fill="var(--fill-0, #373737)" fill-opacity="0.24"/>
<path id="Vector_10" d="M130.769 13.06H117.696V26.12H130.769V13.06Z" fill="var(--fill-0, #373737)" fill-opacity="0.24"/>
<path id="Vector_11" d="M143.852 0.00011589H130.779V13.0601H143.852V0.00011589Z" fill="var(--fill-0, #373737)" fill-opacity="0.24"/>
<path id="Vector_12" d="M156.925 13.06H143.852V26.12H156.925V13.06Z" fill="var(--fill-0, #373737)" fill-opacity="0.24"/>
<path id="Vector_13" d="M170.008 0.00011589H156.935V13.0601H170.008V0.00011589Z" fill="var(--fill-0, #373737)" fill-opacity="0.24"/>
<path id="Vector_14" d="M183.08 13.06H170.008V26.12H183.08V13.06Z" fill="var(--fill-0, #373737)" fill-opacity="0.24"/>
</g>
</svg>
