<svg style="display: block;" viewBox="0 0 1364 413.598" fill="none" xmlns="http://www.w3.org/2000/svg">
<g transform="translate(10.9, 10.88)">
<path d="M14 0C6.27 0 0 6.26386 0 13.9863C0 21.7087 6.27 27.9726 14 27.9726C21.73 27.9726 28 21.7187 28 13.9863C28 6.25387 21.74 0 14 0ZM22.53 19.331L19.35 22.5179L14 17.1732L8.66 22.5179L5.47 19.331L10.82 13.9863L5.47 8.65152L8.66 5.46464L14 10.8094L19.35 5.46464L22.53 8.65152L17.19 13.9863L22.53 19.331Z" fill="#1D1D1D"/>
</g>
<g transform="translate(1325.1, 10.88)">
<path d="M14 0C6.27 0 0 6.26386 0 13.9863C0 21.7087 6.27 27.9726 14 27.9726C21.73 27.9726 28 21.7187 28 13.9863C28 6.25387 21.74 0 14 0ZM22.53 19.331L19.35 22.5179L14 17.1732L8.66 22.5179L5.47 19.331L10.82 13.9863L5.47 8.65152L8.66 5.46464L14 10.8094L19.35 5.46464L22.53 8.65152L17.19 13.9863L22.53 19.331Z" fill="#1D1D1D"/>
</g>
<g transform="translate(10.9, 374.721)">
<path d="M14 0C6.27 0 0 6.26386 0 13.9863C0 21.7087 6.27 27.9726 14 27.9726C21.73 27.9726 28 21.7187 28 13.9863C28 6.25387 21.74 0 14 0ZM22.53 19.331L19.35 22.5179L14 17.1732L8.66 22.5179L5.47 19.331L10.82 13.9863L5.47 8.65152L8.66 5.46464L14 10.8094L19.35 5.46464L22.53 8.65152L17.19 13.9863L22.53 19.331Z" fill="#1D1D1D"/>
</g>
<g transform="translate(1325.1, 374.721)">
<path d="M14 0C6.27 0 0 6.26386 0 13.9863C0 21.7087 6.27 27.9726 14 27.9726C21.73 27.9726 28 21.7187 28 13.9863C28 6.25387 21.74 0 14 0ZM22.53 19.331L19.35 22.5179L14 17.1732L8.66 22.5179L5.47 19.331L10.82 13.9863L5.47 8.65152L8.66 5.46464L14 10.8094L19.35 5.46464L22.53 8.65152L17.19 13.9863L22.53 19.331Z" fill="#1D1D1D"/>
</g>
</svg>
