<svg overflow="visible" style="display: block;" viewBox="0 0 1311.2 357.32" fill="none" xmlns="http://www.w3.org/2000/svg">
<g id="Group">
<path id="Vector" d="M1297.2 5.46479C1289.47 5.46479 1283.2 11.5888 1283.2 19.1314C1283.2 26.674 1289.47 32.798 1297.2 32.798C1304.93 32.798 1311.2 26.684 1311.2 19.1314C1311.2 11.5788 1304.94 5.46479 1297.2 5.46479ZM1305.73 24.3463L1302.55 27.4632L1297.2 22.2383L1291.86 27.4632L1288.67 24.3463L1294.02 19.1214L1288.67 13.9065L1291.86 10.7896L1297.2 16.0144L1302.55 10.7896L1305.73 13.9065L1300.39 19.1214L1305.73 24.3463Z" fill="var(--fill-0, #1D1D1D)"/>
<path id="Vector_2" d="M1297.2 329.986C1289.47 329.986 1283.2 336.11 1283.2 343.653C1283.2 351.195 1289.47 357.319 1297.2 357.319C1304.93 357.319 1311.2 351.205 1311.2 343.653C1311.2 336.1 1304.94 329.986 1297.2 329.986ZM1305.73 348.868L1302.55 351.985L1297.2 346.76L1291.86 351.985L1288.67 348.868L1294.02 343.643L1288.67 338.428L1291.86 335.311L1297.2 340.536L1302.55 335.311L1305.73 338.428L1300.39 343.643L1305.73 348.868Z" fill="var(--fill-0, #1D1D1D)"/>
<path id="Vector_3" d="M14 329.337C6.27 329.337 3.7955e-06 335.601 3.7955e-06 343.323C3.7955e-06 351.046 6.27 357.309 14 357.309C21.73 357.309 28 351.056 28 343.323C28 335.591 21.74 329.337 14 329.337ZM22.53 348.668L19.35 351.855L14 346.51L8.66 351.855L5.47 348.668L10.82 343.323L5.47 337.988L8.66 334.802L14 340.146L19.35 334.802L22.53 337.988L17.19 343.323L22.53 348.668Z" fill="var(--fill-0, #1D1D1D)"/>
<path id="Vector_4" d="M14 0C6.27 0 0 6.26386 0 13.9863C0 21.7087 6.27 27.9726 14 27.9726C21.73 27.9726 28 21.7187 28 13.9863C28 6.25387 21.74 0 14 0ZM22.53 19.331L19.35 22.5179L14 17.1732L8.66 22.5179L5.47 19.331L10.82 13.9863L5.47 8.65152L8.66 5.46464L14 10.8094L19.35 5.46464L22.53 8.65152L17.19 13.9863L22.53 19.331Z" fill="var(--fill-0, #1D1D1D)"/>
</g>
</svg>
