<svg overflow="visible" style="display: block;" viewBox="0 0 1359.94 865.45" fill="none" xmlns="http://www.w3.org/2000/svg">
<g id="Group" opacity="0.09">
<path id="Vector" d="M179.41 221.61C194.03 296.96 213.77 371.27 238.81 443.35C255.23 490.61 276.07 539.9 314.96 570.45C349.83 597.84 396.67 608.06 435.08 582.77C497.67 541.56 480.17 467.8 483.5 402C484.47 382.9 485.64 363.71 487.64 344.7C489.99 322.4 495.3 302.12 511.91 287.09C530.96 269.85 556.08 269 579.75 270.6C612.75 272.83 643.16 279.05 674.35 263.08C735.02 232.02 752.99 156.19 758.36 89.92C759.93 70.56 761.1 51.09 760.68 31.65C760.47 21.87 759.83 12.11 758.62 2.42001C758.52 1.60001 758.42 0.8 758.32 0H714.6C717.48 5.6 720.05 11.39 722.39 17.14C731.4 39.27 736.57 64.64 737.37 90.29C739.27 151.18 716.54 213.65 662.09 237.99C603.48 264.19 543.08 240.88 486.89 220.16C466.72 212.72 430.07 204.66 418.82 231.24C415 240.27 416.11 250.74 417.69 260.52C422.68 291.42 431.43 321.51 439.67 351.53C447.88 381.46 460.28 411.89 463.48 443.04C465.68 464.4 462.09 486.95 451.08 505.15C439.13 524.9 419.6 538.35 397.91 541.38C317.79 552.57 279.01 428.61 259.19 365.9C239.18 302.59 226.87 236.83 216.94 170.9C212.31 140.18 208.31 109.78 206.11 78.85C204.89 61.63 204.01 44.37 203.51 27.11C203.43 24.35 204.05 11.7 204.28 0H151.75C156.11 74.47 165.22 148.55 179.39 221.6L179.41 221.61Z" fill="var(--fill-0, #373737)"/>
<path id="Vector_2" d="M323.27 402.37C334.51 433.01 351.61 474.01 385.09 481.21C396.75 483.72 408.53 480.29 417.1 471.32C435.29 452.24 434.73 420.96 429.66 396.87C426.26 380.73 420.64 365.27 414.87 349.99C408.73 333.73 402.54 317.49 396.38 301.24C384.59 270.12 372.29 236.63 378.36 202.39C382.45 179.34 396.44 157.31 417.03 149.78C448.27 138.36 486.07 158.81 512.9 174.88C532.31 186.51 549.92 201.73 571.99 206.96C632.05 221.2 696.95 198.89 704.21 126C707.35 94.3802 702.39 59.9602 695.46 36.1802C691.84 23.7502 687.23 11.5803 681.67 0.0102539H648.96C652.75 5.06025 656.38 10.2502 659.82 15.5602C674.26 37.8402 684.69 67.7702 684.32 95.9702C683.99 121.36 674.92 145.35 652.15 161.08C605.2 193.51 547.02 137.84 514.65 105.1C482.27 72.3403 431.75 8.65026 380.95 40.8903C308.64 86.7803 344.57 225.61 370.89 289.78C380.83 314.02 422.63 384.38 397.37 410.24C393.12 414.58 386.68 414.97 381.23 413.66C354.66 407.29 346.02 366 337.61 342.9C298.35 235.11 282.37 112.94 310.38 0.0102539H245.42C253.08 94.8103 264.88 190.52 287.4 282.56C297.27 322.89 309.05 363.54 323.3 402.36L323.27 402.37Z" fill="var(--fill-0, #373737)"/>
<path id="Vector_3" d="M126.35 0.0102539H109.72C107.88 5.38025 106.2 10.8302 104.73 16.3302C92.52 62.0002 93.47 110.61 100.37 157.18C107.56 205.71 121.28 252.71 133.65 299.9C139.95 323.92 146.15 348.1 150.56 372.62C154.32 393.53 155.25 418.82 145.9 437.95C141.9 446.14 136.01 453.2 127.66 458.31C120.05 462.96 111.48 465.11 102.86 466.26C59.58 472.02 30.79 478.08 2.46 516.52C1.63 517.65 0.81 518.79 0 519.94V585.32C17.84 563.81 42.41 548.34 67.97 540.24C94 531.99 121.37 530.18 148.36 531.57C163.47 532.35 178.97 536.8 194.11 534.56C214.74 531.51 226.15 516.69 226.41 494.69C226.87 455.02 197.12 398.64 187.4 374.77C176.47 347.94 165.41 321.14 156.83 293.3C147.87 264.26 141.22 234.45 135.7 204.44C130.23 174.7 125.74 144.74 121.39 114.79C117.25 86.2903 113.67 56.5702 119.39 28.0202C121.38 18.0802 124.77 9.80023 126.37 0.0202332L126.35 0.0102539Z" fill="var(--fill-0, #373737)"/>
<path id="Vector_4" d="M893.67 844.09C886.15 824.74 878.02 805.6 868.22 787.47C849.51 752.83 824.17 722.02 789.88 705.16C759.17 690.06 722.75 687.29 692.39 705.01C663.57 721.82 641.13 753.58 608.1 761.41C569.38 770.58 533.07 736.53 497.2 726.72C460.07 716.57 421.51 721.13 383.7 723.31C345.5 725.52 305.24 725.96 270.36 706.53C235.34 687.03 211.23 652.24 183.27 623.42C155.05 594.35 118.86 568.21 78.06 574.97C47.15 580.09 20.48 600.07 0.02 624.51V717.92C38.57 672.21 89.91 628.77 150.05 655.31C218.08 685.33 243.11 777.07 327.28 774.5C363.71 773.38 398.69 759.5 435.14 758.56C451.93 758.13 468.39 760.99 483.87 768.14C499.34 775.27 513.38 785.37 528.29 793.69C543.99 802.45 560.96 808.86 578.86 806.11C598.03 803.15 614.99 791.87 630.86 780.55C659.75 759.95 689.06 735.22 723.81 727.8C757.88 720.53 789.88 735.28 813.37 761.87C826.17 776.36 836 793.57 844.31 811.39C851.71 827.25 859.54 844.2 864.47 861.16C864.9 862.63 865.27 864.06 865.58 865.45H902.6C899.64 857.86 896.17 850.54 893.67 844.12V844.09Z" fill="var(--fill-0, #373737)"/>
<path id="Vector_5" d="M486.7 813.1C462.34 803.15 435.68 800.38 409.86 803.02C396.68 804.36 383.72 807.14 370.97 810.96C357.63 814.95 344.48 819.76 330.94 822.95C273.17 836.57 249.98 791.74 218.95 749.27C205.88 731.41 190.32 714.63 170.5 705.88C136.01 690.66 88.88 705.07 56.59 720.88C37 730.47 17.52 745.96 0.00999999 764.07V865.43H37.62C41.19 858.03 43.59 849.79 45.33 841.93C51.7 813.18 58.49 781.73 80.44 760.98C105.48 737.31 144.31 741.89 168.01 765.97C186.64 784.9 196.12 811.78 213.8 831.95C225.1 844.84 237.95 856.14 251.95 865.44H550.54C547.57 860.88 544.34 856.53 540.87 852.4C526.11 834.82 507.21 821.47 486.71 813.11L486.7 813.1Z" fill="var(--fill-0, #373737)"/>
<path id="Vector_6" d="M1359.93 560.84V667.43C1352.98 661.15 1346.98 655.16 1343.38 652.57C1323.19 638.05 1293.58 627.67 1272.46 644.7C1230.32 678.67 1194.01 721.84 1153.64 758.37C1135.97 774.36 1118.3 791.33 1098.12 803.59C1065.22 823.56 1025.47 828.49 988.62 821.42C946.5 813.33 926.6 791.05 898.3 758.91C870.07 726.84 846.96 682.45 809.38 662.68C774.65 644.41 731.38 642.4 696.14 660.2C678.56 669.07 665.24 682.45 652.05 697.48C640.52 710.61 627.37 725.37 609.84 727.71C600.55 728.95 591.06 726.29 583.55 720.24C575.85 714.04 571.11 704.83 564.66 697.33C549.52 679.69 526.16 680.37 505.86 684.19C482.41 688.61 459.42 695.62 435.99 700.28C393.01 708.83 347.49 712.24 306.04 694.51C277.4 682.26 252.91 660.06 236.23 632.12C227.57 617.63 226.8 599.4 242.77 590.5C259.98 580.92 282.98 597.23 296.83 607.18C316.18 621.09 335.33 633.26 357.71 641.15C387.1 651.51 417.24 651.91 447.12 643.63C476.54 635.47 504.01 620.94 531.25 606.76C580.66 581.03 638.95 552.8 694.5 572.24C707.13 576.66 718.41 583.89 729.76 591.17C741.72 598.84 754.41 606.95 768.56 608.38C783.75 609.92 797.59 602.61 811.74 597.96C823.44 594.12 835.73 591.99 847.98 592.01C871.23 592.04 894.79 600.37 909.99 620.17C918.87 631.73 924.49 645.55 930.35 659.04C946.37 695.91 972.67 733.82 1009.67 749.03C1036.42 760.03 1065.62 756.99 1091.71 745.3C1147.74 720.21 1180.82 662.94 1217.71 614.33C1234.28 592.5 1253.14 571.08 1277.18 558.99C1299.94 547.56 1326 546.34 1349.56 555.84C1353.13 557.28 1356.59 558.95 1359.94 560.82L1359.93 560.84Z" fill="var(--fill-0, #373737)"/>
<path id="Vector_7" d="M1359.93 804.57C1354.15 809.16 1346.55 811.25 1337.79 809.57C1325.07 807.13 1314.92 798.62 1301.84 797.32C1294.62 796.6 1287.32 797.19 1280.18 798.43C1265.15 801.03 1250.59 806.09 1235.51 808.41C1228.46 809.49 1212.48 810.14 1216.28 796.95C1218.57 789.04 1233.19 786.79 1239.23 783.46C1244.89 780.34 1250.27 776.59 1255.2 772.26C1266.77 762.09 1273.74 749.26 1281.14 735.53C1300.87 698.93 1339.87 716.12 1359.94 744.03V685.78C1358.68 685 1357.37 684.34 1356.02 683.82C1355.79 683.58 1355.51 683.38 1355.15 683.25C1343.51 679.15 1331.43 676.55 1319.22 675.49C1301.02 673.91 1283.6 676.72 1270.64 691.79C1261.99 701.85 1256.81 714.45 1250.51 726.21C1245.49 735.58 1239.31 743.95 1232.19 751.58C1224.98 759.3 1217.1 766.23 1209.18 773.07C1196.92 783.66 1180.63 794.91 1172.36 809.55C1163.94 824.44 1166.31 840.13 1180.93 847.3C1191 852.24 1202.15 853.12 1213.02 851.57C1251.06 846.17 1281.33 816.21 1320.45 832.94C1334.59 838.98 1348.46 842.33 1359.93 839.41V804.57Z" fill="var(--fill-0, #373737)"/>
<path id="Vector_8" d="M808.5 91.2402C807.65 133.16 798.76 175.18 781.67 212.92C766.61 246.19 744.22 277.53 713.41 295.1C696.04 305.01 676.69 309.32 657.11 309.13C646.38 309.02 635.69 307.67 625.16 305.45C603.72 300.92 580.59 290.08 558.61 296.72C535.55 303.69 528.4 328.26 525.57 351.3C520.38 393.55 530.15 436.97 520.86 478.75C516.84 496.82 505.07 512.53 502.61 530.81C499.32 555.23 518.19 567.76 538.72 563.77C548.33 561.9 557.7 557.81 566.82 554.13C592.83 543.61 614.68 528.08 624.95 499.56C628.42 489.94 630.82 479.93 633.71 470.11C636.21 461.6 639.06 453.2 642.42 445.06C656.46 411 680.49 381.39 717.35 379.67C763.54 377.52 809.3 393.09 855.57 393.23C896.46 393.36 954.94 389.41 984.63 354.35C1009.85 324.57 1008.09 279 1008.58 241.38C1009.17 195.87 1041.18 164.59 1074.2 141.84C1116.88 112.43 1166.35 87.3402 1217.88 86.2702C1265.69 85.2802 1314.84 97.2702 1359.92 117.66V88.2802C1355.65 86.5102 1351.48 84.6402 1347.51 83.0002C1268.53 50.4002 1178.58 43.0302 1099.45 79.0802C1064.56 94.9702 1032.61 118.81 1007.74 149.75C993.58 167.36 984.21 188.01 978.62 210.44C973.27 231.91 973.77 255.82 966.47 276.52C953.84 312.36 923.59 336.96 888.64 341.88C845.4 347.96 801.6 336.69 757.98 341.61C721.29 345.76 683.23 358.35 652.3 381.66C637.48 392.83 621.93 409.06 612 425.48C602.03 441.98 601.37 464.18 587.79 478.32C570.1 496.74 570.65 447.04 570.47 441.01C569.58 410.04 559.05 348.02 593.42 332.74C609.67 325.5 628.15 329.76 645 331.52C685.56 335.77 728.71 331.2 762.98 305.42C794 282.09 814.23 245.59 828.69 208.64C853.63 144.92 868.95 66.8703 847.01 0.0102539H797.3C805.38 29.5403 809.11 60.4502 808.48 91.2402H808.5Z" fill="var(--fill-0, #373737)"/>
<path id="Vector_9" d="M1133.94 149.8C1099.82 162.96 1068.2 186.18 1047.32 218.51C1036.88 234.68 1029.65 252.94 1026.09 272.27C1022.17 293.52 1021.82 315.27 1019.27 336.73C1015.71 366.64 1006.48 392.91 982.46 409.79C948.96 433.34 912.41 431.6 874.29 428.25C818.01 423.31 732.78 404.6 687.78 448.19C675.44 460.14 666.79 477.09 666.26 494.98C663.98 571.8 817.19 543.42 854.23 547.18C882.81 550.08 910.87 559.21 929.02 584.82C957.49 625.01 957.75 678.2 996.37 712.3C1034.55 746.02 1088.77 725.88 1121.88 694.89C1154.77 664.1 1178.29 621.64 1195.75 579.06C1209.42 545.74 1231.12 523.9 1261.07 507.51C1284.34 494.77 1310.07 487.57 1336.08 485.84C1343.63 485.34 1351.73 486.28 1359.94 487.45V469.24C1359.17 468.99 1358.39 468.73 1357.62 468.48C1323.16 457.35 1284.78 458.3 1251.8 474.42C1186.51 506.34 1181.2 578.28 1140.42 633.19C1122.33 657.54 1096.51 676.49 1066.97 678.42C1019.79 681.51 1011.57 641.99 1001.32 601.71C996.4 582.38 990.24 561.77 974.25 549.94C952.88 534.13 923.55 532.38 898.79 527.75C865.23 521.47 831.04 519.16 797.02 520.84C764.58 522.44 734.68 525.73 703.52 512.66C683.38 504.21 681.47 483.35 700.65 471.41C761.38 433.58 835.31 433.72 902.51 444.72C938.65 450.63 974.69 457.09 1010.88 462.56C1037.8 466.63 1078.62 477.1 1093.22 443.34C1105.74 414.39 1091.39 382.91 1079.2 357.16C1072.05 342.06 1064.86 326.55 1062.29 309.65C1060.14 295.52 1061.19 281.01 1064.95 267.29C1072.8 238.56 1091.51 213.67 1114.61 197.44C1140.83 179.04 1172.33 171.26 1203.17 168.87C1234.51 166.45 1266.75 168.47 1297.59 174.93C1319.23 179.46 1340.49 186.78 1359.93 197.91V157.34C1333.54 147.47 1304.28 142.76 1278.74 139.5C1232.44 133.59 1178.35 132.7 1133.94 149.81V149.8Z" fill="var(--fill-0, #373737)"/>
<path id="Vector_10" d="M1147.27 237.78C1117.37 268.73 1121.92 309.73 1127.99 349.79C1131.55 373.21 1134.19 397.04 1130.4 420.65C1127.14 440.89 1119.21 460.21 1105.46 474.69C1099.24 481.24 1091.89 486.73 1083.77 490.19C1049.88 504.63 1010.58 486.73 976.44 481.83C933.32 475.65 889.86 473.97 846.7 468.3C822.83 465.16 797.98 459 774.33 466.98C747.69 475.97 775.67 490.92 790.5 495.6C819.62 504.79 851.49 501.52 880.7 505.19C914.16 509.38 948.59 511.4 980.39 524.42C1010.05 536.57 1032.91 569.54 1040.1 602.42C1046.39 631.18 1065.62 650.05 1091.65 628.28C1117.08 607.02 1131.57 565.56 1145.85 535.46C1161.54 502.38 1177.83 469.08 1202.1 442.24C1219.4 423.11 1244.11 415.05 1268.18 412.18C1297.37 408.69 1325.36 417.37 1349.96 434.51C1353.49 436.97 1356.73 439.83 1359.92 442.63V422.77C1343.65 418.42 1331.15 402.96 1316.67 394.87C1282.83 375.97 1249.45 372.55 1212.03 375.16C1162.71 378.6 1159.91 316.59 1189.39 286.29C1210.77 264.31 1243.37 270.99 1266.76 284.83C1275.44 289.96 1283.6 296.02 1291.71 302.14C1313.64 318.69 1335.44 335.44 1357.27 352.16C1358.17 352.85 1359.06 353.51 1359.93 354.16V304.92C1347.94 293.53 1335.77 282.88 1325.19 272.72C1280.72 230.02 1200.04 183.17 1147.27 237.79V237.78Z" fill="var(--fill-0, #373737)"/>
</g>
</svg>
