<svg overflow="visible" style="display: block;" viewBox="0 0 40 40" fill="none" xmlns="http://www.w3.org/2000/svg">
<path id="Vector" d="M15.9952 32.0024H23.9928V40H15.9952V32.0024ZM0 40H7.99761V32.0024H0V40ZM32.0024 24.0048H40V16.0072H32.0024V24.0048ZM24.0048 32.0024H32.0024V24.0048H24.0048V32.0024ZM15.9952 24.0048H23.9928V16.0072H15.9952V24.0048ZM7.99761 32.0024H15.9952V24.0048H7.99761V32.0024ZM24.0048 15.9952H32.0024V7.99761H24.0048V15.9952ZM15.9952 7.99761H23.9928V0H15.9952V7.99761ZM7.99761 15.9952H15.9952V7.99761H7.99761V15.9952ZM0 7.99761H7.99761V0H0V7.99761Z" fill="var(--fill-0, white)"/>
</svg>
