<svg overflow="visible" style="display: block;" viewBox="0 0 40 40" fill="none" xmlns="http://www.w3.org/2000/svg">
<path id="Vector" d="M24.0048 7.99761H16.0072V0H24.0048V7.99761ZM40 0H32.0024V7.99761H40V0ZM7.99761 15.9952H0V23.9928H7.99761V15.9952ZM15.9952 7.99761H7.99761V15.9952H15.9952V7.99761ZM24.0048 15.9952H16.0072V23.9928H24.0048V15.9952ZM32.0024 7.99761H24.0048V15.9952H32.0024V7.99761ZM15.9952 24.0048H7.99761V32.0024H15.9952V24.0048ZM24.0048 32.0024H16.0072V40H24.0048V32.0024ZM32.0024 24.0048H24.0048V32.0024H32.0024V24.0048ZM40 32.0024H32.0024V40H40V32.0024Z" fill="var(--fill-0, white)"/>
</svg>
