<?xml version="1.0" encoding="UTF-8"?>
<svg id="Layer_2" data-name="Layer 2" xmlns="http://www.w3.org/2000/svg" viewBox="0 0 893.54 51.96">
  <g id="Layer_1-2" data-name="Layer 1">
    <g>
      <g opacity=".7">
        <path d="M152.52,34.69h-8.07c-.14,0-.27.03-.4.04.06-.62.09-1.26.09-1.91,0-2.39-.47-4.66-1.4-6.76-.91-2.05-2.16-3.86-3.73-5.38-1.56-1.51-3.38-2.71-5.42-3.58-1.25-.53-2.54-.9-3.87-1.11l4.19-7.55c.69-1.24.67-2.75-.05-3.97-.72-1.22-2.03-1.97-3.45-1.97h-8.22c-1.45,0-2.78.78-3.49,2.04l-10.27,18.27c-.84,1.58-1.58,3.17-2.18,4.72-.73,1.88-1.1,3.96-1.1,6.19,0,.77.06,1.53.16,2.27-.28-.06-.57-.1-.87-.1h-7.75c1.28-1.14,2.49-2.35,3.59-3.61,1.22-1.39,2.31-2.82,3.24-4.26.96-1.49,1.75-3.01,2.32-4.51.64-1.67,1-3.33,1.04-4.96.08-2.8-.36-5.32-1.32-7.48-.97-2.19-2.36-4.04-4.13-5.48-1.68-1.38-3.64-2.42-5.82-3.08-2.06-.63-4.23-.95-6.46-.95-2.49,0-4.8.32-6.88.95-2.12.64-4.04,1.58-5.71,2.79-1.67,1.2-3.12,2.66-4.31,4.34-.25.35-.49.72-.72,1.09-.46-.75-.94-1.47-1.47-2.13-1.82-2.26-4.07-4.02-6.67-5.23-2.58-1.19-5.51-1.8-8.72-1.8s-6.2.6-8.79,1.79c-2.64,1.21-4.89,2.98-6.7,5.26-.91,1.15-1.71,2.43-2.39,3.83-.15-.46-.31-.92-.5-1.36-.97-2.19-2.36-4.04-4.13-5.48-1.68-1.38-3.64-2.42-5.82-3.08-2.06-.63-4.23-.95-6.46-.95-2.49,0-4.8.32-6.88.95-2.12.64-4.04,1.58-5.71,2.79-1.67,1.2-3.12,2.66-4.31,4.34-1.14,1.61-2.07,3.39-2.75,5.29-.67,1.85.11,3.92,1.83,4.87l6.12,3.36c.6.33,1.26.49,1.93.49.47,0,.94-.08,1.4-.25,1.09-.41,1.95-1.27,2.35-2.36.65-1.76,1.53-3.13,2.68-4.2,1.13-1.04,2.05-1.17,2.65-1.17,1.48,0,1.92.44,2.06.59.15.15.6.61.6,2.08,0,.44-.1.89-.3,1.37-.28.68-.69,1.38-1.2,2.1-.58.8-1.28,1.62-2.1,2.45-.87.89-1.85,1.82-2.91,2.75l-12.93,11.33c-.87.76-1.36,1.86-1.36,3.01v4.61c0,2.21,1.79,4,4,4h30.12c2.21,0,4-1.79,4-4v-2.14c1.8,2.29,4.05,4.08,6.69,5.31,2.6,1.21,5.56,1.83,8.81,1.83s6.31-.61,8.93-1.83c2.67-1.24,4.92-3.03,6.71-5.33,0,0,0-.01.01-.02v2.17c0,2.21,1.79,4,4,4h30.12c2.21,0,4-1.79,4-4v-2.42c.81,1.08,1.73,2.07,2.79,2.93,1.77,1.45,3.8,2.58,6.05,3.35,2.21.76,4.52,1.14,6.86,1.14,2.69,0,5.25-.4,7.61-1.18,2.43-.81,4.58-2,6.38-3.52.85-.72,1.62-1.54,2.31-2.42v2.47c0,2.21,1.79,4,4,4h8.07c2.21,0,4-1.79,4-4v-7.62c0-2.21-1.79-4-4-4ZM27.43,35.89c1.28-1.14,2.49-2.35,3.59-3.61,1.13-1.29,2.15-2.62,3.04-3.96.14,2.72.53,5.26,1.19,7.57-.02,0-.04,0-.06,0h-7.75ZM58.94,31.92c-.34,1.37-.78,2.46-1.31,3.25-.42.62-.87,1.05-1.32,1.29-.5.26-1.04.38-1.63.38-.56,0-1.04-.12-1.53-.37-.46-.24-.9-.68-1.32-1.3-.54-.8-.99-1.91-1.34-3.29-.38-1.5-.58-3.41-.58-5.68s.19-4.13.58-5.63c.35-1.37.8-2.46,1.33-3.24.43-.62.88-1.06,1.34-1.3.48-.25.97-.37,1.53-.37.59,0,1.13.12,1.63.38.47.24.92.68,1.34,1.29.52.76.96,1.84,1.29,3.2.37,1.52.56,3.43.56,5.66s-.19,4.19-.56,5.71ZM90.83,19.71c-.28.68-.69,1.38-1.2,2.1-.58.8-1.28,1.62-2.1,2.45-.87.89-1.85,1.82-2.91,2.75l-10.58,9.27c.04-.14.09-.27.13-.42.79-2.89,1.2-6.14,1.2-9.65,0-1.5-.1-2.95-.25-4.35l2.34,1.29c.6.33,1.26.49,1.93.49.47,0,.94-.08,1.4-.25,1.09-.41,1.95-1.27,2.35-2.36.65-1.76,1.53-3.13,2.68-4.2,1.13-1.04,2.05-1.17,2.65-1.17,1.48,0,1.92.44,2.06.59.15.15.6.61.6,2.08,0,.44-.1.89-.3,1.37ZM127.96,34.83c-.16.41-.38.76-.68,1.07-.27.28-.61.51-1.06.7-.45.19-1.03.29-1.73.29s-1.28-.1-1.73-.29c-.44-.19-.79-.42-1.06-.7-.29-.3-.51-.65-.67-1.07-.17-.44-.25-.9-.25-1.41,0-.56.08-1.08.26-1.58.12-.36.29-.64.53-.89.27-.28.63-.51,1.1-.7.48-.2,1.09-.3,1.83-.3s1.35.1,1.83.3c.47.19.83.42,1.09.7.24.25.42.54.54.89.17.51.26,1.02.26,1.58,0,.51-.08.97-.26,1.41Z" fill="#fff"/>
        <path d="M247.15,34.69h-7.53v-2.57c0-2.21-1.79-4-4-4h-1.62V6.51c0-2.21-1.79-4-4-4h-7.92c-1.29,0-2.5.62-3.25,1.67l-14.12,19.76c-.15-2.68-.55-5.18-1.22-7.47-.9-3.05-2.24-5.71-4-7.89-1.82-2.26-4.07-4.02-6.67-5.23-2.58-1.19-5.51-1.8-8.72-1.8s-6.2.6-8.79,1.79c-2.64,1.21-4.89,2.98-6.7,5.26-1.74,2.19-3.07,4.85-3.94,7.9-.83,2.91-1.26,6.17-1.26,9.7s.42,6.79,1.26,9.7c.88,3.04,2.2,5.7,3.93,7.91,1.8,2.29,4.05,4.08,6.69,5.31,2.6,1.21,5.56,1.83,8.81,1.83s6.31-.61,8.93-1.83c2.66-1.24,4.92-3.03,6.71-5.33.59-.75,1.1-1.58,1.59-2.44.68.54,1.53.87,2.47.87h14.29v3.72c0,2.21,1.79,4,4,4h7.92c2.21,0,4-1.79,4-4v-3.72h1.07v4.07c0,2.21,1.79,4,4,4h8.07c2.21,0,4-1.79,4-4v-7.62c0-2.21-1.79-4-4-4ZM188.36,31.92c-.34,1.37-.78,2.46-1.31,3.25-.42.62-.86,1.05-1.32,1.29-.5.26-1.03.38-1.62.38-.56,0-1.05-.12-1.53-.37-.46-.24-.9-.68-1.32-1.3-.54-.8-.99-1.9-1.34-3.28-.38-1.51-.58-3.42-.58-5.68s.19-4.12.58-5.63c.35-1.37.79-2.46,1.33-3.24.42-.62.87-1.06,1.34-1.3.48-.25.97-.37,1.53-.37.59,0,1.12.12,1.63.38.47.24.92.67,1.34,1.29.52.77.96,1.84,1.29,3.2.37,1.52.56,3.42.56,5.66s-.19,4.2-.56,5.71Z" fill="#fff"/>
        <path d="M328.91,8.59c-1.82-2.26-4.07-4.02-6.67-5.23-2.58-1.19-5.51-1.8-8.72-1.8s-6.2.6-8.79,1.79c-2.64,1.21-4.89,2.98-6.7,5.26-1,1.26-1.84,2.68-2.56,4.23-.24-.77-.54-1.53-.92-2.26-1-1.88-2.39-3.52-4.13-4.88-1.67-1.31-3.66-2.34-5.93-3.06-2.21-.71-4.65-1.07-7.26-1.07-2.02,0-3.99.26-5.85.77-1.88.52-3.62,1.26-5.19,2.23-1.63,1-3.07,2.25-4.28,3.72-1.23,1.5-2.19,3.21-2.84,5.09-.67,1.93.22,4.06,2.07,4.93l6.37,3.01c.54.25,1.12.38,1.71.38.05,0,.11,0,.16,0-.13.4-.21.82-.21,1.27v6.12c0,.73.2,1.41.54,2-.34-.09-.7-.14-1.05-.14-.59,0-1.19.13-1.73.4l-6.67,3.21c-1.91.92-2.77,3.17-1.96,5.13.82,1.98,1.92,3.72,3.29,5.17,1.32,1.41,2.85,2.59,4.53,3.5,1.63.89,3.43,1.56,5.34,1.99,1.83.42,3.76.62,5.72.62,2.69,0,5.23-.33,7.54-.98,2.44-.68,4.59-1.71,6.39-3.04,1.9-1.41,3.41-3.16,4.47-5.2.17-.33.31-.67.45-1.02.59,1.1,1.24,2.15,1.98,3.09,1.8,2.29,4.05,4.08,6.69,5.31,2.6,1.21,5.56,1.83,8.81,1.83s6.31-.61,8.93-1.83c2.66-1.24,4.92-3.03,6.71-5.33,1.72-2.21,3.02-4.88,3.86-7.94.79-2.89,1.2-6.14,1.2-9.65s-.43-6.81-1.29-9.73c-.9-3.05-2.24-5.71-4-7.89ZM274.8,16.42c.61-.52,1.22-.75,1.97-.75,1.28,0,2.25.25,2.96.76.22.16.46.33.46,1.1,0,.4-.06.56-.06.56-.07.12-.15.2-.27.28-.26.17-.6.29-1.01.38-.59.13-1.22.19-1.88.19,0,0-3.92,0-3.97,0,.42-1.03,1.01-1.86,1.8-2.53ZM280.81,35.97c-.92.58-2.21.87-3.84.87-.48,0-.94-.07-1.42-.23-.52-.17-.99-.4-1.45-.7-.39-.26-.73-.58-1.04-.97-.26-.34-.45-.71-.58-1.14-.09-.31-.22-.6-.37-.87.33.09.68.14,1.05.14h3.81c.84,0,1.63.08,2.37.22.56.11,1.04.28,1.41.5.2.12.34.25.44.42,0,0,.09.18.09.67,0,.79-.21.93-.48,1.1ZM317.78,31.92c-.34,1.37-.78,2.46-1.31,3.25-.42.62-.86,1.05-1.32,1.29-.5.26-1.03.38-1.62.38-.56,0-1.05-.12-1.53-.37-.46-.24-.9-.68-1.32-1.3-.54-.8-.99-1.9-1.34-3.28-.38-1.51-.58-3.42-.58-5.68s.19-4.12.58-5.63c.35-1.37.79-2.46,1.33-3.24.42-.62.87-1.06,1.34-1.3.48-.25.97-.37,1.53-.37.59,0,1.12.12,1.63.38.47.24.92.67,1.34,1.29.52.77.96,1.84,1.29,3.2.37,1.52.56,3.42.56,5.66s-.19,4.2-.56,5.71Z" fill="#fff"/>
        <path d="M420.39,1.06c-.74-.68-1.71-1.06-2.72-1.06h-7.92c-1.23,0-2.37.57-3.12,1.5-.69-.55-1.55-.9-2.49-.9h-35.94c-.93,0-1.78.33-2.46.87-.75-.92-1.88-1.47-3.1-1.47h-7.92c-1.01,0-1.98.38-2.72,1.06-3.52,3.25-6.25,6.99-8.14,11.09-1.9,4.15-2.87,8.79-2.87,13.8s.97,9.61,2.9,13.8c1.9,4.14,4.62,7.88,8.1,11.13.74.69,1.72,1.08,2.73,1.08h7.92c1.63,0,3.11-1,3.71-2.51.61-1.52.23-3.25-.95-4.38-1.22-1.16-2.37-2.49-3.42-3.95-1.04-1.45-1.95-3.01-2.68-4.65-.74-1.65-1.33-3.39-1.76-5.19-.41-1.75-.62-3.54-.62-5.32s.21-3.58.62-5.32c.42-1.79,1.01-3.52,1.75-5.15.74-1.63,1.65-3.19,2.69-4.64.7-.97,1.45-1.88,2.23-2.73v12.47c-1.7.46-2.96,2.01-2.96,3.86v6.12c0,1.66,1.01,3.09,2.46,3.69v5.08c0,2.21,1.79,4,4,4h25.07v3.67c0,2.21,1.79,4,4,4h7.87c.73,0,1.4-.21,1.99-.55.75.93,1.89,1.5,3.12,1.5h7.92c1.01,0,1.99-.39,2.73-1.08,3.47-3.25,6.2-6.99,8.09-11.13,1.92-4.19,2.9-8.83,2.9-13.8s-.97-9.65-2.87-13.8c-1.88-4.11-4.62-7.84-8.14-11.09ZM414.86,31.27c-.43,1.8-1.02,3.55-1.76,5.19-.74,1.63-1.64,3.2-2.68,4.65-.56.78-1.16,1.52-1.78,2.23v-9.08c1.44-.6,2.46-2.03,2.46-3.69v-6.12c0-1.85-1.25-3.4-2.96-3.86v-12.52c.8.86,1.56,1.79,2.28,2.78,1.05,1.45,1.95,3.01,2.69,4.63.74,1.62,1.33,3.36,1.75,5.15.41,1.75.62,3.55.62,5.33s-.21,3.57-.62,5.32Z" fill="#fff"/>
        <path d="M469.2,17.65c-.58-.31-1.22-.46-1.86-.46-.8,0-1.59.24-2.28.71-.58.4-1.13.7-1.63.88-.22.08-.75.21-1.75.21-.63,0-1.2-.09-1.75-.28-.85-.29-1.71-.63-2.64-1.05-.98-.42-1.97-.82-2.96-1.21-1.41-.54-2.9-.82-4.43-.82-1.72,0-3.29.19-4.67.57-1.25.34-2.42.76-3.48,1.26-1.42.65-2.32,2.07-2.32,3.63v6.62c0,1.41.74,2.71,1.95,3.43.63.38,1.34.57,2.05.57.65,0,1.31-.16,1.9-.48.62-.34,1.23-.59,1.8-.77.32-.09.92-.21,1.96-.21.61,0,1.16.09,1.69.29.87.32,1.76.68,2.69,1.09.99.42,2.01.83,3.03,1.21,1.39.51,2.86.77,4.37.77,1.75,0,3.36-.23,4.79-.69,1.31-.42,2.56-.99,3.72-1.67,1.21-.72,1.96-2.03,1.96-3.44v-6.62c0-1.49-.83-2.85-2.14-3.54Z" fill="#fff"/>
        <path d="M631.05,34.69h-8.07c-.14,0-.27.03-.4.04.06-.62.09-1.26.09-1.91,0-2.39-.47-4.66-1.39-6.75-.91-2.05-2.16-3.86-3.73-5.39-1.56-1.51-3.38-2.72-5.42-3.58-1.25-.53-2.54-.9-3.87-1.11l4.19-7.55c.69-1.24.67-2.75-.05-3.97-.72-1.22-2.03-1.97-3.45-1.97h-8.22c-1.45,0-2.78.78-3.49,2.04l-10.26,18.27c-.83,1.56-1.57,3.15-2.18,4.73-.73,1.88-1.1,3.96-1.1,6.18,0,.77.06,1.53.16,2.27-.28-.06-.57-.1-.87-.1h-7.75c1.28-1.14,2.49-2.35,3.59-3.61,1.22-1.39,2.31-2.82,3.24-4.26.96-1.49,1.75-3.01,2.32-4.51.64-1.67,1-3.33,1.04-4.96.08-2.8-.36-5.32-1.32-7.48-.97-2.19-2.36-4.04-4.13-5.48-1.68-1.38-3.64-2.42-5.82-3.08-2.06-.63-4.23-.95-6.46-.95-2.49,0-4.8.32-6.88.95-2.12.64-4.04,1.58-5.71,2.79-1.67,1.2-3.12,2.66-4.31,4.34-.25.35-.49.72-.72,1.09-.46-.75-.94-1.47-1.47-2.13-1.82-2.26-4.07-4.02-6.67-5.23-2.58-1.19-5.51-1.8-8.72-1.8s-6.2.6-8.79,1.79c-2.64,1.21-4.89,2.98-6.7,5.26-.91,1.15-1.7,2.43-2.38,3.83-.15-.46-.31-.92-.5-1.36-.97-2.19-2.36-4.03-4.13-5.48-1.68-1.38-3.64-2.42-5.82-3.08-2.06-.63-4.23-.95-6.46-.95-2.49,0-4.81.32-6.88.95-2.12.64-4.04,1.58-5.71,2.79-1.67,1.21-3.12,2.67-4.3,4.34-1.14,1.6-2.06,3.38-2.75,5.29-.67,1.85.11,3.92,1.83,4.87l6.12,3.36c.6.33,1.26.49,1.93.49.47,0,.95-.08,1.4-.25,1.09-.41,1.95-1.27,2.35-2.36.65-1.76,1.53-3.13,2.68-4.2,1.11-1.03,2-1.16,2.64-1.16,1.48,0,1.92.44,2.06.59.15.15.6.61.6,2.08,0,.44-.1.89-.3,1.38-.28.68-.68,1.38-1.2,2.09-.58.8-1.29,1.63-2.09,2.45-.88.89-1.86,1.82-2.92,2.75l-12.93,11.33c-.87.76-1.36,1.86-1.36,3.01v4.61c0,2.21,1.79,4,4,4h30.12c2.21,0,4-1.79,4-4v-2.13c1.8,2.29,4.05,4.07,6.68,5.31,2.6,1.21,5.56,1.83,8.81,1.83s6.31-.61,8.93-1.83c2.66-1.24,4.92-3.03,6.71-5.33,0,0,0,0,0-.01v2.17c0,2.21,1.79,4,4,4h30.12c2.21,0,4-1.79,4-4v-2.42c.81,1.08,1.73,2.07,2.79,2.93,1.76,1.45,3.8,2.58,6.05,3.35,2.21.76,4.52,1.14,6.86,1.14,2.69,0,5.25-.4,7.61-1.18,2.43-.81,4.58-2,6.38-3.52.85-.72,1.62-1.54,2.31-2.42v2.47c0,2.21,1.79,4,4,4h8.07c2.21,0,4-1.79,4-4v-7.62c0-2.21-1.79-4-4-4ZM505.96,35.89c1.28-1.14,2.48-2.35,3.59-3.61,1.14-1.3,2.16-2.63,3.03-3.95.14,2.71.53,5.26,1.19,7.57-.02,0-.04,0-.06,0h-7.75ZM537.47,31.92c-.34,1.37-.78,2.46-1.31,3.25-.42.62-.86,1.05-1.32,1.29-.5.26-1.03.38-1.62.38-.56,0-1.05-.12-1.53-.37-.46-.24-.9-.68-1.32-1.3-.54-.8-.99-1.9-1.34-3.28-.38-1.51-.58-3.42-.58-5.68s.19-4.12.58-5.63c.35-1.37.79-2.46,1.33-3.24.42-.62.87-1.06,1.34-1.3.48-.25.97-.37,1.53-.37.59,0,1.12.12,1.63.38.47.24.92.67,1.34,1.29.52.77.96,1.84,1.29,3.2.37,1.52.56,3.42.56,5.66s-.19,4.2-.56,5.71ZM569.36,19.71c-.28.68-.69,1.38-1.2,2.1-.58.8-1.28,1.62-2.1,2.45-.87.89-1.85,1.82-2.91,2.75l-10.58,9.27c.04-.14.09-.27.13-.42.79-2.89,1.2-6.14,1.2-9.65,0-1.5-.1-2.95-.25-4.35l2.34,1.29c.6.33,1.26.49,1.93.49.47,0,.94-.08,1.4-.25,1.09-.41,1.95-1.27,2.35-2.36.65-1.76,1.53-3.13,2.68-4.2,1.13-1.04,2.05-1.17,2.65-1.17,1.48,0,1.92.44,2.06.59.15.15.6.61.6,2.08,0,.44-.1.89-.3,1.37ZM606.5,34.83c-.16.42-.38.77-.67,1.08-.27.28-.62.51-1.06.7-.45.19-1.04.29-1.73.29s-1.28-.1-1.73-.29c-.44-.19-.79-.42-1.06-.7-.29-.3-.51-.65-.67-1.07-.17-.44-.25-.9-.25-1.41,0-.56.08-1.08.25-1.57.13-.37.3-.65.54-.9.27-.27.63-.51,1.09-.7.48-.2,1.09-.3,1.83-.3s1.35.1,1.83.3c.47.19.83.42,1.1.7.24.25.41.53.54.9.17.5.26,1.01.26,1.57,0,.51-.08.97-.25,1.41Z" fill="#fff"/>
        <path d="M726.58,34.69h-8.07c-.18,0-.36.03-.54.05.04-.49.08-.98.08-1.47,0-2.71-.51-5.19-1.51-7.4-.99-2.18-2.35-4.06-4.03-5.59-1.66-1.51-3.61-2.69-5.78-3.5-.16-.06-.32-.12-.48-.17h5.7c2.21,0,4-1.79,4-4v-6.12c0-2.21-1.79-4-4-4h-27.62c-2.21,0-4,1.79-4,4v5.67c-.66-1.3-1.43-2.5-2.3-3.59-1.82-2.26-4.07-4.02-6.67-5.23-2.58-1.19-5.51-1.8-8.72-1.8s-6.2.6-8.79,1.79c-2.64,1.21-4.89,2.98-6.7,5.26-1.74,2.19-3.07,4.85-3.95,7.9-.84,2.9-1.26,6.17-1.26,9.7s.42,6.8,1.26,9.7c.88,3.05,2.2,5.71,3.93,7.91,1.8,2.29,4.05,4.08,6.69,5.31,2.6,1.21,5.56,1.83,8.81,1.83s6.31-.61,8.93-1.83c2.67-1.24,4.92-3.03,6.71-5.33.71-.91,1.33-1.92,1.89-2.98.44.94.98,1.82,1.59,2.65,1.2,1.61,2.68,3,4.42,4.13,1.67,1.09,3.57,1.93,5.65,2.51,2.03.56,4.22.85,6.51.85,2.89,0,5.57-.47,7.96-1.4,2.4-.93,4.5-2.22,6.23-3.83.74-.69,1.4-1.44,2-2.22v2.79c0,2.21,1.79,4,4,4h8.07c2.21,0,4-1.79,4-4v-7.62c0-2.21-1.79-4-4-4ZM666.89,31.92c-.34,1.37-.78,2.46-1.31,3.25-.42.62-.87,1.05-1.32,1.29-.5.26-1.04.38-1.63.38-.56,0-1.04-.12-1.53-.37-.46-.24-.9-.68-1.32-1.3-.54-.8-.99-1.91-1.34-3.29-.38-1.5-.58-3.41-.58-5.68s.19-4.13.58-5.63c.35-1.37.8-2.46,1.33-3.24.43-.62.88-1.06,1.34-1.3.48-.25.97-.37,1.53-.37.59,0,1.13.12,1.63.38.47.24.92.68,1.34,1.29.52.76.96,1.84,1.29,3.2.37,1.52.56,3.43.56,5.66s-.19,4.19-.56,5.71ZM682.79,32.69s0-.03,0-.04c.01,0,.03.01.04.02l-.05.02ZM701.88,34.89c-.14.37-.34.69-.62.98-.27.28-.62.5-1.06.67-.5.2-1.12.3-1.84.3s-1.29-.09-1.77-.26c-.52-.19-.95-.42-1.34-.73-.4-.32-.76-.71-1.09-1.18-.4-.58-.75-1.23-1.05-1.92l-.05-.11c.61-.26,1.16-.68,1.58-1.22.44-.57.95-.98,1.57-1.26.63-.29,1.2-.45,1.6-.45,1.12,0,2.62.16,3.39.93.4.4.93,1.12.93,2.74,0,.56-.08,1.06-.25,1.52Z" fill="#fff"/>
        <path d="M790.09,2.51h-14.94c-2.21,0-4,1.79-4,4v.32c-.41-.4-.84-.78-1.31-1.14-1.67-1.31-3.66-2.34-5.93-3.06-2.21-.71-4.65-1.07-7.26-1.07-2.02,0-3.99.26-5.85.77-1.88.52-3.62,1.26-5.19,2.23-1.63,1-3.07,2.25-4.28,3.72-1.23,1.5-2.19,3.21-2.84,5.09-.67,1.93.22,4.06,2.07,4.93l6.37,3.01c.54.25,1.12.38,1.71.38.05,0,.11,0,.16,0-.13.4-.21.82-.21,1.27v6.12c0,.73.2,1.41.54,2-.34-.09-.7-.14-1.05-.14-.59,0-1.19.13-1.73.4l-6.67,3.21c-1.91.92-2.77,3.17-1.96,5.13.82,1.98,1.92,3.72,3.29,5.17,1.32,1.41,2.85,2.59,4.53,3.5,1.63.89,3.43,1.56,5.34,1.99,1.83.42,3.76.62,5.72.62,2.69,0,5.23-.33,7.54-.98,2.44-.68,4.59-1.71,6.39-3.04,1.9-1.41,3.41-3.16,4.47-5.2,1.08-2.07,1.63-4.4,1.63-6.92,0-3.3-.99-6.14-2.93-8.43-.28-.33-.57-.65-.88-.95.25-.33.48-.67.7-1.03,1.33-2.2,2.01-4.72,2.01-7.49,0-.1-.02-.21-.02-.31h2.65v29.33c0,2.21,1.79,4,4,4h7.92c2.21,0,4-1.79,4-4V6.51c0-2.21-1.79-4-4-4ZM754.24,16.42c.61-.52,1.22-.75,1.97-.75,1.28,0,2.25.25,2.96.76.22.16.46.33.46,1.1,0,.4-.06.56-.06.56-.07.12-.15.2-.27.28-.26.17-.6.29-1.01.38-.59.13-1.22.19-1.88.19,0,0-3.92,0-3.97,0,.42-1.03,1.01-1.86,1.8-2.53ZM760.25,35.97c-.92.58-2.21.87-3.84.87-.48,0-.94-.07-1.42-.23-.52-.17-.99-.4-1.45-.7-.39-.26-.73-.58-1.04-.97-.26-.34-.45-.71-.58-1.14-.09-.31-.22-.6-.37-.87.33.09.68.14,1.05.14h3.81c.84,0,1.63.08,2.37.22.56.11,1.04.28,1.41.5.2.12.34.25.44.42,0,0,.09.18.09.67,0,.79-.21.93-.48,1.1Z" fill="#fff"/>
        <path d="M890.66,12.16c-1.88-4.11-4.62-7.84-8.14-11.09-.74-.68-1.71-1.06-2.72-1.06h-7.92c-.69,0-1.35.19-1.93.51-.53-.25-1.11-.41-1.73-.41h-7.87c-2.21,0-4,1.79-4,4v2.1c-.8-1.02-1.76-1.92-2.87-2.68-1.62-1.13-3.56-2-5.76-2.58-2.08-.56-4.41-.84-6.92-.84s-4.84.28-6.92.84c-1.96.52-3.7,1.28-5.21,2.24-.05-.22-.11-.45-.2-.66-.61-1.52-2.08-2.51-3.71-2.51h-7.92c-1.01,0-1.98.38-2.72,1.06-3.51,3.25-6.25,6.98-8.14,11.09-1.9,4.15-2.87,8.8-2.87,13.8s.97,9.61,2.9,13.8c1.9,4.13,4.62,7.88,8.1,11.13.74.69,1.72,1.08,2.73,1.08h7.92c1.28,0,2.45-.61,3.19-1.6.63.41,1.37.65,2.17.65h38.6c.18,0,.34-.03.51-.05.72.63,1.65,1,2.64,1h7.92c1.01,0,1.99-.39,2.73-1.08,3.47-3.25,6.2-6.99,8.1-11.13,1.92-4.19,2.9-8.83,2.9-13.8s-.97-9.64-2.87-13.8ZM824.11,41.11c-1.04-1.45-1.95-3.01-2.68-4.65-.75-1.65-1.34-3.4-1.76-5.19-.41-1.75-.62-3.54-.62-5.32s.21-3.58.62-5.32c.42-1.79,1.01-3.52,1.75-5.15.35-.77.75-1.53,1.17-2.27-.03.39-.06.77-.06,1.17,0,2.26.5,4.33,1.47,6.17.78,1.46,1.84,2.76,3.15,3.86-.63.71-1.01,1.64-1.01,2.66v5.21c0,.37.05.73.15,1.08-.1.34-.15.7-.15,1.08v9.19c-.71-.78-1.39-1.62-2.03-2.5ZM840.81,14.49c-.56,0-1.06-.05-1.51-.14.44-.09.95-.13,1.51-.13s1.06.04,1.51.13c-.44.09-.95.14-1.51.14ZM856.36,23.06h-.5c.17-.19.34-.39.5-.59v.59ZM877,31.28c-.42,1.8-1.01,3.54-1.76,5.19-.71,1.59-1.59,3.1-2.59,4.52-.08-.4-.22-.79-.42-1.14,0-.07,0-.14,0-.2v-12.58c0-.39-.06-.77-.16-1.13.1-.36.16-.74.16-1.13v-14.38c.11.14.22.28.32.43,1.05,1.45,1.95,3.01,2.69,4.64.74,1.62,1.33,3.36,1.75,5.15.41,1.74.62,3.54.62,5.32s-.21,3.58-.62,5.32Z" fill="#fff"/>
      </g>
      <g>
        <path d="M5.05,45.95v-4.61l12.93-11.33c1.13-1,2.18-1.99,3.13-2.96.95-.97,1.78-1.94,2.48-2.91.7-.97,1.25-1.94,1.65-2.91.4-.97.6-1.94.6-2.91,0-2.07-.59-3.7-1.76-4.89-1.17-1.19-2.81-1.78-4.91-1.78-1.97,0-3.76.74-5.36,2.23-1.6,1.49-2.84,3.4-3.71,5.74l-6.12-3.36c.57-1.57,1.32-3.02,2.26-4.34.94-1.32,2.06-2.46,3.38-3.41s2.83-1.69,4.54-2.21c1.71-.52,3.61-.78,5.71-.78,1.84,0,3.6.26,5.29.78,1.69.52,3.18,1.3,4.46,2.36,1.29,1.05,2.29,2.39,3.01,4.01.72,1.62,1.04,3.53.98,5.74-.04,1.17-.29,2.38-.78,3.63-.48,1.25-1.14,2.52-1.96,3.79-.82,1.27-1.78,2.53-2.88,3.78-1.1,1.25-2.3,2.45-3.61,3.58l-7.62,6.67h18.39v6.07H5.05Z" fill="#1d1d1d"/>
        <path d="M37.98,26.21c0-3.17.37-6.04,1.1-8.6.73-2.56,1.81-4.73,3.23-6.52,1.42-1.79,3.17-3.16,5.24-4.11,2.07-.95,4.44-1.43,7.12-1.43s4.99.48,7.04,1.43,3.8,2.32,5.24,4.11c1.44,1.79,2.53,3.96,3.28,6.52.75,2.56,1.13,5.42,1.13,8.6s-.35,6.04-1.05,8.6c-.7,2.56-1.75,4.74-3.16,6.54-1.4,1.8-3.15,3.19-5.24,4.16-2.09.97-4.5,1.45-7.24,1.45s-5.05-.49-7.12-1.45c-2.07-.97-3.82-2.36-5.24-4.16-1.42-1.8-2.5-3.99-3.23-6.54-.74-2.56-1.1-5.42-1.1-8.6ZM45.9,26.21c0,2.61.23,4.83.7,6.67s1.1,3.35,1.9,4.54c.8,1.19,1.73,2.05,2.78,2.61,1.05.55,2.18.83,3.38.83s2.39-.28,3.46-.83c1.07-.55,2-1.42,2.81-2.61s1.43-2.7,1.88-4.54.68-4.06.68-6.67-.23-4.78-.68-6.62-1.08-3.34-1.88-4.51c-.8-1.17-1.74-2.03-2.81-2.58-1.07-.55-2.22-.83-3.46-.83s-2.33.28-3.38.83c-1.05.55-1.98,1.41-2.78,2.58-.8,1.17-1.44,2.67-1.9,4.51s-.7,4.04-.7,6.62Z" fill="#1d1d1d"/>
        <path d="M74.32,45.95v-4.61l12.93-11.33c1.13-1,2.18-1.99,3.13-2.96.95-.97,1.78-1.94,2.48-2.91.7-.97,1.25-1.94,1.65-2.91.4-.97.6-1.94.6-2.91,0-2.07-.59-3.7-1.76-4.89-1.17-1.19-2.81-1.78-4.91-1.78-1.97,0-3.76.74-5.36,2.23-1.6,1.49-2.84,3.4-3.71,5.74l-6.12-3.36c.57-1.57,1.32-3.02,2.26-4.34.94-1.32,2.06-2.46,3.38-3.41s2.83-1.69,4.54-2.21c1.71-.52,3.61-.78,5.71-.78,1.84,0,3.6.26,5.29.78,1.69.52,3.18,1.3,4.46,2.36,1.29,1.05,2.29,2.39,3.01,4.01.72,1.62,1.04,3.53.98,5.74-.04,1.17-.29,2.38-.78,3.63-.48,1.25-1.14,2.52-1.96,3.79-.82,1.27-1.78,2.53-2.88,3.78-1.1,1.25-2.3,2.45-3.61,3.58l-7.62,6.67h18.39v6.07h-30.12Z" fill="#1d1d1d"/>
        <path d="M130.41,6.51l-7.62,13.73c1.24-.3,2.66-.45,4.26-.45,1.74,0,3.4.33,4.99,1,1.59.67,2.98,1.59,4.19,2.76s2.15,2.55,2.86,4.13c.7,1.59,1.05,3.3,1.05,5.14,0,2.21-.41,4.19-1.23,5.94-.82,1.75-1.94,3.23-3.36,4.44s-3.11,2.13-5.06,2.78c-1.96.65-4.07.98-6.34.98-1.9,0-3.76-.31-5.56-.93-1.8-.62-3.41-1.5-4.81-2.66-1.4-1.15-2.52-2.55-3.36-4.19-.84-1.64-1.25-3.46-1.25-5.46,0-1.74.28-3.32.83-4.74.55-1.42,1.21-2.85,1.98-4.29l10.23-18.2h8.22ZM124.5,25.95c-1.27,0-2.39.2-3.36.6-.97.4-1.78.94-2.43,1.6-.65.67-1.14,1.46-1.45,2.38-.32.92-.48,1.88-.48,2.88s.18,1.96.53,2.86c.35.9.85,1.7,1.5,2.38.65.69,1.45,1.23,2.4,1.63.95.4,2.05.6,3.28.6s2.33-.2,3.28-.6c.95-.4,1.76-.94,2.41-1.63.65-.68,1.15-1.48,1.5-2.38.35-.9.53-1.85.53-2.86s-.16-1.96-.48-2.88c-.32-.92-.8-1.71-1.45-2.38-.65-.67-1.46-1.2-2.43-1.6-.97-.4-2.09-.6-3.36-.6Z" fill="#1d1d1d"/>
        <path d="M144.45,46.3v-7.62h8.07v7.62h-8.07Z" fill="#1d1d1d"/>
        <path d="M167.4,26.21c0-3.17.37-6.04,1.1-8.6.73-2.56,1.81-4.73,3.23-6.52,1.42-1.79,3.17-3.16,5.24-4.11s4.44-1.43,7.12-1.43,4.99.48,7.04,1.43,3.8,2.32,5.24,4.11c1.44,1.79,2.53,3.96,3.28,6.52.75,2.56,1.13,5.42,1.13,8.6s-.35,6.04-1.05,8.6c-.7,2.56-1.76,4.74-3.16,6.54-1.4,1.8-3.15,3.19-5.24,4.16-2.09.97-4.5,1.45-7.24,1.45s-5.05-.49-7.12-1.45c-2.07-.97-3.82-2.36-5.24-4.16s-2.5-3.99-3.23-6.54c-.73-2.56-1.1-5.42-1.1-8.6ZM175.32,26.21c0,2.61.23,4.83.7,6.67.47,1.84,1.1,3.35,1.9,4.54.8,1.19,1.73,2.05,2.78,2.61,1.05.55,2.18.83,3.38.83s2.39-.28,3.46-.83c1.07-.55,2.01-1.42,2.81-2.61.8-1.19,1.43-2.7,1.88-4.54s.68-4.06.68-6.67-.22-4.78-.68-6.62-1.08-3.34-1.88-4.51c-.8-1.17-1.74-2.03-2.81-2.58-1.07-.55-2.22-.83-3.46-.83s-2.33.28-3.38.83c-1.05.55-1.98,1.41-2.78,2.58-.8,1.17-1.44,2.67-1.9,4.51-.47,1.84-.7,4.04-.7,6.62Z" fill="#1d1d1d"/>
        <path d="M203.79,38.24v-6.12l18.29-25.61h7.92v25.61h5.62v6.12h-5.62v7.72h-7.92v-7.72h-18.29ZM222.09,16.38l-10.68,15.74h10.68v-15.74Z" fill="#1d1d1d"/>
        <path d="M239.08,46.3v-7.62h8.07v7.62h-8.07Z" fill="#1d1d1d"/>
        <path d="M262.84,14.68c.5-1.44,1.22-2.72,2.15-3.86.94-1.14,2.03-2.09,3.28-2.86s2.64-1.36,4.16-1.78,3.12-.63,4.79-.63c2.21,0,4.22.29,6.04.88,1.82.58,3.38,1.39,4.69,2.41,1.3,1.02,2.32,2.22,3.06,3.61.73,1.39,1.1,2.88,1.1,4.49,0,2.04-.48,3.84-1.43,5.41-.95,1.57-2.38,2.69-4.29,3.36,1.9.63,3.52,1.73,4.84,3.28,1.32,1.55,1.98,3.5,1.98,5.84,0,1.87-.39,3.56-1.18,5.06-.79,1.5-1.89,2.78-3.31,3.83s-3.12,1.85-5.09,2.41c-1.97.55-4.13.83-6.47.83-1.67,0-3.28-.18-4.84-.53-1.55-.35-2.99-.89-4.31-1.6-1.32-.72-2.5-1.63-3.54-2.73-1.04-1.1-1.87-2.42-2.51-3.96l6.67-3.21c.27.9.68,1.72,1.25,2.46.57.74,1.23,1.35,1.98,1.85s1.56.89,2.43,1.18c.87.28,1.75.43,2.66.43,2.41,0,4.39-.49,5.96-1.48,1.57-.98,2.36-2.48,2.36-4.49,0-1.1-.23-2.02-.68-2.76-.45-.74-1.06-1.33-1.83-1.78-.77-.45-1.65-.78-2.66-.98-1-.2-2.06-.3-3.16-.3h-3.81v-6.12h3.81c.94,0,1.84-.09,2.71-.28.87-.18,1.64-.48,2.3-.9.67-.42,1.2-.97,1.6-1.65.4-.68.6-1.55.6-2.58,0-1.87-.7-3.32-2.11-4.34-1.4-1.02-3.17-1.53-5.31-1.53-1.7,0-3.22.57-4.56,1.7-1.34,1.14-2.34,2.57-3.01,4.31l-6.37-3.01Z" fill="#1d1d1d"/>
        <path d="M296.82,26.21c0-3.17.37-6.04,1.1-8.6.73-2.56,1.81-4.73,3.23-6.52,1.42-1.79,3.17-3.16,5.24-4.11s4.44-1.43,7.12-1.43,4.99.48,7.04,1.43,3.8,2.32,5.24,4.11c1.44,1.79,2.53,3.96,3.28,6.52.75,2.56,1.13,5.42,1.13,8.6s-.35,6.04-1.05,8.6c-.7,2.56-1.76,4.74-3.16,6.54-1.4,1.8-3.15,3.19-5.24,4.16-2.09.97-4.5,1.45-7.24,1.45s-5.05-.49-7.12-1.45c-2.07-.97-3.82-2.36-5.24-4.16s-2.5-3.99-3.23-6.54c-.73-2.56-1.1-5.42-1.1-8.6ZM304.74,26.21c0,2.61.23,4.83.7,6.67.47,1.84,1.1,3.35,1.9,4.54.8,1.19,1.73,2.05,2.78,2.61,1.05.55,2.18.83,3.38.83s2.39-.28,3.46-.83c1.07-.55,2.01-1.42,2.81-2.61.8-1.19,1.43-2.7,1.88-4.54s.68-4.06.68-6.67-.22-4.78-.68-6.62-1.08-3.34-1.88-4.51c-.8-1.17-1.74-2.03-2.81-2.58-1.07-.55-2.22-.83-3.46-.83s-2.33.28-3.38.83c-1.05.55-1.98,1.41-2.78,2.58-.8,1.17-1.44,2.67-1.9,4.51-.47,1.84-.7,4.04-.7,6.62Z" fill="#1d1d1d"/>
        <path d="M344.99,25.95c0-4.44.83-8.49,2.51-12.13,1.67-3.64,4.08-6.92,7.22-9.82h7.92c-1.4,1.34-2.71,2.84-3.91,4.51-1.2,1.67-2.23,3.44-3.08,5.31-.85,1.87-1.52,3.83-2,5.89s-.73,4.14-.73,6.24.24,4.19.73,6.24c.48,2.05,1.15,4.03,2,5.91.85,1.89,1.88,3.67,3.08,5.34,1.2,1.67,2.51,3.17,3.91,4.51h-7.92c-3.11-2.91-5.51-6.2-7.19-9.87-1.69-3.68-2.53-7.72-2.53-12.13Z" fill="#1d1d1d"/>
        <path d="M404.14,20.84h-14.04v3.61h16.99v6.12h-41.85v-6.12h16.99v-3.61h-14.04V4.6h35.94v16.24ZM396.77,47.01v-7.67h-29.07v-6.12h36.94v13.78h-7.87ZM376.07,10.72v4.01h20.2v-4.01h-20.2Z" fill="#1d1d1d"/>
        <path d="M427.4,25.95c0,4.41-.85,8.46-2.53,12.13-1.69,3.67-4.08,6.97-7.19,9.87h-7.92c1.4-1.34,2.71-2.84,3.91-4.51,1.2-1.67,2.23-3.45,3.08-5.34.85-1.89,1.52-3.86,2.01-5.91.48-2.06.73-4.14.73-6.24s-.24-4.19-.73-6.24c-.49-2.05-1.15-4.02-2.01-5.89-.85-1.87-1.88-3.64-3.08-5.31-1.2-1.67-2.51-3.17-3.91-4.51h7.92c3.14,2.91,5.55,6.18,7.22,9.82,1.67,3.64,2.51,7.69,2.51,12.13Z" fill="#1d1d1d"/>
        <path d="M449.9,19.64c1.04,0,2.03.18,2.98.55.95.37,1.9.75,2.83,1.15.97.43,1.94.82,2.91,1.15.97.33,1.99.5,3.06.5,1.24,0,2.27-.15,3.11-.45s1.69-.75,2.56-1.35v6.62c-.9.54-1.87.97-2.91,1.3-1.04.33-2.22.5-3.56.5-1.04,0-2.03-.17-2.98-.53-.95-.35-1.9-.73-2.83-1.13-.97-.43-1.94-.83-2.91-1.18-.97-.35-1.99-.53-3.06-.53-1.24,0-2.27.13-3.11.38-.83.25-1.69.61-2.55,1.08v-6.62c.87-.4,1.82-.74,2.86-1.03,1.04-.28,2.24-.43,3.61-.43Z" fill="#1d1d1d"/>
        <path d="M483.58,45.95v-4.61l12.93-11.33c1.13-1,2.18-1.99,3.13-2.96.95-.97,1.78-1.94,2.48-2.91.7-.97,1.25-1.94,1.65-2.91.4-.97.6-1.94.6-2.91,0-2.07-.58-3.7-1.75-4.89-1.17-1.19-2.81-1.78-4.91-1.78-1.97,0-3.76.74-5.36,2.23-1.6,1.49-2.84,3.4-3.71,5.74l-6.12-3.36c.57-1.57,1.32-3.02,2.26-4.34.93-1.32,2.06-2.46,3.38-3.41s2.83-1.69,4.54-2.21c1.7-.52,3.61-.78,5.71-.78,1.84,0,3.6.26,5.29.78,1.69.52,3.17,1.3,4.46,2.36,1.29,1.05,2.29,2.39,3.01,4.01.72,1.62,1.04,3.53.98,5.74-.03,1.17-.29,2.38-.78,3.63-.48,1.25-1.14,2.52-1.96,3.79s-1.78,2.53-2.88,3.78c-1.1,1.25-2.31,2.45-3.61,3.58l-7.62,6.67h18.4v6.07h-30.12Z" fill="#1d1d1d"/>
        <path d="M516.51,26.21c0-3.17.37-6.04,1.1-8.6.73-2.56,1.81-4.73,3.23-6.52,1.42-1.79,3.17-3.16,5.24-4.11s4.44-1.43,7.12-1.43,4.99.48,7.04,1.43,3.8,2.32,5.24,4.11c1.44,1.79,2.53,3.96,3.28,6.52.75,2.56,1.13,5.42,1.13,8.6s-.35,6.04-1.05,8.6c-.7,2.56-1.76,4.74-3.16,6.54-1.4,1.8-3.15,3.19-5.24,4.16-2.09.97-4.5,1.45-7.24,1.45s-5.05-.49-7.12-1.45c-2.07-.97-3.82-2.36-5.24-4.16s-2.5-3.99-3.23-6.54c-.73-2.56-1.1-5.42-1.1-8.6ZM524.43,26.21c0,2.61.23,4.83.7,6.67.47,1.84,1.1,3.35,1.9,4.54.8,1.19,1.73,2.05,2.78,2.61,1.05.55,2.18.83,3.38.83s2.39-.28,3.46-.83c1.07-.55,2.01-1.42,2.81-2.61.8-1.19,1.43-2.7,1.88-4.54s.68-4.06.68-6.67-.22-4.78-.68-6.62-1.08-3.34-1.88-4.51c-.8-1.17-1.74-2.03-2.81-2.58-1.07-.55-2.22-.83-3.46-.83s-2.33.28-3.38.83c-1.05.55-1.98,1.41-2.78,2.58-.8,1.17-1.44,2.67-1.9,4.51-.47,1.84-.7,4.04-.7,6.62Z" fill="#1d1d1d"/>
        <path d="M552.85,45.95v-4.61l12.93-11.33c1.13-1,2.18-1.99,3.13-2.96.95-.97,1.78-1.94,2.48-2.91.7-.97,1.25-1.94,1.65-2.91.4-.97.6-1.94.6-2.91,0-2.07-.59-3.7-1.76-4.89-1.17-1.19-2.81-1.78-4.91-1.78-1.97,0-3.76.74-5.36,2.23-1.6,1.49-2.84,3.4-3.71,5.74l-6.12-3.36c.57-1.57,1.32-3.02,2.26-4.34.94-1.32,2.06-2.46,3.38-3.41s2.83-1.69,4.54-2.21c1.71-.52,3.61-.78,5.71-.78,1.84,0,3.6.26,5.29.78,1.69.52,3.18,1.3,4.46,2.36,1.29,1.05,2.29,2.39,3.01,4.01.72,1.62,1.04,3.53.98,5.74-.04,1.17-.29,2.38-.78,3.63-.48,1.25-1.14,2.52-1.96,3.79-.82,1.27-1.78,2.53-2.88,3.78-1.1,1.25-2.3,2.45-3.61,3.58l-7.62,6.67h18.39v6.07h-30.12Z" fill="#1d1d1d"/>
        <path d="M608.94,6.51l-7.62,13.73c1.24-.3,2.66-.45,4.26-.45,1.74,0,3.4.33,4.99,1,1.59.67,2.98,1.59,4.19,2.76s2.16,2.55,2.86,4.13c.7,1.59,1.05,3.3,1.05,5.14,0,2.21-.41,4.19-1.23,5.94-.82,1.75-1.94,3.23-3.36,4.44-1.42,1.2-3.11,2.13-5.06,2.78-1.96.65-4.07.98-6.34.98-1.9,0-3.76-.31-5.56-.93-1.8-.62-3.41-1.5-4.81-2.66-1.4-1.15-2.52-2.55-3.36-4.19s-1.25-3.46-1.25-5.46c0-1.74.28-3.32.83-4.74.55-1.42,1.21-2.85,1.98-4.29l10.22-18.2h8.22ZM603.03,25.95c-1.27,0-2.39.2-3.36.6-.97.4-1.78.94-2.43,1.6-.65.67-1.14,1.46-1.46,2.38-.32.92-.47,1.88-.47,2.88s.17,1.96.53,2.86.85,1.7,1.5,2.38c.65.69,1.45,1.23,2.41,1.63s2.05.6,3.28.6,2.33-.2,3.28-.6c.95-.4,1.75-.94,2.41-1.63.65-.68,1.15-1.48,1.5-2.38.35-.9.53-1.85.53-2.86s-.16-1.96-.48-2.88c-.32-.92-.8-1.71-1.45-2.38-.65-.67-1.46-1.2-2.43-1.6-.97-.4-2.09-.6-3.36-.6Z" fill="#1d1d1d"/>
        <path d="M622.98,46.3v-7.62h8.07v7.62h-8.07Z" fill="#1d1d1d"/>
        <path d="M645.93,26.21c0-3.17.37-6.04,1.1-8.6.73-2.56,1.81-4.73,3.23-6.52,1.42-1.79,3.17-3.16,5.24-4.11,2.07-.95,4.44-1.43,7.12-1.43s4.99.48,7.04,1.43,3.8,2.32,5.24,4.11c1.44,1.79,2.53,3.96,3.28,6.52.75,2.56,1.13,5.42,1.13,8.6s-.35,6.04-1.05,8.6c-.7,2.56-1.75,4.74-3.16,6.54-1.4,1.8-3.15,3.19-5.24,4.16-2.09.97-4.5,1.45-7.24,1.45s-5.05-.49-7.12-1.45c-2.07-.97-3.82-2.36-5.24-4.16-1.42-1.8-2.5-3.99-3.23-6.54-.74-2.56-1.1-5.42-1.1-8.6ZM653.85,26.21c0,2.61.23,4.83.7,6.67s1.1,3.35,1.9,4.54c.8,1.19,1.73,2.05,2.78,2.61,1.05.55,2.18.83,3.38.83s2.39-.28,3.46-.83c1.07-.55,2-1.42,2.81-2.61s1.43-2.7,1.88-4.54.68-4.06.68-6.67-.23-4.78-.68-6.62-1.08-3.34-1.88-4.51c-.8-1.17-1.74-2.03-2.81-2.58-1.07-.55-2.22-.83-3.46-.83s-2.33.28-3.38.83c-1.05.55-1.98,1.41-2.78,2.58-.8,1.17-1.44,2.67-1.9,4.51s-.7,4.04-.7,6.62Z" fill="#1d1d1d"/>
        <path d="M698.31,46.96c-1.94,0-3.75-.23-5.44-.7-1.69-.47-3.2-1.14-4.54-2-1.34-.87-2.46-1.92-3.38-3.16-.92-1.24-1.58-2.62-1.98-4.16l6.47-2.61c.4.94.88,1.8,1.43,2.61s1.19,1.49,1.9,2.05c.72.57,1.54,1.02,2.46,1.35.92.33,1.96.5,3.13.5,1.24,0,2.34-.19,3.31-.58.97-.38,1.79-.92,2.46-1.6.67-.68,1.17-1.48,1.5-2.38s.5-1.87.5-2.91c0-2.31-.7-4.16-2.11-5.56-1.4-1.4-3.48-2.1-6.21-2.1-1,0-2.1.28-3.28.83-1.19.55-2.2,1.36-3.03,2.43h-7.17V6.51h27.62v6.12h-19.7v9.12c2.04-1.44,4.59-2.16,7.67-2.16,1.91,0,3.71.32,5.41.95,1.71.63,3.2,1.54,4.49,2.71s2.31,2.6,3.08,4.29c.77,1.69,1.15,3.6,1.15,5.74,0,1.77-.37,3.48-1.1,5.14s-1.79,3.12-3.16,4.39c-1.37,1.27-3.02,2.28-4.96,3.03-1.94.75-4.11,1.13-6.52,1.13Z" fill="#1d1d1d"/>
        <path d="M718.51,46.3v-7.62h8.07v7.62h-8.07Z" fill="#1d1d1d"/>
        <path d="M742.27,14.68c.5-1.44,1.22-2.72,2.15-3.86.94-1.14,2.03-2.09,3.28-2.86s2.64-1.36,4.16-1.78,3.12-.63,4.79-.63c2.21,0,4.22.29,6.04.88,1.82.58,3.38,1.39,4.69,2.41,1.3,1.02,2.32,2.22,3.06,3.61.73,1.39,1.1,2.88,1.1,4.49,0,2.04-.48,3.84-1.43,5.41-.95,1.57-2.38,2.69-4.29,3.36,1.9.63,3.52,1.73,4.84,3.28,1.32,1.55,1.98,3.5,1.98,5.84,0,1.87-.39,3.56-1.18,5.06-.79,1.5-1.89,2.78-3.31,3.83s-3.12,1.85-5.09,2.41c-1.97.55-4.13.83-6.47.83-1.67,0-3.28-.18-4.84-.53-1.55-.35-2.99-.89-4.31-1.6-1.32-.72-2.5-1.63-3.54-2.73-1.04-1.1-1.87-2.42-2.51-3.96l6.67-3.21c.27.9.68,1.72,1.25,2.46.57.74,1.23,1.35,1.98,1.85s1.56.89,2.43,1.18c.87.28,1.75.43,2.66.43,2.41,0,4.39-.49,5.96-1.48,1.57-.98,2.36-2.48,2.36-4.49,0-1.1-.23-2.02-.68-2.76-.45-.74-1.06-1.33-1.83-1.78-.77-.45-1.65-.78-2.66-.98-1-.2-2.06-.3-3.16-.3h-3.81v-6.12h3.81c.94,0,1.84-.09,2.71-.28.87-.18,1.64-.48,2.3-.9.67-.42,1.2-.97,1.6-1.65.4-.68.6-1.55.6-2.58,0-1.87-.7-3.32-2.11-4.34-1.4-1.02-3.17-1.53-5.31-1.53-1.7,0-3.22.57-4.56,1.7-1.34,1.14-2.34,2.57-3.01,4.31l-6.37-3.01Z" fill="#1d1d1d"/>
        <path d="M775.15,6.51h14.94v39.45h-7.92V12.62h-7.02v-6.12Z" fill="#1d1d1d"/>
        <path d="M807.13,25.95c0-4.44.84-8.49,2.51-12.13,1.67-3.64,4.08-6.92,7.22-9.82h7.92c-1.4,1.34-2.71,2.84-3.91,4.51-1.2,1.67-2.23,3.44-3.08,5.31-.85,1.87-1.52,3.83-2.01,5.89s-.73,4.14-.73,6.24.24,4.19.73,6.24c.48,2.05,1.15,4.03,2.01,5.91.85,1.89,1.88,3.67,3.08,5.34,1.2,1.67,2.51,3.17,3.91,4.51h-7.92c-3.11-2.91-5.51-6.2-7.19-9.87-1.69-3.68-2.53-7.72-2.53-12.13Z" fill="#1d1d1d"/>
        <path d="M826.53,14.38c0-1.6.33-3.05,1-4.34s1.63-2.36,2.88-3.23c1.25-.87,2.76-1.54,4.51-2,1.75-.47,3.72-.7,5.89-.7s4.13.23,5.89.7c1.75.47,3.26,1.14,4.51,2,1.25.87,2.21,1.95,2.88,3.23s1,2.73,1,4.34-.33,3.03-1,4.29-1.63,2.32-2.88,3.21c-1.25.89-2.76,1.56-4.51,2.03-1.76.47-3.72.7-5.89.7s-4.13-.23-5.89-.7c-1.76-.47-3.26-1.14-4.51-2.03-1.25-.88-2.21-1.96-2.88-3.21s-1-2.68-1-4.29ZM860.36,34.43v-2.16h-30.22v-5.21h38.09v12.58h-30.22v2.16h30.73v5.21h-38.6v-12.58h30.22ZM840.81,18.49c1.84,0,3.37-.35,4.59-1.05,1.22-.7,1.83-1.72,1.83-3.06,0-1.4-.61-2.45-1.83-3.13-1.22-.68-2.75-1.03-4.59-1.03s-3.37.34-4.59,1.03c-1.22.68-1.83,1.73-1.83,3.13s.61,2.36,1.83,3.06c1.22.7,2.75,1.05,4.59,1.05ZM868.23,4.1v20.7h-7.87V4.1h7.87Z" fill="#1d1d1d"/>
        <path d="M889.54,25.95c0,4.41-.84,8.46-2.53,12.13-1.69,3.67-4.09,6.97-7.19,9.87h-7.92c1.4-1.34,2.71-2.84,3.91-4.51,1.2-1.67,2.23-3.45,3.08-5.34.85-1.89,1.52-3.86,2.01-5.91.48-2.06.73-4.14.73-6.24s-.24-4.19-.73-6.24-1.15-4.02-2.01-5.89c-.85-1.87-1.88-3.64-3.08-5.31-1.2-1.67-2.51-3.17-3.91-4.51h7.92c3.14,2.91,5.55,6.18,7.22,9.82,1.67,3.64,2.51,7.69,2.51,12.13Z" fill="#1d1d1d"/>
      </g>
    </g>
  </g>
</svg>