<svg overflow="visible" style="display: block;" viewBox="0 0 866 30" fill="none" xmlns="http://www.w3.org/2000/svg">
<g id="Group">
<path id="Vector" d="M19.961 14.5344C19.961 17.2605 19.6708 19.5344 19.097 21.3495C18.5232 23.1646 17.7671 24.6154 16.8288 25.695C15.8905 26.7746 14.824 27.5439 13.6291 27.996C12.4343 28.448 11.2125 28.6707 9.97714 28.6707C8.74181 28.6707 7.48623 28.448 6.29141 27.996C5.09658 27.5439 4.03001 26.7814 3.0917 25.695C2.15339 24.6154 1.40409 23.1646 0.843805 21.3495C0.276768 19.5344 0 17.2605 0 14.5344C0 11.8084 0.283518 9.53441 0.843805 7.7193C1.40409 5.90418 2.16014 4.45344 3.0917 3.37382C4.03001 2.2942 5.09658 1.52497 6.29141 1.07287C7.48623 0.620783 8.71481 0.398111 9.97714 0.398111C11.2395 0.398111 12.4343 0.620783 13.6291 1.07287C14.824 1.52497 15.8905 2.28745 16.8288 3.37382C17.7671 4.45344 18.5232 5.90418 19.097 7.7193C19.6708 9.53441 19.961 11.8084 19.961 14.5344ZM6.9732 14.5344C6.9732 16.2686 7.05421 17.6788 7.20947 18.7652C7.36473 19.8448 7.58749 20.695 7.87101 21.3023C8.15453 21.9096 8.4718 22.3212 8.83632 22.5371C9.19409 22.753 9.57887 22.861 9.9839 22.861C10.3687 22.861 10.7399 22.753 11.0977 22.5371C11.4555 22.3212 11.7728 21.9163 12.0428 21.3225C12.3128 20.7287 12.5356 19.8785 12.7043 18.7854C12.8731 17.6923 12.9608 16.2686 12.9608 14.5074C12.9608 12.7463 12.8798 11.363 12.7043 10.2767C12.5356 9.19703 12.3128 8.35358 12.0428 7.75978C11.7728 7.16599 11.4555 6.75439 11.0977 6.54521C10.7399 6.32928 10.3619 6.22132 9.9839 6.22132C9.57887 6.22132 9.19409 6.32928 8.83632 6.54521C8.47855 6.76113 8.15453 7.17274 7.87101 7.78003C7.58749 8.38731 7.37148 9.23752 7.20947 10.3171C7.05421 11.3968 6.9732 12.807 6.9732 14.5479V14.5344ZM29.1686 28.6775H22.1617V0.0607287H29.1686V28.6775Z" fill="var(--fill-0, #1D1D1D)"/>
<path id="Vector_2" d="M50.8915 11.2213L49.0284 11.6262V17.3414H33.4957V0.398111H39.5508V3.37382H42.9665V0.398111H49.0217V5.23617L50.8848 4.83131V0.0607287H57.4462V20.5938H50.8848V11.2281L50.8915 11.2213ZM41.9202 19.3725V23.5695H65.8438V29.3522H34.92V19.3725H41.927H41.9202ZM42.9733 8.8529H39.5576V11.8623H42.9733V8.8529ZM58.9111 20.5938V0.0607287H65.5062V20.5938H58.9111Z" fill="var(--fill-0, #1D1D1D)"/>
<path id="Vector_3" d="M68.922 22.8543H98.1919V28.6707H68.922V22.8543ZM96.8755 14.8381V19.9798H70.5826V0.735493H96.538V5.87719H77.5895V7.77328H96.538V12.915H77.5895V14.8448H96.8755V14.8381Z" fill="var(--fill-0, #1D1D1D)"/>
<path id="Vector_4" d="M122.217 28.3333V6.55196H111.321V0.735493H129.224V28.3333H122.217ZM139.471 28.6775H132.464V0.0607287H139.471V28.6775Z" fill="var(--fill-0, #1D1D1D)"/>
<path id="Vector_5" d="M143.805 6.21458V0.398111H161.025V17.3414H154.018V6.21458H143.798H143.805ZM152.229 19.3725V23.5695H171.279V29.3522H145.222V19.3725H152.229ZM170.941 10.8502V20.5938H163.934V0.0607287H170.941V5.03374H173.884V10.8502H170.941Z" fill="var(--fill-0, #1D1D1D)"/>
<path id="Vector_6" d="M186.096 10.7153V4.22402H193.035V10.7153H186.096ZM186.096 25.2564V18.7652H193.035V25.2564H186.096Z" fill="var(--fill-0, #1D1D1D)"/>
<path id="Vector_7" d="M215.231 17.3752C216.763 16.1606 217.958 14.9325 218.802 13.7045C219.646 12.4764 220.071 11.3225 220.071 10.2362C220.071 9.87854 220.017 9.50067 219.916 9.10256C219.814 8.7112 219.646 8.34683 219.409 8.02294C219.173 7.69905 218.849 7.42915 218.444 7.22672C218.039 7.02429 217.533 6.92308 216.925 6.92308C214.421 6.92308 212.618 8.42105 211.511 11.4238L206.131 8.61673C206.489 7.40216 207.036 6.31579 207.758 5.37112C208.48 4.42645 209.331 3.63023 210.31 2.9892C211.289 2.34818 212.382 1.8691 213.591 1.55196C214.799 1.23482 216.068 1.09312 217.398 1.11336C218.795 1.1336 220.098 1.36977 221.306 1.82186C222.515 2.27395 223.554 2.90148 224.439 3.71795C225.316 4.52767 226.005 5.50607 226.504 6.64642C227.004 7.78677 227.226 9.04183 227.179 10.4184C227.132 11.4103 226.936 12.3549 226.585 13.2456C226.234 14.1363 225.775 14.9933 225.215 15.8165C224.648 16.6397 224 17.4291 223.25 18.1849C222.508 18.9406 221.718 19.6559 220.881 20.3306L217.769 22.8677H228.226V28.6505H206.874V24.1161L215.231 17.3887V17.3752Z" fill="var(--fill-0, #1D1D1D)"/>
<path id="Vector_8" d="M229.947 15.1484C229.947 12.9622 230.21 10.9919 230.743 9.24426C231.277 7.49663 232.04 6.01215 233.045 4.79757C234.051 3.583 235.28 2.65182 236.731 2.00405C238.182 1.35628 239.85 1.03914 241.72 1.03914C243.589 1.03914 245.189 1.36302 246.641 2.00405C248.092 2.64507 249.327 3.57625 250.347 4.79757C251.359 6.01215 252.142 7.49663 252.682 9.24426C253.222 10.9919 253.492 12.9622 253.492 15.1484C253.492 17.3347 253.236 19.3387 252.73 21.0864C252.223 22.834 251.467 24.3185 250.461 25.5331C249.456 26.7476 248.22 27.6856 246.755 28.3401C245.291 28.9946 243.61 29.3185 241.713 29.3185C239.816 29.3185 238.176 28.9946 236.724 28.3401C235.266 27.6856 234.038 26.7476 233.039 25.5331C232.033 24.3185 231.27 22.834 230.737 21.0864C230.203 19.3387 229.94 17.3617 229.94 15.1484H229.947ZM236.988 15.1484C236.988 16.6599 237.116 17.942 237.379 19.0014C237.636 20.0607 237.987 20.9244 238.425 21.5857C238.864 22.2537 239.37 22.7328 239.931 23.0432C240.491 23.3536 241.092 23.502 241.726 23.502C242.361 23.502 242.995 23.3468 243.569 23.0432C244.143 22.7395 244.649 22.2537 245.095 21.5857C245.534 20.9177 245.878 20.0607 246.128 19.0014C246.377 17.942 246.499 16.6599 246.499 15.1484C246.499 13.637 246.377 12.3887 246.128 11.3293C245.878 10.2699 245.534 9.41296 245.095 8.75843C244.656 8.10391 244.15 7.62483 243.569 7.32119C242.995 7.01754 242.381 6.86235 241.726 6.86235C241.072 6.86235 240.498 7.01754 239.931 7.32119C239.364 7.62483 238.864 8.10391 238.425 8.75843C237.987 9.41296 237.636 10.2699 237.379 11.3293C237.123 12.3887 236.988 13.664 236.988 15.1484Z" fill="var(--fill-0, #1D1D1D)"/>
<path id="Vector_9" d="M264.529 17.3752C266.062 16.1606 267.257 14.9325 268.1 13.7045C268.944 12.4764 269.369 11.3225 269.369 10.2362C269.369 9.87854 269.315 9.50067 269.214 9.10256C269.113 8.7112 268.944 8.34683 268.708 8.02294C268.472 7.69905 268.148 7.42915 267.743 7.22672C267.338 7.02429 266.831 6.92308 266.224 6.92308C263.719 6.92308 261.917 8.42105 260.81 11.4238L255.43 8.61673C255.788 7.40216 256.334 6.31579 257.057 5.37112C257.779 4.42645 258.629 3.63023 259.608 2.9892C260.587 2.34818 261.681 1.8691 262.889 1.55196C264.097 1.23482 265.366 1.09312 266.696 1.11336C268.094 1.1336 269.396 1.36977 270.605 1.82186C271.813 2.27395 272.853 2.90148 273.737 3.71795C274.615 4.52767 275.303 5.50607 275.803 6.64642C276.302 7.78677 276.525 9.04183 276.478 10.4184C276.43 11.4103 276.235 12.3549 275.884 13.2456C275.533 14.1363 275.074 14.9933 274.513 15.8165C273.946 16.6397 273.298 17.4291 272.549 18.1849C271.806 18.9406 271.017 19.6559 270.179 20.3306L267.068 22.8677H277.524V28.6505H256.172V24.1161L264.529 17.3887V17.3752Z" fill="var(--fill-0, #1D1D1D)"/>
<path id="Vector_10" d="M295.932 1.68691L291.666 10.5803C292.159 10.5128 292.645 10.4791 293.124 10.4791C294.231 10.4791 295.338 10.7018 296.459 11.1538C297.573 11.6059 298.579 12.2335 299.47 13.0297C300.361 13.8327 301.083 14.7908 301.636 15.9042C302.19 17.0175 302.467 18.2524 302.467 19.6086C302.467 21.2078 302.143 22.6181 301.501 23.8394C300.86 25.0607 300.01 26.0729 298.95 26.8826C297.89 27.6923 296.682 28.2996 295.332 28.7112C293.975 29.1161 292.591 29.3185 291.167 29.3185C289.519 29.3185 287.98 29.0621 286.549 28.5425C285.118 28.0229 283.91 27.274 282.931 26.2955C281.952 25.3171 281.25 24.1228 280.832 22.7126C280.413 21.3023 280.406 19.6964 280.811 17.8947C280.946 17.2875 281.183 16.6329 281.52 15.9312C281.858 15.2294 282.222 14.4737 282.6 13.664L288.352 1.69366H295.932V1.68691ZM291.565 16.2618C290.282 16.2618 289.31 16.6194 288.655 17.3279C288.001 18.0364 287.677 18.9001 287.677 19.9123C287.677 20.9244 288.014 21.7814 288.689 22.4831C289.364 23.1849 290.323 23.529 291.565 23.529C292.807 23.529 293.765 23.1781 294.441 22.4831C295.116 21.7814 295.453 20.9244 295.453 19.9123C295.453 18.9001 295.122 18.0364 294.474 17.3279C293.819 16.6194 292.847 16.2618 291.565 16.2618Z" fill="var(--fill-0, #1D1D1D)"/>
<path id="Vector_11" d="M305.943 28.8799V22.3887H312.883V28.8799H305.943Z" fill="var(--fill-0, #1D1D1D)"/>
<path id="Vector_12" d="M325.466 15.1484C325.466 12.9622 325.729 10.9919 326.262 9.24426C326.795 7.49663 327.558 6.01215 328.564 4.79757C329.57 3.583 330.798 2.65182 332.25 2.00405C333.701 1.35628 335.368 1.03914 337.238 1.03914C339.108 1.03914 340.708 1.36302 342.159 2.00405C343.611 2.64507 344.846 3.57625 345.865 4.79757C346.878 6.01215 347.661 7.49663 348.201 9.24426C348.741 10.9919 349.011 12.9622 349.011 15.1484C349.011 17.3347 348.755 19.3387 348.248 21.0864C347.742 22.834 346.986 24.3185 345.98 25.5331C344.974 26.7476 343.739 27.6856 342.274 28.3401C340.809 28.9946 339.128 29.3185 337.232 29.3185C335.335 29.3185 333.694 28.9946 332.243 28.3401C330.785 27.6856 329.556 26.7476 328.557 25.5331C327.551 24.3185 326.789 22.834 326.255 21.0864C325.722 19.3387 325.459 17.3617 325.459 15.1484H325.466ZM332.506 15.1484C332.506 16.6599 332.635 17.942 332.898 19.0014C333.154 20.0607 333.505 20.9244 333.944 21.5857C334.383 22.2537 334.889 22.7328 335.449 23.0432C336.01 23.3536 336.611 23.502 337.245 23.502C337.88 23.502 338.514 23.3468 339.088 23.0432C339.662 22.7395 340.168 22.2537 340.614 21.5857C341.052 20.9177 341.397 20.0607 341.646 19.0014C341.896 17.942 342.018 16.6599 342.018 15.1484C342.018 13.637 341.896 12.3887 341.646 11.3293C341.397 10.2699 341.052 9.41296 340.614 8.75843C340.175 8.10391 339.668 7.62483 339.088 7.32119C338.514 7.01754 337.9 6.86235 337.245 6.86235C336.59 6.86235 336.016 7.01754 335.449 7.32119C334.882 7.62483 334.383 8.10391 333.944 8.75843C333.505 9.41296 333.154 10.2699 332.898 11.3293C332.641 12.3887 332.506 13.664 332.506 15.1484Z" fill="var(--fill-0, #1D1D1D)"/>
<path id="Vector_13" d="M351.725 24.1093V18.2928L363.396 1.68691H370.943V18.2928H374.561V24.1093H370.943V28.6437H363.903V24.1093H351.725ZM363.903 10.0405L358.286 18.2928H363.903V10.0405Z" fill="var(--fill-0, #1D1D1D)"/>
<path id="Vector_14" d="M377.471 28.8799V22.3887H384.41V28.8799H377.471Z" fill="var(--fill-0, #1D1D1D)"/>
<path id="Vector_15" d="M397.439 7.46964C397.796 6.4305 398.33 5.51282 399.032 4.70985C399.734 3.90688 400.551 3.23887 401.482 2.69906C402.421 2.15924 403.42 1.74764 404.493 1.46424C405.566 1.18084 406.653 1.03914 407.76 1.03914C409.184 1.03914 410.535 1.23482 411.817 1.63293C413.106 2.02429 414.227 2.58435 415.186 3.30634C416.144 4.02834 416.907 4.89204 417.467 5.89069C418.028 6.89609 418.311 8.0027 418.311 9.22402C418.311 9.83131 418.23 10.4318 418.075 11.0189C417.92 11.6059 417.677 12.1525 417.346 12.6586C417.015 13.1646 416.61 13.6032 416.11 13.9811C415.611 14.3522 415.03 14.6289 414.349 14.8111C415.024 14.9663 415.645 15.2227 416.212 15.5736C416.772 15.9244 417.272 16.3495 417.704 16.8556C418.136 17.3617 418.466 17.9352 418.703 18.583C418.939 19.224 419.06 19.9055 419.06 20.6275C419.06 22.0243 418.757 23.2659 418.149 24.3455C417.542 25.4251 416.725 26.336 415.699 27.0715C414.673 27.807 413.471 28.3603 412.094 28.7449C410.717 29.1296 409.265 29.3185 407.726 29.3185C406.667 29.3185 405.586 29.2038 404.493 28.9811C403.399 28.7584 402.36 28.3941 401.381 27.9015C400.402 27.4022 399.511 26.7611 398.708 25.9717C397.904 25.1822 397.29 24.224 396.865 23.0972L402.751 20.3914C403.089 21.4035 403.703 22.1795 404.594 22.7058C405.485 23.2389 406.484 23.502 407.591 23.502C408.131 23.502 408.665 23.448 409.184 23.3468C409.704 23.2456 410.177 23.0837 410.602 22.8543C411.027 22.6248 411.372 22.3347 411.635 21.9771C411.891 21.6194 412.026 21.1741 412.026 20.6545C412.026 20.0472 411.878 19.5412 411.588 19.1498C411.297 18.7584 410.919 18.4413 410.474 18.2051C410.022 17.969 409.508 17.807 408.935 17.7126C408.361 17.6248 407.801 17.5776 407.261 17.5776H404.52V12.4359H407.261C407.713 12.4359 408.172 12.3954 408.644 12.3144C409.117 12.2335 409.549 12.0918 409.947 11.8758C410.339 11.6599 410.663 11.3765 410.913 11.0121C411.162 10.6545 411.284 10.1889 411.284 9.62888C411.284 9.15655 411.176 8.74494 410.96 8.39406C410.744 8.04318 410.46 7.75978 410.096 7.53036C409.731 7.30769 409.319 7.139 408.86 7.02429C408.395 6.90958 407.929 6.8556 407.456 6.8556C406.511 6.8556 405.64 7.139 404.851 7.69906C404.061 8.26586 403.46 9.02834 403.055 10L397.439 7.46289V7.46964Z" fill="var(--fill-0, #1D1D1D)"/>
<path id="Vector_16" d="M422.172 15.1484C422.172 12.9622 422.436 10.9919 422.969 9.24426C423.502 7.49663 424.265 6.01215 425.271 4.79757C426.277 3.583 427.505 2.65182 428.956 2.00405C430.408 1.35628 432.075 1.03914 433.945 1.03914C435.815 1.03914 437.415 1.36302 438.866 2.00405C440.317 2.64507 441.553 3.57625 442.572 4.79757C443.585 6.01215 444.368 7.49663 444.908 9.24426C445.448 10.9919 445.718 12.9622 445.718 15.1484C445.718 17.3347 445.461 19.3387 444.955 21.0864C444.449 22.834 443.693 24.3185 442.687 25.5331C441.681 26.7476 440.446 27.6856 438.981 28.3401C437.516 28.9946 435.835 29.3185 433.938 29.3185C432.041 29.3185 430.401 28.9946 428.95 28.3401C427.492 27.6856 426.263 26.7476 425.264 25.5331C424.258 24.3185 423.495 22.834 422.962 21.0864C422.429 19.3387 422.166 17.3617 422.166 15.1484H422.172ZM429.206 15.1484C429.206 16.6599 429.335 17.942 429.598 19.0014C429.854 20.0607 430.205 20.9244 430.644 21.5857C431.083 22.2537 431.589 22.7328 432.149 23.0432C432.71 23.3536 433.311 23.502 433.945 23.502C434.58 23.502 435.214 23.3468 435.788 23.0432C436.362 22.7395 436.868 22.2537 437.314 21.5857C437.752 20.9177 438.097 20.0607 438.346 19.0014C438.596 17.942 438.718 16.6599 438.718 15.1484C438.718 13.637 438.596 12.3887 438.346 11.3293C438.097 10.2699 437.752 9.41296 437.314 8.75843C436.875 8.10391 436.368 7.62483 435.788 7.32119C435.214 7.01754 434.6 6.86235 433.945 6.86235C433.29 6.86235 432.716 7.01754 432.149 7.32119C431.582 7.62483 431.083 8.10391 430.644 8.75843C430.205 9.41296 429.854 10.2699 429.598 11.3293C429.341 12.3887 429.206 13.664 429.206 15.1484Z" fill="var(--fill-0, #1D1D1D)"/>
<path id="Vector_17" d="M458.577 14.9798C458.577 13.4885 458.685 12.0783 458.901 10.7355C459.117 9.39271 459.462 8.11066 459.934 6.88259C460.407 5.65452 461.028 4.46694 461.797 3.33333C462.56 2.19298 463.498 1.08637 464.606 0H472.49C470.276 2.11876 468.582 4.41296 467.4 6.88259C466.219 9.35223 465.625 12.0513 465.625 14.9798C465.625 17.9082 466.219 20.614 467.4 23.0972C468.582 25.5803 470.283 27.8745 472.49 30H464.606C463.498 28.9204 462.56 27.807 461.797 26.6667C461.028 25.5263 460.407 24.3387 459.934 23.0972C459.462 21.8556 459.117 20.5668 458.901 19.224C458.685 17.8812 458.577 16.471 458.577 14.9798Z" fill="var(--fill-0, #1D1D1D)"/>
<path id="Vector_18" d="M502.057 11.6937H492.924V12.942H504.055V18.7584H474.785V12.942H485.917V11.6937H476.783V0.398111H502.057V11.6937ZM495.394 29.3522V25.8367H476.446V20.054H502.401V29.359H495.394V29.3522ZM483.446 5.20243V6.89609H495.388V5.20243H483.446Z" fill="var(--fill-0, #1D1D1D)"/>
<path id="Vector_19" d="M520.297 14.9798C520.297 16.471 520.189 17.8812 519.973 19.224C519.757 20.5668 519.412 21.8556 518.94 23.0972C518.467 24.3387 517.846 25.5263 517.077 26.6667C516.307 27.807 515.376 28.9136 514.269 30H506.384C508.591 27.8812 510.292 25.5803 511.474 23.0972C512.655 20.614 513.249 17.9082 513.249 14.9798C513.249 12.0513 512.655 9.34548 511.474 6.88259C510.292 4.41296 508.591 2.11876 506.384 0H514.269C515.376 1.07962 516.307 2.19298 517.077 3.33333C517.846 4.47368 518.467 5.65452 518.94 6.88259C519.412 8.11066 519.757 9.39946 519.973 10.7355C520.189 12.0783 520.297 13.4885 520.297 14.9798Z" fill="var(--fill-0, #1D1D1D)"/>
<path id="Vector_20" d="M538.361 10.0742C539.063 10.0742 539.785 10.1889 540.541 10.4318C541.297 10.668 541.993 10.9244 542.62 11.1943C543.275 11.4845 543.984 11.7476 544.753 11.9703C545.523 12.193 546.266 12.3077 546.988 12.3077C547.825 12.3077 548.547 12.2132 549.168 12.0175C549.789 11.8286 550.39 11.525 550.977 11.1201V16.9366C550.37 17.3009 549.688 17.5776 548.932 17.78C548.176 17.9825 547.346 18.0837 546.448 18.0837C545.746 18.0837 545.023 17.969 544.267 17.7463C543.511 17.5236 542.816 17.274 542.188 17.004C541.533 16.7139 540.825 16.444 540.055 16.2078C539.286 15.9717 538.543 15.8502 537.821 15.8502C536.984 15.8502 536.261 15.9244 535.64 16.0729C535.019 16.2213 534.419 16.4507 533.831 16.7679V10.9514C534.419 10.6815 535.087 10.4656 535.843 10.3104C536.599 10.1552 537.436 10.0742 538.361 10.0742Z" fill="var(--fill-0, #1D1D1D)"/>
<path id="Vector_21" d="M573.18 17.3752C574.712 16.1606 575.907 14.9325 576.751 13.7045C577.594 12.4764 578.02 11.3225 578.02 10.2362C578.02 9.87854 577.966 9.50067 577.864 9.10256C577.763 8.7112 577.594 8.34683 577.358 8.02294C577.122 7.69905 576.798 7.42915 576.393 7.22672C575.988 7.02429 575.481 6.92308 574.874 6.92308C572.369 6.92308 570.567 8.42105 569.46 11.4238L564.08 8.61673C564.438 7.40216 564.985 6.31579 565.707 5.37112C566.429 4.42645 567.28 3.63023 568.258 2.9892C569.237 2.34818 570.331 1.8691 571.539 1.55196C572.748 1.23482 574.017 1.09312 575.346 1.11336C576.744 1.1336 578.047 1.36977 579.255 1.82186C580.463 2.27395 581.503 2.90148 582.387 3.71795C583.265 4.52767 583.953 5.50607 584.453 6.64642C584.952 7.78677 585.175 9.04183 585.128 10.4184C585.081 11.4103 584.885 12.3549 584.534 13.2456C584.183 14.1363 583.724 14.9933 583.163 15.8165C582.596 16.6397 581.948 17.4291 581.199 18.1849C580.457 18.9406 579.667 19.6559 578.83 20.3306L575.718 22.8677H586.174V28.6505H564.822V24.1161L573.18 17.3887V17.3752Z" fill="var(--fill-0, #1D1D1D)"/>
<path id="Vector_22" d="M587.902 15.1484C587.902 12.9622 588.166 10.9919 588.699 9.24426C589.232 7.49663 589.995 6.01215 591.001 4.79757C592.007 3.583 593.235 2.65182 594.686 2.00405C596.138 1.35628 597.805 1.03914 599.675 1.03914C601.545 1.03914 603.145 1.36302 604.596 2.00405C606.047 2.64507 607.283 3.57625 608.302 4.79757C609.315 6.01215 610.098 7.49663 610.638 9.24426C611.178 10.9919 611.448 12.9622 611.448 15.1484C611.448 17.3347 611.191 19.3387 610.685 21.0864C610.179 22.834 609.423 24.3185 608.417 25.5331C607.411 26.7476 606.176 27.6856 604.711 28.3401C603.246 28.9946 601.565 29.3185 599.668 29.3185C597.771 29.3185 596.131 28.9946 594.68 28.3401C593.222 27.6856 591.993 26.7476 590.994 25.5331C589.988 24.3185 589.225 22.834 588.692 21.0864C588.159 19.3387 587.896 17.3617 587.896 15.1484H587.902ZM594.936 15.1484C594.936 16.6599 595.064 17.942 595.328 19.0014C595.584 20.0607 595.935 20.9244 596.374 21.5857C596.813 22.2537 597.319 22.7328 597.879 23.0432C598.44 23.3536 599.04 23.502 599.675 23.502C600.31 23.502 600.944 23.3468 601.518 23.0432C602.092 22.7395 602.598 22.2537 603.043 21.5857C603.482 20.9177 603.827 20.0607 604.076 19.0014C604.326 17.942 604.448 16.6599 604.448 15.1484C604.448 13.637 604.326 12.3887 604.076 11.3293C603.827 10.2699 603.482 9.41296 603.043 8.75843C602.605 8.10391 602.098 7.62483 601.518 7.32119C600.944 7.01754 600.33 6.86235 599.675 6.86235C599.02 6.86235 598.446 7.01754 597.879 7.32119C597.312 7.62483 596.813 8.10391 596.374 8.75843C595.935 9.41296 595.584 10.2699 595.328 11.3293C595.071 12.3887 594.936 13.664 594.936 15.1484Z" fill="var(--fill-0, #1D1D1D)"/>
<path id="Vector_23" d="M622.478 17.3752C624.01 16.1606 625.205 14.9325 626.049 13.7045C626.893 12.4764 627.318 11.3225 627.318 10.2362C627.318 9.87854 627.264 9.50067 627.163 9.10256C627.062 8.7112 626.893 8.34683 626.657 8.02294C626.42 7.69905 626.096 7.42915 625.691 7.22672C625.286 7.02429 624.78 6.92308 624.172 6.92308C621.668 6.92308 619.866 8.42105 618.758 11.4238L613.378 8.61673C613.736 7.40216 614.283 6.31579 615.005 5.37112C615.728 4.42645 616.578 3.63023 617.557 2.9892C618.536 2.34818 619.629 1.8691 620.838 1.55196C622.046 1.23482 623.315 1.09312 624.645 1.11336C626.042 1.1336 627.345 1.36977 628.553 1.82186C629.762 2.27395 630.801 2.90148 631.686 3.71795C632.563 4.52767 633.252 5.50607 633.751 6.64642C634.251 7.78677 634.474 9.04183 634.426 10.4184C634.379 11.4103 634.183 12.3549 633.832 13.2456C633.481 14.1363 633.022 14.9933 632.462 15.8165C631.895 16.6397 631.247 17.4291 630.498 18.1849C629.755 18.9406 628.965 19.6559 628.128 20.3306L625.016 22.8677H635.473V28.6505H614.121V24.1161L622.478 17.3887V17.3752Z" fill="var(--fill-0, #1D1D1D)"/>
<path id="Vector_24" d="M653.881 1.68691L649.615 10.5803C650.108 10.5128 650.594 10.4791 651.073 10.4791C652.18 10.4791 653.287 10.7018 654.408 11.1538C655.521 11.6059 656.527 12.2335 657.418 13.0297C658.309 13.8327 659.032 14.7908 659.585 15.9042C660.139 17.0175 660.415 18.2524 660.415 19.6086C660.415 21.2078 660.091 22.6181 659.45 23.8394C658.809 25.0607 657.958 26.0729 656.898 26.8826C655.839 27.6923 654.63 28.2996 653.28 28.7112C651.923 29.1161 650.54 29.3185 649.115 29.3185C647.468 29.3185 645.929 29.0621 644.498 28.5425C643.067 28.0229 641.858 27.274 640.88 26.2955C639.901 25.3171 639.199 24.1228 638.78 22.7126C638.362 21.3023 638.355 19.6964 638.76 17.8947C638.895 17.2875 639.131 16.6329 639.469 15.9312C639.806 15.2294 640.171 14.4737 640.549 13.664L646.3 1.69366H653.881V1.68691ZM649.513 16.2618C648.231 16.2618 647.259 16.6194 646.604 17.3279C645.949 18.0364 645.625 18.9001 645.625 19.9123C645.625 20.9244 645.963 21.7814 646.638 22.4831C647.313 23.1849 648.271 23.529 649.513 23.529C650.756 23.529 651.714 23.1781 652.389 22.4831C653.064 21.7814 653.402 20.9244 653.402 19.9123C653.402 18.9001 653.071 18.0364 652.423 17.3279C651.768 16.6194 650.796 16.2618 649.513 16.2618Z" fill="var(--fill-0, #1D1D1D)"/>
<path id="Vector_25" d="M663.892 28.8799V22.3887H670.831V28.8799H663.892Z" fill="var(--fill-0, #1D1D1D)"/>
<path id="Vector_26" d="M683.421 15.1484C683.421 12.9622 683.684 10.9919 684.217 9.24426C684.751 7.49663 685.514 6.01215 686.519 4.79757C687.525 3.583 688.754 2.65182 690.205 2.00405C691.656 1.35628 693.324 1.03914 695.194 1.03914C697.064 1.03914 698.663 1.36302 700.115 2.00405C701.566 2.64507 702.801 3.57625 703.821 4.79757C704.833 6.01215 705.616 7.49663 706.156 9.24426C706.696 10.9919 706.966 12.9622 706.966 15.1484C706.966 17.3347 706.71 19.3387 706.204 21.0864C705.697 22.834 704.941 24.3185 703.936 25.5331C702.93 26.7476 701.694 27.6856 700.23 28.3401C698.765 28.9946 697.084 29.3185 695.187 29.3185C693.29 29.3185 691.65 28.9946 690.198 28.3401C688.74 27.6856 687.512 26.7476 686.513 25.5331C685.507 24.3185 684.744 22.834 684.211 21.0864C683.677 19.3387 683.414 17.3617 683.414 15.1484H683.421ZM690.455 15.1484C690.455 16.6599 690.583 17.942 690.846 19.0014C691.103 20.0607 691.454 20.9244 691.893 21.5857C692.331 22.2537 692.838 22.7328 693.398 23.0432C693.958 23.3536 694.559 23.502 695.194 23.502C695.828 23.502 696.463 23.3468 697.037 23.0432C697.61 22.7395 698.117 22.2537 698.562 21.5857C699.001 20.9177 699.345 20.0607 699.595 19.0014C699.845 17.942 699.966 16.6599 699.966 15.1484C699.966 13.637 699.845 12.3887 699.595 11.3293C699.345 10.2699 699.001 9.41296 698.562 8.75843C698.123 8.10391 697.617 7.62483 697.037 7.32119C696.463 7.01754 695.848 6.86235 695.194 6.86235C694.539 6.86235 693.965 7.01754 693.398 7.32119C692.831 7.62483 692.331 8.10391 691.893 8.75843C691.454 9.41296 691.103 10.2699 690.846 11.3293C690.59 12.3887 690.455 13.664 690.455 15.1484Z" fill="var(--fill-0, #1D1D1D)"/>
<path id="Vector_27" d="M717.848 22.5709C718.604 23.1916 719.657 23.502 721.014 23.502C722.229 23.502 723.215 23.1781 723.957 22.5236C724.7 21.8691 725.071 21.0054 725.071 19.919C725.071 18.8327 724.686 17.9825 723.924 17.3482C723.154 16.7206 722.162 16.3765 720.947 16.336C719.347 16.2888 718.138 16.7409 717.328 17.6923H711.037V1.68691H730.694V7.50337H718.071V11.5587C718.726 11.2011 719.455 10.9312 720.251 10.7625C721.055 10.5938 721.878 10.5061 722.736 10.5061C723.843 10.5061 724.943 10.7085 726.05 11.1134C727.157 11.5182 728.156 12.1188 729.061 12.9082C729.965 13.6977 730.694 14.6761 731.261 15.8367C731.822 16.9973 732.105 18.3333 732.105 19.8448C732.105 21.1336 731.842 22.3482 731.309 23.4953C730.775 24.6424 730.033 25.6545 729.074 26.525C728.116 27.3954 726.948 28.0769 725.571 28.5695C724.194 29.0621 722.661 29.3117 720.967 29.3117C719.522 29.3117 718.192 29.1431 716.977 28.8057C715.762 28.4683 714.676 27.9825 713.73 27.3482C712.785 26.7139 711.996 25.9649 711.361 25.081C710.727 24.2038 710.288 23.2321 710.038 22.1727L715.958 19.8043C716.451 21.0189 717.079 21.9433 717.835 22.5574L717.848 22.5709Z" fill="var(--fill-0, #1D1D1D)"/>
<path id="Vector_28" d="M735.696 28.8799V22.3887H742.636V28.8799H735.696Z" fill="var(--fill-0, #1D1D1D)"/>
<path id="Vector_29" d="M755.657 7.46964C756.015 6.4305 756.548 5.51282 757.251 4.70985C757.953 3.90688 758.769 3.23887 759.701 2.69906C760.639 2.15924 761.638 1.74764 762.712 1.46424C763.785 1.18084 764.872 1.03914 765.979 1.03914C767.403 1.03914 768.753 1.23482 770.036 1.63293C771.325 2.02429 772.446 2.58435 773.404 3.30634C774.363 4.02834 775.126 4.89204 775.686 5.89069C776.246 6.89609 776.53 8.0027 776.53 9.22402C776.53 9.83131 776.449 10.4318 776.293 11.0189C776.138 11.6059 775.895 12.1525 775.564 12.6586C775.234 13.1646 774.829 13.6032 774.329 13.9811C773.83 14.3522 773.249 14.6289 772.567 14.8111C773.242 14.9663 773.863 15.2227 774.43 15.5736C774.991 15.9244 775.49 16.3495 775.922 16.8556C776.354 17.3617 776.685 17.9352 776.921 18.583C777.158 19.224 777.279 19.9055 777.279 20.6275C777.279 22.0243 776.975 23.2659 776.368 24.3455C775.76 25.4251 774.943 26.336 773.917 27.0715C772.891 27.807 771.69 28.3603 770.313 28.7449C768.935 29.1296 767.484 29.3185 765.945 29.3185C764.885 29.3185 763.805 29.2038 762.712 28.9811C761.618 28.7584 760.578 28.3941 759.6 27.9015C758.621 27.4022 757.73 26.7611 756.926 25.9717C756.123 25.1822 755.509 24.224 755.084 23.0972L760.97 20.3914C761.308 21.4035 761.922 22.1795 762.813 22.7058C763.704 23.2389 764.703 23.502 765.81 23.502C766.35 23.502 766.883 23.448 767.403 23.3468C767.923 23.2456 768.395 23.0837 768.821 22.8543C769.246 22.6248 769.59 22.3347 769.854 21.9771C770.11 21.6194 770.245 21.1741 770.245 20.6545C770.245 20.0472 770.097 19.5412 769.806 19.1498C769.516 18.7584 769.138 18.4413 768.692 18.2051C768.24 17.969 767.727 17.807 767.153 17.7126C766.58 17.6248 766.019 17.5776 765.479 17.5776H762.739V12.4359H765.479C765.932 12.4359 766.391 12.3954 766.863 12.3144C767.336 12.2335 767.768 12.0918 768.166 11.8758C768.557 11.6599 768.881 11.3765 769.131 11.0121C769.381 10.6545 769.503 10.1889 769.503 9.62888C769.503 9.15655 769.394 8.74494 769.178 8.39406C768.962 8.04318 768.679 7.75978 768.314 7.53036C767.95 7.30769 767.538 7.139 767.079 7.02429C766.613 6.90958 766.148 6.8556 765.675 6.8556C764.73 6.8556 763.859 7.139 763.069 7.69906C762.28 8.26586 761.679 9.02834 761.274 10L755.657 7.46289V7.46964Z" fill="var(--fill-0, #1D1D1D)"/>
<path id="Vector_30" d="M779.648 1.68691H790.746V28.6437H783.705V7.50337H779.648V1.68691Z" fill="var(--fill-0, #1D1D1D)"/>
<path id="Vector_31" d="M804.281 14.9798C804.281 13.4885 804.389 12.0783 804.605 10.7355C804.821 9.39271 805.165 8.11066 805.638 6.88259C806.11 5.65452 806.731 4.46694 807.501 3.33333C808.263 2.19298 809.202 1.08637 810.309 0H818.193C815.979 2.11876 814.285 4.41296 813.104 6.88259C811.922 9.35223 811.328 12.0513 811.328 14.9798C811.328 17.9082 811.922 20.614 813.104 23.0972C814.285 25.5803 815.986 27.8745 818.193 30H810.309C809.202 28.9204 808.263 27.807 807.501 26.6667C806.731 25.5263 806.11 24.3387 805.638 23.0972C805.165 21.8556 804.821 20.5668 804.605 19.224C804.389 17.8812 804.281 16.471 804.281 14.9798Z" fill="var(--fill-0, #1D1D1D)"/>
<path id="Vector_32" d="M819.915 7.16599C819.915 5.9919 820.151 4.95951 820.624 4.06883C821.096 3.17814 821.771 2.4359 822.635 1.83536C823.506 1.23482 824.552 0.789474 825.781 0.499325C827.009 0.209177 828.38 0.0607287 829.892 0.0607287C831.404 0.0607287 832.774 0.209177 834.003 0.499325C835.231 0.789474 836.285 1.23482 837.149 1.83536C838.013 2.4359 838.688 3.17814 839.16 4.06883C839.633 4.95951 839.869 5.9919 839.869 7.16599C839.869 8.34008 839.633 9.36572 839.16 10.2429C838.688 11.1201 838.013 11.8623 837.149 12.4561C836.278 13.0567 835.231 13.502 834.003 13.7922C832.774 14.0823 831.404 14.2308 829.892 14.2308C828.38 14.2308 827.009 14.0823 825.781 13.7922C824.552 13.502 823.499 13.0567 822.635 12.4561C821.764 11.8623 821.096 11.1201 820.624 10.2429C820.151 9.36572 819.915 8.34008 819.915 7.16599ZM842.076 20.4926V19.4804H822.352V15.5601H849.083V24.4197H829.392V25.4319H849.421V29.3522H822.352V20.4926H842.076ZM829.892 9.25776C830.864 9.25776 831.654 9.08907 832.261 8.75169C832.869 8.4143 833.173 7.88124 833.173 7.15924C833.173 6.43725 832.869 5.93117 832.261 5.5668C831.654 5.20918 830.864 5.02699 829.892 5.02699C828.92 5.02699 828.164 5.20918 827.556 5.5668C826.949 5.93117 826.645 6.45749 826.645 7.15924C826.645 7.861 826.949 8.40756 827.556 8.75169C828.164 9.09582 828.94 9.25776 829.892 9.25776ZM849.077 0.0607287V14.3657H842.07V0.0607287H849.077Z" fill="var(--fill-0, #1D1D1D)"/>
<path id="Vector_33" d="M866 14.9798C866 16.471 865.892 17.8812 865.676 19.224C865.46 20.5668 865.116 21.8556 864.643 23.0972C864.171 24.3387 863.55 25.5263 862.78 26.6667C862.01 27.807 861.079 28.9136 859.972 30H852.087C854.295 27.8812 855.996 25.5803 857.177 23.0972C858.359 20.614 858.952 17.9082 858.952 14.9798C858.952 12.0513 858.359 9.34548 857.177 6.88259C855.996 4.41296 854.295 2.11876 852.087 0H859.972C861.079 1.07962 862.01 2.19298 862.78 3.33333C863.55 4.47368 864.171 5.65452 864.643 6.88259C865.116 8.11066 865.46 9.39946 865.676 10.7355C865.892 12.0783 866 13.4885 866 14.9798Z" fill="var(--fill-0, #1D1D1D)"/>
</g>
</svg>
