<svg overflow="visible" style="display: block;" viewBox="0 0 65.9933 82" fill="none" xmlns="http://www.w3.org/2000/svg">
<g id="Group">
<path id="Vector" d="M65.2185 68.5975L58.6567 54.0736C57.4264 51.3599 54.6113 49.7192 51.518 48.8469L55.0839 44.0772C58.3857 39.7089 60.2902 34.5168 60.5961 29.0617C61.0201 21.4536 58.337 14.1986 53.0542 8.63959C47.834 3.14985 40.5215 0 32.9866 0C32.507 0 32.0274 0.0138455 31.5408 0.0346138C16.8602 0.796117 5.35627 12.8694 5.35627 27.5318C5.35627 33.5546 7.27475 39.2797 10.8893 44.0564L14.476 48.8539C11.3828 49.7261 8.56765 51.3668 7.33731 54.0805L0.768593 68.6114C-0.433934 71.2974 -0.218452 74.2396 1.36638 76.6833C3.56291 80.0616 8.04632 82 13.6558 82H52.3383C57.9547 82 62.4312 80.0616 64.6346 76.6695C66.2125 74.2257 66.428 71.2905 65.2185 68.5906V68.5975ZM16.6586 68.4383C16.6586 68.4383 16.6795 68.4729 16.6934 68.4868H16.6378L16.6586 68.4383ZM49.3007 68.4868C49.3007 68.4868 49.3215 68.4522 49.3354 68.4383L49.3563 68.4868H49.3076H49.3007Z" fill="var(--fill-0, #4FE5FB)"/>
<g id="Group_2">
<path id="Vector_2" d="M60.7836 70.5844L54.2219 56.0674C53.2904 54.0113 49.0851 52.8968 45.6026 52.8968H45.0396L44.5252 53.589L43.705 54.6897L43.1836 55.382H45.9223C48.105 55.382 49.7732 56.1089 49.9678 56.6004L55.5843 71.1174C55.7094 71.4497 55.6746 71.7543 55.473 72.0451C55.0629 72.6404 53.8117 73.3327 51.6222 73.3327H14.3716C12.182 73.3327 10.9239 72.6404 10.5138 72.0451C10.3122 71.7543 10.2775 71.4497 10.4095 71.1174L16.026 56.6004C16.2136 56.1089 17.8819 55.382 20.0645 55.382H22.8032L22.2819 54.6897L21.4617 53.589L20.9473 52.8968H20.3912C16.9087 52.8968 12.7034 54.0113 11.7719 56.0674L5.21016 70.5844C4.68189 71.7613 4.7653 72.9935 5.4465 74.0458C6.71159 75.9911 9.77699 77.1541 13.6557 77.1541H52.3381C56.2099 77.1541 59.2822 75.9911 60.5473 74.0458C61.2285 72.9935 61.3119 71.7613 60.7836 70.5844Z" fill="var(--fill-0, white)"/>
<path id="Vector_3" d="M19.8768 62.4571C19.6057 63.5855 19.8977 64.7347 20.7179 65.7731C22.6781 68.2445 27.4952 69.8436 32.9934 69.8436C38.4917 69.8436 43.3157 68.2445 45.2759 65.7731C46.0961 64.7347 46.388 63.5855 46.11 62.4571C45.686 60.6779 43.8301 59.1342 41.1539 58.1027L40.723 58.6773L40.1113 59.4941L39.6873 60.0618C41.3764 60.7541 42.5233 61.7025 42.7318 62.7478C42.843 63.3086 42.6693 63.8624 42.2174 64.4093C41.0427 65.8423 37.734 67.2822 32.9934 67.2822C28.2528 67.2822 24.9511 65.8423 23.7694 64.4093C23.3245 63.8624 23.1508 63.3086 23.262 62.7478C23.4705 61.7025 24.6105 60.7541 26.2996 60.0618L25.8756 59.5011L25.2639 58.6773L24.8329 58.1027C22.1568 59.1342 20.3008 60.6779 19.8768 62.4571Z" fill="var(--fill-0, white)"/>
</g>
<path id="Vector_4" d="M31.7978 4.87362C19.7726 5.49667 10.2149 15.3962 10.2149 27.5249C10.2149 32.6408 11.9179 37.3621 14.7887 41.1627L30.1991 61.7925C31.5893 63.6547 34.3906 63.6547 35.7808 61.7925L51.1912 41.1627C53.8256 37.6805 55.473 33.423 55.7302 28.7917C56.474 15.3685 45.2759 4.17442 31.7909 4.87362H31.7978ZM46.9719 33.52C46.1934 35.3545 45.0813 36.9952 43.6632 38.4074C42.2452 39.8197 40.5909 40.9273 38.7558 41.7027C36.8512 42.5057 34.8285 42.9141 32.7432 42.9141C30.6579 42.9141 28.6351 42.5057 26.7305 41.7027C24.8885 40.9273 23.2411 39.8197 21.8231 38.4074C20.4051 36.9952 19.2929 35.3476 18.5144 33.52C17.7081 31.6231 17.298 29.6086 17.298 27.5318C17.298 25.455 17.7081 23.4404 18.5144 21.5436C19.2929 19.7091 20.4051 18.0684 21.8231 16.6561C23.2411 15.2439 24.8955 14.1363 26.7305 13.3609C28.6351 12.5579 30.6579 12.1494 32.7432 12.1494C34.8285 12.1494 36.8512 12.5579 38.7558 13.3609C40.5978 14.1363 42.2452 15.2439 43.6632 16.6561C45.0813 18.0684 46.1934 19.716 46.9719 21.5436C47.7783 23.4404 48.1884 25.455 48.1884 27.5318C48.1884 29.6086 47.7783 31.6231 46.9719 33.52ZM40.3268 27.5318C40.3268 31.6993 36.9277 35.0845 32.7432 35.0845C28.5587 35.0845 25.1596 31.6924 25.1596 27.5318C25.1596 23.3712 28.5656 19.9791 32.7432 19.9791C36.9207 19.9791 40.3268 23.3643 40.3268 27.5318Z" fill="var(--fill-0, white)"/>
</g>
</svg>
