<?xml version="1.0" encoding="UTF-8"?>
<svg id="Layer_2" data-name="Layer 2" xmlns="http://www.w3.org/2000/svg" viewBox="0 0 51 51">
  <g id="Layer_1-2" data-name="Layer 1">
    <g>
      <circle cx="25.5" cy="25.5" r="25" fill="#e8e8e8" stroke="#fc5693" stroke-miterlimit="10"/>
      <path d="M25.5,46.49c-11.57,0-20.99-9.42-20.99-20.99S13.93,4.51,25.5,4.51s20.99,9.42,20.99,20.99-9.42,20.99-20.99,20.99Z" fill="none" stroke="#fc5693" stroke-miterlimit="10"/>
      <g>
        <path d="M27.81,16.05v-1.54s1.54,0,1.54,0v1.54s-1.54,0-1.54,0ZM29.35,19.13v-1.54h-1.54v1.54h1.54ZM26.27,12.97v-1.54h-1.54v1.54h1.54ZM27.81,14.51v-1.54h-1.54v1.54h1.54ZM26.27,16.05v-1.54h-1.54v1.54h1.54ZM27.81,17.59v-1.54h-1.54v1.54h1.54ZM24.73,14.51v-1.54h-1.54v1.54h1.54ZM23.19,16.05v-1.54h-1.54v1.54h1.54ZM24.73,17.59v-1.54h-1.54v1.54h1.54ZM23.19,19.13v-1.54h-1.54v1.54h1.54Z" fill="#fc5693"/>
        <g>
          <path d="M17.16,24.36h-1.39v-1.68h5.21v1.68h-1.39v8.52h-2.43v-8.52Z" fill="#fc5693"/>
          <path d="M27.88,23.9v7.78l-1.6,1.21h-3.13l-1.6-1.21v-7.78l1.6-1.21h3.13l1.6,1.21ZM25.03,24.36h-.62l-.42.31v6.24l.42.31h.62l.42-.31v-6.24l-.42-.31Z" fill="#fc5693"/>
          <path d="M28.92,22.69h4.71l1.6,1.21v4.18l-1.6,1.21h-2.28v3.6h-2.43v-10.2ZM31.35,24.36v3.25h1.04l.4-.31v-2.64l-.4-.31h-1.04Z" fill="#fc5693"/>
        </g>
      </g>
    </g>
  </g>
</svg>