<svg width="24" height="30" viewBox="0 0 24 30" fill="none" xmlns="http://www.w3.org/2000/svg">
<path d="M3.0917 29.673C1.55159 29.673 0.291504 28.2606 0.291504 26.5344V3.46553C0.291504 1.73928 1.55159 0.326904 3.0917 0.326904C3.57007 0.326904 4.0601 0.470758 4.4918 0.745387L22.3197 12.2798C23.1948 12.8422 23.7198 13.8622 23.7198 15C23.7198 16.1377 23.1948 17.1447 22.3197 17.7201L4.4918 29.2545C4.0601 29.5292 3.58173 29.673 3.0917 29.673Z" fill="#FC5693"/>
<path d="M3.09188 0.65388C3.51191 0.65388 3.93194 0.771578 4.3403 1.03313L22.1682 12.5676C23.8367 13.653 23.8367 16.347 22.1682 17.4324L4.3403 28.9669C3.93194 29.2284 3.51191 29.3461 3.09188 29.3461C1.78512 29.3461 0.583374 28.1691 0.583374 26.5344V3.46556C0.583374 1.83086 1.78512 0.65388 3.09188 0.65388ZM3.09188 0C1.38843 0 0 1.55623 0 3.46556V26.5344C0 28.4438 1.38843 30 3.09188 30C3.62859 30 4.15362 29.8431 4.63199 29.5292L22.4599 17.9948C23.4283 17.367 24 16.2424 24 15C24 13.7576 23.4283 12.633 22.4599 12.0052L4.63199 0.470793C4.15362 0.170009 3.62859 0 3.09188 0Z" fill="#FC5693"/>
</svg>
