<svg overflow="visible" style="display: block;" viewBox="0 0 34.0752 30" fill="none" xmlns="http://www.w3.org/2000/svg">
<path id="Vector" d="M4.38985 0.65388C4.98621 0.65388 5.58257 0.771578 6.16236 1.03313L31.4744 12.5676C33.8433 13.653 33.8433 16.347 31.4744 17.4324L6.16236 28.9669C5.58257 29.2284 4.98621 29.3461 4.38985 29.3461C2.53452 29.3461 0.828274 28.1691 0.828274 26.5344V3.46556C0.828274 1.83086 2.53452 0.65388 4.38985 0.65388ZM4.38985 0C1.97129 0 0 1.55623 0 3.46556V26.5344C0 28.4438 1.97129 30 4.38985 30C5.15187 30 5.89731 29.8431 6.5765 29.5292L31.8886 17.9948C33.2635 17.367 34.0752 16.2424 34.0752 15C34.0752 13.7576 33.2635 12.633 31.8886 12.0052L6.5765 0.470793C5.89731 0.170009 5.15187 0 4.38985 0Z" fill="var(--fill-0, #FC5693)"/>
</svg>
