<?xml version="1.0" encoding="UTF-8"?>
<svg id="Layer_2" data-name="Layer 2" xmlns="http://www.w3.org/2000/svg" viewBox="0 0 651.4 279.09">
  <defs>
    <style>
      .cls-1 {
        fill: #fc5693;
        stroke: #1d1d1d;
        stroke-miterlimit: 10;
        stroke-width: 4px;
      }

      .cls-2 {
        fill: #e8e8e8;
      }
    </style>
  </defs>
  <g id="Layer_1-2" data-name="Layer 1">
    <g>
      <polygon class="cls-1" points="649.4 110.5 649.4 277.09 2 277.09 2 110.5 53.48 2 597.92 2 649.4 110.5"/>
      <g>
        <path class="cls-2" d="M100.7,44.44h-15.9v-10.32h27.54v48.96h-11.64v-38.64ZM115.04,83.68v-50.76h11.64v19.2l3.18-1.08v-18.12h11.7v50.76h-11.7v-21.3l-3.18,1.08v20.22h-11.64Z"/>
        <path class="cls-2" d="M145.1,48.58c0-2.44.44-4.63,1.32-6.57.88-1.94,2.1-3.59,3.66-4.95,1.56-1.36,3.42-2.39,5.58-3.09,2.16-.7,4.54-1.05,7.14-1.05s4.98.35,7.14,1.05c2.16.7,4.02,1.73,5.58,3.09,1.56,1.36,2.78,3.01,3.66,4.95.88,1.94,1.32,4.13,1.32,6.57s-.44,4.62-1.32,6.54c-.88,1.92-2.1,3.55-3.66,4.89-1.56,1.34-3.42,2.37-5.58,3.09-2.16.72-4.54,1.08-7.14,1.08s-4.98-.36-7.14-1.08c-2.16-.72-4.02-1.75-5.58-3.09-1.56-1.34-2.78-2.97-3.66-4.89-.88-1.92-1.32-4.1-1.32-6.54ZM161.84,67.18v7.44h35.58v10.26h-48v-17.7h12.42ZM162.8,54.46c.72,0,1.43-.13,2.13-.39.7-.26,1.32-.64,1.86-1.14.54-.5.98-1.11,1.32-1.83.34-.72.51-1.56.51-2.52s-.17-1.81-.51-2.55c-.34-.74-.78-1.36-1.32-1.86-.54-.5-1.16-.88-1.86-1.14-.7-.26-1.41-.39-2.13-.39s-1.43.13-2.13.39c-.7.26-1.32.64-1.86,1.14-.54.5-.98,1.12-1.32,1.86-.34.74-.51,1.59-.51,2.55s.17,1.8.51,2.52c.34.72.78,1.33,1.32,1.83.54.5,1.16.88,1.86,1.14.7.26,1.41.39,2.13.39ZM196.82,32.92v36.42h-12.42v-36.42h12.42Z"/>
        <path class="cls-2" d="M218.9,35.8h26.82c2.08,0,4.03.28,5.85.84,1.82.56,3.39,1.41,4.71,2.55,1.32,1.14,2.36,2.61,3.12,4.41.76,1.8,1.14,3.92,1.14,6.36s-.3,4.45-.9,6.15c-.6,1.7-1.5,3.14-2.7,4.32-1.2,1.18-2.69,2.16-4.47,2.94-1.78.78-3.83,1.43-6.15,1.95l-14.94,3.3v15h-12.48v-47.82ZM248.12,50.26c0-1.12-.37-2.09-1.11-2.91-.74-.82-1.73-1.23-2.97-1.23h-12.66v11.58l11.4-2.1c2.04-.36,3.44-1.02,4.2-1.98.76-.96,1.14-2.08,1.14-3.36Z"/>
        <path class="cls-2" d="M265.04,59.68c0-3.68.67-7.06,2.01-10.14,1.34-3.08,3.18-5.73,5.52-7.95,2.34-2.22,5.11-3.95,8.31-5.19,3.2-1.24,6.64-1.86,10.32-1.86,4.96,0,9.24,1.01,12.84,3.03,3.6,2.02,6.84,5.01,9.72,8.97l-8.22,6.9c-1.48-2.64-3.35-4.74-5.61-6.3-2.26-1.56-5.07-2.34-8.43-2.34-2.08,0-3.98.38-5.7,1.14-1.72.76-3.19,1.81-4.41,3.15-1.22,1.34-2.17,2.92-2.85,4.74-.68,1.82-1.02,3.77-1.02,5.85s.33,4.02.99,5.82c.66,1.8,1.61,3.37,2.85,4.71,1.24,1.34,2.73,2.39,4.47,3.15,1.74.76,3.67,1.14,5.79,1.14,1.72,0,3.27-.2,4.65-.6,1.38-.4,2.64-.98,3.78-1.74,1.14-.76,2.18-1.68,3.12-2.76.94-1.08,1.81-2.3,2.61-3.66l8.04,7.14c-2.72,3.8-5.89,6.74-9.51,8.82-3.62,2.08-7.99,3.12-13.11,3.12-3.68,0-7.12-.62-10.32-1.86-3.2-1.24-5.97-2.97-8.31-5.19-2.34-2.22-4.18-4.87-5.52-7.95-1.34-3.08-2.01-6.46-2.01-10.14Z"/>
        <path class="cls-2" d="M354.08,35.32h11.04v10.32h-11.04v.18c0,.32-.01.61-.03.87-.02.26-.05.55-.09.87l12.84,5.82-6.72,8.58-11.04-6.06c-1.76,1.52-3.89,2.8-6.39,3.84-2.5,1.04-5.29,1.78-8.37,2.22l-5.34-9.06c1.84-.36,3.54-.75,5.1-1.17s2.91-.92,4.05-1.5c1.14-.58,2.02-1.23,2.64-1.95.62-.72.93-1.56.93-2.52v-.12h-10.44v-10.32h10.44v-4.68h12.42v4.68ZM380.72,64.18v20.7h-45.6v-20.7h45.6ZM347.54,72.64v3.78h20.76v-3.78h-20.76ZM380.72,51.46v10.62h-12.42v-29.16h12.42v8.22h5.22v10.32h-5.22Z"/>
        <path class="cls-2" d="M438.62,83.68h-12.42v-11.1l-8.58,2.88c-.84,1.52-1.79,2.8-2.85,3.84-1.06,1.04-2.18,1.89-3.36,2.55-1.18.66-2.4,1.13-3.66,1.41-1.26.28-2.51.42-3.75.42-2.08,0-4.14-.4-6.18-1.2-2.04-.8-3.87-2.16-5.49-4.08s-2.93-4.49-3.93-7.71c-1-3.22-1.5-7.25-1.5-12.09s.5-8.87,1.5-12.09c1-3.22,2.31-5.79,3.93-7.71s3.45-3.28,5.49-4.08c2.04-.8,4.1-1.2,6.18-1.2,1.36,0,2.72.17,4.08.51,1.36.34,2.67.9,3.93,1.68,1.26.78,2.44,1.8,3.54,3.06,1.1,1.26,2.05,2.81,2.85,4.65l7.8-2.58v-7.92h12.42v50.76ZM399.26,58.6c0,3.08.14,5.58.42,7.5.28,1.92.64,3.42,1.08,4.5.44,1.08.95,1.81,1.53,2.19.58.38,1.15.57,1.71.57.52,0,1.06-.19,1.62-.57.56-.38,1.07-1.1,1.53-2.16.46-1.06.83-2.56,1.11-4.5.28-1.94.42-4.47.42-7.59s-.14-5.58-.42-7.5c-.28-1.92-.65-3.41-1.11-4.47-.46-1.06-.97-1.78-1.53-2.16-.56-.38-1.1-.57-1.62-.57-.56,0-1.13.19-1.71.57-.58.38-1.09,1.11-1.53,2.19-.44,1.08-.8,2.58-1.08,4.5-.28,1.92-.42,4.42-.42,7.5ZM421.1,58.6c0,1.6-.06,3.08-.18,4.44l5.28-1.8v-9.06l-5.34,1.8c.08.72.14,1.47.18,2.25.04.78.06,1.57.06,2.37Z"/>
        <path class="cls-2" d="M490.64,33.52v27.66h-30.54v-27.66h11.76v4.98h7.02v-4.98h11.76ZM485.48,86.08c-3.8,0-7.18-.22-10.14-.66-2.96-.44-5.46-1.11-7.5-2.01-2.04-.9-3.6-2.06-4.68-3.48-1.08-1.42-1.62-3.13-1.62-5.13s.54-3.65,1.62-5.07c1.08-1.42,2.64-2.59,4.68-3.51,2.04-.92,4.54-1.59,7.5-2.01,2.96-.42,6.34-.63,10.14-.63s7.13.21,10.11.63c2.98.42,5.49,1.09,7.53,2.01,2.04.92,3.6,2.09,4.68,3.51,1.08,1.42,1.62,3.11,1.62,5.07s-.54,3.71-1.62,5.13c-1.08,1.42-2.64,2.58-4.68,3.48-2.04.9-4.55,1.57-7.53,2.01-2.98.44-6.35.66-10.11.66ZM478.88,52.06v-4.44h-7.02v4.44h7.02ZM485.48,77.56c3.52,0,6.32-.22,8.4-.66,2.08-.44,3.12-1.14,3.12-2.1s-1.04-1.66-3.12-2.1c-2.08-.44-4.88-.66-8.4-.66s-6.32.22-8.4.66c-2.08.44-3.12,1.14-3.12,2.1s1.04,1.66,3.12,2.1c2.08.44,4.88.66,8.4.66ZM508.22,51.46v11.22h-12.42v-29.76h12.42v8.22h5.22v10.32h-5.22Z"/>
        <path class="cls-2" d="M546.74,33.52v25.92h-30.54v-25.92h11.76v4.08h7.02v-4.08h11.76ZM531.14,62.62v3.18h22.56v-3.18h12.42v22.26h-47.4v-22.26h12.42ZM534.98,50.62v-4.2h-7.02v4.2h7.02ZM553.7,76.96v-3.24h-22.56v3.24h22.56ZM548.24,51.7v-11.34l5.46-1.2v-6.24h12.42v27.6h-12.42v-10.02l-5.46,1.2Z"/>
      </g>
    </g>
  </g>
</svg>