<svg overflow="visible" style="display: block;" viewBox="0 0 651.569 74.0391" fill="none" xmlns="http://www.w3.org/2000/svg">
<g id="Group">
<path id="Vector" d="M647.63 72.0391H3.93877L55.1238 2H596.445L647.63 72.0391Z" fill="var(--fill-0, #FC5693)" stroke="var(--stroke-0, #1D1D1D)" stroke-width="4" stroke-miterlimit="10"/>
<g id="Group_2">
<path id="Vector_2" d="M212.169 24.3594H227.282C228.455 24.3594 229.549 24.5179 230.573 24.8347C231.597 25.1516 232.482 25.6269 233.228 26.2706C233.973 26.9142 234.56 27.7361 234.988 28.7462C235.415 29.7562 235.634 30.9445 235.634 32.311C235.634 33.6775 235.465 34.8064 235.127 35.7669C234.789 36.7175 234.282 37.5295 233.605 38.193C232.929 38.8564 232.094 39.401 231.09 39.8466C230.086 40.2823 228.932 40.6487 227.63 40.9458L219.208 42.7975V51.2145H212.179V24.3792L212.169 24.3594ZM228.624 32.4793C228.624 31.8555 228.415 31.3109 227.998 30.8454C227.58 30.3899 227.023 30.1523 226.327 30.1523H219.198V36.6482L225.621 35.4698C226.775 35.2718 227.56 34.8955 227.988 34.3608C228.415 33.826 228.634 33.1923 228.634 32.4793H228.624Z" fill="var(--fill-0, white)"/>
<path id="Vector_3" d="M238.159 37.7573C238.159 35.6976 238.537 33.7963 239.293 32.0634C240.048 30.3305 241.082 28.8452 242.405 27.6074C243.727 26.3597 245.288 25.3893 247.088 24.6961C248.887 24.0029 250.826 23.6564 252.904 23.6564C255.698 23.6564 258.114 24.2208 260.143 25.3596C262.171 26.4983 264 28.1718 265.621 30.3899L260.988 34.2617C260.153 32.7764 259.099 31.598 257.826 30.7266C256.553 29.8552 254.972 29.4096 253.073 29.4096C251.9 29.4096 250.826 29.6275 249.862 30.0533C248.897 30.4791 248.062 31.0732 247.376 31.8258C246.69 32.5783 246.153 33.4696 245.775 34.4895C245.388 35.5094 245.199 36.6086 245.199 37.7672C245.199 38.9257 245.388 40.0249 245.755 41.0349C246.123 42.045 246.66 42.9263 247.366 43.6788C248.062 44.4314 248.907 45.0256 249.882 45.4514C250.866 45.8772 251.95 46.095 253.143 46.095C254.107 46.095 254.982 45.9861 255.758 45.7583C256.533 45.5306 257.249 45.2038 257.886 44.778C258.522 44.3522 259.109 43.8373 259.645 43.2332C260.172 42.6292 260.67 41.9459 261.117 41.1835L265.651 45.1939C264.12 47.3229 262.33 48.9766 260.292 50.1451C258.253 51.3135 255.788 51.8978 252.904 51.8978C250.826 51.8978 248.897 51.5512 247.088 50.858C245.288 50.1649 243.727 49.1944 242.405 47.9467C241.082 46.699 240.048 45.2137 239.293 43.4907C238.537 41.7578 238.159 39.8665 238.159 37.7969V37.7573Z" fill="var(--fill-0, white)"/>
<path id="Vector_4" d="M284.81 23.082V38.599H267.6V23.082H274.221V25.8745H278.179V23.082H284.8H284.81ZM281.907 52.5711C279.769 52.5711 277.86 52.4523 276.19 52.2047C274.52 51.9572 273.118 51.5809 271.964 51.0759C270.811 50.5709 269.936 49.9173 269.33 49.1251C268.723 48.323 268.415 47.3724 268.415 46.2435C268.415 45.1147 268.723 44.1938 269.33 43.4016C269.936 42.6094 270.821 41.9459 271.964 41.431C273.118 40.9161 274.52 40.5398 276.19 40.3022C277.86 40.0645 279.76 39.9457 281.907 39.9457C284.055 39.9457 285.924 40.0645 287.604 40.3022C289.285 40.5398 290.697 40.9161 291.85 41.431C293.003 41.9459 293.878 42.5995 294.485 43.4016C295.091 44.1938 295.399 45.1444 295.399 46.2435C295.399 47.3427 295.091 48.323 294.485 49.1251C293.878 49.9173 292.993 50.5709 291.85 51.0759C290.697 51.5809 289.285 51.9572 287.604 52.2047C285.924 52.4523 284.025 52.5711 281.907 52.5711ZM278.189 33.4894V30.994H274.231V33.4894H278.189ZM281.907 47.7982C283.886 47.7982 285.467 47.6794 286.64 47.4318C287.813 47.1843 288.4 46.7882 288.4 46.2534C288.4 45.7187 287.813 45.3226 286.64 45.0751C285.467 44.8275 283.886 44.7087 281.907 44.7087C279.929 44.7087 278.348 44.8275 277.174 45.0751C276.001 45.3226 275.415 45.7187 275.415 46.2534C275.415 46.7882 276.001 47.1843 277.174 47.4318C278.348 47.6794 279.929 47.7982 281.907 47.7982ZM294.713 33.1527V39.4506H287.714V22.7553H294.713V27.3697H297.656V33.1626H294.713V33.1527Z" fill="var(--fill-0, white)"/>
<path id="Vector_5" d="M319.938 24.0921H326.162V29.8849H319.938V29.9839C319.938 30.1622 319.938 30.3305 319.918 30.4692C319.908 30.6177 319.888 30.7761 319.868 30.9544L327.107 34.2221L323.319 39.0347L317.094 35.6382C316.1 36.4898 314.907 37.2126 313.495 37.7969C312.083 38.3811 310.512 38.797 308.782 39.0446L305.77 33.9647C306.804 33.7666 307.768 33.5488 308.643 33.3111C309.518 33.0735 310.284 32.7962 310.92 32.4694C311.556 32.1426 312.053 31.7763 312.411 31.3703C312.759 30.9643 312.938 30.4989 312.938 29.9542V29.8849H307.052V24.0921H312.938V21.468H319.938V24.0921ZM334.942 40.2823V51.8978H309.25V40.2823H334.942ZM316.249 45.0355V47.1546H327.942V45.0355H316.249ZM334.942 33.1527V39.1139H327.942V22.7553H334.942V27.3697H337.885V33.1626H334.942V33.1527Z" fill="var(--fill-0, white)"/>
<path id="Vector_6" d="M367.564 51.2244H360.564V44.9958L355.732 46.6099C355.255 47.4615 354.718 48.1844 354.121 48.7686C353.525 49.3529 352.888 49.8282 352.232 50.2045C351.566 50.5709 350.88 50.8382 350.174 50.9967C349.468 51.1551 348.762 51.2343 348.066 51.2343C346.893 51.2343 345.729 51.0066 344.586 50.5609C343.433 50.1153 342.409 49.3529 341.494 48.2735C340.579 47.1942 339.843 45.7583 339.277 43.9462C338.71 42.144 338.431 39.8764 338.431 37.1631C338.431 34.4499 338.71 32.1823 339.277 30.38C339.843 28.5778 340.579 27.1321 341.494 26.0527C342.409 24.9734 343.433 24.2109 344.586 23.7653C345.739 23.3197 346.893 23.0919 348.066 23.0919C348.832 23.0919 349.597 23.191 350.363 23.3791C351.128 23.5672 351.864 23.8841 352.58 24.3198C353.286 24.7555 353.952 25.3299 354.578 26.0329C355.195 26.736 355.732 27.6074 356.189 28.6372L360.584 27.1915V22.7453H367.584V51.2244H367.564ZM345.391 37.1532C345.391 38.8861 345.471 40.2823 345.63 41.3617C345.789 42.4411 345.988 43.2827 346.237 43.8868C346.485 44.4908 346.773 44.9067 347.102 45.1147C347.43 45.3226 347.748 45.4316 348.066 45.4316C348.354 45.4316 348.663 45.3226 348.981 45.1147C349.299 44.8968 349.587 44.5007 349.846 43.9066C350.104 43.3125 350.313 42.4708 350.472 41.3815C350.631 40.2922 350.711 38.8762 350.711 37.1235C350.711 35.3708 350.631 33.9944 350.472 32.915C350.313 31.8357 350.104 31.0039 349.846 30.4097C349.587 29.8156 349.299 29.4096 348.981 29.2017C348.663 28.9838 348.364 28.8848 348.066 28.8848C347.748 28.8848 347.43 28.9937 347.102 29.2017C346.773 29.4096 346.485 29.8255 346.237 30.4295C345.988 31.0336 345.789 31.8753 345.63 32.9546C345.471 34.034 345.391 35.4302 345.391 37.1631V37.1532ZM357.7 37.1532C357.7 38.0543 357.671 38.8861 357.601 39.6486L360.574 38.6386V33.5587L357.561 34.5687C357.601 34.9747 357.641 35.3906 357.661 35.8263C357.681 36.262 357.691 36.7076 357.691 37.1532H357.7Z" fill="var(--fill-0, white)"/>
<path id="Vector_7" d="M396.875 23.082V38.599H379.664V23.082H386.286V25.8745H390.243V23.082H396.865H396.875ZM393.971 52.5711C391.834 52.5711 389.925 52.4523 388.254 52.2047C386.584 51.9572 385.182 51.5809 384.029 51.0759C382.875 50.5709 382 49.9173 381.394 49.1251C380.787 48.323 380.479 47.3724 380.479 46.2435C380.479 45.1147 380.787 44.1938 381.394 43.4016C382 42.6094 382.885 41.9459 384.029 41.431C385.182 40.9161 386.584 40.5398 388.254 40.3022C389.925 40.0645 391.824 39.9457 393.971 39.9457C396.119 39.9457 397.988 40.0645 399.669 40.3022C401.349 40.5398 402.761 40.9161 403.914 41.431C405.068 41.9459 405.942 42.5995 406.549 43.4016C407.155 44.1938 407.464 45.1444 407.464 46.2435C407.464 47.3427 407.155 48.323 406.549 49.1251C405.942 49.9173 405.058 50.5709 403.914 51.0759C402.761 51.5809 401.349 51.9572 399.669 52.2047C397.988 52.4523 396.089 52.5711 393.971 52.5711ZM390.253 33.4894V30.994H386.296V33.4894H390.253ZM393.971 47.7982C395.95 47.7982 397.531 47.6794 398.704 47.4318C399.877 47.1843 400.464 46.7882 400.464 46.2534C400.464 45.7187 399.877 45.3226 398.704 45.0751C397.531 44.8275 395.95 44.7087 393.971 44.7087C391.993 44.7087 390.412 44.8275 389.239 45.0751C388.065 45.3226 387.479 45.7187 387.479 46.2534C387.479 46.7882 388.065 47.1843 389.239 47.4318C390.412 47.6794 391.993 47.7982 393.971 47.7982ZM406.778 33.1527V39.4506H399.778V22.7553H406.778V27.3697H409.721V33.1626H406.778V33.1527Z" fill="var(--fill-0, white)"/>
<path id="Vector_8" d="M428.483 23.082V37.6285H411.272V23.082H417.894V25.3695H421.851V23.082H428.473H428.483ZM419.693 39.4109V41.1934H432.4V39.4109H439.4V51.8978H412.694V39.4109H419.693ZM421.861 32.6774V30.3206H417.904V32.6774H421.861ZM432.4 47.4615V45.6395H419.693V47.4615H432.4ZM429.328 33.2814V26.9142L432.4 26.2409V22.7354H439.4V38.2227H432.4V32.5982L429.328 33.2715V33.2814Z" fill="var(--fill-0, white)"/>
</g>
</g>
</svg>
