<svg overflow="visible" style="display: block;" viewBox="0 0 659.958 74.9855" fill="none" xmlns="http://www.w3.org/2000/svg">
<g id="Group">
<path id="Vector" d="M656.021 72.9856H3.93768L55.7901 2H604.168L656.021 72.9856Z" fill="var(--fill-0, #FC5693)" stroke="var(--stroke-0, #1D1D1D)" stroke-width="4" stroke-miterlimit="10"/>
<g id="Group_2">
<path id="Vector_2" d="M214.883 24.6616H230.193C231.381 24.6616 232.489 24.8222 233.527 25.1433C234.564 25.4645 235.46 25.9462 236.216 26.5986C236.971 27.2509 237.566 28.0839 237.999 29.1076C238.432 30.1313 238.653 31.3356 238.653 32.7206C238.653 34.1056 238.482 35.2497 238.14 36.2232C237.797 37.1867 237.284 38.0096 236.599 38.6821C235.914 39.3545 235.068 39.9065 234.05 40.3581C233.033 40.7997 231.865 41.171 230.545 41.4721L222.014 43.3489V51.8796H214.893V24.6817L214.883 24.6616ZM231.552 32.8912C231.552 32.2589 231.341 31.7069 230.918 31.2352C230.495 30.7736 229.931 30.5327 229.226 30.5327H222.004V37.1164L228.511 35.9221C229.679 35.7214 230.475 35.34 230.908 34.7981C231.341 34.2561 231.562 33.6138 231.562 32.8912H231.552Z" fill="var(--fill-0, white)"/>
<path id="Vector_3" d="M241.212 38.2405C241.212 36.153 241.594 34.226 242.36 32.4697C243.125 30.7134 244.173 29.2079 245.513 27.9534C246.852 26.6889 248.434 25.7053 250.257 25.0028C252.08 24.3003 254.044 23.949 256.149 23.949C258.979 23.949 261.427 24.5211 263.482 25.6752C265.536 26.8294 267.39 28.5255 269.032 30.7736L264.338 34.6977C263.492 33.1923 262.424 31.998 261.135 31.1148C259.846 30.2316 258.244 29.78 256.32 29.78C255.132 29.78 254.044 30.0008 253.067 30.4324C252.09 30.8639 251.244 31.4661 250.549 32.2288C249.854 32.9916 249.31 33.8948 248.927 34.9285C248.534 35.9623 248.343 37.0763 248.343 38.2505C248.343 39.4247 248.534 40.5387 248.907 41.5624C249.28 42.5861 249.824 43.4793 250.539 44.2421C251.244 45.0048 252.1 45.607 253.087 46.0385C254.084 46.4701 255.182 46.6909 256.391 46.6909C257.368 46.6909 258.254 46.5805 259.04 46.3497C259.825 46.1188 260.551 45.7876 261.195 45.3561C261.84 44.9245 262.434 44.4026 262.978 43.7904C263.512 43.1782 264.016 42.4857 264.469 41.713L269.062 45.7776C267.511 47.9354 265.698 49.6114 263.633 50.7957C261.568 51.9799 259.07 52.5721 256.149 52.5721C254.044 52.5721 252.09 52.2208 250.257 51.5183C248.434 50.8157 246.852 49.8322 245.513 48.5676C244.173 47.3031 243.125 45.7977 242.36 44.0514C241.594 42.2951 241.212 40.3782 241.212 38.2806V38.2405Z" fill="var(--fill-0, white)"/>
<path id="Vector_4" d="M288.471 23.3669V39.0935H271.036V23.3669H277.744V26.1971H281.753V23.3669H288.461H288.471ZM285.53 53.2545C283.364 53.2545 281.431 53.1341 279.738 52.8832C278.046 52.6323 276.626 52.2509 275.458 51.7391C274.289 51.2272 273.403 50.5648 272.789 49.7619C272.174 48.949 271.862 47.9855 271.862 46.8414C271.862 45.6973 272.174 44.764 272.789 43.9611C273.403 43.1582 274.299 42.4857 275.458 41.9639C276.626 41.442 278.046 41.0606 279.738 40.8198C281.431 40.5789 283.354 40.4584 285.53 40.4584C287.706 40.4584 289.599 40.5789 291.301 40.8198C293.004 41.0606 294.434 41.442 295.602 41.9639C296.771 42.4857 297.657 43.1481 298.272 43.9611C298.886 44.764 299.198 45.7274 299.198 46.8414C299.198 47.9554 298.886 48.949 298.272 49.7619C297.657 50.5648 296.761 51.2272 295.602 51.7391C294.434 52.2509 293.004 52.6323 291.301 52.8832C289.599 53.1341 287.675 53.2545 285.53 53.2545ZM281.763 33.9149V31.3858H277.754V33.9149H281.763ZM285.53 48.4171C287.534 48.4171 289.136 48.2967 290.324 48.0458C291.513 47.7949 292.107 47.3934 292.107 46.8515C292.107 46.3095 291.513 45.9081 290.324 45.6572C289.136 45.4063 287.534 45.2858 285.53 45.2858C283.526 45.2858 281.924 45.4063 280.736 45.6572C279.547 45.9081 278.953 46.3095 278.953 46.8515C278.953 47.3934 279.547 47.7949 280.736 48.0458C281.924 48.2967 283.526 48.4171 285.53 48.4171ZM298.503 33.5737V39.9566H291.412V23.0357H298.503V27.7126H301.485V33.5837H298.503V33.5737Z" fill="var(--fill-0, white)"/>
<path id="Vector_5" d="M324.057 24.3906H330.362V30.2617H324.057V30.3621C324.057 30.5428 324.057 30.7134 324.037 30.8539C324.027 31.0044 324.006 31.165 323.986 31.3456L331.319 34.6576L327.481 39.5351L321.176 36.0927C320.169 36.9558 318.96 37.6885 317.53 38.2806C316.1 38.8727 314.508 39.2943 312.756 39.5452L309.704 34.3966C310.751 34.1959 311.728 33.9751 312.615 33.7342C313.501 33.4934 314.276 33.2124 314.921 32.8812C315.566 32.55 316.069 32.1786 316.432 31.7672C316.784 31.3557 316.966 30.884 316.966 30.332V30.2617H311.003V24.3906H316.966V21.731H324.057V24.3906ZM339.256 40.7997V52.5721H313.229V40.7997H339.256ZM320.32 45.617V47.7648H332.165V45.617H320.32ZM339.256 33.5737V39.6154H332.165V23.0357H339.256V27.7126H342.237V33.5837H339.256V33.5737Z" fill="var(--fill-0, white)"/>
<path id="Vector_6" d="M372.303 51.8896H365.212V45.5769L360.317 47.2128C359.834 48.0759 359.29 48.8085 358.685 49.4006C358.081 49.9928 357.436 50.4745 356.772 50.8559C356.097 51.2272 355.402 51.4982 354.687 51.6588C353.972 51.8193 353.256 51.8996 352.551 51.8996C351.363 51.8996 350.184 51.6688 349.026 51.2172C347.858 50.7656 346.82 49.9928 345.894 48.8988C344.967 47.8049 344.222 46.3497 343.647 44.513C343.073 42.6865 342.791 40.3882 342.791 37.6383C342.791 34.8884 343.073 32.5901 343.647 30.7635C344.222 28.937 344.967 27.4717 345.894 26.3778C346.82 25.2838 347.858 24.511 349.026 24.0594C350.194 23.6078 351.363 23.377 352.551 23.377C353.327 23.377 354.102 23.4773 354.878 23.668C355.654 23.8587 356.399 24.1798 357.124 24.6214C357.839 25.063 358.514 25.6451 359.149 26.3577C359.773 27.0703 360.317 27.9534 360.78 28.9972L365.232 27.5319V23.0257H372.323V51.8896H372.303ZM349.842 37.6283C349.842 39.3846 349.922 40.7997 350.084 41.8936C350.245 42.9876 350.446 43.8406 350.698 44.4528C350.95 45.065 351.242 45.4866 351.574 45.6973C351.907 45.9081 352.229 46.0185 352.551 46.0185C352.843 46.0185 353.156 45.9081 353.478 45.6973C353.8 45.4765 354.092 45.0751 354.354 44.4729C354.616 43.8707 354.828 43.0177 354.989 41.9137C355.15 40.8097 355.231 39.3745 355.231 37.5982C355.231 35.8218 355.15 34.4267 354.989 33.3328C354.828 32.2389 354.616 31.3958 354.354 30.7937C354.092 30.1915 353.8 29.78 353.478 29.5692C353.156 29.3485 352.854 29.2481 352.551 29.2481C352.229 29.2481 351.907 29.3585 351.574 29.5692C351.242 29.78 350.95 30.2015 350.698 30.8137C350.446 31.4259 350.245 32.279 350.084 33.3729C349.922 34.4669 349.842 35.882 349.842 37.6383V37.6283ZM362.311 37.6283C362.311 38.5415 362.281 39.3846 362.211 40.1574L365.222 39.1337V33.9851L362.17 35.0088C362.211 35.4203 362.251 35.8418 362.271 36.2834C362.291 36.725 362.301 37.1766 362.301 37.6283H362.311Z" fill="var(--fill-0, white)"/>
<path id="Vector_7" d="M401.996 23.3669V39.0935H384.561V23.3669H391.269V26.1971H395.278V23.3669H401.986H401.996ZM399.055 53.2545C396.89 53.2545 394.956 53.1341 393.264 52.8832C391.572 52.6323 390.151 52.2509 388.983 51.7391C387.815 51.2272 386.928 50.5648 386.314 49.7619C385.699 48.949 385.387 47.9855 385.387 46.8414C385.387 45.6973 385.699 44.764 386.314 43.9611C386.928 43.1582 387.825 42.4857 388.983 41.9639C390.151 41.442 391.572 41.0606 393.264 40.8198C394.956 40.5789 396.88 40.4584 399.055 40.4584C401.231 40.4584 403.125 40.5789 404.827 40.8198C406.529 41.0606 407.959 41.442 409.128 41.9639C410.296 42.4857 411.182 43.1481 411.797 43.9611C412.411 44.764 412.724 45.7274 412.724 46.8414C412.724 47.9554 412.411 48.949 411.797 49.7619C411.182 50.5648 410.286 51.2272 409.128 51.7391C407.959 52.2509 406.529 52.6323 404.827 52.8832C403.125 53.1341 401.201 53.2545 399.055 53.2545ZM395.288 33.9149V31.3858H391.28V33.9149H395.288ZM399.055 48.4171C401.06 48.4171 402.661 48.2967 403.85 48.0458C405.038 47.7949 405.633 47.3934 405.633 46.8515C405.633 46.3095 405.038 45.9081 403.85 45.6572C402.661 45.4063 401.06 45.2858 399.055 45.2858C397.051 45.2858 395.449 45.4063 394.261 45.6572C393.072 45.9081 392.478 46.3095 392.478 46.8515C392.478 47.3934 393.072 47.7949 394.261 48.0458C395.449 48.2967 397.051 48.4171 399.055 48.4171ZM412.029 33.5737V39.9566H404.938V23.0357H412.029V27.7126H415.01V33.5837H412.029V33.5737Z" fill="var(--fill-0, white)"/>
<path id="Vector_8" d="M434.016 23.3669V38.11H416.581V23.3669H423.289V25.6853H427.298V23.3669H434.006H434.016ZM425.112 39.9165V41.723H437.985V39.9165H445.076V52.5721H418.022V39.9165H425.112ZM427.308 33.0919V30.7033H423.299V33.0919H427.308ZM437.985 48.0759V46.2292H425.112V48.0759H437.985ZM434.873 33.7041V27.2509L437.985 26.5684V23.0157H445.076V38.7122H437.985V33.0116L434.873 33.6941V33.7041Z" fill="var(--fill-0, white)"/>
</g>
</g>
</svg>
