<svg overflow="visible" style="display: block;" viewBox="0 0 1359.94 865" fill="none" xmlns="http://www.w3.org/2000/svg">
<g id="Group" opacity="0.09">
<path id="Vector" d="M179.41 221.5C194.03 296.81 213.77 371.08 238.81 443.12C255.23 490.35 276.07 539.62 314.96 570.16C349.83 597.54 396.67 607.75 435.08 582.47C497.67 541.28 480.17 467.56 483.5 401.8C484.47 382.71 485.64 363.53 487.64 344.53C489.99 322.24 495.3 301.98 511.91 286.95C530.96 269.72 556.08 268.87 579.75 270.47C612.75 272.7 643.16 278.91 674.35 262.96C735.02 231.92 752.99 156.12 758.36 89.9C759.93 70.55 761.1 51.09 760.68 31.66C760.47 21.89 759.83 12.13 758.62 2.44C758.52 1.62 758.42 0.820004 758.32 0.0200043H714.6C717.48 5.62 720.05 11.41 722.39 17.15C731.4 39.26 736.57 64.62 737.37 90.26C739.27 151.12 716.54 213.55 662.09 237.89C603.48 264.08 543.08 240.78 486.89 220.07C466.72 212.64 430.07 204.58 418.82 231.15C415 240.17 416.11 250.64 417.69 260.41C422.68 291.29 431.43 321.36 439.67 351.37C447.88 381.29 460.28 411.7 463.48 442.83C465.68 464.18 462.09 486.72 451.08 504.9C439.13 524.64 419.6 538.08 397.91 541.11C317.79 552.3 279.01 428.4 259.19 365.72C239.18 302.44 226.87 236.71 216.94 170.83C212.31 140.13 208.31 109.74 206.11 78.83C204.89 61.62 204.01 44.37 203.51 27.12C203.43 24.36 204.05 11.72 204.28 0.0200043H151.75C156.11 74.45 165.22 148.49 179.39 221.5H179.41Z" fill="var(--fill-0, #373737)"/>
<path id="Vector_2" d="M323.27 402.16C334.51 432.78 351.61 473.76 385.09 480.96C396.75 483.47 408.53 480.04 417.1 471.08C435.29 452.01 434.73 420.75 429.66 396.67C426.26 380.54 420.64 365.09 414.87 349.82C408.73 333.56 402.54 317.34 396.38 301.09C384.59 269.99 372.29 236.52 378.36 202.29C382.45 179.26 396.44 157.23 417.03 149.71C448.27 138.3 486.07 158.74 512.9 174.8C532.31 186.42 549.92 201.64 571.99 206.87C632.05 221.1 696.95 198.8 704.21 125.95C707.35 94.34 702.39 59.94 695.46 36.18C691.84 23.76 687.23 11.6 681.67 0.0299988H648.96C652.75 5.08 656.38 10.27 659.82 15.57C674.26 37.84 684.69 67.75 684.32 95.94C683.99 121.32 674.92 145.3 652.15 161.02C605.2 193.43 547.02 137.79 514.65 105.07C482.25 72.32 431.73 8.66 380.93 40.88C308.62 86.74 344.55 225.5 370.87 289.63C380.81 313.85 422.61 384.18 397.35 410.02C393.1 414.36 386.66 414.74 381.21 413.44C354.64 407.07 346 365.81 337.59 342.72C298.33 234.99 282.35 112.88 310.36 0.0100021H245.4C253.06 94.76 264.86 190.42 287.38 282.41C297.25 322.71 309.03 363.34 323.28 402.15L323.27 402.16Z" fill="var(--fill-0, #373737)"/>
<path id="Vector_3" d="M126.35 0.0200043H109.72C107.88 5.39 106.2 10.83 104.73 16.33C92.52 61.97 93.47 110.56 100.37 157.1C107.56 205.6 121.28 252.58 133.65 299.74C139.95 323.75 146.15 347.92 150.56 372.42C154.32 393.32 155.25 418.59 145.9 437.71C141.9 445.89 136.01 452.95 127.66 458.06C120.05 462.71 111.48 464.86 102.86 466C59.58 471.76 30.79 477.82 2.46 516.23C1.63 517.36 0.81 518.5 0 519.65V584.99C17.84 563.49 42.41 548.03 67.97 539.94C94 531.69 121.37 529.89 148.36 531.28C163.47 532.06 178.97 536.5 194.11 534.27C214.74 531.22 226.15 516.41 226.41 494.42C226.87 454.77 197.12 398.42 187.4 374.56C176.47 347.74 165.41 320.96 156.83 293.13C147.87 264.1 141.22 234.31 135.7 204.32C130.23 174.59 125.74 144.65 121.39 114.71C117.25 86.22 113.67 56.53 119.39 27.98C121.38 18.05 124.77 9.77 126.37 0L126.35 0.0200043Z" fill="var(--fill-0, #373737)"/>
<path id="Vector_4" d="M893.67 843.65C886.15 824.31 878.02 805.19 868.22 787.06C849.51 752.44 824.17 721.64 789.88 704.79C759.17 689.7 722.75 686.93 692.39 704.64C663.57 721.44 641.13 753.19 608.1 761.01C569.38 770.17 533.07 736.14 497.2 726.34C460.07 716.19 421.51 720.75 383.7 722.94C345.5 725.15 305.24 725.59 270.36 706.16C235.34 686.67 211.23 651.9 183.27 623.1C155.05 594.05 118.86 567.92 78.06 574.67C47.15 579.78 20.48 599.76 0.02 624.18V717.54C38.57 671.86 89.91 628.44 150.05 654.96C218.08 684.96 243.11 776.66 327.28 774.08C363.71 772.96 398.69 759.08 435.14 758.15C451.93 757.72 468.39 760.58 483.87 767.72C499.34 774.85 513.38 784.94 528.29 793.25C543.99 802.01 560.96 808.42 578.86 805.66C598.03 802.71 614.99 791.43 630.86 780.12C659.75 759.53 689.06 734.81 723.81 727.4C757.88 720.13 789.88 734.88 813.37 761.45C826.17 775.93 836 793.14 844.31 810.94C851.71 826.79 859.54 843.73 864.47 860.69C864.9 862.16 865.27 863.59 865.58 864.98H902.6C899.64 857.39 896.17 850.08 893.67 843.66V843.65Z" fill="var(--fill-0, #373737)"/>
<path id="Vector_5" d="M486.7 812.67C462.34 802.73 435.68 799.96 409.86 802.6C396.68 803.94 383.72 806.72 370.97 810.53C357.63 814.52 344.48 819.32 330.94 822.52C273.17 836.13 249.98 791.32 218.95 748.88C205.88 731.03 190.32 714.26 170.5 705.51C136.01 690.29 88.88 704.7 56.59 720.51C37 730.1 17.52 745.57 0.00999999 763.68V864.99H37.62C41.19 857.59 43.59 849.36 45.33 841.51C51.7 812.78 58.49 781.34 80.44 760.6C105.48 736.94 144.31 741.52 168.01 765.59C186.64 784.51 196.12 811.37 213.8 831.53C225.1 844.41 237.95 855.7 251.95 865H550.54C547.57 860.45 544.34 856.09 540.87 851.97C526.11 834.4 507.21 821.06 486.71 812.7L486.7 812.67Z" fill="var(--fill-0, #373737)"/>
<path id="Vector_6" d="M1359.93 560.55V667.09C1352.98 660.81 1346.98 654.83 1343.38 652.24C1323.19 637.73 1293.58 627.35 1272.46 644.37C1230.32 678.32 1194.01 721.47 1153.64 757.98C1135.97 773.96 1118.3 790.93 1098.12 803.18C1065.22 823.14 1025.47 828.07 988.62 821C946.5 812.91 926.6 790.65 898.3 758.52C870.07 726.47 846.96 682.1 809.38 662.34C774.65 644.08 731.38 642.08 696.14 659.86C678.56 668.73 665.24 682.1 652.05 697.12C640.52 710.24 627.37 724.99 609.84 727.33C600.55 728.57 591.06 725.91 583.55 719.86C575.85 713.66 571.11 704.46 564.66 696.96C549.52 679.33 526.16 680 505.86 683.83C482.41 688.25 459.42 695.25 435.99 699.91C393.01 708.46 347.49 711.86 306.04 694.14C277.4 681.9 252.91 659.71 236.23 631.78C227.57 617.29 226.8 599.08 242.77 590.18C259.98 580.6 282.98 596.91 296.83 606.85C316.18 620.75 335.33 632.92 357.71 640.8C387.1 651.16 417.24 651.55 447.12 643.28C476.54 635.13 504.01 620.61 531.25 606.43C580.66 580.72 638.95 552.5 694.5 571.93C707.13 576.35 718.41 583.57 729.76 590.85C741.72 598.52 754.41 606.62 768.56 608.05C783.75 609.58 797.59 602.28 811.74 597.64C823.44 593.8 835.73 591.68 847.98 591.7C871.23 591.73 894.79 600.06 909.99 619.85C918.87 631.41 924.49 645.22 930.35 658.7C946.37 695.55 972.67 733.44 1009.67 748.64C1036.42 759.63 1065.62 756.59 1091.71 744.91C1147.74 719.83 1180.82 662.59 1217.71 614.01C1234.28 592.19 1253.14 570.78 1277.18 558.7C1299.94 547.27 1326 546.05 1349.56 555.56C1353.13 557 1356.59 558.67 1359.94 560.54L1359.93 560.55Z" fill="var(--fill-0, #373737)"/>
<path id="Vector_7" d="M1359.93 804.15C1354.15 808.74 1346.55 810.83 1337.79 809.15C1325.07 806.71 1314.92 798.21 1301.84 796.9C1294.62 796.18 1287.32 796.77 1280.18 798.01C1265.15 800.6 1250.59 805.67 1235.51 807.99C1228.46 809.07 1212.48 809.71 1216.28 796.54C1218.57 788.63 1233.19 786.38 1239.23 783.06C1244.89 779.95 1250.27 776.2 1255.2 771.87C1266.77 761.71 1273.74 748.88 1281.14 735.16C1300.87 698.58 1339.87 715.76 1359.94 743.65V685.43C1358.68 684.65 1357.37 683.99 1356.02 683.47C1355.79 683.23 1355.51 683.03 1355.15 682.9C1343.51 678.8 1331.43 676.21 1319.22 675.15C1301.02 673.57 1283.6 676.38 1270.64 691.45C1261.99 701.5 1256.81 714.1 1250.51 725.85C1245.49 735.21 1239.31 743.58 1232.19 751.2C1224.98 758.92 1217.1 765.85 1209.18 772.68C1196.92 783.26 1180.63 794.51 1172.36 809.14C1163.94 824.03 1166.31 839.7 1180.93 846.87C1191 851.8 1202.15 852.68 1213.02 851.14C1251.06 845.74 1281.33 815.8 1320.45 832.52C1334.59 838.56 1348.46 841.91 1359.93 838.98V804.16V804.15Z" fill="var(--fill-0, #373737)"/>
<path id="Vector_8" d="M808.5 91.21C807.65 133.11 798.76 175.11 781.67 212.82C766.61 246.07 744.22 277.39 713.41 294.96C696.04 304.86 676.69 309.17 657.11 308.98C646.38 308.87 635.69 307.52 625.16 305.3C603.72 300.77 580.59 289.94 558.61 296.57C535.55 303.54 528.4 328.09 525.57 351.12C520.38 393.34 530.15 436.74 520.86 478.5C516.84 496.56 505.07 512.26 502.61 530.53C499.32 554.94 518.19 567.46 538.72 563.47C548.33 561.6 557.7 557.52 566.82 553.83C592.83 543.32 614.68 527.8 624.95 499.29C628.42 489.67 630.82 479.67 633.71 469.86C636.21 461.36 639.06 452.96 642.42 444.82C656.46 410.78 680.49 381.19 717.35 379.47C763.54 377.32 809.3 392.88 855.57 393.03C896.46 393.16 954.94 389.22 984.63 354.17C1009.85 324.41 1008.09 278.86 1008.58 241.26C1009.17 195.77 1041.18 164.51 1074.2 141.77C1116.88 112.37 1166.35 87.3 1217.88 86.23C1265.69 85.24 1314.84 97.22 1359.92 117.61V88.25C1355.65 86.48 1351.48 84.61 1347.51 82.98C1268.53 50.39 1178.58 43.03 1099.45 79.06C1064.56 94.95 1032.61 118.76 1007.74 149.69C993.58 167.29 984.21 187.93 978.62 210.35C973.27 231.81 973.77 255.71 966.47 276.39C953.84 312.21 923.59 336.8 888.64 341.71C845.4 347.79 801.6 336.52 757.98 341.44C721.29 345.58 683.23 358.17 652.3 381.47C637.48 392.64 621.93 408.85 612 425.27C602.03 441.76 601.37 463.95 587.79 478.08C570.1 496.49 570.65 446.82 570.47 440.79C569.58 409.84 559.05 347.85 593.42 332.57C609.67 325.34 628.15 329.59 645 331.35C685.56 335.6 728.71 331.03 762.98 305.27C794 281.95 814.23 245.48 828.69 208.55C853.63 144.87 868.95 66.85 847.01 0.0299988H797.3C805.38 29.55 809.11 60.43 808.48 91.21H808.5Z" fill="var(--fill-0, #373737)"/>
<path id="Vector_9" d="M893.59 62.79C893.06 96.49 891.09 131.65 884.25 164.59C879.9 185.53 872.93 206.16 861.99 224.17C850.19 243.6 829.77 271.64 848.17 294.48C863.54 313.56 891.38 307.99 909.22 296.44C932.17 281.58 938.35 254.82 938.14 227.34C937.78 179.31 938.61 141.68 973.96 107.17C1072.38 11.08 1241.01 8.44 1359.93 49.64V0.0200043H1070.13C1061.94 4.5 1053.74 8.95 1045.72 13.86C1027.46 25.06 1012 40.72 995.93 55.11C982.34 67.28 966.64 86.79 947.71 89.53C920.71 93.45 924.04 63.2 925.49 43.17C926.61 27.67 926.84 14.08 925.62 0.0100021H886.78C891.79 20.36 893.93 41.43 893.59 62.77V62.79Z" fill="var(--fill-0, #373737)"/>
<path id="Vector_10" d="M1133.94 149.72C1099.82 162.87 1068.2 186.08 1047.32 218.39C1036.88 234.55 1029.65 252.8 1026.09 272.13C1022.17 293.37 1021.82 315.11 1019.27 336.55C1015.71 366.44 1006.48 392.69 982.46 409.57C948.96 433.1 912.41 431.37 874.29 428.02C818.01 423.08 732.78 404.39 687.78 447.95C675.44 459.89 666.79 476.83 666.26 494.71C663.98 571.49 817.19 543.12 854.23 546.88C882.81 549.78 910.87 558.91 929.02 584.5C957.49 624.67 957.75 677.83 996.37 711.91C1034.55 745.61 1088.77 725.48 1121.88 694.5C1154.77 663.73 1178.29 621.29 1195.75 578.73C1209.42 545.42 1231.12 523.6 1261.07 507.22C1284.34 494.49 1310.07 487.29 1336.08 485.56C1343.63 485.06 1351.73 486 1359.94 487.17V468.97C1359.17 468.72 1358.39 468.47 1357.62 468.21C1323.16 457.09 1284.78 458.03 1251.8 474.15C1186.51 506.05 1181.2 577.96 1140.42 632.84C1122.33 657.18 1096.51 676.11 1066.97 678.04C1019.79 681.13 1011.57 641.63 1001.32 601.37C996.4 582.05 990.24 561.45 974.25 549.62C952.88 533.81 923.55 532.07 898.79 527.44C865.23 521.17 831.04 518.86 797.02 520.54C764.58 522.14 734.68 525.43 703.52 512.37C683.38 503.93 681.47 483.08 700.65 471.14C761.38 433.33 835.31 433.47 902.51 444.46C938.65 450.37 974.69 456.82 1010.88 462.29C1037.8 466.36 1078.62 476.82 1093.22 443.08C1105.74 414.15 1091.39 382.68 1079.2 356.95C1072.05 341.86 1064.86 326.35 1062.29 309.46C1060.14 295.34 1061.19 280.83 1064.95 267.12C1072.8 238.41 1091.51 213.53 1114.61 197.31C1140.83 178.92 1172.33 171.14 1203.17 168.76C1234.51 166.35 1266.75 168.36 1297.59 174.82C1319.23 179.35 1340.49 186.66 1359.93 197.79V157.24C1333.54 147.37 1304.28 142.67 1278.74 139.41C1232.44 133.5 1178.35 132.61 1133.94 149.72Z" fill="var(--fill-0, #373737)"/>
<path id="Vector_11" d="M1147.27 237.66C1117.37 268.59 1121.92 309.58 1127.99 349.61C1131.55 373.02 1134.19 396.83 1130.4 420.43C1127.14 440.66 1119.21 459.96 1105.46 474.44C1099.24 480.99 1091.89 486.47 1083.77 489.93C1049.88 504.36 1010.58 486.47 976.44 481.58C933.32 475.4 889.86 473.73 846.7 468.06C822.83 464.92 797.98 458.77 774.33 466.74C747.69 475.72 775.67 490.67 790.5 495.34C819.62 504.52 851.49 501.26 880.7 504.92C914.16 509.11 948.59 511.13 980.39 524.14C1010.05 536.28 1032.91 569.24 1040.1 602.1C1046.39 630.84 1065.62 649.7 1091.65 627.95C1117.08 606.7 1131.57 565.26 1145.85 535.18C1161.54 502.12 1177.83 468.83 1202.1 442.01C1219.4 422.89 1244.11 414.84 1268.18 411.97C1297.37 408.48 1325.36 417.16 1349.96 434.29C1353.49 436.75 1356.73 439.6 1359.92 442.4V422.55C1343.65 418.21 1331.15 402.75 1316.67 394.66C1282.83 375.77 1249.45 372.35 1212.03 374.96C1162.71 378.4 1159.91 316.42 1189.39 286.13C1210.77 264.16 1243.37 270.84 1266.76 284.67C1275.44 289.8 1283.6 295.85 1291.71 301.97C1313.64 318.51 1335.44 335.25 1357.27 351.97C1358.17 352.66 1359.06 353.32 1359.93 353.96V304.75C1347.94 293.36 1335.77 282.72 1325.19 272.57C1280.72 229.89 1200.04 183.07 1147.27 237.65V237.66Z" fill="var(--fill-0, #373737)"/>
<path id="Vector_12" d="M810.22 864.97H638.79C638.75 864.13 638.77 863.28 638.87 862.44C639.35 858.39 641.39 854.76 644.12 851.98C653.3 842.65 668.1 842.84 678.4 834.78C687.99 827.28 694.77 816.28 699.43 804.69C706.14 788.04 710.19 768.93 729.04 764.27C754.12 758.07 771.3 784.05 779.58 805.64C786.7 824.22 789.73 843.9 804.41 857.82C806.52 859.82 808.85 861.75 810.03 864.51C810.1 864.67 810.16 864.82 810.22 864.97Z" fill="var(--fill-0, #373737)"/>
<path id="Vector_13" d="M612.26 89.89C562.94 97.96 519.2 46.14 490.68 0.0200043H604.96C636.07 37.84 660.28 82.03 612.27 89.89H612.26Z" fill="var(--fill-0, #373737)"/>
</g>
</svg>
