<svg overflow="visible" style="display: block;" viewBox="0 0 1311.2 32.81" fill="none" xmlns="http://www.w3.org/2000/svg">
<g id="Group">
<path id="Vector" d="M1297.2 5.47C1289.47 5.47 1283.2 11.59 1283.2 19.14C1283.2 26.69 1289.47 32.81 1297.2 32.81C1304.93 32.81 1311.2 26.7 1311.2 19.14C1311.2 11.58 1304.94 5.47 1297.2 5.47ZM1305.73 24.36L1302.55 27.47L1297.2 22.25L1291.86 27.47L1288.67 24.36L1294.02 19.14L1288.67 13.93L1291.86 10.82L1297.2 16.04L1302.55 10.82L1305.73 13.93L1300.39 19.14L1305.73 24.36Z" fill="var(--fill-0, #1D1D1D)"/>
<path id="Vector_2" d="M14 0C6.27 0 0 6.27 0 13.99C0 21.71 6.27 27.98 14 27.98C21.73 27.98 28 21.72 28 13.99C28 6.26 21.74 0 14 0ZM22.53 19.34L19.35 22.53L14 17.18L8.66 22.53L5.47 19.34L10.82 13.99L5.47 8.65L8.66 5.46L14 10.81L19.35 5.46L22.53 8.65L17.19 13.99L22.53 19.34Z" fill="var(--fill-0, #1D1D1D)"/>
</g>
</svg>
