<svg overflow="visible" style="display: block;" viewBox="0 0 395 30" fill="none" xmlns="http://www.w3.org/2000/svg">
<g id="&#236;&#176;&#184;&#236;&#151;&#172; &#235;&#140;&#128;&#236;&#131;&#129; : &#237;&#148;&#188;&#236;&#185;&#180;&#237;&#148;&#140;&#235;&#160;&#136;&#236;&#157;&#180; &#237;&#154;&#140;&#236;&#155;&#144;" clip-path="url(#clip0_0_70)">
<path id="Vector" d="M13.6004 2.53238H19.5716V8.11529H13.6004V8.21244C13.6004 8.38731 13.6004 8.54275 13.5809 8.68523C13.568 8.82772 13.555 8.98316 13.5291 9.15803L20.4783 12.3057L16.845 16.9495L10.8738 13.6723C9.92179 14.4948 8.769 15.1878 7.41544 15.7513C6.06188 16.3148 4.55288 16.7163 2.88846 16.9495L0 12.0466C0.99736 11.8523 1.917 11.6386 2.75893 11.4119C3.60086 11.1852 4.33269 10.9132 4.94794 10.6023C5.5632 10.2915 6.04245 9.93523 6.37922 9.54663C6.71599 9.15803 6.88438 8.70466 6.88438 8.18005V8.11529H1.23051V2.53238H6.8779V0H13.6004V2.53238ZM28.0168 18.1477V29.3459H3.3418V18.1477H28.0103H28.0168ZM10.0643 22.7267V24.7733H21.2943V22.7267H10.0643ZM28.0168 11.263V17.0078H21.2943V1.23705H28.0168V5.68653H30.8405V11.2694H28.0168V11.263Z" fill="var(--fill-0, #1D1D1D)"/>
<path id="Vector_2" d="M60.1525 28.6982H53.43V22.6943L48.7865 24.2552C48.3331 25.0777 47.815 25.7707 47.2451 26.3342C46.6687 26.8977 46.0664 27.3575 45.4252 27.7137C44.7841 28.0699 44.13 28.3225 43.4435 28.478C42.7634 28.6269 42.0834 28.7047 41.4164 28.7047C40.2895 28.7047 39.1755 28.4909 38.0746 28.057C36.9736 27.6231 35.9827 26.8912 35.1019 25.8484C34.2276 24.8122 33.5152 23.4197 32.9777 21.6775C32.4336 19.9352 32.1681 17.7526 32.1681 15.136C32.1681 12.5194 32.4401 10.3368 32.9777 8.59456C33.5152 6.85233 34.2276 5.45984 35.1019 4.42358C35.9762 3.38731 36.9671 2.64896 38.0746 2.21503C39.182 1.78109 40.296 1.56736 41.4164 1.56736C42.1547 1.56736 42.8865 1.65803 43.6248 1.84585C44.3631 2.03368 45.069 2.33161 45.7491 2.75259C46.4291 3.17358 47.0702 3.72409 47.6661 4.41062C48.2619 5.09067 48.7735 5.93264 49.2074 6.92358L53.43 5.52461V1.23705H60.1525V28.7047V28.6982ZM38.8582 15.1295C38.8582 16.794 38.9359 18.1477 39.0849 19.1904C39.2338 20.2267 39.4281 21.0427 39.6677 21.6256C39.9074 22.2085 40.1794 22.6036 40.4967 22.8109C40.8076 23.0181 41.1184 23.1218 41.4228 23.1218C41.7013 23.1218 41.9928 23.0181 42.2971 22.8109C42.6015 22.6036 42.8735 22.215 43.1261 21.6451C43.3722 21.0751 43.573 20.2591 43.7284 19.2098C43.8839 18.1606 43.9551 16.794 43.9551 15.1036C43.9551 13.4132 43.8774 12.0855 43.7284 11.0427C43.5795 10.0065 43.3787 9.19689 43.1261 8.62694C42.88 8.05699 42.6015 7.66192 42.2971 7.46114C41.9928 7.25389 41.7013 7.15026 41.4228 7.15026C41.1184 7.15026 40.8141 7.25389 40.4967 7.46114C40.1859 7.66839 39.9074 8.06347 39.6677 8.64637C39.4281 9.22928 39.2338 10.0453 39.0849 11.0816C38.9359 12.1179 38.8582 13.4715 38.8582 15.1425V15.1295ZM50.6711 15.1295C50.6711 15.9974 50.6387 16.794 50.5739 17.5324L53.43 16.5609V11.658L50.5416 12.6295C50.5869 13.0181 50.6193 13.4262 50.6387 13.8472C50.6581 14.2681 50.6711 14.6956 50.6711 15.1295Z" fill="var(--fill-0, #1D1D1D)"/>
<path id="Vector_3" d="M88.2988 1.88472V7.46762H79.6982V22.7915H88.6226V28.3744H73.3967V1.88472H88.2988ZM89.7559 28.6982V1.23705H96.051V11.6256L97.7737 11.0427V1.23705H104.101V28.7047H97.7737V17.1826L96.051 17.7655V28.7047H89.7559V28.6982Z" fill="var(--fill-0, #1D1D1D)"/>
<path id="Vector_4" d="M119.431 6.26295C119.431 6.91062 119.366 7.53886 119.236 8.14767L125.991 12.3057L122.358 16.9495L116.354 13.2513C115.448 14.0738 114.36 14.8057 113.09 15.4404C111.827 16.0816 110.37 16.5803 108.725 16.9495L105.837 12.0466C106.918 11.8523 107.89 11.5609 108.745 11.1723C109.6 10.7837 110.318 10.3368 110.901 9.82513C111.484 9.31347 111.931 8.75648 112.248 8.13471C112.559 7.51943 112.721 6.88471 112.721 6.23705V1.1658H119.444V6.26295H119.431ZM121.542 30C119.489 30 117.656 29.8834 116.056 29.6438C114.457 29.4041 113.103 29.0414 111.996 28.5557C110.888 28.0699 110.046 27.4417 109.464 26.671C108.881 25.9003 108.589 24.9741 108.589 23.8925C108.589 22.8109 108.881 21.9171 109.464 21.1464C110.046 20.3756 110.895 19.7474 111.996 19.2487C113.097 18.75 114.45 18.3873 116.056 18.1606C117.656 17.9339 119.489 17.8174 121.542 17.8174C123.595 17.8174 125.402 17.9339 127.014 18.1606C128.627 18.3873 129.987 18.75 131.088 19.2487C132.189 19.7474 133.038 20.3821 133.62 21.1464C134.203 21.9171 134.495 22.8303 134.495 23.8925C134.495 24.9547 134.203 25.9003 133.62 26.671C133.038 27.4417 132.189 28.0699 131.088 28.5557C129.981 29.0414 128.627 29.4041 127.014 29.6438C125.402 29.8834 123.576 30 121.542 30ZM121.542 25.3886C123.446 25.3886 124.961 25.272 126.088 25.0324C127.215 24.7927 127.779 24.4171 127.779 23.899C127.779 23.3808 127.215 22.9987 126.088 22.7655C124.961 22.5259 123.446 22.4093 121.542 22.4093C119.638 22.4093 118.122 22.5259 116.996 22.7655C115.869 23.0052 115.305 23.3808 115.305 23.899C115.305 24.4171 115.869 24.7992 116.996 25.0324C118.122 25.2655 119.638 25.3886 121.542 25.3886ZM133.841 1.23705V5.68653H136.664V11.2694H133.841V17.3057H127.118V1.23705H133.841Z" fill="var(--fill-0, #1D1D1D)"/>
<path id="Vector_5" d="M148.386 11.4573V5.22668H155.044V11.4573H148.386ZM148.386 25.421V19.1904H155.044V25.421H148.386Z" fill="var(--fill-0, #1D1D1D)"/>
<path id="Vector_6" d="M186.817 28.3744H167.045V22.7915H168.994V7.46762H167.045V1.88472H186.817V7.46762H184.868V22.7915H186.817V28.3744ZM175.393 22.7915H178.476V7.46762H175.393V22.7915ZM195.36 28.6982H188.637V1.23705H195.36V28.7047V28.6982Z" fill="var(--fill-0, #1D1D1D)"/>
<path id="Vector_7" d="M209.316 13.7306V7.46762H199.511V1.88472H216.032V28.3744H209.31V19.3135H199.504V13.7306H209.31H209.316ZM225.546 10.7448H228.37V16.3277H225.546V28.6982H218.823V1.23705H225.546V10.7513V10.7448Z" fill="var(--fill-0, #1D1D1D)"/>
<path id="Vector_8" d="M230.254 16.6516V12.3316H258.336V16.6516H230.254ZM231.847 1.56088H256.749V5.84845H253.699V7.01425H256.749V11.3018H231.847V7.01425H234.93V5.84845H231.847V1.56088ZM250.027 21.8459V21.0363H231.847V17.6943H256.749V25.1943H238.57V26.0039H257.073V29.3459H231.847V21.8459H250.027ZM241.322 7.01425H247.294V5.84845H241.322V7.01425Z" fill="var(--fill-0, #1D1D1D)"/>
<path id="Vector_9" d="M261.839 7.46762V1.88472H275.764V18.0181H268.134V22.7915H275.764V28.3744H261.839V12.4352H269.469V7.46762H261.839ZM278.853 28.6982V17.1438L276.58 17.921V11.7876L278.853 11.0104V1.23705H284.986V28.7047H278.853V28.6982ZM292.55 28.6982H286.385V1.23705H292.55V28.7047V28.6982Z" fill="var(--fill-0, #1D1D1D)"/>
<path id="Vector_10" d="M314.428 15.1295C314.428 17.7461 314.149 19.9288 313.599 21.671C313.048 23.4132 312.323 24.8057 311.422 25.842C310.522 26.8782 309.499 27.6166 308.353 28.0505C307.206 28.4845 306.034 28.6982 304.849 28.6982C303.664 28.6982 302.459 28.4845 301.313 28.0505C300.167 27.6166 299.143 26.8847 298.243 25.842C297.343 24.8057 296.624 23.4132 296.086 21.671C295.542 19.9288 295.277 17.7461 295.277 15.1295C295.277 12.513 295.549 10.3303 296.086 8.58808C296.624 6.84586 297.349 5.45337 298.243 4.4171C299.143 3.38083 300.167 2.64249 301.313 2.20855C302.459 1.77461 303.638 1.56088 304.849 1.56088C306.06 1.56088 307.206 1.77461 308.353 2.20855C309.499 2.64249 310.522 3.37435 311.422 4.4171C312.323 5.45337 313.048 6.84586 313.599 8.58808C314.149 10.3303 314.428 12.513 314.428 15.1295ZM301.961 15.1295C301.961 16.794 302.038 18.1477 302.187 19.1904C302.336 20.2267 302.55 21.0427 302.822 21.6256C303.094 22.2085 303.398 22.6036 303.748 22.8109C304.091 23.0181 304.46 23.1218 304.849 23.1218C305.218 23.1218 305.574 23.0181 305.918 22.8109C306.261 22.6036 306.565 22.215 306.824 21.6451C307.083 21.0751 307.297 20.2591 307.459 19.2098C307.621 18.1606 307.705 16.794 307.705 15.1036C307.705 13.4132 307.627 12.0855 307.459 11.0427C307.297 10.0065 307.083 9.19689 306.824 8.62694C306.565 8.05699 306.261 7.66192 305.918 7.46114C305.574 7.25389 305.212 7.15026 304.849 7.15026C304.46 7.15026 304.091 7.25389 303.748 7.46114C303.405 7.66839 303.094 8.06347 302.822 8.64637C302.55 9.22928 302.343 10.0453 302.187 11.0816C302.038 12.1179 301.961 13.4715 301.961 15.1425V15.1295ZM323.261 28.6982H316.539V1.23705H323.261V28.7047V28.6982Z" fill="var(--fill-0, #1D1D1D)"/>
<path id="Vector_11" d="M341.894 22.4676V20.4534C340.119 20.1295 338.733 19.5013 337.736 18.5687C336.739 17.636 336.24 16.3407 336.24 14.6697C336.24 13.5881 336.454 12.6554 336.875 11.8782C337.296 11.101 337.911 10.4663 338.707 9.98057C339.51 9.49482 340.469 9.1386 341.596 8.91192C342.723 8.68523 343.986 8.56865 345.391 8.56865C346.796 8.56865 348.072 8.68523 349.206 8.91192C350.339 9.1386 351.31 9.49482 352.114 9.98057C352.917 10.4663 353.532 11.101 353.966 11.8782C354.4 12.6554 354.613 13.5881 354.613 14.6697C354.613 16.3795 354.082 17.7073 353.02 18.6464C351.958 19.5855 350.488 20.2137 348.603 20.5117V22.4611H355.52V28.0117H335.262V22.4611H341.887L341.894 22.4676ZM348.778 2.53238H355.397V7.46762H335.43V2.53238H342.056V0.323834H348.778V2.53238ZM345.398 15.9715C346.35 15.9715 347.081 15.8614 347.587 15.6477C348.098 15.4339 348.351 15.1101 348.351 14.6762C348.351 14.2422 348.098 13.886 347.587 13.6723C347.075 13.4586 346.35 13.3484 345.398 13.3484C343.474 13.3484 342.509 13.7953 342.509 14.6762C342.509 15.557 343.474 15.978 345.398 15.978V15.9715ZM363.512 28.6982H356.789V1.23705H363.512V28.7047V28.6982Z" fill="var(--fill-0, #1D1D1D)"/>
<path id="Vector_12" d="M374.677 22.5971V23.8018H395V29.3523H367.961V21.399H373.058V20.1036H366.433V15.1684H386.691V20.1036H379.774V22.6036H374.677V22.5971ZM366.918 7.66192C366.918 6.53497 367.165 5.56995 367.65 4.75389C368.136 3.93782 368.803 3.2772 369.645 2.75907C370.487 2.24093 371.484 1.85881 372.631 1.62565C373.777 1.38601 375.014 1.26943 376.329 1.26943C377.326 1.26943 378.272 1.34067 379.172 1.48316C380.072 1.62565 380.901 1.8329 381.652 2.11788C382.41 2.39637 383.077 2.75907 383.647 3.20596C384.217 3.65285 384.69 4.17746 385.059 4.77979L387.947 4.13212V1.23705H394.67V22.2085H387.947V9.67617L385.156 10.3238C384.482 11.6192 383.362 12.5648 381.782 13.1477C380.201 13.7306 378.382 14.022 376.329 14.022C375.007 14.022 373.777 13.9054 372.631 13.6658C371.484 13.4262 370.487 13.0505 369.645 12.5324C368.803 12.0142 368.136 11.3536 367.65 10.5505C367.165 9.74741 366.918 8.78886 366.918 7.66192ZM376.335 9.4171C377.177 9.4171 377.896 9.28109 378.479 9.00907C379.062 8.73705 379.353 8.29016 379.353 7.66192C379.353 7.03368 379.062 6.58031 378.479 6.29534C377.896 6.01684 377.184 5.87435 376.335 5.87435C375.487 5.87435 374.813 6.01684 374.243 6.29534C373.667 6.57383 373.382 7.03368 373.382 7.66192C373.382 8.29016 373.667 8.76295 374.243 9.02202C374.813 9.28109 375.513 9.41062 376.335 9.41062V9.4171Z" fill="var(--fill-0, #1D1D1D)"/>
</g>
<defs>
<clipPath id="clip0_0_70">
<rect width="395" height="30" fill="white"/>
</clipPath>
</defs>
</svg>
