<svg overflow="visible" style="display: block;" viewBox="0 0 984 70" fill="none" xmlns="http://www.w3.org/2000/svg">
<path id="Vector" d="M63.0608 30.0987H45.2421L46.4723 25.9922H64.3004L63.0608 30.0987ZM43.4442 39.9392L43.1792 42.0019H40.7662L41.0312 39.9392H30.2813L30.3191 44.0457H58.8403L60.08 39.9392H43.4442ZM5.73452 51.0192H23.5816L24.8117 46.9127H6.97416L5.73452 51.0192ZM1.52353 64.9662H19.399L20.6291 60.8597H2.76317L1.52353 64.9662ZM72.1546 0H54.2603L53.5979 2.20465H71.4922L72.1546 0ZM70.6217 5.07164H52.7368L51.5066 9.17816H69.382L70.6217 5.07164ZM68.5114 12.0451H50.6549L49.4247 16.1517H67.2718L68.5114 12.0451ZM66.4012 19.0187H48.5636L47.3334 23.1252H65.1616L66.4012 19.0187ZM62.1902 32.9657H44.381L44.3148 33.2022L43.8132 37.0722H60.9506L62.1902 32.9657ZM3.63375 57.9927H21.4903L22.7204 53.8862H4.8734L3.63375 57.9927ZM30.4895 64.9662H52.5191L53.7588 60.8597H30.4611L30.4895 64.9662ZM30.4327 57.9927H54.6293L55.869 53.8862H30.3948L30.4327 57.9927ZM41.8071 12.0451H17.5158L16.2762 16.1517H41.826L41.8071 12.0451ZM30.3759 51.0192H56.7301L57.9697 46.9127H30.3381L30.3759 51.0192ZM41.845 19.0187H15.4056L14.166 23.1252H41.8544V19.0187H41.845ZM7.84475 44.0457H25.6729L26.903 39.9392H9.08439L7.84475 44.0457ZM41.9017 33.2022V32.9657H30.8112L30.2529 36.7978V37.0722H41.4002L41.9017 33.2022ZM41.7598 0H21.1591L20.4966 2.20465H41.7693V0H41.7598ZM30.5368 70H50.9956L51.6485 67.8332H30.5179L30.5368 70ZM0 70H17.8944L18.5473 67.8332H0.65294L0 70ZM41.7787 5.07164H19.6261L18.3864 9.17816H41.7976L41.7787 5.07164ZM41.8733 25.9922H13.3048L12.0652 30.0987H28.8145L29.1174 27.9981H31.5304L31.2276 30.0987H41.8923L41.8733 25.9922ZM9.95498 37.0722H27.7547L27.8399 36.7978L28.3982 32.9657H11.1946L9.95498 37.0722ZM60.7518 64.9662H94.5912L95.8592 60.8597H61.9915L60.7518 64.9662ZM94.5817 12.0451H76.7536L75.514 16.1517H93.3421L94.5817 12.0451ZM59.2283 70H93.0393L93.7111 67.8332H59.8813L59.2283 70ZM112.703 5.07164H78.8638L77.6242 9.17816H111.492L112.703 5.07164ZM92.4715 19.0187H74.6434L73.4037 23.1252H91.2319L92.4715 19.0187ZM90.3707 25.9922H72.5332L71.2935 30.0987H103.477L103.836 28.9065H89.4907L90.3707 25.9922ZM67.0731 44.0457H84.8917L86.084 40.1H100.43L100.477 39.9392H68.3222L67.0731 44.0457ZM64.9723 51.0192H82.7909L84.0306 46.9127H66.2119L64.9723 51.0192ZM114.208 0H80.3968L79.7344 2.20465H113.555L114.208 0ZM69.1833 37.0722H101.348L102.597 32.9657H70.4324L69.1833 37.0722ZM62.8621 57.9927H80.6902L81.9298 53.8862H64.1017L62.8621 57.9927ZM127.418 57.5007H125.005L126.055 53.8862H110.555L109.968 57.9927H141.187L143.079 53.8862H128.468L127.418 57.5007ZM136.077 5.07164H117.596L116.999 9.17816H135.263L136.077 5.07164ZM131.932 25.9922H114.577L113.99 30.0987H131.118L131.932 25.9922ZM129.547 50.2055L129.311 51.0192H144.404L146.296 46.9127H130.891L129.547 50.2055ZM108.237 70H135.66L136.654 67.8332H108.549L108.237 70ZM136.569 32.9657L134.903 37.0722H150.829L152.722 32.9657H136.569ZM127.134 50.2055L127.787 46.9127H111.568L110.971 51.0192H126.898L127.134 50.2055ZM137.08 0H118.324L118.002 2.20465H136.644L137.08 0ZM129.169 39.9392H112.571L111.975 44.0457H128.355L129.169 39.9392ZM159.138 19.0187H142.256L140.581 23.1252H157.245L159.138 19.0187ZM162.355 12.0451H145.095L143.42 16.1517H160.462L162.355 12.0451ZM108.965 64.9662H137.979L139.871 60.8597H109.552L108.965 64.9662ZM130.55 32.9657H113.574L112.978 37.0722H129.736L130.55 32.9657ZM134.695 12.0451H116.592L115.996 16.1517H133.881L134.695 12.0451ZM133.313 19.0187H115.58L114.993 23.1252H132.5L133.313 19.0187ZM167.9 0H150.006L149.107 2.20465H166.888L167.9 0ZM132.055 44.0457H147.612L149.504 39.9392H133.73L132.055 44.0457ZM155.93 25.9922H139.417L137.742 30.0987H154.037L155.93 25.9922ZM165.563 5.07164H147.943L146.268 9.17816H163.67L165.563 5.07164ZM178.981 40.1H193.327L193.374 39.9392H161.229L159.98 44.0457H177.798L178.981 40.1ZM176.928 46.9127H159.119L157.879 51.0192H175.698L176.928 46.9127ZM207.105 0H173.304L172.641 2.20465H206.452L207.105 0ZM196.743 28.9065H182.388L183.268 25.9922H165.44L164.2 30.0987H196.384L196.743 28.9065ZM174.837 53.8862H157.008L155.769 57.9927H173.597L174.837 53.8862ZM185.378 19.0187H167.55L166.311 23.1252H184.139L185.378 19.0187ZM152.135 70H185.946L186.618 67.8332H152.788L152.135 70ZM195.504 32.9657H163.339L162.09 37.0722H194.254L195.504 32.9657ZM205.601 5.07164H171.771L170.531 9.17816H204.389L205.601 5.07164ZM188.766 60.8597H154.898L153.659 64.9662H187.498L188.766 60.8597ZM187.489 12.0451H169.66L168.421 16.1517H186.249L187.489 12.0451ZM223.078 53.8862L222.993 57.9927H240.661L240.623 53.8862H223.078ZM222.937 60.8597L222.842 64.9662H240.727L240.689 60.8597H222.937ZM195.239 60.8597L193.999 64.9662H211.874L213.105 60.8597H195.239ZM240.556 46.9127H223.23L223.145 51.0192H240.594L240.556 46.9127ZM236.431 19.0187L235.182 23.1252H253.038L254.287 19.0187H236.431ZM257.268 9.17816L257.533 8.30765L253.937 5.07164H212.111L210.871 9.17816H257.268ZM234.311 25.9922L233.062 30.0987H250.928L252.177 25.9922H234.311ZM238.077 13.6064L237.301 16.1517H255.158L256.397 12.0451H236.289L238.077 13.6064ZM215.177 53.8862H197.349L196.109 57.9927H213.956L215.177 53.8862ZM227.829 12.0451H210.001L208.761 16.1517H226.58L227.829 12.0451ZM225.7 19.0187H207.891L206.651 23.1252H224.451L225.7 19.0187ZM248.307 0H213.644L212.982 2.20465H250.757L248.307 0ZM192.475 70H210.379L211.023 67.8332H193.128L192.475 70ZM217.249 46.9127H199.459L198.219 51.0192H216.029L217.249 46.9127ZM222.738 70H240.774L240.755 67.8332H222.785L222.738 70ZM222.889 28.2536L223.58 25.9922H205.78L204.541 30.0987H222.331L222.889 28.2536ZM249.442 35L250.057 32.9657H203.68L202.43 37.0722H245.875L249.442 35ZM218.328 43.2982H223.306L223.287 44.0457H240.528L240.49 40.2041L240.944 39.9392H201.569L200.32 44.0457H218.101L218.328 43.2982ZM238.077 13.6064L236.289 12.0451L238.087 13.6064H238.077ZM276.374 46.9127L276.411 51.0192H302.766L304.005 46.9127H276.374ZM276.572 70H297.031L297.684 67.8332H276.553L276.572 70ZM275.153 27.9981H277.566L277.263 30.0987H287.928L287.909 25.9922H259.34L258.101 30.0987H274.85L275.153 27.9981ZM248.799 60.8597L247.559 64.9662H265.444L266.674 60.8597H248.799ZM246.035 70H263.93L264.583 67.8332H246.688L246.035 70ZM261.451 19.0187L260.211 23.1252H287.899L287.88 19.0187H261.451ZM272.939 39.9392H255.129L253.89 44.0457H271.718L272.948 39.9392H272.939ZM287.937 33.2022V32.9657H276.847L276.288 36.7978V37.0722H287.436L287.937 33.2022ZM269.617 51.0192L270.847 46.9127H253.019L251.779 51.0192H269.626H269.617ZM313.317 16.1517L314.556 12.0451H296.69L295.46 16.1517H313.317ZM306.125 39.9392H289.489L289.224 42.0019H286.811L287.076 39.9392H276.326L276.364 44.0457H304.895L306.134 39.9392H306.125ZM273.875 36.8072L274.434 32.9751H257.23L255.99 37.0816H273.8L273.885 36.8072H273.875ZM287.862 16.1517L287.843 12.0451H263.551L262.312 16.1517H287.862ZM276.44 53.8862L276.478 57.9927H300.665L301.904 53.8862H276.44ZM315.418 9.17816L316.657 5.07164H298.772L297.542 9.17816H315.418ZM311.207 23.1252L312.446 19.0187H294.599L293.369 23.1252H311.197H311.207ZM287.833 9.17816L287.814 5.07164H265.662L264.422 9.17816H287.833ZM287.795 0H267.195L266.532 2.20465H287.805V0H287.795ZM289.858 37.0722H306.996L308.235 32.9657H290.426L290.36 33.2022L289.858 37.0722ZM318.2 0H300.296L299.633 2.20465H317.528L318.19 0H318.2ZM276.497 60.8597L276.534 64.9662H298.555L299.794 60.8597H276.497ZM310.336 25.9922H292.508L291.278 30.0987H309.087L310.326 25.9922H310.336ZM250.909 53.8862L249.669 57.9927H267.535L268.765 53.8862H250.909ZM357.527 9.17816L358.748 5.07164H324.909L323.669 9.17816H357.527ZM310.147 53.8862L308.907 57.9927H326.735L327.975 53.8862H310.147ZM346.465 40.1L346.513 39.9392H314.358L313.118 44.0457H330.927L332.11 40.1H346.456H346.465ZM305.273 70H339.084L339.756 67.8332H305.936L305.283 70H305.273ZM308.036 60.8597L306.797 64.9662H340.636L341.904 60.8597H308.036ZM312.247 46.9127L311.008 51.0192H328.826L330.066 46.9127H312.247ZM360.243 0H326.432L325.77 2.20465H359.59L360.243 0ZM348.632 32.9657H316.468L315.228 37.0722H347.393L348.642 32.9657H348.632ZM339.378 16.1517L340.617 12.0451H322.789L321.549 16.1517H339.378ZM337.267 23.1252L338.507 19.0187H320.679L319.439 23.1252H337.267ZM349.512 30.0987L349.872 28.9065H335.526L336.406 25.9922H318.578L317.338 30.0987H349.512ZM393.307 60.8597H346.711L346.456 61.7018L350.146 64.9662H387.411L393.051 61.7018L393.307 60.8597ZM357.556 30.0987H386.418L380.475 25.9922H357.584L356.553 29.3985L357.556 30.0987ZM361.71 32.9657L367.653 37.0722H396.515L390.572 32.9657H361.71ZM371.797 39.9392L377.74 44.0457H398.322L399.543 39.9392H371.797ZM388.547 16.1517H406.432L407.681 12.0451H387.809L389.361 13.5023L388.547 16.1517ZM399.59 0H377.286L373.482 2.20465H402.041L399.59 0ZM378.459 16.1517L379.283 13.5023L381.771 12.0451H361.814L360.574 16.1517H378.469H378.459ZM355.843 70H378.715L382.462 67.8332H353.392L355.843 70ZM350.903 46.9127L349.673 51.0192H367.643L368.817 46.9127H350.903ZM376.33 23.1252L376.302 23.1062L377.57 19.0187H359.704L358.464 23.1252H376.34H376.33ZM379.595 46.9127L378.365 51.0192H396.24L397.461 46.9127H379.595ZM404.303 23.1252L405.552 19.0187H387.667L386.408 23.1252H404.303ZM377.504 53.8862L376.718 56.4977L374.069 57.9927H394.158L395.379 53.8862H377.494H377.504ZM366.82 53.8862H348.812L347.582 57.9927H367.766L366.072 56.4977L366.82 53.8862ZM362.675 9.17816H408.561L408.826 8.30765L405.23 5.07164H368.523L362.94 8.30765L362.675 9.17816ZM414.239 9.17816H460.124L460.389 8.30765L456.793 5.07164H420.087L414.504 8.30765L414.239 9.17816ZM455.866 23.1252L457.115 19.0187H439.23L437.972 23.1252H455.866ZM444.879 60.8597H398.284L398.029 61.7018L401.719 64.9662H438.984L444.624 61.7018L444.879 60.8597ZM451.163 0H428.859L425.055 2.20465H453.614L451.163 0ZM440.12 16.1517H458.005L459.254 12.0451H439.382L440.933 13.5023L440.12 16.1517ZM407.406 70H430.278L434.026 67.8332H404.956L407.406 70ZM409.119 30.0987H437.981L432.038 25.9922H409.148L408.116 29.3985L409.119 30.0987ZM431.158 46.9127L429.928 51.0192H447.804L449.024 46.9127H431.158ZM429.067 53.8862L428.282 56.4977L425.632 57.9927H445.722L446.942 53.8862H429.058H429.067ZM418.383 53.8862H400.375L399.145 57.9927H419.33L417.636 56.4977L418.383 53.8862ZM413.273 32.9657L419.216 37.0722H448.078L442.135 32.9657H413.273ZM430.023 16.1517L430.846 13.5023L433.335 12.0451H413.377L412.138 16.1517H430.032H430.023ZM427.894 23.1252L427.865 23.1062L429.133 19.0187H411.267L410.028 23.1252H427.903H427.894ZM423.361 39.9392L429.304 44.0457H449.885L451.106 39.9392H423.361ZM402.467 46.9127L401.237 51.0192H419.207L420.38 46.9127H402.467ZM481.009 53.8862L479.769 57.9927H497.673L498.913 53.8862H481.009ZM478.908 60.8597L477.668 64.9662H495.572L496.812 60.8597H478.908ZM485.21 39.9392L483.971 44.0457H501.875L503.114 39.9392H485.21ZM525.456 0H487.103L486.422 2.20465H524.803L525.456 0ZM506.076 30.0987L507.316 25.9922H489.412L488.172 30.0987H506.076ZM510.278 16.1517L511.517 12.0451H493.613L492.374 16.1517H510.278ZM487.311 32.9657L486.072 37.0722H503.975L505.215 32.9657H487.311ZM476.164 70H494.068L494.721 67.8332H476.817L476.164 70ZM483.11 46.9127L481.87 51.0192H499.774L501.013 46.9127H483.11ZM522.731 9.17816L523.952 5.07164H485.532L484.264 9.17816H522.731ZM508.177 23.1252L509.417 19.0187H491.513L490.273 23.1252H508.177ZM535.534 39.9392H517.649L516.41 44.0457H534.294L534.749 42.5602L535.544 39.9392H535.534ZM546.341 39.9392L545.376 43.1089L545.092 44.0457H563.005L564.235 39.9392H546.341ZM554.29 13.6064L553.523 16.1517H571.389L572.619 12.0451H552.501L554.29 13.6064ZM540.616 23.1252L541.855 19.0187H523.942L522.702 23.1252H540.616ZM530.566 56.4031L530.812 55.5704L531.323 53.8862H513.448L512.217 57.9927H532.392L530.566 56.4031ZM542.726 16.1517L543.492 13.6064L546.237 12.0451H526.033L524.803 16.1517H542.726ZM569.288 23.1252L570.528 19.0187H552.653L551.413 23.1252H569.288ZM520.337 70H543.35L547.098 67.8332H517.924L520.337 70ZM564.519 0H541.505L537.701 2.20465H566.97L564.519 0ZM544.231 46.9127L542.991 51.0192H560.904L562.144 46.9127H544.231ZM548.442 32.9657L547.202 37.0722H565.096L566.336 32.9657H548.442ZM526.894 9.17816H573.48L573.745 8.30765L570.149 5.07164H532.752L527.159 8.30765L526.894 9.17816ZM542.12 53.8862L541.799 54.9554L541.363 56.4031L538.572 57.9927H558.813L560.043 53.8862H542.12ZM515.548 46.9127L514.318 51.0192H532.194L533.433 46.9127H515.548ZM557.952 60.8597H511.356L511.101 61.7018L514.735 64.9662H552.056L557.696 61.7018L557.952 60.8597ZM538.515 30.0987L539.755 25.9922H521.841L520.602 30.0987H538.515ZM567.197 30.0987L568.427 25.9922H550.552L549.312 30.0987H567.197ZM519.741 32.9657L518.51 37.0722H536.405L537.644 32.9657H519.741ZM554.29 13.6064L552.501 12.0451L554.299 13.6064H554.29ZM589.823 46.9127L588.583 51.0192H606.402L607.641 46.9127H589.823ZM635.093 9.17816L636.314 5.07164H602.475L601.235 9.17816H635.093ZM624.031 40.1L624.078 39.9392H591.924L590.684 44.0457H608.493L609.676 40.1H624.022H624.031ZM585.602 60.8597L584.363 64.9662H618.202L619.47 60.8597H585.602ZM627.078 30.0987L627.438 28.9065H613.092L613.972 25.9922H596.144L594.904 30.0987H627.078ZM582.839 70H616.65L617.322 67.8332H583.502L582.849 70H582.839ZM637.819 0H604.008L603.345 2.20465H637.166L637.819 0ZM616.953 16.1517L618.193 12.0451H600.364L599.125 16.1517H616.953ZM594.043 32.9657L592.804 37.0722H624.968L626.217 32.9657H594.053H594.043ZM587.713 53.8862L586.473 57.9927H604.301L605.541 53.8862H587.713ZM614.843 23.1252L616.082 19.0187H598.254L597.015 23.1252H614.843ZM684.073 16.1517L685.966 12.0451H668.706L667.031 16.1517H684.073ZM680.856 23.1252L682.749 19.0187H665.857L664.182 23.1252H680.856ZM657.483 16.1517L658.296 12.0451H640.194L639.598 16.1517H657.473H657.483ZM656.101 23.1252L656.915 19.0187H639.191L638.595 23.1252H656.101ZM636.182 39.9392L635.585 44.0457H651.956L652.77 39.9392H636.172H636.182ZM677.648 30.0987L679.541 25.9922H663.028L661.353 30.0987H677.648ZM654.719 30.0987L655.533 25.9922H638.188L637.592 30.0987H654.719ZM660.18 32.9657L658.505 37.0722H674.431L676.323 32.9657H660.18ZM657.341 39.9392L655.666 44.0457H671.223L673.115 39.9392H657.341ZM658.864 9.17816L659.678 5.07164H641.197L640.601 9.17816H658.855H658.864ZM631.848 70H659.262L660.265 67.8332H632.16L631.848 70ZM654.492 46.9127L653.148 50.2055L652.912 51.0192H668.005L669.898 46.9127H654.492ZM633.163 60.8597L632.567 64.9662H661.58L663.473 60.8597H633.163ZM687.281 9.17816L689.174 5.07164H671.544L669.87 9.17816H687.281ZM651.388 46.9127H635.169L634.573 51.0192H650.489L650.726 50.2055L651.379 46.9127H651.388ZM637.185 32.9657L636.588 37.0722H653.338L654.152 32.9657H637.185ZM691.511 0H673.617L672.718 2.20465H690.499L691.511 0ZM660.681 0H641.926L641.604 2.20465H660.236L660.672 0H660.681ZM652.079 53.8862L651.019 57.5007H648.606L649.666 53.8862H634.166L633.57 57.9927H664.788L666.681 53.8862H652.07H652.079ZM675.746 70H709.557L710.229 67.8332H676.408L675.755 70H675.746ZM678.509 60.8597L677.27 64.9662H711.109L712.377 60.8597H678.509ZM707.74 23.1252L708.98 19.0187H691.152L689.912 23.1252H707.74ZM730.716 0H696.905L696.243 2.20465H730.063L730.716 0ZM709.85 16.1517L711.09 12.0451H693.262L692.022 16.1517H709.85ZM719.985 30.0987L720.345 28.9065H705.999L706.879 25.9922H689.051L687.811 30.0987H719.985ZM728 9.17816L729.221 5.07164H695.381L694.142 9.17816H728ZM680.619 53.8862L679.38 57.9927H697.208L698.448 53.8862H680.619ZM682.72 46.9127L681.48 51.0192H699.299L700.539 46.9127H682.72ZM686.941 32.9657L685.701 37.0722H717.865L719.114 32.9657H686.95H686.941ZM716.938 40.1L716.985 39.9392H684.83L683.591 44.0457H701.4L702.583 40.1H716.929H716.938ZM750.181 16.1517L750.531 15.0068L751.43 12.0451H733.612L732.372 16.1517H750.181ZM773.668 32.9657H727.29L726.041 37.0722H769.485L773.053 35L773.668 32.9657ZM761.688 13.6064L760.912 16.1517H778.769L780.008 12.0451H759.89L761.679 13.6064H761.688ZM716.086 70H733.981L734.624 67.8332H716.739L716.086 70ZM720.96 53.8862L719.72 57.9927H737.558L738.788 53.8862H720.96ZM774.539 30.0987L775.788 25.9922H757.912L756.663 30.0987H774.539ZM764.555 39.9392H725.18L723.931 44.0457H741.712L741.939 43.2982H746.907L746.888 44.0457H764.139L764.101 40.2041L764.555 39.9392ZM723.07 46.9127L721.83 51.0192H739.639L740.86 46.9127H723.07ZM780.879 9.17816L781.144 8.30765L777.548 5.07164H735.722L734.482 9.17816H780.879ZM746.538 60.8597L746.443 64.9662H764.338L764.3 60.8597H746.538ZM718.849 60.8597L717.61 64.9662H735.485L736.706 60.8597H718.849ZM746.68 53.8862L746.595 57.9927H764.271L764.234 53.8862H746.68ZM746.339 70H764.385L764.366 67.8332H746.387L746.339 70ZM771.908 0H737.255L736.592 2.20465H774.359L771.908 0ZM745.932 30.0987L746.793 27.2885L747.191 25.9922H729.391L728.151 30.0987H745.932ZM746.831 46.9127L746.746 51.0192H764.205L764.167 46.9127H746.831ZM758.783 23.1252H776.649L777.898 19.0187H760.042L759.247 21.6018L758.783 23.1252ZM748.061 23.1252L748.913 20.3244L749.311 19.0187H731.501L730.262 23.1252H748.061ZM751.44 12.0451L750.541 15.0068L751.449 12.0451H751.44ZM761.688 13.6064L759.9 12.0451L761.698 13.6064H761.688ZM832.707 30.0987L833.947 25.9922H816.119L814.888 30.0987H832.698H832.707ZM836.918 16.1517L838.158 12.0451H820.292L819.062 16.1517H836.918ZM841.801 0H823.897L823.235 2.20465H841.129L841.792 0H841.801ZM778.731 39.9392L777.491 44.0457H795.319L796.549 39.9392H778.74H778.731ZM800.183 70H820.642L821.295 67.8332H800.164L800.183 70ZM798.461 30.0987L798.764 27.9981H801.177L800.874 30.0987H811.539L811.52 25.9922H782.951L781.712 30.0987H798.461ZM798.045 32.9657H780.841L779.601 37.0722H797.411L797.496 36.7978L798.054 32.9657H798.045ZM811.472 16.1517L811.453 12.0451H787.162L785.923 16.1517H811.472ZM834.808 23.1252L836.048 19.0187H818.201L816.97 23.1252H834.798H834.808ZM811.548 32.9657H800.458L799.899 36.7978V37.0722H811.047L811.548 33.2022V32.9657ZM839.028 9.17816L840.268 5.07164H822.383L821.153 9.17816H839.028ZM811.501 23.1252L811.482 19.0187H785.052L783.812 23.1252H811.501ZM814.037 32.9657L813.971 33.2022L813.469 37.0722H830.606L831.846 32.9657H814.037ZM799.984 46.9127L800.022 51.0192H826.376L827.616 46.9127H799.984ZM811.444 9.17816L811.425 5.07164H789.272L788.033 9.17816H811.444ZM769.637 70H787.531L788.184 67.8332H770.29L769.637 70ZM811.406 0H790.805L790.143 2.20465H811.416V0H811.406ZM800.107 60.8597L800.145 64.9662H822.165L823.405 60.8597H800.107ZM772.41 60.8597L771.17 64.9662H789.055L790.285 60.8597H772.41ZM774.51 53.8862L773.271 57.9927H791.137L792.367 53.8862H774.51ZM800.041 53.8862L800.079 57.9927H824.266L825.506 53.8862H800.041ZM813.091 39.9392L812.826 42.0019H810.413L810.677 39.9392H799.928L799.966 44.0457H828.496L829.736 39.9392H813.1H813.091ZM776.621 46.9127L775.381 51.0192H793.228L794.458 46.9127H776.63H776.621ZM835.858 46.9127L834.619 51.0192H852.437L853.677 46.9127H835.858ZM883.854 0H850.043L849.381 2.20465H883.201L883.854 0ZM860.878 23.1252L862.118 19.0187H844.29L843.05 23.1252H860.878ZM831.638 60.8597L830.398 64.9662H864.237L865.506 60.8597H831.638ZM833.748 53.8862L832.508 57.9927H850.336L851.576 53.8862H833.748ZM862.988 16.1517L864.228 12.0451H846.4L845.16 16.1517H862.988ZM840.079 32.9657L838.839 37.0722H871.004L872.253 32.9657H840.088H840.079ZM873.114 30.0987L873.473 28.9065H859.128L860.008 25.9922H842.18L840.94 30.0987H873.114ZM870.076 40.1L870.123 39.9392H837.969L836.729 44.0457H854.538L855.721 40.1H870.067H870.076ZM828.875 70H862.686L863.357 67.8332H829.537L828.884 70H828.875ZM881.129 9.17816L882.35 5.07164H848.51L847.271 9.17816H881.129ZM879.444 70H902.316L906.064 67.8332H876.994L879.444 70ZM895.408 39.9392L901.351 44.0457H921.933L923.154 39.9392H895.408ZM886.286 9.17816H932.172L932.437 8.30765L928.841 5.07164H892.134L886.551 8.30765L886.286 9.17816ZM912.158 16.1517H930.043L931.292 12.0451H911.42L912.971 13.5023L912.158 16.1517ZM902.061 16.1517L902.884 13.5023L905.373 12.0451H885.416L884.176 16.1517H902.07H902.061ZM881.167 30.0987H910.029L904.086 25.9922H881.195L880.164 29.3985L881.167 30.0987ZM890.431 53.8862H872.423L871.193 57.9927H891.377L889.683 56.4977L890.431 53.8862ZM916.918 60.8597H870.322L870.067 61.7018L873.757 64.9662H911.022L916.662 61.7018L916.918 60.8597ZM901.115 53.8862L900.329 56.4977L897.679 57.9927H917.769L918.99 53.8862H901.105H901.115ZM874.514 46.9127L873.284 51.0192H891.254L892.428 46.9127H874.514ZM903.206 46.9127L901.976 51.0192H919.851L921.072 46.9127H903.206ZM927.913 23.1252L929.163 19.0187H911.278L910.019 23.1252H927.913ZM899.941 23.1252L899.913 23.1062L901.181 19.0187H883.315L882.075 23.1252H899.951H899.941ZM885.311 32.9657L891.254 37.0722H920.116L914.173 32.9657H885.311ZM923.201 0H900.897L897.093 2.20465H925.652L923.201 0ZM951.504 23.1252L951.476 23.1062L952.744 19.0187H934.878L933.638 23.1252H951.514H951.504ZM979.477 23.1252L980.726 19.0187H962.841L961.582 23.1252H979.477ZM936.884 32.9657L942.827 37.0722H971.689L965.746 32.9657H936.884ZM932.73 30.0987H961.592L955.649 25.9922H932.758L931.727 29.3985L932.73 30.0987ZM946.972 39.9392L952.914 44.0457H973.496L974.717 39.9392H946.972ZM954.769 46.9127L953.539 51.0192H971.414L972.635 46.9127H954.769ZM926.078 46.9127L924.847 51.0192H942.818L943.991 46.9127H926.078ZM931.017 70H953.889L957.636 67.8332H928.566L931.017 70ZM968.481 60.8597H921.886L921.63 61.7018L925.321 64.9662H962.585L968.225 61.7018L968.481 60.8597ZM963.721 16.1517H981.606L982.855 12.0451H962.983L964.535 13.5023L963.721 16.1517ZM953.634 16.1517L954.457 13.5023L956.946 12.0451H936.988L935.749 16.1517H953.643H953.634ZM941.994 53.8862H923.986L922.756 57.9927H942.941L941.247 56.4977L941.994 53.8862ZM952.678 53.8862L951.892 56.4977L949.243 57.9927H969.333L970.553 53.8862H952.668H952.678ZM974.764 0H952.46L948.656 2.20465H977.215L974.764 0ZM937.849 9.17816H983.735L984 8.30765L980.404 5.07164H943.698L938.114 8.30765L937.849 9.17816Z" fill="var(--fill-0, white)" fill-opacity="0.5"/>
</svg>
