<svg overflow="visible" style="display: block;" viewBox="0 0 414 70" fill="none" xmlns="http://www.w3.org/2000/svg">
<path id="Vector" d="M11.611 23.1252L12.8421 19.0187H30.7796L29.5389 23.1252H11.611ZM31.0259 53.8862L30.2871 56.4031L27.4838 57.9927H47.7321L48.9443 53.8862H31.0353H31.0259ZM58.2161 23.1252L59.4568 19.0187H41.5667L40.3165 23.1252H58.2161ZM9.24336 70H32.2759L36.0263 67.8332H6.8283L9.24336 70ZM6.54414 39.9392L5.31302 44.0457H23.2126L24.4532 39.9392H6.54414ZM27.427 30.0987L28.6677 25.9922H10.7397L9.50845 30.0987H27.427ZM56.5871 28.4996L57.3447 25.9922H39.4358L38.6686 28.4996H56.5871ZM53.4618 0H30.4292L26.622 2.20465H55.9146L53.4618 0ZM8.64671 32.9657L7.41548 37.0722H25.3245L26.5651 32.9657H8.64671ZM31.6414 16.1517L32.4085 13.6064L35.155 12.0451H14.9352L13.704 16.1517H31.6414ZM20.2388 53.8862H2.3487L1.11747 57.9927H21.309L19.4811 56.4031L20.2388 53.8862ZM46.8797 60.8597H0.255726L0 61.7018L3.6367 64.9662H40.989L46.6335 61.7018L46.8797 60.8597ZM42.4379 16.1517H60.3185L61.5592 12.0451H41.4246L43.2146 13.6064L42.4379 16.1517ZM15.8065 9.17816H62.4399L62.7051 8.30765L59.1062 5.07164H21.6594L16.0717 8.30765L15.8065 9.17816ZM34.975 40.5069L33.9333 44.0457H51.8423L52.8841 40.5069H34.9656H34.975ZM4.45116 46.9127L3.22004 51.0192H21.11L22.3507 46.9127H4.45116ZM33.0809 46.9127L31.8688 51.0192H49.7777L50.9899 46.9127H33.0809ZM100.124 39.9392H60.7163L59.4661 44.0457H77.2615L77.4888 43.2982H82.4609L82.4419 44.0457H99.707L99.6691 40.2041L100.124 39.9392ZM51.615 70H69.524L70.168 67.8332H52.2685L51.615 70ZM110.106 30.0987L111.356 25.9922H93.4753L92.2252 30.0987H110.106ZM81.4854 30.0987L82.1389 27.9508L82.7356 25.9922H64.9212L63.6806 30.0987H81.476H81.4854ZM112.227 23.1252L113.477 19.0187H95.5967L94.3466 23.1252H112.227ZM116.461 9.17816L116.726 8.30765L113.127 5.07164H71.2666L70.0259 9.17816H116.461ZM109.234 32.9657H62.8283L61.5782 37.0722H105.058L108.619 35L109.234 32.9657ZM96.468 16.1517H114.339L115.589 12.0451H95.4546L97.2446 13.6064L96.468 16.1517ZM58.6044 46.9127L57.3637 51.0192H75.1875L76.4091 46.9127H58.6044ZM82.3852 46.9127L82.3 51.0192H99.7733L99.7354 46.9127H82.3852ZM107.482 0H72.8009L72.1379 2.20465H109.935L107.482 0ZM81.8927 70H99.9532L99.9343 67.8332H81.9401L81.8927 70ZM82.2336 53.8862L82.1484 57.9927H99.8395L99.8017 53.8862H82.2336ZM54.3804 60.8597L53.1398 64.9662H71.0299L72.2515 60.8597H54.3804ZM85.7378 16.1517L85.8798 15.6786L86.9879 12.0451H69.1547L67.914 16.1517H85.7378ZM82.0915 60.8597L81.9968 64.9662H99.9059L99.868 60.8597H82.0915ZM56.4925 53.8862L55.2517 57.9927H73.1039L74.3351 53.8862H56.4925ZM83.6069 23.1252L84.857 19.0187H67.0333L65.7926 23.1252H83.6069ZM86.9974 12.0451L85.8893 15.6786L87.0069 12.0451H86.9974ZM97.2446 13.6064L95.4546 12.0451H95.4452L97.2446 13.6064ZM82.7451 25.9922L82.1484 27.9508L82.7545 25.9922H82.7451ZM158.955 30.0987L159.505 25.9922H142.921L142.183 30.0987H158.965H158.955ZM136.936 30.0987L138.66 25.9922H123.005L121.044 30.0987H136.936ZM102.084 70H120.135L121.044 67.8332H103.116L102.084 70ZM137.77 53.8862L137.002 57.9927H155.271L155.821 53.8862H137.77ZM109.746 53.8862L107.795 57.9927H125.192L126.916 53.8862H109.746ZM136.472 60.8597L135.714 64.9662H154.353L154.892 60.8597H136.472ZM113.061 46.9127L111.11 51.0192H156.199L156.739 46.9127H113.061ZM141.662 32.9657L141.406 34.3755L140.923 37.0722H158.046L158.586 32.9657H141.671H141.662ZM161.721 9.17816L162.261 5.07164H132.94L130.988 9.17816H161.721ZM106.431 60.8597L104.48 64.9662H122.257L123.98 60.8597H106.431ZM140.402 39.9392L140.024 42.0114L139.9 42.7021H131.652L132.807 39.9392H116.375L114.424 44.0457H157.118L157.658 39.9392H140.402ZM162.933 0H135.354L134.303 2.20465H162.639L162.933 0ZM159.883 23.1252L160.423 19.0187H144.181L143.442 23.1252H159.893H159.883ZM139.862 23.1252L141.586 19.0187H126.32L124.359 23.1252H139.862ZM119.69 32.9657L117.739 37.0722H134.01L135.733 32.9657H119.69ZM134.786 70H153.69L153.974 67.8332H135.184L134.786 70ZM142.524 16.1517L143.594 12.4993H146.16L144.996 16.1517H160.802L161.342 12.0451H129.634L127.674 16.1517H142.524ZM140.914 37.0722L141.397 34.3755L140.904 37.0722H140.914ZM169.591 32.9657L168.35 37.0722H200.541L201.791 32.9657H169.6H169.591ZM161.143 60.8597L159.902 64.9662H177.802L179.033 60.8597H161.143ZM213.402 0H179.564L178.901 2.20465H212.749L213.402 0ZM190.407 23.1252L191.648 19.0187H173.805L172.565 23.1252H190.407ZM192.519 16.1517L193.76 12.0451H175.917L174.677 16.1517H192.519ZM165.367 46.9127L164.126 51.0192H181.979L183.21 46.9127H165.367ZM199.613 40.1L199.66 39.9392H167.479L166.238 44.0457H184.072L185.255 40.1H199.613ZM210.675 9.17816L211.896 5.07164H178.029L176.789 9.17816H210.675ZM202.653 30.0987L203.013 28.9065H188.655L189.536 25.9922H171.693L170.453 30.0987H202.653ZM158.378 70H176.296L176.95 67.8332H159.041L158.387 70H158.378ZM163.255 53.8862L162.014 57.9927H179.895L181.126 53.8862H163.265H163.255ZM255.764 0H217.38L216.698 2.20465H255.111L255.764 0ZM206.432 70H224.35L225.004 67.8332H207.085L206.432 70ZM215.495 39.9392L214.254 44.0457H232.173L233.414 39.9392H215.495ZM253.046 9.17816L254.268 5.07164H215.817L214.548 9.17816H253.046ZM209.188 60.8597L207.947 64.9662H225.866L227.106 60.8597H209.188ZM213.393 46.9127L212.152 51.0192H230.07L231.311 46.9127H213.393ZM238.471 23.1252L239.712 19.0187H221.793L220.553 23.1252H238.471ZM216.357 37.0722H234.275L235.516 32.9657H217.598L216.357 37.0722ZM211.29 53.8862L210.049 57.9927H227.968L229.209 53.8862H211.29ZM240.573 16.1517L241.814 12.0451H223.896L222.655 16.1517H240.573ZM236.368 30.0987L237.609 25.9922H219.691L218.45 30.0987H236.368ZM285.616 13.6064L284.83 16.1517H302.739L303.97 12.0451H283.816L285.606 13.6064H285.616ZM304.832 9.17816L305.097 8.30765L301.498 5.07164H259.638L258.397 9.17816H304.832ZM265.708 44.0457L266.021 43.0238L266.959 39.9392H249.088L247.837 44.0457H265.708ZM274.308 53.8862L274.014 54.8513L273.541 56.4031L270.747 57.9927H290.986L292.198 53.8862H274.308ZM281.506 27.0046L277.803 29.1052H270.273L271.202 25.9922H253.302L252.061 30.0987H295.825L299.13 28.2063L299.793 25.9922H281.818L281.506 27.0046ZM276.439 46.9127L275.539 49.8364L275.179 51.0192H293.031L294.244 46.9127H276.439ZM244.864 53.8862L243.623 57.9927H261.466L262.716 53.8862H244.864ZM246.976 46.9127L245.735 51.0192H263.587L264.837 46.9127H246.976ZM239.986 70H275.53L279.28 67.8332H240.64L239.986 70ZM295.863 0H261.172L260.509 2.20465H298.316L295.863 0ZM272.054 23.1252L273.285 19.0187H255.414L254.173 23.1252H272.054ZM277.945 42.0019L277.32 44.0457H295.096L296.289 40.0054L296.214 39.9392H275.549L277.945 42.0019ZM249.949 37.0722H292.965L289.603 34.1011L289.887 33.505L290.825 32.9657H251.2L249.949 37.0722ZM290.133 60.8597H242.752L241.511 64.9662H284.243L289.887 61.7018L290.133 60.8597ZM274.137 16.1517L274.971 13.3604L275.369 12.0451H257.526L256.285 16.1517H274.137ZM300.655 23.1252L301.886 19.0187H283.958L282.699 23.1252H300.655ZM275.549 49.8364L276.448 46.9127L275.558 49.8364H275.549ZM277.945 42.0019L275.549 39.9392L277.954 42.0019H277.945ZM272.063 23.1252L273.285 19.0187L272.054 23.1252H272.063ZM285.616 13.6064L283.826 12.0451L285.625 13.6064H285.616ZM337.155 19.0187L335.914 23.1252H353.814L355.055 19.0187H337.155ZM327.22 16.1517L327.987 13.6064L330.734 12.0451H310.514L309.283 16.1517H327.22ZM323.006 30.0987L324.247 25.9922H306.319L305.088 30.0987H323.006ZM338.348 15.0825L338.026 16.1517H355.916L357.148 12.0451H337.004L338.794 13.6064L338.348 15.0825ZM327.486 51.0192H345.423L346.664 46.9127H328.726L327.486 51.0192ZM349.031 0H325.999L322.191 2.20465H351.484L349.031 0ZM311.376 9.17816H358.01L358.275 8.30765L354.676 5.07164H317.238L311.641 8.30765L311.376 9.17816ZM331.7 37.0722H349.618L350.859 32.9657H332.941L331.7 37.0722ZM330.384 41.4152L329.588 44.0457H347.516L348.747 39.9392H330.829L330.374 41.4152H330.384ZM333.812 30.0987H351.721L352.952 25.9922H335.053L333.812 30.0987ZM298.79 51.0192H316.68L317.92 46.9127H300.03L298.79 51.0192ZM326.614 53.8862L325.857 56.4031L325.828 56.422L323.063 57.9927H343.33L344.561 53.8862H326.624H326.614ZM302.123 39.9392L300.892 44.0457H318.782L319.748 40.857L320.023 39.9392H302.114H302.123ZM315.051 56.4031L315.808 53.8862H297.928L296.697 57.9927H316.888L316.13 57.3398L315.051 56.4031ZM307.181 23.1252H325.108L326.349 19.0187H308.421L307.181 23.1252ZM342.468 60.8597H295.835L295.579 61.7018L299.216 64.9662H336.558L342.212 61.7018L342.468 60.8597ZM304.822 70H327.845L331.596 67.8332H302.407L304.822 70ZM320.894 37.0722L322.135 32.9657H304.226L302.985 37.0722H320.894ZM327.987 13.6064L330.743 12.0451H330.734L327.987 13.6064ZM338.794 13.6064L337.004 12.0451L338.803 13.6064H338.794ZM319.748 40.857L320.032 39.9392L319.758 40.857H319.748ZM382.728 0H363.531L363.569 2.20465H382.586L382.728 0ZM347.45 60.8597L344.902 64.9662H362.896L365.16 60.8597H347.44H347.45ZM414 0H395.665L394.462 2.20465H412.627L414 0ZM374.024 64.9662H392.776L392.748 60.8597H374.233L374.024 64.9662ZM382.131 9.17816L382.396 5.07164H363.616L363.682 9.17816H382.122H382.131ZM392.899 5.07164L390.664 9.17816H408.28L410.846 5.07164H392.909H392.899ZM357.877 44.0457H373.56L374.053 42.3993H376.61L376.07 44.0457H392.606L392.577 39.9392H360.415L357.867 44.0457H357.877ZM363.806 16.1517H381.677L381.942 12.0451H363.73L363.796 16.1517H363.806ZM374.905 47.6034L374.735 51.0192H392.672L392.644 46.9127H375.142L374.915 47.6034H374.905ZM386.857 16.1517H403.923L406.49 12.0451H389.102L386.867 16.1517H386.857ZM373.769 70H392.824L392.805 67.8332H373.882L373.769 70ZM363.919 23.1252H380.938L381.298 21.9046L381.487 19.0187H363.843L363.91 23.1252H363.919ZM382.444 26.2003H380.029L380.095 25.9922H363.976L364.042 30.0987H395.229L397.796 25.9922H382.52L382.453 26.2003H382.444ZM383.722 21.9046L383.362 23.1252H399.576L402.143 19.0187H385.304L383.732 21.9046H383.722ZM341.777 70H360.121L361.315 67.8332H343.122L341.777 70ZM364.099 34.0065L362.195 37.0722H392.558L392.539 34.4039L393.439 32.9657H364.09L364.109 34.0065H364.099ZM370.605 51.0192L372.49 47.6034L372.699 46.9127H356.096L353.549 51.0192H370.596H370.605ZM349.23 57.9927H366.751L369.014 53.8862H351.768L349.221 57.9927H349.23ZM374.375 57.9927H392.719L392.691 53.8862H374.583L374.375 57.9927Z" fill="var(--fill-0, white)" fill-opacity="0.5"/>
</svg>
