<svg overflow="visible" style="display: block;" viewBox="0 0 271.974 59.9676" fill="none" xmlns="http://www.w3.org/2000/svg">
<g id="Group">
<path id="Vector" d="M50.8173 15.0972C50.8173 15.0972 50.7916 15.0065 50.7788 14.9676C50.7788 14.9676 50.7788 14.9676 50.7788 14.9547C50.7788 14.9547 50.7788 14.9417 50.7788 14.9288C50.766 14.9029 50.7403 14.8899 50.7275 14.864C50.7019 14.8251 50.6762 14.7863 50.6377 14.7604C50.6121 14.7345 50.5865 14.7215 50.5608 14.7086C50.5608 14.7086 50.5608 14.6956 50.5352 14.6826L25.7613 0.0971503C25.5433 -0.0323834 25.2868 -0.0323834 25.0688 0.0971503L0.30775 14.6826C0.30775 14.6826 0.294927 14.6956 0.282104 14.7086C0.256459 14.7215 0.230813 14.7474 0.205167 14.7604C0.166698 14.7863 0.141052 14.8251 0.115406 14.864C0.102583 14.8899 0.0769376 14.9029 0.0641146 14.9288C0.0641146 14.9288 0.0641146 14.9288 0.0641146 14.9417V14.9547C0.0384688 14.9935 0.0384688 15.0324 0.0256459 15.0842C0.0256459 15.136 0 15.1749 0 15.2137C0 15.2267 0 15.2396 0 15.2526V44.7086C0 44.7086 0.0128229 44.7604 0.0128229 44.7863C0.0128229 44.8381 0.0128229 44.8769 0.0384688 44.9288C0.0384688 44.9547 0.0641146 44.9935 0.0769376 45.0194C0.0769376 45.0453 0.102583 45.0583 0.102583 45.0712C0.115406 45.0972 0.141052 45.1231 0.166698 45.149C0.192344 45.1878 0.230813 45.2137 0.269282 45.2396C0.294927 45.2526 0.30775 45.2785 0.333396 45.2915L25.0945 59.8769C25.0945 59.8769 25.1201 59.8769 25.1329 59.8769C25.2227 59.9288 25.3253 59.9676 25.4407 59.9676C25.5561 59.9676 25.6587 59.9288 25.7484 59.8769C25.7484 59.8769 25.7741 59.8769 25.7869 59.8769L50.548 45.2915C50.548 45.2915 50.5865 45.2526 50.6121 45.2396C50.6506 45.2137 50.689 45.1878 50.7147 45.149C50.7403 45.1231 50.7532 45.0972 50.7788 45.0712C50.7788 45.0583 50.8044 45.0324 50.8044 45.0194C50.8173 44.9935 50.8301 44.9676 50.8429 44.9288C50.8557 44.8769 50.8686 44.8381 50.8686 44.7863C50.8686 44.7604 50.8814 44.7345 50.8814 44.7086V15.2785C50.8814 15.2785 50.8814 15.2526 50.8814 15.2396C50.8814 15.1878 50.8686 15.149 50.8557 15.1101L50.8173 15.0972ZM1.33358 16.4832L24.7226 30.3951V58.1153L1.33358 44.3329V16.4832ZM49.4837 44.3329L26.0947 58.1153V30.3951L49.4837 16.4832V44.3329ZM25.415 1.49611L48.8297 15.2785L25.415 29.2034L2.00038 15.2785L25.415 1.49611Z" fill="var(--fill-0, white)"/>
<path id="Vector_2" d="M33.9295 44.7473L39.6741 41.3924C42.4952 39.7473 43.9955 37.8173 43.9827 36.0168C43.9827 34.7862 43.2774 34.3199 42.0849 34.5789C43.0209 33.5556 43.4954 32.4805 43.4954 31.5219C43.4954 29.9546 42.1746 29.5919 39.3664 31.237L33.9167 34.4235L33.9423 44.7473H33.9295ZM40.5076 37.6489C40.5076 38.18 40.1358 38.6852 39.3664 39.1256L37.2891 40.3302V38.7111L39.3536 37.5064C40.1101 37.066 40.4948 37.1178 40.4948 37.6489H40.5076ZM38.9048 33.9442C39.6741 33.4909 40.0332 33.5556 40.0332 34.0608C40.0332 34.566 39.687 35.0323 38.9176 35.4857L37.3147 36.4183V34.8898L38.9176 33.9572L38.9048 33.9442Z" fill="var(--fill-0, white)"/>
<path id="Vector_3" d="M15.7979 39.7862C15.4645 39.9546 15.0926 40.0193 14.6694 39.9805C14.2463 39.9416 13.8488 39.8121 13.4769 39.5919C12.8614 39.2292 12.3613 38.6981 11.9638 38.0116C11.5663 37.325 11.3611 36.6256 11.3611 35.939C11.3611 35.2525 11.5535 34.7991 11.951 34.5919C12.3485 34.3846 12.8486 34.4624 13.4641 34.825C13.8616 35.0582 14.2719 35.4339 14.6951 35.939C15.1182 36.4442 15.4773 37.0012 15.785 37.5971L17.7341 36.4054C17.2084 35.5245 16.5544 34.6696 15.7594 33.8535C14.9772 33.0375 14.1822 32.4028 13.4128 31.9364C11.8099 30.9779 10.4892 30.6929 9.43768 31.0556C8.39902 31.4183 7.87328 32.3769 7.87328 33.9054C7.87328 35.4468 8.3862 37.0401 9.41203 38.6592C10.4379 40.2784 11.733 41.5478 13.2974 42.4805C14.0796 42.9468 14.8746 43.2318 15.6824 43.3354C16.4903 43.439 17.1699 43.3354 17.7469 43.0504L15.785 39.7732L15.7979 39.7862Z" fill="var(--fill-0, white)"/>
<path id="Vector_4" d="M19.4267 17.1178L21.7605 18.6074L24.9021 16.7292L27.5821 18.4261L30.3262 16.781L27.6462 15.0841L30.7879 13.2188L28.4413 11.7292L25.3125 13.6074L22.6325 11.9105L19.8884 13.5427L22.5684 15.2396L19.4267 17.1178Z" fill="var(--fill-0, white)"/>
<path id="Vector_5" d="M87.914 36.6515C86.7471 37.1955 85.6315 37.4675 84.5544 37.4675C82.5156 37.4675 80.8229 36.7421 79.4509 35.2784C78.0788 33.8147 77.3992 32.0012 77.3992 29.825C77.3992 27.6489 78.0788 25.9131 79.4509 24.4624C80.8229 23.0116 82.5284 22.2862 84.5544 22.2862C85.7085 22.2862 86.8625 22.5841 88.0294 23.1929C89.1963 23.8017 90.1837 24.6178 91.0172 25.6541L94.7999 21.1333C93.5048 19.7991 91.9276 18.737 90.0811 17.9468C88.2346 17.1567 86.3496 16.7551 84.439 16.7551C80.5152 16.7551 77.2582 18.0116 74.6295 20.5245C72.0136 23.0375 70.7056 26.1592 70.7056 29.8898C70.7056 33.6204 71.9879 36.8717 74.5653 39.4235C77.1299 41.9753 80.3613 43.2447 84.221 43.2447C86.106 43.2447 88.0038 42.8173 89.9016 41.9494C91.7994 41.0815 93.4407 39.9287 94.8384 38.5038L91.0172 34.4235C90.1067 35.3691 89.0809 36.1074 87.914 36.6515Z" fill="var(--fill-0, white)"/>
<path id="Vector_6" d="M119.138 26.0297C119.138 23.1411 118.202 20.9002 116.342 19.3328C114.483 17.7655 111.854 16.9753 108.444 16.9753H96.9542V42.9468H103.494V35.6411H108.636L112.457 42.9468H119.882L114.483 34.3717C117.586 32.8173 119.151 30.0323 119.151 26.0297H119.138ZM111.752 29.3717C110.97 30.0841 109.867 30.4468 108.444 30.4468H103.481V22.1696H108.444C109.867 22.1696 110.97 22.5193 111.752 23.2059C112.534 23.8924 112.932 24.9157 112.932 26.2499C112.932 27.5841 112.534 28.6463 111.752 29.3717Z" fill="var(--fill-0, white)"/>
<path id="Vector_7" d="M133.089 16.9883L121.997 42.9598H128.717L130.589 38.18H141.822L143.655 42.9598H150.631L139.796 16.9883H133.076H133.089ZM132.499 33.1541L136.244 23.5427L139.911 33.1541H132.487H132.499Z" fill="var(--fill-0, white)"/>
<path id="Vector_8" d="M152.76 42.9468H159.299V33.3872H170.827V28.1929H159.299V22.1826H171.814V16.9883H152.76V42.9468Z" fill="var(--fill-0, white)"/>
<path id="Vector_9" d="M173.93 22.2862H181.611V42.9468H188.151V22.2862H195.896V16.9494H173.93V22.2862Z" fill="var(--fill-0, white)"/>
<path id="Vector_10" d="M215.259 29.1903C216.631 28.7888 217.708 28.0893 218.49 27.053C219.272 26.0297 219.67 24.838 219.67 23.4779C219.67 21.496 218.823 19.9287 217.118 18.7499C215.412 17.5712 213.117 16.9883 210.232 16.9883H198.076V42.9598H210.668C213.707 42.9598 216.105 42.3121 217.887 41.0168C219.657 39.7214 220.554 37.9727 220.554 35.7706C220.554 34.0867 220.08 32.6489 219.118 31.4701C218.169 30.2784 216.874 29.5271 215.259 29.2033V29.1903ZM204.577 22.0271H209.86C210.809 22.0271 211.578 22.2603 212.143 22.7266C212.707 23.1929 212.989 23.8406 212.989 24.6567C212.989 25.4727 212.707 26.1592 212.143 26.6385C211.578 27.1178 210.822 27.3639 209.86 27.3639H204.577V22.0271ZM212.745 37.0919C212.053 37.61 211.091 37.8691 209.86 37.8691H204.577V32.1178H209.86C211.078 32.1178 212.04 32.3769 212.745 32.882C213.438 33.3872 213.797 34.0738 213.797 34.9416C213.797 35.8613 213.45 36.5738 212.745 37.0919Z" fill="var(--fill-0, white)"/>
<path id="Vector_11" d="M245.444 20.5245C242.802 18.0116 239.481 16.7551 235.493 16.7551C231.505 16.7551 228.223 17.9986 225.581 20.4986C222.939 22.9986 221.619 26.1333 221.619 29.9157C221.619 33.6981 222.939 36.8976 225.581 39.4364C228.223 41.9753 231.531 43.2447 235.493 43.2447C239.455 43.2447 242.777 41.9753 245.431 39.4235C248.085 36.8717 249.419 33.7111 249.419 29.9287C249.419 26.1463 248.098 23.0375 245.457 20.5245H245.444ZM240.609 35.4727C239.225 36.9753 237.545 37.7137 235.557 37.7137C233.57 37.7137 231.864 36.9624 230.428 35.4727C228.992 33.9831 228.274 32.1437 228.274 29.9675C228.274 27.7914 228.979 25.9649 230.402 24.5012C231.826 23.0245 233.531 22.2991 235.544 22.2991C237.558 22.2991 239.212 23.0375 240.597 24.5012C241.982 25.9779 242.674 27.7914 242.674 29.9675C242.674 32.1437 241.982 33.9831 240.597 35.4727H240.609Z" fill="var(--fill-0, white)"/>
<path id="Vector_12" d="M262.755 29.3717L271.243 16.9883H263.562L258.613 24.553L253.65 16.9883H246.046L254.638 29.6696L245.457 42.9468H253.061L258.613 34.6826L264.152 42.9468H271.974L262.755 29.3717Z" fill="var(--fill-0, white)"/>
</g>
</svg>
