<svg width="38" height="20" viewBox="0 0 38 20" fill="none" xmlns="http://www.w3.org/2000/svg">
<path d="M34.2607 6.54413L33.9573 5.43286H32.311C32.3166 5.41883 32.325 5.4048 32.3306 5.39077C32.7492 4.45629 32.7773 3.41518 32.4093 2.46106C31.8446 0.987793 30.4062 0 28.8273 0C28.3581 0 27.8974 0.0841869 27.4563 0.252561C26.4983 0.617371 25.7426 1.33296 25.324 2.27024C25.0234 2.94374 24.925 3.67055 25.029 4.38052C24.8773 4.31318 24.7199 4.25144 24.5626 4.19812C23.8631 3.95959 23.0989 3.83612 22.2926 3.83612C21.3178 3.83612 20.3766 4.01291 19.4945 4.36369C18.8511 4.61905 18.233 4.96703 17.6543 5.4048L17.8285 3.83892H10.3555L10.2599 4.66676C9.68121 4.45629 9.06595 4.34966 8.4254 4.34966H1.58731L0 18.2826H6.06269L6.36611 15.6195H7.48425C8.21189 15.6195 8.92267 15.4848 9.59973 15.2182C9.88629 15.1059 10.1644 14.9712 10.4397 14.8113L10.0436 18.2938H16.1906L16.3929 16.5091C16.9435 17.0366 17.5616 17.4519 18.2387 17.7494C19.0674 18.1114 19.9917 18.2938 20.9862 18.2938C21.3964 18.2938 21.8038 18.2601 22.2027 18.1956L21.2869 20H27.7625L28.7964 17.7803H31.2434L31.7744 20H38L34.2607 6.54413Z" fill="#231F20"/>
<path d="M16.3451 5.23926H11.6927L11.5242 6.71253H12.8586L11.7124 16.7729L11.7012 16.8879H15.0191L16.3339 5.35431L16.3451 5.23926Z" fill="#F1A21F"/>
<path d="M12.2828 10.0042C12.3502 9.40371 12.3024 8.84247 12.1395 8.33173C11.9737 7.821 11.6928 7.34955 11.2995 6.93423C10.9258 6.54136 10.4988 6.24109 10.0296 6.04746C9.55764 5.85102 9.04633 5.75 8.50973 5.75H2.92463L1.67164 16.7616L1.65759 16.8767H4.89403L5.19744 14.2136H7.57139C8.12203 14.2136 8.66144 14.1098 9.17275 13.9077C9.68406 13.7057 10.1841 13.3998 10.6533 13.0013C11.1253 12.6112 11.5046 12.1566 11.7743 11.6571C12.044 11.1576 12.2181 10.5992 12.2856 10.0014L12.2828 10.0042ZM8.47883 11.0397C8.31869 11.152 8.15013 11.2362 7.97594 11.2867C7.79895 11.3372 7.61353 11.3625 7.41968 11.3625H5.44748L5.76213 8.60394H7.75681C7.95909 8.60394 8.14451 8.632 8.30745 8.68812C8.4704 8.74425 8.61368 8.82282 8.73167 8.92104C8.87214 9.04171 8.97047 9.18763 9.03228 9.36162C9.09409 9.53841 9.11375 9.74607 9.08566 9.9818C9.06037 10.2063 8.99295 10.4083 8.889 10.5879C8.78505 10.7647 8.64739 10.9163 8.47883 11.0397Z" fill="#F1A21F"/>
<path d="M32.988 6.91177L32.9683 6.836H29.642L26.7314 12.5579H23.7731L23.7422 12.6028C23.4529 13.0013 23.1101 13.2987 22.7252 13.4896C22.3375 13.6804 21.9021 13.7786 21.4273 13.7786C21.0564 13.7786 20.7165 13.7113 20.4131 13.5766C20.1125 13.4447 19.8456 13.2426 19.618 12.9732C19.3933 12.7207 19.2303 12.4288 19.132 12.1117C19.0337 11.7946 19.0056 11.4438 19.0477 11.0734C19.0899 10.7002 19.1994 10.3494 19.368 10.0323C19.5422 9.70958 19.7754 9.40931 20.0619 9.14272C20.3457 8.88736 20.6631 8.68811 21.0003 8.55061C21.3374 8.41591 21.6942 8.34856 22.0678 8.34856C22.5539 8.34856 22.9725 8.44678 23.3096 8.64602C23.6467 8.83965 23.908 9.13711 24.0934 9.52998L24.1215 9.58891H27.4816L27.4563 9.46263C27.3383 8.84246 27.1304 8.26998 26.8438 7.75925C26.5544 7.25132 26.178 6.79391 25.7201 6.40104C25.2621 6.00816 24.748 5.7107 24.1917 5.52269C23.6383 5.33186 23.0286 5.23645 22.3769 5.23645C21.579 5.23645 20.812 5.37957 20.0984 5.663C19.3848 5.94643 18.7022 6.37578 18.0729 6.94264C17.4436 7.49547 16.9407 8.12687 16.5783 8.81439C16.2158 9.50192 15.9855 10.2568 15.8956 11.051C15.8057 11.8479 15.8647 12.6 16.0726 13.2819C16.2805 13.9666 16.6401 14.6036 17.1458 15.1705C17.6514 15.7374 18.2358 16.1723 18.8904 16.4586C19.5394 16.742 20.2754 16.8851 21.0761 16.8851C21.7251 16.8851 22.36 16.7869 22.964 16.5905C23.5681 16.3968 24.1496 16.0966 24.6946 15.7065C24.9615 15.5129 25.2144 15.308 25.4475 15.0891L23.6664 18.5941H26.959L27.9929 16.3744H32.443L32.9739 18.5941H36.2413L32.9936 6.91177H32.988ZM31.7771 13.6018H29.2796L30.9315 10.0547L31.7771 13.6018Z" fill="#F1A21F"/>
<path d="M28.0434 1.56024C26.7904 2.04011 26.1611 3.44322 26.6415 4.6948C26.7932 5.09609 27.0405 5.43003 27.3467 5.6854C27.4197 6.03337 27.4787 6.44589 27.4843 6.89769C27.4843 6.89769 27.7625 6.53007 28.3609 6.19333C28.8188 6.29996 29.3076 6.27471 29.7796 6.09511C31.0354 5.61524 31.6619 4.21213 31.1815 2.96055C30.7011 1.70897 29.2964 1.08318 28.0434 1.56024Z" fill="white"/>
<path d="M28.3356 3.359C28.1952 3.54418 27.9339 3.58066 27.7485 3.44037C27.5631 3.30288 27.5265 3.03913 27.667 2.85675C27.8047 2.67157 28.0687 2.63509 28.2514 2.77258C28.4368 2.91006 28.4733 3.17381 28.3356 3.359Z" fill="#020202"/>
<path d="M30.3978 4.1588C30.2573 4.34399 29.996 4.38046 29.8106 4.24017C29.6252 4.10268 29.5887 3.83894 29.7291 3.65656C29.8668 3.47137 30.1281 3.43489 30.3135 3.57238C30.4989 3.70987 30.5354 3.97362 30.3978 4.1588Z" fill="#020202"/>
<path d="M28.2906 5.1746C28.271 5.16618 28.2513 5.15777 28.2316 5.14935C27.7709 4.93049 27.6445 4.39177 27.6389 4.36933C27.6192 4.28796 27.6726 4.20659 27.754 4.18695C27.8355 4.17011 27.917 4.22062 27.9367 4.30199C27.9367 4.31321 28.0406 4.72286 28.3637 4.87438C28.5828 4.97539 28.8638 4.94172 29.2009 4.77337C29.2767 4.73409 29.3666 4.76495 29.4032 4.84071C29.4397 4.91646 29.4116 5.00625 29.3357 5.04553C28.9368 5.24475 28.5856 5.28964 28.2906 5.1746Z" fill="#020202"/>
</svg>
