<?xml version="1.0" encoding="UTF-8"?>
<svg id="Layer_2" data-name="Layer 2" xmlns="http://www.w3.org/2000/svg" viewBox="0 0 316.97 50.91">
  <g id="Layer_1-2" data-name="Layer 1">
    <g>
      <g opacity=".7">
        <rect y="11.45" width="28" height="28" rx="4" ry="4" fill="#fff"/>
        <path d="M187.2,35.88c.74-.73,1.2-1.74,1.2-2.86v-6.12c0-1.07-.42-2.04-1.1-2.75.38-.61.6-1.33.6-2.11v-6.12c0-.9-.3-1.74-.8-2.41.5-.67.8-1.5.8-2.41v-6.12c0-2.21-1.79-4-4-4h-36.94c-1.24,0-2.34.58-3.07,1.47-.6-1.45-2.03-2.47-3.69-2.47h-7.27c-.66,0-1.28.16-1.83.44-.55-.28-1.17-.44-1.83-.44h-7.22c-1.05,0-2,.4-2.72,1.06-.6-.36-1.3-.56-2.04-.56h-7.22c-1.53,0-2.86.86-3.53,2.12-.67-1.26-2-2.12-3.53-2.12h-7.22c-.99,0-1.89.37-2.59.97-.73-.89-1.83-1.47-3.08-1.47h-7.87c-2.21,0-4,1.79-4,4v6.89c-.74-1.61-1.61-3.03-2.59-4.24-1.73-2.14-3.78-3.73-6.11-4.73-2.21-.94-4.52-1.42-6.86-1.42s-4.7.48-6.91,1.42c-2.32.99-4.37,2.58-6.1,4.72-1.63,2.03-2.94,4.63-3.9,7.73-.91,2.99-1.38,6.63-1.38,10.82s.46,7.83,1.38,10.84c.95,3.13,2.27,5.74,3.91,7.75,1.73,2.12,3.78,3.7,6.09,4.69,2.21.95,4.54,1.42,6.91,1.42s4.64-.48,6.86-1.42c2.31-.99,4.36-2.56,6.09-4.69.98-1.21,1.85-2.63,2.6-4.24v6.35c0,2.21,1.79,4,4,4h7.87c1.78,0,3.27-1.17,3.79-2.78.11,2.11,1.84,3.78,3.98,3.78h42.81c1.09,0,2.08-.44,2.8-1.15.32.09.66.14,1.01.14h41.85c2.21,0,4-1.79,4-4v-6.12c0-1.92-1.35-3.52-3.15-3.91ZM64.66,31.57c-.34,1.84-.74,2.83-1,3.34-.31.58-.52.74-.52.74-.25.14-.38.14-.44.14-.12,0-.27-.02-.47-.13,0,0-.21-.16-.52-.75-.27-.52-.67-1.54-1.02-3.37-.3-1.62-.46-3.75-.46-6.33s.15-4.71.46-6.33c.34-1.83.74-2.85,1.02-3.37.3-.57.51-.74.5-.74h0c.22-.13.37-.14.49-.14.06,0,.19,0,.43.14,0,0,.21.16.53.74.27.51.67,1.5,1.01,3.33.3,1.62.46,3.75.46,6.33s-.15,4.77-.46,6.41ZM109.75,36.84v-3.73h7.53c.26,0,.51-.02.76-.07v.88c0,1.15.49,2.19,1.26,2.92h-9.55ZM144.09,35.81c-.14.01-.28.05-.42.08.07-.12.13-.25.18-.37.08.1.15.2.23.29Z" fill="#fff"/>
        <path d="M290.71,8.37h-.36v-4.37c0-2.21-1.79-4-4-4h-7.87c-1.4,0-2.64.72-3.35,1.82-.73-.81-1.79-1.31-2.96-1.31h-24.51c-.99,0-1.89.37-2.59.97-.73-.89-1.83-1.47-3.08-1.47h-7.87c-1.67,0-3.11,1.03-3.71,2.49-.73-.91-1.86-1.49-3.11-1.49h-25.51c-2.21,0-4,1.79-4,4v6.12c0,2.21,1.79,4,4,4h13.64v30.29c0,2.21,1.79,4,4,4h7.87c1.34,0,2.53-.66,3.26-1.68.66,1.29,2.01,2.18,3.56,2.18h7.87c1.78,0,3.27-1.17,3.79-2.78.11,2.11,1.84,3.78,3.98,3.78h37.09c2.21,0,4-1.79,4-4v-6.07c0-1.59-.92-2.96-2.26-3.6,1.06-.72,1.76-1.93,1.76-3.31v-11.44h.36c2.21,0,4-1.79,4-4v-6.12c0-2.21-1.79-4-4-4ZM257.63,28.62h-7.87c-1.75,0-3.23,1.14-3.77,2.71V14.25c.51.23,1.07.37,1.66.37h12.64v14.5c0,.19.01.38.04.56-.71-.66-1.66-1.05-2.71-1.05ZM261.63,36.84v-4.22c0-.19-.01-.38-.04-.56.71.66,1.66,1.05,2.71,1.05h7.87c.86,0,1.66-.27,2.32-.74v1.55c0,1.15.49,2.19,1.26,2.92h-14.12Z" fill="#fff"/>
        <rect x="300.9" y="6.17" width="16.07" height="15.62" rx="4" ry="4" fill="#fff"/>
        <rect x="300.9" y="29.22" width="16.07" height="15.62" rx="4" ry="4" fill="#fff"/>
      </g>
      <g>
        <rect x="4" y="15.45" width="20" height="20" fill="#1d1d1d"/>
        <g>
          <path d="M76.98,25.2c0,3.81-.41,7.04-1.23,9.67-.82,2.64-1.89,4.77-3.21,6.39-1.32,1.62-2.84,2.8-4.56,3.53-1.72.73-3.48,1.1-5.29,1.1s-3.62-.37-5.34-1.1c-1.72-.74-3.24-1.91-4.56-3.53-1.32-1.62-2.38-3.75-3.18-6.39-.8-2.64-1.2-5.86-1.2-9.67s.4-7.03,1.2-9.65c.8-2.62,1.86-4.75,3.18-6.39,1.32-1.64,2.84-2.82,4.56-3.56,1.72-.73,3.5-1.1,5.34-1.1s3.57.37,5.29,1.1c1.72.74,3.24,1.92,4.56,3.56,1.32,1.64,2.39,3.77,3.21,6.39.82,2.62,1.23,5.84,1.23,9.65ZM56.23,25.2c0,2.84.17,5.2.53,7.07.35,1.87.82,3.37,1.4,4.49.58,1.12,1.27,1.91,2.05,2.36.79.45,1.61.68,2.48.68s1.65-.23,2.43-.68c.79-.45,1.47-1.23,2.06-2.33.58-1.1,1.05-2.6,1.4-4.49.35-1.89.53-4.27.53-7.14s-.18-5.2-.53-7.07-.82-3.36-1.4-4.46c-.58-1.1-1.27-1.88-2.06-2.33s-1.6-.68-2.43-.68-1.7.23-2.48.68-1.47,1.24-2.05,2.36c-.58,1.12-1.05,2.62-1.4,4.49-.35,1.87-.53,4.23-.53,7.07ZM90.12,45.9h-7.87V4h7.87v41.9Z" fill="#1d1d1d"/>
          <path d="M122.04,18.39l-4.76,1.1v9.62h-21.5V4.5h7.22v5.91h7.07v-5.91h7.22v8.72l4.76-1.1V4h7.22v29.92h-7.22v-15.54ZM105.75,32.62v8.22h34.94v6.07h-42.81v-14.29h7.87ZM110.07,16.53h-7.07v6.47h7.07v-6.47ZM132.92,33.92V4h7.27v29.92h-7.27Z" fill="#1d1d1d"/>
          <path d="M144.5,39.79h41.85v6.12h-41.85v-6.12ZM184.4,26.91v6.12h-37.44V5h36.94v6.12h-29.07v4.81h29.07v6.12h-29.07v4.86h29.57Z" fill="#1d1d1d"/>
          <path d="M219.44,45.4V11.12h-17.64v-6.12h25.51v40.4h-7.87ZM241.99,45.9h-7.87V4h7.87v41.9Z" fill="#1d1d1d"/>
          <path d="M247.66,10.62v-6.12h24.51v24.61h-7.87V10.62h-16.64ZM257.63,32.62v8.22h29.22v6.07h-37.09v-14.29h7.87ZM286.35,18.49v15.44h-7.87V4h7.87v8.37h4.36v6.12h-4.36Z" fill="#1d1d1d"/>
          <path d="M304.9,17.79v-7.62h8.07v7.62h-8.07ZM304.9,40.84v-7.62h8.07v7.62h-8.07Z" fill="#1d1d1d"/>
        </g>
      </g>
    </g>
  </g>
</svg>