<svg overflow="visible" style="display: block;" viewBox="0 0 89.9915 19.9892" fill="none" xmlns="http://www.w3.org/2000/svg">
<g id="Group">
<path id="Vector" d="M16.8145 5.03238C16.8145 5.03238 16.8061 5.00216 16.8018 4.98921C16.8018 4.98921 16.8018 4.98921 16.8018 4.98489C16.8018 4.98489 16.8018 4.98057 16.8018 4.97625C16.7976 4.96762 16.7891 4.9633 16.7848 4.95466C16.7764 4.94171 16.7679 4.92876 16.7551 4.92012C16.7467 4.91149 16.7382 4.90717 16.7297 4.90285C16.7297 4.90285 16.7297 4.89853 16.7212 4.89421L8.52395 0.0323834C8.45182 -0.0107945 8.36696 -0.0107945 8.29483 0.0323834L0.101829 4.89421C0.101829 4.89421 0.0975863 4.89853 0.0933434 4.90285C0.0848576 4.90717 0.0763719 4.9158 0.0678861 4.92012C0.0551575 4.92876 0.0466717 4.94171 0.0381859 4.95466C0.0339431 4.9633 0.0254573 4.96762 0.0212144 4.97625C0.0212144 4.97625 0.0212144 4.97625 0.0212144 4.98057V4.98489C0.0127286 4.99784 0.0127286 5.01079 0.00848576 5.02807C0.00848576 5.04534 0 5.05829 0 5.07124C0 5.07556 0 5.07988 0 5.0842V14.9028C0 14.9028 0.00424288 14.9201 0.00424288 14.9288C0.00424288 14.946 0.00424288 14.959 0.0127286 14.9763C0.0127286 14.9849 0.0212144 14.9978 0.0254573 15.0065C0.0254573 15.0151 0.033943 15.0194 0.033943 15.0237C0.0381859 15.0324 0.0466717 15.041 0.0551575 15.0497C0.0636432 15.0626 0.0763719 15.0712 0.0891005 15.0799C0.0975863 15.0842 0.101829 15.0928 0.110315 15.0972L8.30332 19.959C8.30332 19.959 8.3118 19.959 8.31605 19.959C8.34575 19.9763 8.37969 19.9892 8.41788 19.9892C8.45606 19.9892 8.49001 19.9763 8.51971 19.959C8.51971 19.959 8.52819 19.959 8.53243 19.959L16.7254 15.0972C16.7254 15.0972 16.7382 15.0842 16.7467 15.0799C16.7594 15.0712 16.7721 15.0626 16.7806 15.0497C16.7891 15.041 16.7933 15.0324 16.8018 15.0237C16.8018 15.0194 16.8103 15.0108 16.8103 15.0065C16.8145 14.9978 16.8188 14.9892 16.823 14.9763C16.8273 14.959 16.8315 14.946 16.8315 14.9288C16.8315 14.9201 16.8358 14.9115 16.8358 14.9028V5.09283C16.8358 5.09283 16.8358 5.0842 16.8358 5.07988C16.8358 5.06261 16.8315 5.04965 16.8273 5.0367L16.8145 5.03238ZM0.44126 5.49439L8.18027 10.1317V19.3718L0.44126 14.7776V5.49439ZM16.3733 14.7776L8.63426 19.3718V10.1317L16.3733 5.49439V14.7776ZM8.40939 0.498705L16.1569 5.09283L8.40939 9.73446L0.661889 5.09283L8.40939 0.498705Z" fill="var(--fill-0, white)"/>
<path id="Vector_2" d="M11.2267 14.9158L13.1275 13.7975C14.0609 13.2491 14.5573 12.6058 14.5531 12.0056C14.5531 11.5954 14.3197 11.44 13.9251 11.5263C14.2349 11.1852 14.3919 10.8268 14.3919 10.5073C14.3919 9.98486 13.9548 9.86396 13.0256 10.4123L11.2224 11.4745L11.2309 14.9158H11.2267ZM13.4033 12.5496C13.4033 12.7267 13.2802 12.8951 13.0256 13.0419L12.3383 13.4434V12.9037L13.0214 12.5021C13.2717 12.3553 13.399 12.3726 13.399 12.5496H13.4033ZM12.8729 11.3147C13.1275 11.1636 13.2463 11.1852 13.2463 11.3536C13.2463 11.522 13.1317 11.6774 12.8771 11.8286L12.3468 12.1394V11.6299L12.8771 11.3191L12.8729 11.3147Z" fill="var(--fill-0, white)"/>
<path id="Vector_3" d="M5.22723 13.2621C5.11692 13.3182 4.99387 13.3398 4.85386 13.3268C4.71384 13.3139 4.58231 13.2707 4.45927 13.1973C4.25561 13.0764 4.09014 12.8994 3.95861 12.6705C3.82708 12.4417 3.75919 12.2085 3.75919 11.9797C3.75919 11.7508 3.82284 11.5997 3.95437 11.5306C4.08589 11.4615 4.25137 11.4875 4.45503 11.6083C4.58656 11.6861 4.72233 11.8113 4.86234 11.9797C5.00236 12.1481 5.12116 12.3337 5.22299 12.5324L5.86791 12.1351C5.69395 11.8415 5.47756 11.5565 5.2145 11.2845C4.95569 11.0125 4.69263 10.8009 4.43805 10.6455C3.90769 10.326 3.47068 10.231 3.12276 10.3519C2.77909 10.4728 2.60513 10.7923 2.60513 11.3018C2.60513 11.8156 2.77484 12.3467 3.11428 12.8864C3.45371 13.4261 3.88224 13.8493 4.39987 14.1602C4.65868 14.3156 4.92174 14.4106 5.18904 14.4451C5.45635 14.4797 5.68122 14.4451 5.87215 14.3501L5.22299 13.2577L5.22723 13.2621Z" fill="var(--fill-0, white)"/>
<path id="Vector_4" d="M6.42797 5.70593L7.20017 6.20248L8.23968 5.5764L9.12644 6.14203L10.0344 5.59367L9.14765 5.02804L10.1872 4.40628L9.41071 3.90973L8.37545 4.53581L7.48869 3.97018L6.58071 4.51422L7.46747 5.07985L6.42797 5.70593Z" fill="var(--fill-0, white)"/>
<path id="Vector_5" d="M29.0892 12.2172C28.7031 12.3985 28.334 12.4892 27.9776 12.4892C27.3029 12.4892 26.7429 12.2474 26.2889 11.7595C25.8349 11.2716 25.61 10.6671 25.61 9.94168C25.61 9.21629 25.8349 8.63771 26.2889 8.15412C26.7429 7.67053 27.3072 7.42873 27.9776 7.42873C28.3594 7.42873 28.7413 7.52804 29.1274 7.73097C29.5135 7.93391 29.8402 8.20593 30.116 8.55135L31.3676 7.04445C30.9391 6.59971 30.4172 6.24566 29.8062 5.98227C29.1953 5.71888 28.5716 5.58503 27.9394 5.58503C26.6411 5.58503 25.5634 6.00386 24.6936 6.84151C23.828 7.67916 23.3952 8.71975 23.3952 9.96327C23.3952 11.2068 23.8195 12.2906 24.6724 13.1412C25.5209 13.9918 26.5901 14.4149 27.8672 14.4149C28.4909 14.4149 29.1189 14.2724 29.7468 13.9831C30.3748 13.6938 30.9179 13.3096 31.3804 12.8346L30.116 11.4745C29.8147 11.7897 29.4753 12.0358 29.0892 12.2172Z" fill="var(--fill-0, white)"/>
<path id="Vector_6" d="M39.4206 8.67657C39.4206 7.7137 39.1109 6.96673 38.4957 6.44427C37.8804 5.92182 37.0107 5.65844 35.882 5.65844H32.0804V14.3156H34.2443V11.8804H35.9457L37.2101 14.3156H39.6667L37.8804 11.4572C38.9072 10.9391 39.4249 10.0108 39.4249 8.67657H39.4206ZM36.9767 9.79056C36.7179 10.028 36.353 10.1489 35.882 10.1489H34.2401V7.38987H35.882C36.353 7.38987 36.7179 7.50645 36.9767 7.73529C37.2355 7.96414 37.3671 8.30524 37.3671 8.74997C37.3671 9.19471 37.2355 9.54876 36.9767 9.79056Z" fill="var(--fill-0, white)"/>
<path id="Vector_7" d="M44.0369 5.66275L40.3668 14.3199H42.59L43.2095 12.7267H46.9263L47.533 14.3199H49.8411L46.2559 5.66275H44.0326H44.0369ZM43.8417 11.0514L45.0806 7.84756L46.2941 11.0514H43.8375H43.8417Z" fill="var(--fill-0, white)"/>
<path id="Vector_8" d="M50.5454 14.3156H52.7093V11.1291H56.5237V9.39764H52.7093V7.39419H56.8504V5.66275H50.5454V14.3156Z" fill="var(--fill-0, white)"/>
<path id="Vector_9" d="M57.5504 7.42873H60.0919V14.3156H62.2558V7.42873H64.8185V5.6498H57.5504V7.42873Z" fill="var(--fill-0, white)"/>
<path id="Vector_10" d="M71.2252 9.73011C71.6792 9.59626 72.0356 9.3631 72.2945 9.01768C72.5533 8.67657 72.6848 8.27933 72.6848 7.82597C72.6848 7.16534 72.4048 6.64289 71.8405 6.24997C71.2762 5.85705 70.5167 5.66275 69.562 5.66275H65.5398V14.3199H69.7063C70.7119 14.3199 71.5053 14.104 72.095 13.6723C72.6806 13.2405 72.9776 12.6576 72.9776 11.9235C72.9776 11.3622 72.8206 10.883 72.5024 10.49C72.1884 10.0928 71.7598 9.84237 71.2252 9.73443V9.73011ZM67.6909 7.34237H69.439C69.753 7.34237 70.0075 7.42009 70.1942 7.57553C70.3809 7.73098 70.4743 7.94686 70.4743 8.21889C70.4743 8.49091 70.3809 8.71975 70.1942 8.87951C70.0075 9.03926 69.7572 9.1213 69.439 9.1213H67.6909V7.34237ZM70.3936 12.364C70.1645 12.5367 69.8463 12.623 69.439 12.623H67.6909V10.7059H69.439C69.8421 10.7059 70.1603 10.7923 70.3936 10.9607C70.6228 11.1291 70.7416 11.3579 70.7416 11.6472C70.7416 11.9538 70.627 12.1913 70.3936 12.364Z" fill="var(--fill-0, white)"/>
<path id="Vector_11" d="M81.213 6.84151C80.339 6.00386 79.24 5.58503 77.9205 5.58503C76.601 5.58503 75.5148 5.99954 74.6408 6.83287C73.7667 7.66621 73.3297 8.71111 73.3297 9.97191C73.3297 11.2327 73.7667 12.2992 74.6408 13.1455C75.5148 13.9918 76.6095 14.4149 77.9205 14.4149C79.2316 14.4149 80.3305 13.9918 81.2087 13.1412C82.087 12.2906 82.5283 11.237 82.5283 9.97623C82.5283 8.71543 82.0913 7.67916 81.2172 6.84151H81.213ZM79.6134 11.8242C79.1552 12.3251 78.5994 12.5712 77.9417 12.5712C77.2841 12.5712 76.7198 12.3208 76.2446 11.8242C75.7694 11.3277 75.5318 10.7146 75.5318 9.98918C75.5318 9.26379 75.7651 8.65498 76.2361 8.16707C76.707 7.67484 77.2714 7.43305 77.9375 7.43305C78.6036 7.43305 79.1509 7.67916 79.6092 8.16707C80.0674 8.6593 80.2965 9.26379 80.2965 9.98918C80.2965 10.7146 80.0674 11.3277 79.6092 11.8242H79.6134Z" fill="var(--fill-0, white)"/>
<path id="Vector_12" d="M86.9409 9.79056L89.7497 5.66275H87.2082L85.5704 8.18434L83.9284 5.66275H81.4124L84.2551 9.88987L81.2172 14.3156H83.7333L85.5704 11.5609L87.4034 14.3156H89.9915L86.9409 9.79056Z" fill="var(--fill-0, white)"/>
</g>
</svg>
