<?xml version="1.0" encoding="UTF-8"?>
<svg id="Layer_2" data-name="Layer 2" xmlns="http://www.w3.org/2000/svg" xmlns:xlink="http://www.w3.org/1999/xlink" viewBox="0 0 340.77 74.73">
  <defs>
    <clipPath id="clippath">
      <polygon points="337.88 72.73 2.89 72.73 29.53 2 311.24 2 337.88 72.73" fill="#2c2c2c"/>
    </clipPath>
  </defs>
  <g id="Layer_1-2" data-name="Layer 1">
    <g>
      <g>
        <g>
          <polygon points="337.88 72.73 2.89 72.73 29.53 2 311.24 2 337.88 72.73" fill="#2c2c2c"/>
          <g clip-path="url(#clippath)">
            <g>
              <g>
                <rect x="-1.45" y="43.11" width="12.88" height="12.88" fill="#373737"/>
                <rect x="11.43" y="55.99" width="12.88" height="12.88" fill="#373737"/>
                <rect x="24.32" y="43.11" width="12.88" height="12.88" fill="#373737"/>
                <rect x="37.2" y="55.99" width="12.88" height="12.88" fill="#373737"/>
                <rect x="50.09" y="43.11" width="12.88" height="12.88" fill="#373737"/>
                <rect x="62.97" y="55.99" width="12.88" height="12.88" fill="#373737"/>
                <rect x="75.86" y="43.11" width="12.88" height="12.88" fill="#373737"/>
                <rect x="88.74" y="55.99" width="12.88" height="12.88" fill="#373737"/>
                <rect x="101.63" y="43.11" width="12.88" height="12.88" fill="#373737"/>
                <rect x="114.51" y="55.99" width="12.88" height="12.88" fill="#373737"/>
                <rect x="127.4" y="43.11" width="12.88" height="12.88" fill="#373737"/>
                <rect x="140.28" y="55.99" width="12.88" height="12.88" fill="#373737"/>
                <rect x="153.16" y="43.11" width="12.88" height="12.88" fill="#373737"/>
                <rect x="166.05" y="55.99" width="12.88" height="12.88" fill="#373737"/>
              </g>
              <g>
                <rect x="178.93" y="43.11" width="12.88" height="12.88" fill="#373737"/>
                <rect x="191.82" y="55.99" width="12.88" height="12.88" fill="#373737"/>
                <rect x="204.7" y="43.11" width="12.88" height="12.88" fill="#373737"/>
                <rect x="217.59" y="55.99" width="12.88" height="12.88" fill="#373737"/>
                <rect x="230.47" y="43.11" width="12.88" height="12.88" fill="#373737"/>
                <rect x="243.36" y="55.99" width="12.88" height="12.88" fill="#373737"/>
                <rect x="256.24" y="43.11" width="12.88" height="12.88" fill="#373737"/>
                <rect x="269.12" y="55.99" width="12.88" height="12.88" fill="#373737"/>
                <rect x="282.01" y="43.11" width="12.88" height="12.88" fill="#373737"/>
                <rect x="294.89" y="55.99" width="12.88" height="12.88" fill="#373737"/>
                <rect x="307.78" y="43.11" width="12.88" height="12.88" fill="#373737"/>
                <rect x="320.66" y="55.99" width="12.88" height="12.88" fill="#373737"/>
                <rect x="333.55" y="43.11" width="12.88" height="12.88" fill="#373737"/>
              </g>
            </g>
          </g>
        </g>
        <polygon points="337.88 72.73 2.89 72.73 29.53 2 311.24 2 337.88 72.73" fill="none" stroke="#1d1d1d" stroke-miterlimit="10" stroke-width="4"/>
      </g>
      <g>
        <path d="M91.11,33.94v5.85h-13.36v5.1h14.35v5.81h-21.42v-27.1h21.08v5.85h-14.01v4.49h13.36Z" fill="#e8e8e8"/>
        <path d="M100.67,23.6l6.56,19.28,6.56-19.28h7.07l-9.18,27.1h-8.91l-9.18-27.1h7.07Z" fill="#e8e8e8"/>
        <path d="M143.51,33.94v5.85h-13.36v5.1h14.35v5.81h-21.42v-27.1h21.08v5.85h-14.01v4.49h13.36Z" fill="#e8e8e8"/>
        <path d="M147.69,23.6h7.07l10.17,16.42v-16.42h7.07v27.1h-7.07l-10.17-16.73v16.73h-7.07v-27.1Z" fill="#e8e8e8"/>
        <path d="M190.22,29.45v21.25h-7.07v-21.25h-8.6v-5.85h24.28v5.85h-8.6Z" fill="#e8e8e8"/>
        <path d="M224.36,29.45v21.25h-7.07v-21.25h-8.6v-5.85h24.28v5.85h-8.6Z" fill="#e8e8e8"/>
        <path d="M242.58,23.6v27.1h-7.07v-27.1h7.07Z" fill="#e8e8e8"/>
        <path d="M246.49,23.6h15.2c1.18,0,2.28.16,3.31.48,1.03.32,1.92.8,2.67,1.45.75.65,1.34,1.48,1.77,2.5.43,1.02.65,2.22.65,3.6s-.17,2.52-.51,3.49c-.34.96-.85,1.78-1.53,2.45-.68.67-1.52,1.22-2.53,1.67-1.01.44-2.17.81-3.48,1.11l-8.47,1.87v8.5h-7.07v-27.1ZM263.05,31.8c0-.63-.21-1.18-.63-1.65-.42-.46-.98-.7-1.68-.7h-7.17v6.56l6.46-1.19c1.16-.2,1.95-.58,2.38-1.12.43-.54.65-1.18.65-1.9Z" fill="#e8e8e8"/>
      </g>
    </g>
  </g>
</svg>