<svg overflow="visible" style="display: block;" viewBox="0 0 508 36" fill="none" xmlns="http://www.w3.org/2000/svg">
<g id="txt &#236;&#157;&#180;&#237;&#153;&#152; &#234;&#183;&#184;&#235;&#158;&#156;&#235;&#147;&#156; &#236;&#152;&#164;&#237;&#148;&#136; &#234;&#184;&#176;&#235;&#133;&#144; &#236;&#157;&#180;&#235;&#178;&#164;&#237;&#138;&#184;" clip-path="url(#clip0_0_90)">
<path id="Vector" d="M23.4857 18.5618C23.4857 21.7764 23.1445 24.4504 22.4764 26.584C21.794 28.7175 20.9125 30.4243 19.8037 31.7045C18.709 32.9846 17.4437 33.8807 16.0363 34.407C14.6288 34.9332 13.193 35.2035 11.7429 35.2035C10.2928 35.2035 8.81426 34.9332 7.40682 34.407C5.99938 33.8807 4.74833 32.9704 3.63944 31.7045C2.53055 30.4243 1.64912 28.7317 0.995159 26.584C0.341197 24.4362 0 21.7764 0 18.5618C0 15.3473 0.326981 12.6733 0.995159 10.5397C1.66334 8.40616 2.54476 6.69933 3.63944 5.4192C4.73411 4.13908 5.99938 3.24299 7.40682 2.71671C8.81426 2.19044 10.2643 1.92019 11.7429 1.92019C13.2214 1.92019 14.643 2.19044 16.0363 2.71671C17.4295 3.24299 18.6948 4.1533 19.8037 5.4192C20.8983 6.69933 21.794 8.39194 22.4764 10.5397C23.1588 12.6733 23.4857 15.3473 23.4857 18.5618ZM8.20295 18.5618C8.20295 20.61 8.28825 22.26 8.48728 23.5401C8.6721 24.8202 8.92799 25.8159 9.26919 26.5271C9.61039 27.2382 9.98002 27.7218 10.4065 27.9779C10.833 28.2339 11.2879 28.3619 11.7571 28.3619C12.212 28.3619 12.6527 28.2339 13.065 27.9779C13.4915 27.7218 13.8611 27.2525 14.1739 26.5413C14.4867 25.8443 14.7568 24.8487 14.9558 23.5543C15.1548 22.26 15.2544 20.5816 15.2544 18.5192C15.2544 16.4567 15.1548 14.821 14.9558 13.5409C14.7568 12.2608 14.5009 11.2793 14.1739 10.5682C13.8611 9.85697 13.4773 9.38759 13.065 9.13157C12.6385 8.87554 12.1978 8.74753 11.7571 8.74753C11.2737 8.74753 10.833 8.87554 10.4065 9.13157C9.98002 9.38759 9.59617 9.8712 9.26919 10.5824C8.94221 11.2936 8.6721 12.2892 8.48728 13.5693C8.30247 14.8495 8.20295 16.4994 8.20295 18.5476V18.5618ZM34.3188 35.2035H26.0732V1.5077H34.3188V35.2035Z" fill="var(--fill-0, white)"/>
<path id="Vector_2" d="M45.6209 20.1975V18.6898C43.3605 18.3769 41.7114 17.7795 40.6593 16.8977C39.6073 16.0158 39.0813 14.8495 39.0813 13.3987C39.0813 11.5923 39.9485 10.2126 41.6829 9.2738C43.4173 8.33505 46.1611 7.86567 49.9001 7.86567C53.639 7.86567 56.4681 8.33505 58.2026 9.25958C59.937 10.1841 60.8042 11.5638 60.8042 13.3987C60.8042 14.9064 60.2497 16.1011 59.1266 16.983C58.0177 17.8649 56.2407 18.448 53.8381 18.7325V20.2118H61.9131V25.8728H37.8729V20.2118H45.5925L45.6209 20.1975ZM54.0513 1.99131H61.7709V7.01225H38.0861V1.99131H45.8057V0H54.0513V1.99131ZM48.0093 27.4374V29.1869H72.1348V36H39.7779V27.4374H48.0235H48.0093ZM49.9143 12.147C49.5162 12.147 49.1182 12.1612 48.7201 12.2039C48.3221 12.2465 47.9666 12.3177 47.6681 12.403C47.3695 12.5026 47.1136 12.6164 46.9288 12.787C46.744 12.9577 46.6445 13.1426 46.6445 13.3844C46.6445 13.6262 46.7298 13.8254 46.9288 13.996C47.1136 14.1667 47.3553 14.2947 47.6681 14.3943C47.9666 14.4939 48.3221 14.5508 48.7201 14.5934C49.1182 14.6361 49.5162 14.6503 49.9143 14.6503C50.3124 14.6503 50.7104 14.6361 51.1085 14.5934C51.5066 14.5508 51.862 14.4939 52.1605 14.3943C52.4591 14.2947 52.715 14.181 52.914 14.0103C53.113 13.8538 53.2126 13.6405 53.2126 13.3702C53.2126 13.1 53.113 12.8866 52.914 12.7301C52.715 12.5737 52.4591 12.4457 52.1321 12.3461C51.8193 12.2465 51.4639 12.1896 51.0801 12.1612C50.6962 12.1328 50.2982 12.1185 49.9001 12.1185L49.9143 12.147ZM71.7367 16.2149V28.049H63.4911V1.5077H71.7367V9.35915H75.2056V16.2149H71.7367Z" fill="var(--fill-0, white)"/>
<path id="Vector_3" d="M88.2564 28.3619H122.689V35.2177H88.2564V28.3619ZM112.496 9.16002H90.204V2.30423H120.741V24.9625H112.496V9.16002Z" fill="var(--fill-0, white)"/>
<path id="Vector_4" d="M126.982 7.56697V1.90597H145.25V15.1339H134.816V17.0115H145.649V22.6725H126.982V9.47294H137.417V7.56697H126.982ZM136.891 24.2513V29.1869H165.04V36H128.66V24.2513H136.905H136.891ZM156.88 25.6879V16.2861L154.776 16.9972V25.6736H147.056V1.5077H154.776V9.47294L156.88 8.76175V1.5077H164.642V25.6879H156.88Z" fill="var(--fill-0, white)"/>
<path id="Vector_5" d="M168.665 28.3619H203.098V35.2177H168.665V28.3619ZM201.534 18.1209V24.9767H170.599V2.30423H201.136V9.16002H178.844V18.1209H201.534Z" fill="var(--fill-0, white)"/>
<path id="Vector_6" d="M219.575 13.6262C219.575 11.6918 219.987 9.98499 220.826 8.50573C221.664 7.02647 222.788 5.80324 224.209 4.82181C225.631 3.84038 227.294 3.10075 229.185 2.61715C231.076 2.13354 233.095 1.87752 235.213 1.87752C237.331 1.87752 239.35 2.11932 241.241 2.61715C243.131 3.11497 244.809 3.84038 246.231 4.82181C247.667 5.80324 248.804 7.02647 249.628 8.50573C250.467 9.98499 250.879 11.6918 250.879 13.6262C250.879 15.2477 250.581 16.6985 249.984 17.9929C249.387 19.2872 248.576 20.3967 247.539 21.3639C246.501 22.3169 245.278 23.1134 243.871 23.7392C242.463 24.3651 240.956 24.806 239.336 25.0763V28.3761H252.429V35.2319H217.997V28.3761H231.09V25.0763C229.441 24.806 227.92 24.3793 226.512 23.7677C225.105 23.1561 223.882 22.3738 222.844 21.4208C221.807 20.4678 220.996 19.3441 220.413 18.0498C219.831 16.7554 219.532 15.2904 219.532 13.6547L219.575 13.6262ZM227.806 13.6262C227.806 15.2193 228.474 16.4283 229.811 17.2675C231.147 18.1067 232.952 18.5192 235.199 18.5192C237.445 18.5192 239.222 18.1067 240.587 17.2675C241.951 16.4283 242.634 15.2193 242.634 13.6262C242.634 12.0332 241.951 10.8242 240.587 9.98499C239.222 9.14579 237.416 8.73331 235.199 8.73331C232.981 8.73331 231.147 9.14579 229.811 9.98499C228.474 10.8242 227.806 12.0332 227.806 13.6262Z" fill="var(--fill-0, white)"/>
<path id="Vector_7" d="M256.239 18.4765H290.672V24.934H256.239V18.4765ZM258.187 1.90597H288.724V7.83722H284.985V10.8669H288.724V16.7981H258.187V10.8669H261.968V7.83722H258.187V1.90597ZM266.418 26.6409V29.1869H289.108V36H258.173V26.6409H266.418ZM269.802 10.8669H277.123V7.83722H269.802V10.8669Z" fill="var(--fill-0, white)"/>
<path id="Vector_8" d="M318.92 34.8052V9.16002H306.097V2.30423H327.151V34.8052H318.906H318.92ZM339.221 35.2035H330.976V1.5077H339.221V35.2035Z" fill="var(--fill-0, white)"/>
<path id="Vector_9" d="M361.484 9.16002V3.93994L369.204 3.05808V1.5077H377.449V20.8661H369.204V15.2904L364.583 15.8024V20.2687H344.325V1.90597H352.57V13.8111H361.484V10.9095L369.204 10.0277V8.32082L361.484 9.16002ZM377.435 22.26V36H345.988V22.26H377.435ZM354.234 27.8783V30.3817H369.204V27.8783H354.234Z" fill="var(--fill-0, white)"/>
<path id="Vector_10" d="M415.976 18.5618C415.976 21.7764 415.635 24.4504 414.967 26.584C414.285 28.7175 413.403 30.4243 412.294 31.7045C411.2 32.9846 409.934 33.8807 408.527 34.407C407.119 34.9332 405.684 35.2035 404.233 35.2035C402.783 35.2035 401.305 34.9332 399.897 34.407C398.49 33.8807 397.239 32.9704 396.13 31.7045C395.021 30.4243 394.14 28.7317 393.486 26.584C392.832 24.4362 392.491 21.7764 392.491 18.5618C392.491 15.3473 392.818 12.6733 393.486 10.5397C394.154 8.40616 395.035 6.69933 396.13 5.4192C397.225 4.13908 398.49 3.24299 399.897 2.71671C401.305 2.19044 402.755 1.92019 404.233 1.92019C405.712 1.92019 407.134 2.19044 408.527 2.71671C409.92 3.24299 411.185 4.1533 412.294 5.4192C413.389 6.69933 414.285 8.39194 414.967 10.5397C415.649 12.6733 415.976 15.3473 415.976 18.5618ZM400.694 18.5618C400.694 20.61 400.779 22.26 400.978 23.5401C401.163 24.8202 401.419 25.8159 401.76 26.5271C402.101 27.2382 402.471 27.7218 402.897 27.9779C403.324 28.2339 403.779 28.3619 404.248 28.3619C404.703 28.3619 405.143 28.2339 405.556 27.9779C405.982 27.7218 406.352 27.2525 406.664 26.5413C406.977 25.8443 407.247 24.8487 407.446 23.5543C407.645 22.26 407.745 20.5816 407.745 18.5192C407.745 16.4567 407.645 14.821 407.446 13.5409C407.247 12.2608 406.991 11.2793 406.664 10.5682C406.352 9.85697 405.968 9.38759 405.556 9.13157C405.129 8.87554 404.688 8.74753 404.248 8.74753C403.764 8.74753 403.324 8.87554 402.897 9.13157C402.471 9.38759 402.087 9.8712 401.76 10.5824C401.433 11.2936 401.163 12.2892 400.978 13.5693C400.793 14.8495 400.694 16.4994 400.694 18.5476V18.5618ZM426.795 35.2035H418.55V1.5077H426.795V35.2035Z" fill="var(--fill-0, white)"/>
<path id="Vector_11" d="M452.356 14.6503L450.167 15.1339V21.8617H431.899V1.90597H439.021V5.40498H443.045V1.90597H450.167V7.59542L452.356 7.11181V1.5077H460.076V25.6879H452.356V14.6503ZM441.808 24.2513V29.1869H469.957V36H433.576V24.2513H441.822H441.808ZM443.045 11.8625H439.021V15.4042H443.045V11.8625ZM461.796 25.6879V1.5077H469.558V25.6879H461.796Z" fill="var(--fill-0, white)"/>
<path id="Vector_12" d="M473.568 28.3619H508V35.2177H473.568V28.3619ZM506.45 18.9174V24.9767H475.515V2.30423H506.052V8.36349H483.761V10.5966H506.052V16.6559H483.761V18.9316H506.45V18.9174Z" fill="var(--fill-0, white)"/>
</g>
<defs>
<clipPath id="clip0_0_90">
<rect width="508" height="36" fill="white"/>
</clipPath>
</defs>
</svg>
