<svg width="284" height="40" viewBox="0 0 284 40" fill="none" xmlns="http://www.w3.org/2000/svg">
<g clip-path="url(#clip0_61_7913)">
<path d="M0 17.5266H17.1171V12.7538H25.9065V17.5266H38.5651V25.1441H0V17.5266ZM7.08567 10.6202H1.28975V3.44521H15.8751V16.0094H7.08567V10.6044V10.6202ZM27.1485 39.9999V34.5159H2.18143V26.9458H36.3837V39.9999H27.1485ZM27.5943 9.29271H17.34V2.11768H36.3837V16.0094H27.5943V9.2769V9.29271Z" fill="white"/>
<path d="M54.1696 27.3884V21.0984H62.8157V19.8657C60.2839 19.5338 58.4369 18.9332 57.2586 18.0482C56.0803 17.1632 55.4911 15.9463 55.4911 14.4133C55.4911 12.501 56.4624 11.0628 58.3891 10.1146C60.3158 9.16634 63.3889 8.69222 67.6244 8.69222C71.8598 8.69222 74.9807 9.16634 76.9233 10.1146C78.8659 11.0628 79.8372 12.4852 79.8372 14.4133C79.8372 16.0095 79.2162 17.2422 77.9583 18.1272C76.7163 19.0122 74.726 19.597 72.035 19.8973V21.0984H81.0792V27.3884H54.1536H54.1696ZM72.2738 2.21256H80.9199V7.79139H54.3925V2.21256H63.0386V0H72.2738V2.21256ZM82.8307 40V36.2861H56.7013V29.1584H92.05V40H82.8148H82.8307ZM67.6403 13.2754C67.1944 13.2754 66.7327 13.2754 66.2391 13.3228C65.7455 13.3544 65.2996 13.4176 64.9016 13.4966C64.5035 13.5757 64.1691 13.7021 63.9143 13.8443C63.6596 13.9866 63.5322 14.1762 63.5322 14.4133C63.5322 14.6503 63.6596 14.84 63.9143 14.9822C64.1691 15.1245 64.4876 15.2509 64.9016 15.3299C65.2996 15.4247 65.7455 15.488 66.2391 15.5354C66.7327 15.5828 67.1944 15.5986 67.6403 15.5986C68.0861 15.5986 68.5479 15.5986 69.0415 15.5512C69.5351 15.5038 69.9809 15.4563 70.379 15.3773C70.7771 15.2983 71.1115 15.1719 71.3822 14.998C71.6528 14.84 71.7802 14.6345 71.7802 14.3975C71.7802 14.1604 71.6528 13.9708 71.3822 13.8285C71.1115 13.6863 70.7771 13.5599 70.3631 13.4808C69.9491 13.386 69.5033 13.3386 69.0256 13.307C68.5479 13.2754 68.0861 13.2596 67.6403 13.2596V13.2754ZM92.0659 18.0166V27.6254H82.8307V1.67523H92.0659V10.3991H95.9511V18.0166H92.0659Z" fill="white"/>
<path d="M97.3205 13.228C97.3205 11.4264 97.6549 9.81437 98.3077 8.3762C98.9606 6.95384 99.8682 5.73693 101.031 4.72547C102.193 3.72982 103.578 2.95542 105.17 2.44969C106.779 1.92816 108.546 1.67529 110.473 1.67529C112.399 1.67529 114.167 1.92816 115.775 2.44969C117.383 2.97122 118.769 3.72982 119.915 4.72547C121.077 5.72112 121.985 6.95384 122.638 8.3762C123.291 9.81437 123.625 11.4264 123.625 13.228C123.625 15.0297 123.291 16.6417 122.638 18.0483C121.985 19.4706 121.077 20.6717 119.915 21.6516C118.753 22.6472 117.367 23.4058 115.775 23.9274C114.167 24.4647 112.399 24.7176 110.473 24.7176C108.546 24.7176 106.779 24.4489 105.17 23.9274C103.562 23.39 102.177 22.6314 101.031 21.6516C99.8682 20.6717 98.9606 19.4548 98.3077 18.0483C97.6549 16.6259 97.3205 15.0297 97.3205 13.228ZM109.772 26.9459V32.4299H136.204V40.0001H100.537V26.9459H109.772ZM110.473 17.5741C111.014 17.5741 111.54 17.4793 112.049 17.2897C112.575 17.1 113.036 16.8156 113.434 16.4521C113.832 16.0886 114.167 15.6303 114.422 15.1087C114.676 14.5714 114.804 13.955 114.804 13.2438C114.804 12.5327 114.676 11.9163 114.422 11.3632C114.167 10.81 113.848 10.3675 113.434 9.98821C113.02 9.60892 112.575 9.34025 112.049 9.1506C111.524 8.96095 110.998 8.86613 110.473 8.86613C109.947 8.86613 109.406 8.96095 108.896 9.1506C108.371 9.34025 107.909 9.62472 107.511 9.98821C107.113 10.3517 106.779 10.81 106.524 11.3632C106.269 11.9005 106.142 12.5327 106.142 13.2438C106.142 13.955 106.269 14.5714 106.524 15.1087C106.779 15.6461 107.097 16.0886 107.511 16.4521C107.925 16.8156 108.371 17.1 108.896 17.2897C109.422 17.4793 109.947 17.5741 110.473 17.5741ZM135.758 1.67529V28.5421H126.523V1.67529H135.758Z" fill="white"/>
<path d="M157.429 4.77305H165.63V12.3906H139.994V4.77305H148.194V0.885254H157.429V4.77305ZM152.828 39.1152C151.219 39.1152 149.707 38.8939 148.274 38.4514C146.841 38.0089 145.599 37.2977 144.548 36.3021C143.497 35.3222 142.653 34.0263 142.032 32.4459C141.411 30.8655 141.092 28.9532 141.092 26.709C141.092 24.4649 141.411 22.5684 142.032 21.0038C142.653 19.4392 143.497 18.1591 144.548 17.1792C145.599 16.1994 146.841 15.4724 148.274 15.0141C149.707 14.5557 151.219 14.3345 152.828 14.3345C154.436 14.3345 155.948 14.5557 157.381 15.0141C158.815 15.4724 160.057 16.1994 161.107 17.1792C162.158 18.1749 163.002 19.4392 163.623 21.0038C164.244 22.5684 164.563 24.4649 164.563 26.709C164.563 28.9532 164.244 30.8655 163.623 32.4459C163.002 34.0263 162.158 35.3064 161.107 36.3021C160.057 37.2819 158.815 38.0089 157.381 38.4514C155.948 38.8939 154.436 39.1152 152.828 39.1152ZM152.828 31.5135C153.687 31.5135 154.324 31.1342 154.738 30.3914C155.152 29.6328 155.359 28.4159 155.359 26.7406C155.359 25.0654 155.152 23.8485 154.738 23.0899C154.324 22.3313 153.687 21.9678 152.828 21.9678C151.968 21.9678 151.331 22.3471 150.917 23.0899C150.503 23.8485 150.296 25.0654 150.296 26.7406C150.296 28.4159 150.503 29.6328 150.917 30.3914C151.331 31.15 151.968 31.5135 152.828 31.5135ZM177.221 14.6506H181.107V22.2681H177.221V39.131H167.986V1.67546H177.221V14.6348V14.6506Z" fill="white"/>
<path d="M198.001 18.4592C198.001 20.6401 197.826 22.7579 197.459 24.7808L206.105 32.2561L201.106 38.5777L194.243 32.5564C193.287 33.8523 192.109 35.006 190.676 36.0333C189.243 37.0447 187.523 37.8981 185.501 38.5777L181.536 31.8926C183.081 31.2762 184.355 30.5493 185.342 29.7274C186.329 28.9056 187.125 27.9416 187.73 26.8511C188.32 25.7606 188.734 24.5279 188.972 23.1372C189.211 21.7464 189.323 20.166 189.323 18.396V2.03879H197.969V18.4592H198.001ZM207.188 39.115V19.518L201.79 21.3355V12.9752L207.188 11.1577V1.67529H215.834V39.115H207.188ZM226.439 39.115H217.745V1.67529H226.439V39.115Z" fill="white"/>
<path d="M230.945 31.5134H236.247V23.5955C235.117 22.5683 234.241 21.3356 233.62 19.929C232.999 18.5066 232.681 16.9262 232.681 15.1562C232.681 13.0068 233.142 11.1103 234.082 9.46673C235.021 7.82311 236.279 6.46396 237.871 5.37349C239.464 4.28301 241.327 3.4612 243.444 2.92386C245.562 2.38652 247.823 2.10205 250.196 2.10205C252.568 2.10205 254.829 2.37072 256.947 2.92386C259.065 3.477 260.944 4.28301 262.536 5.37349C264.144 6.46396 265.418 7.82311 266.342 9.46673C267.281 11.1103 267.743 13.0068 267.743 15.1562C267.743 16.9262 267.424 18.5224 266.803 19.929C266.182 21.3514 265.307 22.5683 264.176 23.5955V31.5134H269.478V39.1309H230.913V31.5134H230.945ZM241.916 15.1404C241.916 16.9104 242.664 18.2538 244.161 19.1862C245.658 20.1186 247.68 20.577 250.196 20.577C252.712 20.577 254.702 20.1186 256.231 19.1862C257.759 18.2538 258.523 16.9104 258.523 15.1404C258.523 13.3703 257.759 12.027 256.231 11.0945C254.702 10.1621 252.68 9.70379 250.196 9.70379C247.712 9.70379 245.658 10.1621 244.161 11.0945C242.664 12.027 241.916 13.3703 241.916 15.1404ZM250.196 28.1945C249.368 28.1945 248.556 28.1787 247.791 28.1313C247.011 28.0839 246.247 27.9891 245.467 27.8468V31.5134H254.957V27.7994C253.444 28.0681 251.852 28.1945 250.18 28.1945H250.196Z" fill="white"/>
<path d="M274.765 28.8896V2.03857H284V28.9054H274.765V28.8896ZM274.765 39.9999V31.276H284V39.9999H274.765Z" fill="white"/>
</g>
<defs>
<clipPath id="clip0_61_7913">
<rect width="284" height="40" fill="white"/>
</clipPath>
</defs>
</svg>
