<?xml version="1.0" encoding="UTF-8"?>
<svg id="Layer_2" data-name="Layer 2" xmlns="http://www.w3.org/2000/svg" viewBox="0 0 271.4 54.06">
  <g id="Layer_1-2" data-name="Layer 1">
    <g>
      <g opacity=".7">
        <rect y="13.03" width="28" height="28" rx="4" ry="4" fill="#fff"/>
        <path d="M136.28,2.16h-7.87c-2.21,0-4,1.79-4,4v5.79l-1.28.45c-.38-.75-.78-1.46-1.22-2.11-1.13-1.7-2.43-3.13-3.86-4.26-1.47-1.16-3.07-2.02-4.75-2.57-1.63-.53-3.29-.8-4.94-.8-2.26,0-4.5.49-6.66,1.45-2.24,1-4.24,2.58-5.94,4.72-.37.46-.71.96-1.04,1.48-.45-.17-.93-.28-1.44-.28h-.36v-3.87c0-2.21-1.79-4-4-4h-7.87c-1.48,0-2.78.81-3.47,2.01-.06,0-.12,0-.19,0h-6.23v-.16c0-2.21-1.79-4-4-4h-7.87c-2.21,0-4,1.79-4,4v.16h-5.72c-2.21,0-4,1.79-4,4v6.12c0,2.21,1.79,4,4,4h4.33c-.49.33-1.12.65-1.87.94-1.17.46-2.67.88-4.46,1.27-1.26.27-2.32,1.14-2.83,2.33-.51,1.19-.41,2.55.26,3.66l3.34,5.48c0,.1-.01.21-.01.31v16.79c0,2.21,1.79,4,4,4h36.59c2.21,0,4-1.79,4-4v-8.12c.79,1.92,1.74,3.6,2.86,4.99,1.7,2.11,3.69,3.69,5.93,4.68,2.16.96,4.4,1.45,6.66,1.45,1.51,0,3.04-.22,4.55-.66,1.57-.45,3.07-1.18,4.49-2.17,1.39-.97,2.67-2.22,3.81-3.72.76-1.01,1.45-2.15,2.06-3.42l1.15-.4v6.36c0,2.21,1.79,4,4,4h7.87c2.21,0,4-1.79,4-4V6.16c0-2.21-1.79-4-4-4ZM77.04,19.39l-2.16-1.11h2.16v1.11ZM109.82,33.72c-.35,1.88-.74,2.9-1,3.43-.28.56-.48.75-.47.75,0,0,0,0-.01,0-.06-.06-.26-.29-.52-.81-.27-.52-.65-1.53-.98-3.38-.29-1.62-.44-3.77-.44-6.36s.15-4.74.44-6.36c.33-1.84.72-2.85.98-3.38.3-.6.51-.8.5-.8h0s0,0,.01,0c.06.06.24.27.49.76.26.53.65,1.54,1,3.41.3,1.62.46,3.75.46,6.33s-.15,4.78-.46,6.41Z" fill="#fff"/>
        <path d="M245.15,10.03h-.36v-3.87c0-2.21-1.79-4-4-4h-7.87c-2.21,0-4,1.79-4,4v12.99l-5.96-3.79c.05-.57.07-1.12.07-1.67v-7.62c0-2.21-1.79-4-4-4h-7.87c-2.21,0-4,1.79-4,4v7.57c0,2.33-.79,3.35-1.39,3.92-.68.64-2.03,1.5-4.65,2.26V6.16c0-2.21-1.79-4-4-4h-7.27c-.82,0-1.57.24-2.21.66-.63-.42-1.39-.66-2.21-.66h-7.22c-1.02,0-1.96.38-2.67,1.02-.11,0-.23-.01-.34-.01h-22.51c-2.21,0-4,1.79-4,4v40.4c0,2.21,1.79,4,4,4h23.01c.17,0,.34-.01.51-.03.59.34,1.27.53,2,.53h7.22c.82,0,1.57-.24,2.21-.66.63.42,1.39.66,2.21.66h7.27c2.21,0,4-1.79,4-4v-1.09c.1.14.19.28.29.41,1.26,1.65,3.04,3.01,5.28,4.06,1.99.92,4.39,1.61,7.14,2.03,2.58.4,5.51.6,8.7.6s6.12-.2,8.7-.6c2.75-.42,5.15-1.11,7.14-2.03,2.24-1.04,4.01-2.4,5.27-4.05,1.41-1.84,2.13-4.03,2.13-6.49s-.71-4.59-2.11-6.44c-.18-.23-.36-.46-.56-.68,1.01-.73,1.67-1.91,1.67-3.25v-6.38h.36c2.21,0,4-1.79,4-4v-6.12c0-2.21-1.79-4-4-4ZM174.23,37.44h-10.3v-20.17h10.3v20.17ZM201.41,34.45c-.1.13-.19.27-.28.4v-1.85c.33.22.68.41,1.05.53-.28.3-.54.6-.78.92Z" fill="#fff"/>
        <rect x="255.33" y="8.32" width="16.07" height="15.62" rx="4" ry="4" fill="#fff"/>
        <rect x="255.33" y="31.38" width="16.07" height="15.62" rx="4" ry="4" fill="#fff"/>
      </g>
      <g>
        <rect x="4" y="17.03" width="20" height="20" fill="#1d1d1d"/>
        <g>
          <path d="M67.16,8.16h10.23v6.12h-10.23v.85c0,1.14-.13,2.29-.4,3.46l11.38,5.86-3.76,5.31-10.73-5.51c-2.54,2.54-6.5,4.43-11.88,5.66l-3.36-5.51c2-.43,3.69-.92,5.06-1.45,1.37-.53,2.49-1.16,3.36-1.88.87-.72,1.5-1.57,1.88-2.56s.58-2.13.58-3.43v-.8h-9.72v-6.12h9.72v-4.16h7.87v4.16ZM88.91,32.27v16.79h-36.59v-16.79h36.59ZM60.19,38.34v4.66h20.85v-4.66h-20.85ZM88.91,20.14v9.87h-7.87V6.16h7.87v7.87h4.36v6.12h-4.36Z" fill="#1d1d1d"/>
          <path d="M136.28,48.06h-7.87v-11.98l-8.12,2.81c-.64,1.64-1.4,3.04-2.28,4.21-.89,1.17-1.85,2.12-2.91,2.86-1.05.73-2.16,1.27-3.31,1.6-1.15.33-2.3.5-3.43.5-1.71,0-3.38-.37-5.04-1.1-1.65-.74-3.13-1.91-4.44-3.53-1.3-1.62-2.35-3.75-3.13-6.39-.79-2.64-1.18-5.86-1.18-9.67s.39-7.03,1.18-9.65c.78-2.62,1.83-4.75,3.13-6.39,1.3-1.64,2.78-2.82,4.44-3.56,1.65-.73,3.33-1.1,5.04-1.1,1.24,0,2.47.2,3.71.6,1.24.4,2.41,1.04,3.51,1.9,1.1.87,2.11,1.98,3.01,3.33.9,1.35,1.65,3,2.26,4.94l7.57-2.66V6.16h7.87v41.9ZM102.4,27.36c0,2.84.17,5.2.5,7.07.33,1.87.78,3.37,1.35,4.49.57,1.12,1.2,1.91,1.9,2.36.7.45,1.44.68,2.21.68s1.45-.23,2.16-.68c.7-.45,1.33-1.23,1.88-2.33.55-1.1,1-2.6,1.35-4.49.35-1.89.53-4.27.53-7.14s-.17-5.2-.53-7.07c-.35-1.87-.8-3.36-1.35-4.46-.55-1.1-1.18-1.88-1.88-2.33-.7-.45-1.42-.68-2.16-.68s-1.5.23-2.21.68c-.7.45-1.34,1.24-1.9,2.36-.57,1.12-1.02,2.62-1.35,4.49-.33,1.87-.5,4.23-.5,7.07ZM122.14,27.36c0,.87-.03,1.69-.08,2.46-.05.77-.11,1.52-.18,2.26l6.52-2.26v-8.77l-6.47,2.26c.07.63.12,1.29.15,1.95.03.67.05,1.37.05,2.11Z" fill="#1d1d1d"/>
          <path d="M175.22,7.16v6.12h-15.29v28.17h15.79v6.12h-23.01V7.16h22.51ZM178.23,48.06V6.16h7.22v17.74l4.41-1.55V6.16h7.27v41.9h-7.27v-18.95l-4.41,1.55v17.39h-7.22Z" fill="#1d1d1d"/>
          <path d="M219.03,13.67c0,1.17-.13,2.39-.4,3.66l11.18,7.12-4.06,5.21-10.03-6.42c-1.27,1.47-2.91,2.76-4.91,3.86-2,1.1-4.48,1.97-7.42,2.61l-3.36-5.51c3.91-.83,6.74-2.09,8.5-3.76,1.75-1.67,2.63-3.94,2.63-6.82v-7.57h7.87v7.62ZM222.54,50.06c-3.01,0-5.71-.18-8.09-.55-2.39-.37-4.41-.94-6.07-1.7-1.65-.77-2.92-1.72-3.78-2.86-.87-1.14-1.3-2.49-1.3-4.06s.43-2.88,1.3-4.04c.87-1.15,2.13-2.11,3.78-2.86s3.68-1.31,6.07-1.68c2.39-.37,5.09-.55,8.09-.55s5.71.18,8.09.55c2.39.37,4.41.93,6.07,1.68s2.92,1.7,3.78,2.86c.87,1.15,1.3,2.5,1.3,4.04s-.43,2.92-1.3,4.06c-.87,1.14-2.13,2.09-3.78,2.86-1.65.77-3.68,1.34-6.07,1.7-2.39.37-5.09.55-8.09.55ZM222.54,43.95c3.58,0,6.37-.23,8.37-.7,2-.47,3.01-1.25,3.01-2.36s-1-1.89-3.01-2.36c-2-.47-4.8-.7-8.37-.7s-6.37.23-8.37.7c-2,.47-3.01,1.25-3.01,2.36s1,1.89,3.01,2.36c2,.47,4.79.7,8.37.7ZM240.79,20.14v10.38h-7.87V6.16h7.87v7.87h4.36v6.12h-4.36Z" fill="#1d1d1d"/>
          <path d="M259.33,19.94v-7.62h8.07v7.62h-8.07ZM259.33,43v-7.62h8.07v7.62h-8.07Z" fill="#1d1d1d"/>
        </g>
      </g>
    </g>
  </g>
</svg>