<?xml version="1.0" encoding="UTF-8"?>
<svg id="Layer_2" data-name="Layer 2" xmlns="http://www.w3.org/2000/svg" viewBox="0 0 340.17 52.56">
  <g id="Layer_1-2" data-name="Layer 1">
    <g>
      <g opacity=".7">
        <path d="M233.17,1.65h-7.87c-2.21,0-4,1.79-4,4v6.89c-.74-1.61-1.61-3.03-2.59-4.24-1.73-2.14-3.78-3.73-6.11-4.73-2.21-.94-4.52-1.42-6.86-1.42s-4.7.48-6.91,1.42c-2.32.99-4.37,2.58-6.1,4.72-.26.32-.49.68-.73,1.02v-3.67c0-2.21-1.79-4-4-4h-7.27c-.66,0-1.28.16-1.83.44-.55-.28-1.17-.44-1.83-.44h-7.22c-1.4,0-2.64.72-3.35,1.81-.67-.51-1.51-.81-2.41-.81h-20.5c-1.45,0-2.71.78-3.41,1.94-.6-1.46-2.03-2.5-3.7-2.5h-36.94c-2.21,0-4,1.79-4,4v5.61c0,.6.13,1.17.37,1.68-.24.51-.37,1.08-.37,1.68v2.33c-.2-.03-.4-.06-.61-.06h-.36V5.65c0-2.21-1.79-4-4-4h-7.87c-1.53,0-2.86.86-3.54,2.13-.72-.7-1.7-1.12-2.78-1.12h-24.51c-.88,0-1.68.29-2.34.77-.72-1.07-1.94-1.77-3.32-1.77h-7.87c-1.15,0-2.18.48-2.91,1.26-.44-.16-.91-.25-1.4-.25H4C1.79,2.66,0,4.45,0,6.66v6.12c0,2.13,1.66,3.87,3.76,3.99v20.18c-2.1.12-3.76,1.86-3.76,3.99v6.12c0,2.21,1.79,4,4,4h30.02c.63,0,1.24-.15,1.77-.41.69.57,1.58.91,2.54.91h7.87c2.21,0,4-1.79,4-4v-12.86c.51.23,1.07.37,1.66.37h12.64v11.99c0,2.21,1.79,4,4,4h7.87c1.18,0,2.23-.51,2.96-1.31.71,1.09,1.95,1.82,3.35,1.82h7.87c2.21,0,4-1.79,4-4v-15.74c.29.24.62.44.97.58v3.33c0,.3.03.59.1.88-.06.28-.1.58-.1.88v11.08c0,2.21,1.79,4,4,4h37.44c1.75,0,3.22-1.13,3.77-2.7.73.74,1.73,1.2,2.85,1.2h21c.88,0,1.69-.28,2.35-.76.73.78,1.77,1.26,2.92,1.26h7.22c.66,0,1.28-.16,1.83-.44.55.28,1.17.44,1.83.44h7.27c2.21,0,4-1.79,4-4v-3.14c.24.35.48.71.74,1.03,1.73,2.12,3.78,3.7,6.09,4.69,2.21.95,4.54,1.42,6.91,1.42s4.64-.48,6.86-1.42c2.31-.99,4.36-2.56,6.09-4.69.98-1.21,1.85-2.63,2.6-4.24v6.35c0,2.21,1.79,4,4,4h7.87c2.21,0,4-1.79,4-4V5.65c0-2.21-1.79-4-4-4ZM34.34,36.95s-.05,0-.07,0v-20.18s.05,0,.07,0v20.19ZM64.51,20.95h-12.64c-.6,0-1.16.14-1.66.37v-4.92c.51.23,1.07.37,1.66.37h12.64v4.18ZM152.88,19.95h-9.28c-.63,0-1.21.16-1.74.42-.38-.41-.85-.74-1.37-.96v-4.15c.73.92,1.85,1.52,3.12,1.52h9.28v3.18ZM165.86,37.14c-.4-.13-.82-.2-1.26-.2h-9.79v-2.88h9.28c.44,0,.87-.07,1.27-.21.06,0,.12,0,.19,0,.1,0,.21,0,.31-.01v3.29ZM207.71,33.22c-.34,1.84-.74,2.83-1,3.34-.31.58-.52.74-.52.74-.25.14-.38.14-.44.14-.12,0-.27-.02-.47-.13,0,0-.21-.16-.52-.75-.27-.52-.67-1.54-1.02-3.37-.3-1.62-.46-3.75-.46-6.33s.15-4.71.46-6.33c.34-1.83.74-2.85,1.02-3.37.3-.57.51-.74.5-.74h0c.22-.13.37-.14.49-.14.06,0,.19,0,.43.14,0,0,.21.16.53.74.27.51.67,1.5,1.01,3.33.3,1.62.46,3.75.46,6.33s-.15,4.77-.46,6.41Z" fill="#fff"/>
        <path d="M339.36,40.08c.2-.48.31-1,.31-1.55V5.65c0-2.21-1.79-4-4-4h-7.87c-2.21,0-4,1.79-4,4v1.38c-1.23-1.37-2.79-2.49-4.68-3.36-2.84-1.31-6.38-1.97-10.52-1.97-5.3,0-9.59,1.08-12.76,3.21-.76.51-1.43,1.09-2.04,1.7v-.96c0-2.21-1.79-4-4-4h-7.87c-1.48,0-2.78.81-3.47,2.01-.06,0-.12,0-.19,0h-7.24c-.17-2.05-1.89-3.66-3.99-3.66h-7.87c-2.09,0-3.81,1.61-3.99,3.66h-7.24c-2.21,0-4,1.79-4,4v6.12c0,2.07,1.57,3.77,3.59,3.98-1.54,2.15-2.34,4.75-2.34,7.7,0,3.73,1.22,6.84,3.63,9.24.65.65,1.38,1.23,2.18,1.74h-3.31c-2.21,0-4,1.79-4,4v6.06c0,2.21,1.79,4,4,4h31.28c.08,0,.16,0,.25,0,.71.66,1.67,1.06,2.71,1.06h7.87c1.02,0,1.95-.4,2.65-1.03.69,1.21,1.97,2.03,3.46,2.03h40.25c2.21,0,4-1.79,4-4v-6.07c0-.91-.3-1.74-.81-2.41ZM277.94,36.44h-2.75c.74-.47,1.41-.99,2.02-1.56.25-.24.5-.49.73-.74v2.3ZM323.8,38.5h-6.64v-.72h6.64v.72Z" fill="#fff"/>
      </g>
      <g>
        <path d="M34.02,47.06H4v-6.12h3.76V12.77h-3.76v-6.12h30.02v6.12h-3.76v28.17h3.76v6.12ZM15.63,40.94h6.77V12.77h-6.77v28.17ZM46.21,47.56h-7.87V5.65h7.87v41.9Z" fill="#1d1d1d"/>
        <path d="M68.51,24.95v-12.18h-16.64v-6.12h24.51v40.4h-7.87v-15.99h-16.64v-6.12h16.64ZM90.56,21.34h4.36v6.12h-4.36v20.1h-7.87V5.65h7.87v15.69Z" fill="#1d1d1d"/>
        <path d="M97.08,23.1h41.85v5.61h-41.85v-5.61ZM99.54,6.1h36.94v5.61h-5.46v3.36h5.46v5.61h-36.94v-5.61h5.51v-3.36h-5.51v-5.61ZM128.61,37.48v-1.75h-29.07v-4.66h36.94v11.08h-29.07v1.75h29.57v4.66h-37.44v-11.08h29.07ZM112.92,15.08h10.22v-3.36h-10.22v3.36Z" fill="#1d1d1d"/>
        <path d="M143.59,12.77v-6.12h20.5v23.41h-13.28v10.88h13.79v6.12h-21v-23.11h13.28v-11.18h-13.28ZM169.86,47.56v-19.15l-4.31,1.45v-6.27l4.31-1.45V5.65h7.22v41.9h-7.22ZM188.01,47.56h-7.27V5.65h7.27v41.9Z" fill="#1d1d1d"/>
        <path d="M220.04,26.86c0,3.81-.41,7.04-1.23,9.67-.82,2.64-1.89,4.77-3.21,6.39-1.32,1.62-2.84,2.8-4.56,3.53-1.72.73-3.48,1.1-5.29,1.1s-3.62-.37-5.34-1.1c-1.72-.74-3.24-1.91-4.56-3.53-1.32-1.62-2.38-3.75-3.18-6.39-.8-2.64-1.2-5.86-1.2-9.67s.4-7.03,1.2-9.65c.8-2.62,1.86-4.75,3.18-6.39,1.32-1.64,2.84-2.82,4.56-3.56,1.72-.73,3.5-1.1,5.34-1.1s3.57.37,5.29,1.1c1.72.74,3.24,1.92,4.56,3.56,1.32,1.64,2.39,3.77,3.21,6.39.82,2.62,1.23,5.84,1.23,9.65ZM199.28,26.86c0,2.84.17,5.2.53,7.07.35,1.87.82,3.37,1.4,4.49.58,1.12,1.27,1.91,2.05,2.36.79.45,1.61.68,2.48.68s1.65-.23,2.43-.68c.79-.45,1.47-1.23,2.06-2.33.58-1.1,1.05-2.6,1.4-4.49.35-1.89.53-4.27.53-7.14s-.18-5.2-.53-7.07-.82-3.36-1.4-4.46c-.58-1.1-1.27-1.88-2.06-2.33s-1.6-.68-2.43-.68-1.7.23-2.48.68-1.47,1.24-2.05,2.36c-.58,1.12-1.05,2.62-1.4,4.49-.35,1.87-.53,4.23-.53,7.07ZM233.17,47.56h-7.87V5.65h7.87v41.9Z" fill="#1d1d1d"/>
        <path d="M258.93,40.44v-5.41c-3.21-.47-5.63-1.52-7.27-3.16-1.64-1.64-2.46-3.78-2.46-6.42,0-3.14,1.18-5.58,3.53-7.32,2.36-1.74,5.81-2.61,10.35-2.61s8.05.87,10.43,2.61c2.37,1.74,3.56,4.18,3.56,7.32,0,2.71-.87,4.88-2.61,6.52-1.74,1.64-4.29,2.69-7.67,3.16v5.31h12.18v6.06h-31.28v-6.06h11.23ZM267.05,7.66h11.23v6.12h-30.33v-6.12h11.23v-3.66h7.87v3.66ZM263.09,21.64c-.8,0-1.57.07-2.31.2-.74.13-1.38.35-1.93.65-.55.3-.99.69-1.3,1.18-.32.48-.48,1.08-.48,1.78s.16,1.29.48,1.78c.32.48.75.88,1.3,1.18.55.3,1.19.52,1.93.65.74.13,1.5.2,2.31.2s1.57-.07,2.31-.2c.73-.13,1.39-.35,1.95-.65s1.02-.69,1.35-1.18.5-1.08.5-1.78-.17-1.29-.53-1.78c-.35-.48-.81-.88-1.38-1.18-.57-.3-1.22-.52-1.96-.65-.74-.13-1.49-.2-2.26-.2ZM289.81,47.56h-7.87V5.65h7.87v41.9Z" fill="#1d1d1d"/>
        <path d="M305.3,39.14v-5.36h-11.73v-6.12h31.28v6.12h-11.68v5.36h-7.87ZM294.32,15.33c0-3.04,1.25-5.41,3.76-7.09,2.51-1.69,6.02-2.53,10.53-2.53,3.58,0,6.52.54,8.85,1.6,2.32,1.07,3.92,2.61,4.79,4.61l5.56-1.25v-5.01h7.87v32.88h-7.87v-21.6l-5.31,1.2c-.7,2.21-2.26,3.89-4.66,5.06-2.41,1.17-5.48,1.75-9.22,1.75-4.51,0-8.02-.84-10.53-2.53-2.51-1.69-3.76-4.05-3.76-7.09ZM303.79,36.28v6.21h32.38v6.07h-40.25v-12.28h7.87ZM302.19,15.33c0,.57.18,1.08.55,1.53.37.45.85.83,1.45,1.13s1.29.53,2.06.68c.77.15,1.55.23,2.36.23s1.6-.08,2.38-.25c.79-.17,1.49-.4,2.11-.7.62-.3,1.11-.67,1.48-1.1.37-.43.55-.94.55-1.5,0-1.1-.61-1.97-1.83-2.61s-2.78-.95-4.69-.95-3.41.3-4.61.9-1.8,1.49-1.8,2.66Z" fill="#1d1d1d"/>
      </g>
    </g>
  </g>
</svg>