<svg width="157" height="100" viewBox="0 0 157 100" fill="none" xmlns="http://www.w3.org/2000/svg">
<g clip-path="url(#clip0_47_6195)">
<g opacity="0.9">
<path d="M10.1177 84.1278V99.4333H0V84.1278H10.1177ZM3.95984 96.2111H6.15786V87.3556H3.95984V96.2111ZM15.9187 99.6222H11.9588V83.75H15.9187V99.6222Z" fill="#4FE5FB"/>
<path d="M24.7334 87.411C24.7334 87.7888 24.6937 88.1499 24.6201 88.4999L27.26 90.0943V89.1166L29.8432 88.5943V87.6777L27.26 88.1999V85.3666L29.8432 84.8443V83.7554H33.8031V95.1443H29.8432V91.4277L27.8548 91.8388L26.4556 93.5832L22.9149 91.4443C22.3767 91.9221 21.7366 92.3443 20.9945 92.711C20.2524 93.0777 19.3913 93.3721 18.4226 93.5832L16.7174 90.7499C17.3576 90.6388 17.9241 90.4666 18.4282 90.2443C18.9324 90.0166 19.3573 89.761 19.7029 89.4665C20.0484 89.1721 20.309 88.8499 20.496 88.4888C20.6829 88.1332 20.7736 87.7666 20.7736 87.3943V83.7166H24.7334V87.411ZM22.6487 94.4665V96.7943H33.9957V100.005H18.6888V94.4721H22.6487V94.4665Z" fill="#4FE5FB"/>
<path d="M50.3902 84.1276V99.4332H40.6521V84.1276H50.3902ZM44.6119 96.2109H46.4304V87.3554H44.6119V96.2109ZM55.9929 89.2498H57.6584V92.4776H55.9929V99.6276H52.0331V83.7554H55.9929V89.2554V89.2498Z" fill="#4FE5FB"/>
<path d="M57.9644 87.6944C57.9644 87.0444 58.1003 86.4722 58.3666 85.9778C58.6328 85.4833 59.0124 85.0722 59.5052 84.7389C59.9981 84.4056 60.5873 84.1611 61.284 84C61.9808 83.8389 62.7513 83.7556 63.6067 83.7556C64.4621 83.7556 65.2382 83.8389 65.9294 84C66.6261 84.1611 67.2153 84.4111 67.7082 84.7389C68.201 85.0722 68.5806 85.4833 68.8468 85.9778C69.1131 86.4722 69.249 87.0444 69.249 87.6944C69.249 88.3444 69.1131 88.9167 68.8468 89.4C68.5806 89.8889 68.201 90.3 67.7082 90.6278C67.2153 90.9611 66.6261 91.2056 65.9294 91.3667C65.2326 91.5278 64.4565 91.6111 63.6067 91.6111C62.757 91.6111 61.9752 91.5278 61.284 91.3667C60.5873 91.2056 59.9981 90.9556 59.5052 90.6278C59.0124 90.2944 58.6328 89.8889 58.3666 89.4C58.1003 88.9111 57.9644 88.3444 57.9644 87.6944ZM70.4954 95.0833V94.5222H59.341V92.3444H74.4552V97.2611H63.3235V97.8222H74.6478V100H59.341V95.0833H70.4954ZM63.6067 88.8556C64.1562 88.8556 64.6037 88.7611 64.9436 88.5722C65.2892 88.3833 65.4592 88.0889 65.4592 87.6889C65.4592 87.2889 65.2892 87.0056 64.9436 86.8056C64.5981 86.6056 64.1505 86.5056 63.6067 86.5056C63.0629 86.5056 62.6323 86.6056 62.2868 86.8056C61.9412 87.0056 61.7712 87.3 61.7712 87.6889C61.7712 88.0778 61.9412 88.3833 62.2868 88.5722C62.6323 88.7611 63.0685 88.8556 63.6067 88.8556ZM74.4552 83.75V91.6889H70.4954V83.75H74.4552Z" fill="#4FE5FB"/>
<path d="M76.4266 87.3556V84.1278H86.5443V93.45H80.3865V96.2056H86.9296V99.4333H76.4266V90.2222H82.5845V87.35H76.4266V87.3556ZM92.3396 99.6222H88.3798V83.75H92.3396V99.6222Z" fill="#4FE5FB"/>
<path d="M105.063 84.1278V87.3556H101.353V90.8611C101.353 91.7 101.268 92.4833 101.103 93.2056L105.618 96.5278L103.647 99.4L99.6701 96.4167C99.132 97.1167 98.4692 97.7222 97.6704 98.2278C96.8716 98.7333 95.9312 99.1222 94.8492 99.4L93.144 96.5667C94.5999 96.1667 95.6706 95.5111 96.3561 94.6056C97.0472 93.7 97.3871 92.4444 97.3871 90.8444V87.3556H93.8692V84.1278H105.063ZM110.23 99.6222H106.27V83.75H110.23V99.6222Z" fill="#4FE5FB"/>
<path d="M127.831 84.1278V87.3556H124.12V90.8611C124.12 91.7 124.035 92.4833 123.871 93.2056L128.386 96.5278L126.415 99.4L122.438 96.4167C121.9 97.1167 121.237 97.7222 120.438 98.2278C119.639 98.7333 118.699 99.1222 117.617 99.4L115.912 96.5667C117.368 96.1667 118.438 95.5111 119.124 94.6056C119.815 93.7 120.155 92.4444 120.155 90.8444V87.3556H116.637V84.1278H127.831ZM132.992 99.6222H129.032V83.75H132.992V99.6222Z" fill="#4FE5FB"/>
<path d="M134.714 92.5721V89.9054H151.261V92.5721H134.714ZM135.654 99.9998V93.0776H139.614V93.8665H146.367V93.0776H150.327V99.9998H135.654ZM146.174 87.1665H135.841V83.9387H150.134V89.2887H146.174V87.1665ZM146.367 97.3554V96.5109H139.614V97.3554H146.367Z" fill="#4FE5FB"/>
<path d="M153.04 95.2888V83.8999H157V95.2888H153.04ZM153.04 99.9999V96.3055H157V99.9999H153.04Z" fill="#4FE5FB"/>
</g>
<g opacity="0.9">
<path d="M10.9731 60.7722L27.6962 45.7277V39.3111L25.9231 38.0889H23.5608L21.7876 39.3111V45.9H11.1431V36.2222L18.1564 31.3833H31.3332L38.3465 36.2222V47.7666L21.6234 62.7555V65.4944H38.5164V72.2H10.9731V60.7722Z" fill="#4FE5FB"/>
<path d="M44.8442 72.2055H41.8871V63.5166H52.6166V71.2166L48.7304 77.2833H41.7172L44.8442 72.211V72.2055Z" fill="#4FE5FB"/>
<path d="M62.7513 72.2056L55.738 67.3667V36.2278L62.7513 31.3889H76.0131L83.0264 36.2278V67.3667L76.0131 72.2056H62.7513ZM72.3762 64.2722V39.3111L70.518 38.0889H68.235L66.3769 39.3111V64.2722L68.235 65.4945H70.518L72.3762 64.2722Z" fill="#4FE5FB"/>
<path d="M94.2544 72.2056L87.2411 67.3667V36.2278L94.2544 31.3889H107.516L114.529 36.2278V67.3667L107.516 72.2056H94.2544ZM103.885 64.2722V39.3111L102.027 38.0889H99.7438L97.8857 39.3111V64.2722L99.7438 65.4945H102.027L103.885 64.2722Z" fill="#4FE5FB"/>
<path d="M125.758 72.2056L118.744 67.3667V36.2278L125.758 31.3889H139.019L146.033 36.2278V67.3667L139.019 72.2056H125.758ZM135.388 64.2722V39.3111L133.53 38.0889H131.247L129.389 39.3111V64.2722L131.247 65.4945H133.53L135.388 64.2722Z" fill="#4FE5FB"/>
</g>
<g opacity="0.9">
<path d="M42.5385 4.39444H38.8279V0H52.7525V4.39444H49.0419V26.75H42.5442V4.39444H42.5385Z" fill="white"/>
<path d="M71.2034 3.17222V23.5778L66.9264 26.75H58.5705L54.2934 23.5778V3.17222L58.5705 0H66.9264L71.2034 3.17222ZM63.5727 4.39444H61.9242L60.7912 5.19444V21.55L61.9242 22.35H63.5727L64.7057 21.55V5.2L63.5727 4.4V4.39444Z" fill="white"/>
<path d="M76.4663 4.39444H72.7557V0H86.6803V4.39444H82.9697V26.75H76.4719V4.39444H76.4663Z" fill="white"/>
<path d="M90.1812 0H100.186L104.519 26.75H97.659L96.9396 20.2889H93.0704L92.3509 26.75H85.8022L90.1812 0ZM93.5293 16.3167H96.5204L95.4384 6.99444V4.77778H94.5603V6.99444L93.5293 16.3167Z" fill="white"/>
<path d="M106.213 0H112.711V22.3556H118.178V26.75H106.213V0Z" fill="white"/>
</g>
</g>
<defs>
<clipPath id="clip0_47_6195">
<rect width="157" height="100" fill="white"/>
</clipPath>
</defs>
</svg>
